<?xml version="1.0" standalone="no"?>
 <!DOCTYPE svg PUBLIC "-//W3C//DTD SVG 1.1//EN" 
 "http://www.w3.org/Graphics/SVG/1.1/DTD/svg11.dtd"> 
<svg
  xmlns:svg="http://www.w3.org/2000/svg"
  xmlns="http://www.w3.org/2000/svg"
  xmlns:xlink="http://www.w3.org/1999/xlink"
  version="1.1"
  width="297.0022mm" height="210.0072mm" viewBox="0.0000 0.0000 297.0022 210.0072">
<title>SVG Image created as working-B_Fab.svg date 2023/07/23 23:34:03 </title>
  <desc>Image generated by PCBNEW </desc>
<g style="fill:#000000; fill-opacity:1.0000;stroke:#000000; stroke-opacity:1.0000;
stroke-linecap:round; stroke-linejoin:round;"
 transform="translate(0 0) scale(1 1)">
</g>
<g style="fill:#000000; fill-opacity:0.0; 
stroke:#000000; stroke-width:0.0000; stroke-opacity:1; 
stroke-linecap:round; stroke-linejoin:round;">
</g>
<g style="fill:#000000; fill-opacity:0.0; 
stroke:#000000; stroke-width:0.0212; stroke-opacity:1; 
stroke-linecap:round; stroke-linejoin:round;">
</g>
<g style="fill:#000000; fill-opacity:0.0; 
stroke:#000000; stroke-width:0.1500; stroke-opacity:1; 
stroke-linecap:round; stroke-linejoin:round;">
<path d="M177.0022 166.0072
L285.0022 166.0072
L285.0022 198.0072
L177.0022 198.0072
L177.0022 166.0072
" />
</g>
<g style="fill:#000000; fill-opacity:0.0; 
stroke:#000000; stroke-width:0.0212; stroke-opacity:1; 
stroke-linecap:round; stroke-linejoin:round;">
</g>
<g style="fill:#000000; fill-opacity:0.0; 
stroke:#000000; stroke-width:0.1500; stroke-opacity:1; 
stroke-linecap:round; stroke-linejoin:round;">
<path d="M10.0000 10.0000
L287.0022 10.0000
L287.0022 200.0072
L10.0000 200.0072
L10.0000 10.0000
" />
</g>
<g style="fill:#000000; fill-opacity:0.0; 
stroke:#000000; stroke-width:0.0212; stroke-opacity:1; 
stroke-linecap:round; stroke-linejoin:round;">
</g>
<g style="fill:#000000; fill-opacity:0.0; 
stroke:#000000; stroke-width:0.1500; stroke-opacity:1; 
stroke-linecap:round; stroke-linejoin:round;">
<path d="M12.0000 12.0000
L285.0022 12.0000
L285.0022 198.0072
L12.0000 198.0072
L12.0000 12.0000
" />
</g>
<g style="fill:#000000; fill-opacity:0.0; 
stroke:#000000; stroke-width:0.0212; stroke-opacity:1; 
stroke-linecap:round; stroke-linejoin:round;">
</g>
<g style="fill:#000000; fill-opacity:0.0; 
stroke:#000000; stroke-width:0.1500; stroke-opacity:1; 
stroke-linecap:round; stroke-linejoin:round;">
<path d="M60.0000 12.0000
L60.0000 10.0000
" />
</g>
<g style="fill:#000000; fill-opacity:0.0; 
stroke:#000000; stroke-width:0.0212; stroke-opacity:1; 
stroke-linecap:round; stroke-linejoin:round;">
</g>
<g style="fill:#000000; fill-opacity:0.0; 
stroke:#000000; stroke-width:0.1500; stroke-opacity:1; 
stroke-linecap:round; stroke-linejoin:round;">
<path d="M110.0000 12.0000
L110.0000 10.0000
" />
</g>
<g style="fill:#000000; fill-opacity:0.0; 
stroke:#000000; stroke-width:0.0212; stroke-opacity:1; 
stroke-linecap:round; stroke-linejoin:round;">
</g>
<g style="fill:#000000; fill-opacity:0.0; 
stroke:#000000; stroke-width:0.1500; stroke-opacity:1; 
stroke-linecap:round; stroke-linejoin:round;">
<path d="M160.0000 12.0000
L160.0000 10.0000
" />
</g>
<g style="fill:#000000; fill-opacity:0.0; 
stroke:#000000; stroke-width:0.0212; stroke-opacity:1; 
stroke-linecap:round; stroke-linejoin:round;">
</g>
<g style="fill:#000000; fill-opacity:0.0; 
stroke:#000000; stroke-width:0.1500; stroke-opacity:1; 
stroke-linecap:round; stroke-linejoin:round;">
<path d="M210.0000 12.0000
L210.0000 10.0000
" />
</g>
<g style="fill:#000000; fill-opacity:0.0; 
stroke:#000000; stroke-width:0.0212; stroke-opacity:1; 
stroke-linecap:round; stroke-linejoin:round;">
</g>
<g style="fill:#000000; fill-opacity:0.0; 
stroke:#000000; stroke-width:0.1500; stroke-opacity:1; 
stroke-linecap:round; stroke-linejoin:round;">
<path d="M260.0000 12.0000
L260.0000 10.0000
" />
</g>
<g style="fill:#000000; fill-opacity:0.0; 
stroke:#000000; stroke-width:0.0212; stroke-opacity:1; 
stroke-linecap:round; stroke-linejoin:round;">
</g>
<g style="fill:#000000; fill-opacity:0.0; 
stroke:#000000; stroke-width:0.1500; stroke-opacity:1; 
stroke-linecap:round; stroke-linejoin:round;">
<text x="35.0000" y="11.6500"
textLength="1.3531" font-size="1.7333" lengthAdjust="spacingAndGlyphs"
text-anchor="start" opacity="0">1</text>
<g class="stroked-text"><desc>1</desc>
<path d="M35.9905 11.6014
L35.2476 11.6014
" />
<path d="M35.6190 11.6014
L35.6190 10.3014
" />
<path d="M35.6190 10.3014
L35.4952 10.4871
" />
<path d="M35.4952 10.4871
L35.3714 10.6109
" />
<path d="M35.3714 10.6109
L35.2476 10.6728
" />
</g></g>
<g style="fill:#000000; fill-opacity:0.0; 
stroke:#000000; stroke-width:0.0212; stroke-opacity:1; 
stroke-linecap:round; stroke-linejoin:round;">
</g>
<g style="fill:#000000; fill-opacity:0.0; 
stroke:#000000; stroke-width:0.1500; stroke-opacity:1; 
stroke-linecap:round; stroke-linejoin:round;">
<text x="85.0000" y="11.6500"
textLength="1.3531" font-size="1.7333" lengthAdjust="spacingAndGlyphs"
text-anchor="start" opacity="0">2</text>
<g class="stroked-text"><desc>2</desc>
<path d="M85.2476 10.4252
L85.3095 10.3633
" />
<path d="M85.3095 10.3633
L85.4333 10.3014
" />
<path d="M85.4333 10.3014
L85.7429 10.3014
" />
<path d="M85.7429 10.3014
L85.8667 10.3633
" />
<path d="M85.8667 10.3633
L85.9286 10.4252
" />
<path d="M85.9286 10.4252
L85.9905 10.5490
" />
<path d="M85.9905 10.5490
L85.9905 10.6728
" />
<path d="M85.9905 10.6728
L85.9286 10.8585
" />
<path d="M85.9286 10.8585
L85.1857 11.6014
" />
<path d="M85.1857 11.6014
L85.9905 11.6014
" />
</g></g>
<g style="fill:#000000; fill-opacity:0.0; 
stroke:#000000; stroke-width:0.0212; stroke-opacity:1; 
stroke-linecap:round; stroke-linejoin:round;">
</g>
<g style="fill:#000000; fill-opacity:0.0; 
stroke:#000000; stroke-width:0.1500; stroke-opacity:1; 
stroke-linecap:round; stroke-linejoin:round;">
<text x="135.0000" y="11.6500"
textLength="1.3531" font-size="1.7333" lengthAdjust="spacingAndGlyphs"
text-anchor="start" opacity="0">3</text>
<g class="stroked-text"><desc>3</desc>
<path d="M135.1857 10.3014
L135.9905 10.3014
" />
<path d="M135.9905 10.3014
L135.5571 10.7966
" />
<path d="M135.5571 10.7966
L135.7429 10.7966
" />
<path d="M135.7429 10.7966
L135.8667 10.8585
" />
<path d="M135.8667 10.8585
L135.9286 10.9205
" />
<path d="M135.9286 10.9205
L135.9905 11.0443
" />
<path d="M135.9905 11.0443
L135.9905 11.3538
" />
<path d="M135.9905 11.3538
L135.9286 11.4776
" />
<path d="M135.9286 11.4776
L135.8667 11.5395
" />
<path d="M135.8667 11.5395
L135.7429 11.6014
" />
<path d="M135.7429 11.6014
L135.3714 11.6014
" />
<path d="M135.3714 11.6014
L135.2476 11.5395
" />
<path d="M135.2476 11.5395
L135.1857 11.4776
" />
</g></g>
<g style="fill:#000000; fill-opacity:0.0; 
stroke:#000000; stroke-width:0.0212; stroke-opacity:1; 
stroke-linecap:round; stroke-linejoin:round;">
</g>
<g style="fill:#000000; fill-opacity:0.0; 
stroke:#000000; stroke-width:0.1500; stroke-opacity:1; 
stroke-linecap:round; stroke-linejoin:round;">
<text x="185.0000" y="11.6500"
textLength="1.3531" font-size="1.7333" lengthAdjust="spacingAndGlyphs"
text-anchor="start" opacity="0">4</text>
<g class="stroked-text"><desc>4</desc>
<path d="M185.8667 10.7347
L185.8667 11.6014
" />
<path d="M185.5571 10.2395
L185.2476 11.1681
" />
<path d="M185.2476 11.1681
L186.0524 11.1681
" />
</g></g>
<g style="fill:#000000; fill-opacity:0.0; 
stroke:#000000; stroke-width:0.0212; stroke-opacity:1; 
stroke-linecap:round; stroke-linejoin:round;">
</g>
<g style="fill:#000000; fill-opacity:0.0; 
stroke:#000000; stroke-width:0.1500; stroke-opacity:1; 
stroke-linecap:round; stroke-linejoin:round;">
<text x="235.0000" y="11.6500"
textLength="1.3531" font-size="1.7333" lengthAdjust="spacingAndGlyphs"
text-anchor="start" opacity="0">5</text>
<g class="stroked-text"><desc>5</desc>
<path d="M235.9286 10.3014
L235.3095 10.3014
" />
<path d="M235.3095 10.3014
L235.2476 10.9205
" />
<path d="M235.2476 10.9205
L235.3095 10.8585
" />
<path d="M235.3095 10.8585
L235.4333 10.7966
" />
<path d="M235.4333 10.7966
L235.7429 10.7966
" />
<path d="M235.7429 10.7966
L235.8667 10.8585
" />
<path d="M235.8667 10.8585
L235.9286 10.9205
" />
<path d="M235.9286 10.9205
L235.9905 11.0443
" />
<path d="M235.9905 11.0443
L235.9905 11.3538
" />
<path d="M235.9905 11.3538
L235.9286 11.4776
" />
<path d="M235.9286 11.4776
L235.8667 11.5395
" />
<path d="M235.8667 11.5395
L235.7429 11.6014
" />
<path d="M235.7429 11.6014
L235.4333 11.6014
" />
<path d="M235.4333 11.6014
L235.3095 11.5395
" />
<path d="M235.3095 11.5395
L235.2476 11.4776
" />
</g></g>
<g style="fill:#000000; fill-opacity:0.0; 
stroke:#000000; stroke-width:0.0212; stroke-opacity:1; 
stroke-linecap:round; stroke-linejoin:round;">
</g>
<g style="fill:#000000; fill-opacity:0.0; 
stroke:#000000; stroke-width:0.1500; stroke-opacity:1; 
stroke-linecap:round; stroke-linejoin:round;">
<text x="285.0000" y="11.6500"
textLength="1.3531" font-size="1.7333" lengthAdjust="spacingAndGlyphs"
text-anchor="start" opacity="0">6</text>
<g class="stroked-text"><desc>6</desc>
<path d="M285.8667 10.3014
L285.6190 10.3014
" />
<path d="M285.6190 10.3014
L285.4952 10.3633
" />
<path d="M285.4952 10.3633
L285.4333 10.4252
" />
<path d="M285.4333 10.4252
L285.3095 10.6109
" />
<path d="M285.3095 10.6109
L285.2476 10.8585
" />
<path d="M285.2476 10.8585
L285.2476 11.3538
" />
<path d="M285.2476 11.3538
L285.3095 11.4776
" />
<path d="M285.3095 11.4776
L285.3714 11.5395
" />
<path d="M285.3714 11.5395
L285.4952 11.6014
" />
<path d="M285.4952 11.6014
L285.7429 11.6014
" />
<path d="M285.7429 11.6014
L285.8667 11.5395
" />
<path d="M285.8667 11.5395
L285.9286 11.4776
" />
<path d="M285.9286 11.4776
L285.9905 11.3538
" />
<path d="M285.9905 11.3538
L285.9905 11.0443
" />
<path d="M285.9905 11.0443
L285.9286 10.9205
" />
<path d="M285.9286 10.9205
L285.8667 10.8585
" />
<path d="M285.8667 10.8585
L285.7429 10.7966
" />
<path d="M285.7429 10.7966
L285.4952 10.7966
" />
<path d="M285.4952 10.7966
L285.3714 10.8585
" />
<path d="M285.3714 10.8585
L285.3095 10.9205
" />
<path d="M285.3095 10.9205
L285.2476 11.0443
" />
</g></g>
<g style="fill:#000000; fill-opacity:0.0; 
stroke:#000000; stroke-width:0.0212; stroke-opacity:1; 
stroke-linecap:round; stroke-linejoin:round;">
</g>
<g style="fill:#000000; fill-opacity:0.0; 
stroke:#000000; stroke-width:0.1500; stroke-opacity:1; 
stroke-linecap:round; stroke-linejoin:round;">
<path d="M60.0000 198.0072
L60.0000 200.0072
" />
</g>
<g style="fill:#000000; fill-opacity:0.0; 
stroke:#000000; stroke-width:0.0212; stroke-opacity:1; 
stroke-linecap:round; stroke-linejoin:round;">
</g>
<g style="fill:#000000; fill-opacity:0.0; 
stroke:#000000; stroke-width:0.1500; stroke-opacity:1; 
stroke-linecap:round; stroke-linejoin:round;">
<path d="M110.0000 198.0072
L110.0000 200.0072
" />
</g>
<g style="fill:#000000; fill-opacity:0.0; 
stroke:#000000; stroke-width:0.0212; stroke-opacity:1; 
stroke-linecap:round; stroke-linejoin:round;">
</g>
<g style="fill:#000000; fill-opacity:0.0; 
stroke:#000000; stroke-width:0.1500; stroke-opacity:1; 
stroke-linecap:round; stroke-linejoin:round;">
<path d="M160.0000 198.0072
L160.0000 200.0072
" />
</g>
<g style="fill:#000000; fill-opacity:0.0; 
stroke:#000000; stroke-width:0.0212; stroke-opacity:1; 
stroke-linecap:round; stroke-linejoin:round;">
</g>
<g style="fill:#000000; fill-opacity:0.0; 
stroke:#000000; stroke-width:0.1500; stroke-opacity:1; 
stroke-linecap:round; stroke-linejoin:round;">
<path d="M210.0000 198.0072
L210.0000 200.0072
" />
</g>
<g style="fill:#000000; fill-opacity:0.0; 
stroke:#000000; stroke-width:0.0212; stroke-opacity:1; 
stroke-linecap:round; stroke-linejoin:round;">
</g>
<g style="fill:#000000; fill-opacity:0.0; 
stroke:#000000; stroke-width:0.1500; stroke-opacity:1; 
stroke-linecap:round; stroke-linejoin:round;">
<path d="M260.0000 198.0072
L260.0000 200.0072
" />
</g>
<g style="fill:#000000; fill-opacity:0.0; 
stroke:#000000; stroke-width:0.0212; stroke-opacity:1; 
stroke-linecap:round; stroke-linejoin:round;">
</g>
<g style="fill:#000000; fill-opacity:0.0; 
stroke:#000000; stroke-width:0.1500; stroke-opacity:1; 
stroke-linecap:round; stroke-linejoin:round;">
<text x="35.0000" y="199.6572"
textLength="1.3531" font-size="1.7333" lengthAdjust="spacingAndGlyphs"
text-anchor="start" opacity="0">1</text>
<g class="stroked-text"><desc>1</desc>
<path d="M35.9905 199.6086
L35.2476 199.6086
" />
<path d="M35.6190 199.6086
L35.6190 198.3086
" />
<path d="M35.6190 198.3086
L35.4952 198.4943
" />
<path d="M35.4952 198.4943
L35.3714 198.6181
" />
<path d="M35.3714 198.6181
L35.2476 198.6800
" />
</g></g>
<g style="fill:#000000; fill-opacity:0.0; 
stroke:#000000; stroke-width:0.0212; stroke-opacity:1; 
stroke-linecap:round; stroke-linejoin:round;">
</g>
<g style="fill:#000000; fill-opacity:0.0; 
stroke:#000000; stroke-width:0.1500; stroke-opacity:1; 
stroke-linecap:round; stroke-linejoin:round;">
<text x="85.0000" y="199.6572"
textLength="1.3531" font-size="1.7333" lengthAdjust="spacingAndGlyphs"
text-anchor="start" opacity="0">2</text>
<g class="stroked-text"><desc>2</desc>
<path d="M85.2476 198.4324
L85.3095 198.3705
" />
<path d="M85.3095 198.3705
L85.4333 198.3086
" />
<path d="M85.4333 198.3086
L85.7429 198.3086
" />
<path d="M85.7429 198.3086
L85.8667 198.3705
" />
<path d="M85.8667 198.3705
L85.9286 198.4324
" />
<path d="M85.9286 198.4324
L85.9905 198.5562
" />
<path d="M85.9905 198.5562
L85.9905 198.6800
" />
<path d="M85.9905 198.6800
L85.9286 198.8657
" />
<path d="M85.9286 198.8657
L85.1857 199.6086
" />
<path d="M85.1857 199.6086
L85.9905 199.6086
" />
</g></g>
<g style="fill:#000000; fill-opacity:0.0; 
stroke:#000000; stroke-width:0.0212; stroke-opacity:1; 
stroke-linecap:round; stroke-linejoin:round;">
</g>
<g style="fill:#000000; fill-opacity:0.0; 
stroke:#000000; stroke-width:0.1500; stroke-opacity:1; 
stroke-linecap:round; stroke-linejoin:round;">
<text x="135.0000" y="199.6572"
textLength="1.3531" font-size="1.7333" lengthAdjust="spacingAndGlyphs"
text-anchor="start" opacity="0">3</text>
<g class="stroked-text"><desc>3</desc>
<path d="M135.1857 198.3086
L135.9905 198.3086
" />
<path d="M135.9905 198.3086
L135.5571 198.8038
" />
<path d="M135.5571 198.8038
L135.7429 198.8038
" />
<path d="M135.7429 198.8038
L135.8667 198.8657
" />
<path d="M135.8667 198.8657
L135.9286 198.9277
" />
<path d="M135.9286 198.9277
L135.9905 199.0515
" />
<path d="M135.9905 199.0515
L135.9905 199.3610
" />
<path d="M135.9905 199.3610
L135.9286 199.4848
" />
<path d="M135.9286 199.4848
L135.8667 199.5467
" />
<path d="M135.8667 199.5467
L135.7429 199.6086
" />
<path d="M135.7429 199.6086
L135.3714 199.6086
" />
<path d="M135.3714 199.6086
L135.2476 199.5467
" />
<path d="M135.2476 199.5467
L135.1857 199.4848
" />
</g></g>
<g style="fill:#000000; fill-opacity:0.0; 
stroke:#000000; stroke-width:0.0212; stroke-opacity:1; 
stroke-linecap:round; stroke-linejoin:round;">
</g>
<g style="fill:#000000; fill-opacity:0.0; 
stroke:#000000; stroke-width:0.1500; stroke-opacity:1; 
stroke-linecap:round; stroke-linejoin:round;">
<text x="185.0000" y="199.6572"
textLength="1.3531" font-size="1.7333" lengthAdjust="spacingAndGlyphs"
text-anchor="start" opacity="0">4</text>
<g class="stroked-text"><desc>4</desc>
<path d="M185.8667 198.7419
L185.8667 199.6086
" />
<path d="M185.5571 198.2467
L185.2476 199.1753
" />
<path d="M185.2476 199.1753
L186.0524 199.1753
" />
</g></g>
<g style="fill:#000000; fill-opacity:0.0; 
stroke:#000000; stroke-width:0.0212; stroke-opacity:1; 
stroke-linecap:round; stroke-linejoin:round;">
</g>
<g style="fill:#000000; fill-opacity:0.0; 
stroke:#000000; stroke-width:0.1500; stroke-opacity:1; 
stroke-linecap:round; stroke-linejoin:round;">
<text x="235.0000" y="199.6572"
textLength="1.3531" font-size="1.7333" lengthAdjust="spacingAndGlyphs"
text-anchor="start" opacity="0">5</text>
<g class="stroked-text"><desc>5</desc>
<path d="M235.9286 198.3086
L235.3095 198.3086
" />
<path d="M235.3095 198.3086
L235.2476 198.9277
" />
<path d="M235.2476 198.9277
L235.3095 198.8657
" />
<path d="M235.3095 198.8657
L235.4333 198.8038
" />
<path d="M235.4333 198.8038
L235.7429 198.8038
" />
<path d="M235.7429 198.8038
L235.8667 198.8657
" />
<path d="M235.8667 198.8657
L235.9286 198.9277
" />
<path d="M235.9286 198.9277
L235.9905 199.0515
" />
<path d="M235.9905 199.0515
L235.9905 199.3610
" />
<path d="M235.9905 199.3610
L235.9286 199.4848
" />
<path d="M235.9286 199.4848
L235.8667 199.5467
" />
<path d="M235.8667 199.5467
L235.7429 199.6086
" />
<path d="M235.7429 199.6086
L235.4333 199.6086
" />
<path d="M235.4333 199.6086
L235.3095 199.5467
" />
<path d="M235.3095 199.5467
L235.2476 199.4848
" />
</g></g>
<g style="fill:#000000; fill-opacity:0.0; 
stroke:#000000; stroke-width:0.0212; stroke-opacity:1; 
stroke-linecap:round; stroke-linejoin:round;">
</g>
<g style="fill:#000000; fill-opacity:0.0; 
stroke:#000000; stroke-width:0.1500; stroke-opacity:1; 
stroke-linecap:round; stroke-linejoin:round;">
<text x="285.0000" y="199.6572"
textLength="1.3531" font-size="1.7333" lengthAdjust="spacingAndGlyphs"
text-anchor="start" opacity="0">6</text>
<g class="stroked-text"><desc>6</desc>
<path d="M285.8667 198.3086
L285.6190 198.3086
" />
<path d="M285.6190 198.3086
L285.4952 198.3705
" />
<path d="M285.4952 198.3705
L285.4333 198.4324
" />
<path d="M285.4333 198.4324
L285.3095 198.6181
" />
<path d="M285.3095 198.6181
L285.2476 198.8657
" />
<path d="M285.2476 198.8657
L285.2476 199.3610
" />
<path d="M285.2476 199.3610
L285.3095 199.4848
" />
<path d="M285.3095 199.4848
L285.3714 199.5467
" />
<path d="M285.3714 199.5467
L285.4952 199.6086
" />
<path d="M285.4952 199.6086
L285.7429 199.6086
" />
<path d="M285.7429 199.6086
L285.8667 199.5467
" />
<path d="M285.8667 199.5467
L285.9286 199.4848
" />
<path d="M285.9286 199.4848
L285.9905 199.3610
" />
<path d="M285.9905 199.3610
L285.9905 199.0515
" />
<path d="M285.9905 199.0515
L285.9286 198.9277
" />
<path d="M285.9286 198.9277
L285.8667 198.8657
" />
<path d="M285.8667 198.8657
L285.7429 198.8038
" />
<path d="M285.7429 198.8038
L285.4952 198.8038
" />
<path d="M285.4952 198.8038
L285.3714 198.8657
" />
<path d="M285.3714 198.8657
L285.3095 198.9277
" />
<path d="M285.3095 198.9277
L285.2476 199.0515
" />
</g></g>
<g style="fill:#000000; fill-opacity:0.0; 
stroke:#000000; stroke-width:0.0212; stroke-opacity:1; 
stroke-linecap:round; stroke-linejoin:round;">
</g>
<g style="fill:#000000; fill-opacity:0.0; 
stroke:#000000; stroke-width:0.1500; stroke-opacity:1; 
stroke-linecap:round; stroke-linejoin:round;">
<path d="M10.0000 60.0000
L12.0000 60.0000
" />
</g>
<g style="fill:#000000; fill-opacity:0.0; 
stroke:#000000; stroke-width:0.0212; stroke-opacity:1; 
stroke-linecap:round; stroke-linejoin:round;">
</g>
<g style="fill:#000000; fill-opacity:0.0; 
stroke:#000000; stroke-width:0.1500; stroke-opacity:1; 
stroke-linecap:round; stroke-linejoin:round;">
<path d="M10.0000 110.0000
L12.0000 110.0000
" />
</g>
<g style="fill:#000000; fill-opacity:0.0; 
stroke:#000000; stroke-width:0.0212; stroke-opacity:1; 
stroke-linecap:round; stroke-linejoin:round;">
</g>
<g style="fill:#000000; fill-opacity:0.0; 
stroke:#000000; stroke-width:0.1500; stroke-opacity:1; 
stroke-linecap:round; stroke-linejoin:round;">
<path d="M10.0000 160.0000
L12.0000 160.0000
" />
</g>
<g style="fill:#000000; fill-opacity:0.0; 
stroke:#000000; stroke-width:0.0212; stroke-opacity:1; 
stroke-linecap:round; stroke-linejoin:round;">
</g>
<g style="fill:#000000; fill-opacity:0.0; 
stroke:#000000; stroke-width:0.1500; stroke-opacity:1; 
stroke-linecap:round; stroke-linejoin:round;">
<text x="11.0000" y="35.6500"
textLength="1.2293" font-size="1.7333" lengthAdjust="spacingAndGlyphs"
text-anchor="middle" opacity="0">A</text>
<g class="stroked-text"><desc>A</desc>
<path d="M10.6905 35.2300
L11.3095 35.2300
" />
<path d="M10.5667 35.6014
L11.0000 34.3014
" />
<path d="M11.0000 34.3014
L11.4333 35.6014
" />
</g></g>
<g style="fill:#000000; fill-opacity:0.0; 
stroke:#000000; stroke-width:0.0212; stroke-opacity:1; 
stroke-linecap:round; stroke-linejoin:round;">
</g>
<g style="fill:#000000; fill-opacity:0.0; 
stroke:#000000; stroke-width:0.1500; stroke-opacity:1; 
stroke-linecap:round; stroke-linejoin:round;">
<text x="11.0000" y="85.6500"
textLength="1.4150" font-size="1.7333" lengthAdjust="spacingAndGlyphs"
text-anchor="middle" opacity="0">B</text>
<g class="stroked-text"><desc>B</desc>
<path d="M11.0929 84.9205
L11.2786 84.9824
" />
<path d="M11.2786 84.9824
L11.3405 85.0443
" />
<path d="M11.3405 85.0443
L11.4024 85.1681
" />
<path d="M11.4024 85.1681
L11.4024 85.3538
" />
<path d="M11.4024 85.3538
L11.3405 85.4776
" />
<path d="M11.3405 85.4776
L11.2786 85.5395
" />
<path d="M11.2786 85.5395
L11.1548 85.6014
" />
<path d="M11.1548 85.6014
L10.6595 85.6014
" />
<path d="M10.6595 85.6014
L10.6595 84.3014
" />
<path d="M10.6595 84.3014
L11.0929 84.3014
" />
<path d="M11.0929 84.3014
L11.2167 84.3633
" />
<path d="M11.2167 84.3633
L11.2786 84.4252
" />
<path d="M11.2786 84.4252
L11.3405 84.5490
" />
<path d="M11.3405 84.5490
L11.3405 84.6728
" />
<path d="M11.3405 84.6728
L11.2786 84.7966
" />
<path d="M11.2786 84.7966
L11.2167 84.8585
" />
<path d="M11.2167 84.8585
L11.0929 84.9205
" />
<path d="M11.0929 84.9205
L10.6595 84.9205
" />
</g></g>
<g style="fill:#000000; fill-opacity:0.0; 
stroke:#000000; stroke-width:0.0212; stroke-opacity:1; 
stroke-linecap:round; stroke-linejoin:round;">
</g>
<g style="fill:#000000; fill-opacity:0.0; 
stroke:#000000; stroke-width:0.1500; stroke-opacity:1; 
stroke-linecap:round; stroke-linejoin:round;">
<text x="11.0000" y="135.6500"
textLength="1.4150" font-size="1.7333" lengthAdjust="spacingAndGlyphs"
text-anchor="middle" opacity="0">C</text>
<g class="stroked-text"><desc>C</desc>
<path d="M11.4024 135.4776
L11.3405 135.5395
" />
<path d="M11.3405 135.5395
L11.1548 135.6014
" />
<path d="M11.1548 135.6014
L11.0310 135.6014
" />
<path d="M11.0310 135.6014
L10.8452 135.5395
" />
<path d="M10.8452 135.5395
L10.7214 135.4157
" />
<path d="M10.7214 135.4157
L10.6595 135.2919
" />
<path d="M10.6595 135.2919
L10.5976 135.0443
" />
<path d="M10.5976 135.0443
L10.5976 134.8585
" />
<path d="M10.5976 134.8585
L10.6595 134.6109
" />
<path d="M10.6595 134.6109
L10.7214 134.4871
" />
<path d="M10.7214 134.4871
L10.8452 134.3633
" />
<path d="M10.8452 134.3633
L11.0310 134.3014
" />
<path d="M11.0310 134.3014
L11.1548 134.3014
" />
<path d="M11.1548 134.3014
L11.3405 134.3633
" />
<path d="M11.3405 134.3633
L11.4024 134.4252
" />
</g></g>
<g style="fill:#000000; fill-opacity:0.0; 
stroke:#000000; stroke-width:0.0212; stroke-opacity:1; 
stroke-linecap:round; stroke-linejoin:round;">
</g>
<g style="fill:#000000; fill-opacity:0.0; 
stroke:#000000; stroke-width:0.1500; stroke-opacity:1; 
stroke-linecap:round; stroke-linejoin:round;">
<text x="11.0000" y="185.6500"
textLength="1.4150" font-size="1.7333" lengthAdjust="spacingAndGlyphs"
text-anchor="middle" opacity="0">D</text>
<g class="stroked-text"><desc>D</desc>
<path d="M10.6595 185.6014
L10.6595 184.3014
" />
<path d="M10.6595 184.3014
L10.9690 184.3014
" />
<path d="M10.9690 184.3014
L11.1548 184.3633
" />
<path d="M11.1548 184.3633
L11.2786 184.4871
" />
<path d="M11.2786 184.4871
L11.3405 184.6109
" />
<path d="M11.3405 184.6109
L11.4024 184.8585
" />
<path d="M11.4024 184.8585
L11.4024 185.0443
" />
<path d="M11.4024 185.0443
L11.3405 185.2919
" />
<path d="M11.3405 185.2919
L11.2786 185.4157
" />
<path d="M11.2786 185.4157
L11.1548 185.5395
" />
<path d="M11.1548 185.5395
L10.9690 185.6014
" />
<path d="M10.9690 185.6014
L10.6595 185.6014
" />
</g></g>
<g style="fill:#000000; fill-opacity:0.0; 
stroke:#000000; stroke-width:0.0212; stroke-opacity:1; 
stroke-linecap:round; stroke-linejoin:round;">
</g>
<g style="fill:#000000; fill-opacity:0.0; 
stroke:#000000; stroke-width:0.1500; stroke-opacity:1; 
stroke-linecap:round; stroke-linejoin:round;">
<path d="M287.0022 60.0000
L285.0022 60.0000
" />
</g>
<g style="fill:#000000; fill-opacity:0.0; 
stroke:#000000; stroke-width:0.0212; stroke-opacity:1; 
stroke-linecap:round; stroke-linejoin:round;">
</g>
<g style="fill:#000000; fill-opacity:0.0; 
stroke:#000000; stroke-width:0.1500; stroke-opacity:1; 
stroke-linecap:round; stroke-linejoin:round;">
<path d="M287.0022 110.0000
L285.0022 110.0000
" />
</g>
<g style="fill:#000000; fill-opacity:0.0; 
stroke:#000000; stroke-width:0.0212; stroke-opacity:1; 
stroke-linecap:round; stroke-linejoin:round;">
</g>
<g style="fill:#000000; fill-opacity:0.0; 
stroke:#000000; stroke-width:0.1500; stroke-opacity:1; 
stroke-linecap:round; stroke-linejoin:round;">
<path d="M287.0022 160.0000
L285.0022 160.0000
" />
</g>
<g style="fill:#000000; fill-opacity:0.0; 
stroke:#000000; stroke-width:0.0212; stroke-opacity:1; 
stroke-linecap:round; stroke-linejoin:round;">
</g>
<g style="fill:#000000; fill-opacity:0.0; 
stroke:#000000; stroke-width:0.1500; stroke-opacity:1; 
stroke-linecap:round; stroke-linejoin:round;">
<text x="286.0022" y="35.6500"
textLength="1.2293" font-size="1.7333" lengthAdjust="spacingAndGlyphs"
text-anchor="middle" opacity="0">A</text>
<g class="stroked-text"><desc>A</desc>
<path d="M285.6927 35.2300
L286.3117 35.2300
" />
<path d="M285.5689 35.6014
L286.0022 34.3014
" />
<path d="M286.0022 34.3014
L286.4355 35.6014
" />
</g></g>
<g style="fill:#000000; fill-opacity:0.0; 
stroke:#000000; stroke-width:0.0212; stroke-opacity:1; 
stroke-linecap:round; stroke-linejoin:round;">
</g>
<g style="fill:#000000; fill-opacity:0.0; 
stroke:#000000; stroke-width:0.1500; stroke-opacity:1; 
stroke-linecap:round; stroke-linejoin:round;">
<text x="286.0022" y="85.6500"
textLength="1.4150" font-size="1.7333" lengthAdjust="spacingAndGlyphs"
text-anchor="middle" opacity="0">B</text>
<g class="stroked-text"><desc>B</desc>
<path d="M286.0951 84.9205
L286.2808 84.9824
" />
<path d="M286.2808 84.9824
L286.3427 85.0443
" />
<path d="M286.3427 85.0443
L286.4046 85.1681
" />
<path d="M286.4046 85.1681
L286.4046 85.3538
" />
<path d="M286.4046 85.3538
L286.3427 85.4776
" />
<path d="M286.3427 85.4776
L286.2808 85.5395
" />
<path d="M286.2808 85.5395
L286.1570 85.6014
" />
<path d="M286.1570 85.6014
L285.6617 85.6014
" />
<path d="M285.6617 85.6014
L285.6617 84.3014
" />
<path d="M285.6617 84.3014
L286.0951 84.3014
" />
<path d="M286.0951 84.3014
L286.2189 84.3633
" />
<path d="M286.2189 84.3633
L286.2808 84.4252
" />
<path d="M286.2808 84.4252
L286.3427 84.5490
" />
<path d="M286.3427 84.5490
L286.3427 84.6728
" />
<path d="M286.3427 84.6728
L286.2808 84.7966
" />
<path d="M286.2808 84.7966
L286.2189 84.8585
" />
<path d="M286.2189 84.8585
L286.0951 84.9205
" />
<path d="M286.0951 84.9205
L285.6617 84.9205
" />
</g></g>
<g style="fill:#000000; fill-opacity:0.0; 
stroke:#000000; stroke-width:0.0212; stroke-opacity:1; 
stroke-linecap:round; stroke-linejoin:round;">
</g>
<g style="fill:#000000; fill-opacity:0.0; 
stroke:#000000; stroke-width:0.1500; stroke-opacity:1; 
stroke-linecap:round; stroke-linejoin:round;">
<text x="286.0022" y="135.6500"
textLength="1.4150" font-size="1.7333" lengthAdjust="spacingAndGlyphs"
text-anchor="middle" opacity="0">C</text>
<g class="stroked-text"><desc>C</desc>
<path d="M286.4046 135.4776
L286.3427 135.5395
" />
<path d="M286.3427 135.5395
L286.1570 135.6014
" />
<path d="M286.1570 135.6014
L286.0332 135.6014
" />
<path d="M286.0332 135.6014
L285.8474 135.5395
" />
<path d="M285.8474 135.5395
L285.7236 135.4157
" />
<path d="M285.7236 135.4157
L285.6617 135.2919
" />
<path d="M285.6617 135.2919
L285.5998 135.0443
" />
<path d="M285.5998 135.0443
L285.5998 134.8585
" />
<path d="M285.5998 134.8585
L285.6617 134.6109
" />
<path d="M285.6617 134.6109
L285.7236 134.4871
" />
<path d="M285.7236 134.4871
L285.8474 134.3633
" />
<path d="M285.8474 134.3633
L286.0332 134.3014
" />
<path d="M286.0332 134.3014
L286.1570 134.3014
" />
<path d="M286.1570 134.3014
L286.3427 134.3633
" />
<path d="M286.3427 134.3633
L286.4046 134.4252
" />
</g></g>
<g style="fill:#000000; fill-opacity:0.0; 
stroke:#000000; stroke-width:0.0212; stroke-opacity:1; 
stroke-linecap:round; stroke-linejoin:round;">
</g>
<g style="fill:#000000; fill-opacity:0.0; 
stroke:#000000; stroke-width:0.1500; stroke-opacity:1; 
stroke-linecap:round; stroke-linejoin:round;">
<text x="286.0022" y="185.6500"
textLength="1.4150" font-size="1.7333" lengthAdjust="spacingAndGlyphs"
text-anchor="middle" opacity="0">D</text>
<g class="stroked-text"><desc>D</desc>
<path d="M285.6617 185.6014
L285.6617 184.3014
" />
<path d="M285.6617 184.3014
L285.9712 184.3014
" />
<path d="M285.9712 184.3014
L286.1570 184.3633
" />
<path d="M286.1570 184.3633
L286.2808 184.4871
" />
<path d="M286.2808 184.4871
L286.3427 184.6109
" />
<path d="M286.3427 184.6109
L286.4046 184.8585
" />
<path d="M286.4046 184.8585
L286.4046 185.0443
" />
<path d="M286.4046 185.0443
L286.3427 185.2919
" />
<path d="M286.3427 185.2919
L286.2808 185.4157
" />
<path d="M286.2808 185.4157
L286.1570 185.5395
" />
<path d="M286.1570 185.5395
L285.9712 185.6014
" />
<path d="M285.9712 185.6014
L285.6617 185.6014
" />
</g></g>
<g style="fill:#000000; fill-opacity:0.0; 
stroke:#000000; stroke-width:0.0212; stroke-opacity:1; 
stroke-linecap:round; stroke-linejoin:round;">
</g>
<g style="fill:#000000; fill-opacity:0.0; 
stroke:#000000; stroke-width:0.1500; stroke-opacity:1; 
stroke-linecap:round; stroke-linejoin:round;">
<text x="200.0022" y="193.8572"
textLength="6.9321" font-size="2.0000" lengthAdjust="spacingAndGlyphs"
text-anchor="start" opacity="0">Date: </text>
<g class="stroked-text"><desc>Date: </desc>
<path d="M200.3593 193.8011
L200.3593 192.3011
" />
<path d="M200.3593 192.3011
L200.7165 192.3011
" />
<path d="M200.7165 192.3011
L200.9308 192.3726
" />
<path d="M200.9308 192.3726
L201.0736 192.5154
" />
<path d="M201.0736 192.5154
L201.1451 192.6583
" />
<path d="M201.1451 192.6583
L201.2165 192.9440
" />
<path d="M201.2165 192.9440
L201.2165 193.1583
" />
<path d="M201.2165 193.1583
L201.1451 193.4440
" />
<path d="M201.1451 193.4440
L201.0736 193.5868
" />
<path d="M201.0736 193.5868
L200.9308 193.7297
" />
<path d="M200.9308 193.7297
L200.7165 193.8011
" />
<path d="M200.7165 193.8011
L200.3593 193.8011
" />
<path d="M202.5022 193.8011
L202.5022 193.0154
" />
<path d="M202.5022 193.0154
L202.4308 192.8726
" />
<path d="M202.4308 192.8726
L202.2879 192.8011
" />
<path d="M202.2879 192.8011
L202.0022 192.8011
" />
<path d="M202.0022 192.8011
L201.8593 192.8726
" />
<path d="M202.5022 193.7297
L202.3593 193.8011
" />
<path d="M202.3593 193.8011
L202.0022 193.8011
" />
<path d="M202.0022 193.8011
L201.8593 193.7297
" />
<path d="M201.8593 193.7297
L201.7879 193.5868
" />
<path d="M201.7879 193.5868
L201.7879 193.4440
" />
<path d="M201.7879 193.4440
L201.8593 193.3011
" />
<path d="M201.8593 193.3011
L202.0022 193.2297
" />
<path d="M202.0022 193.2297
L202.3593 193.2297
" />
<path d="M202.3593 193.2297
L202.5022 193.1583
" />
<path d="M203.0022 192.8011
L203.5736 192.8011
" />
<path d="M203.2165 192.3011
L203.2165 193.5868
" />
<path d="M203.2165 193.5868
L203.2879 193.7297
" />
<path d="M203.2879 193.7297
L203.4308 193.8011
" />
<path d="M203.4308 193.8011
L203.5736 193.8011
" />
<path d="M204.6451 193.7297
L204.5022 193.8011
" />
<path d="M204.5022 193.8011
L204.2165 193.8011
" />
<path d="M204.2165 193.8011
L204.0736 193.7297
" />
<path d="M204.0736 193.7297
L204.0022 193.5868
" />
<path d="M204.0022 193.5868
L204.0022 193.0154
" />
<path d="M204.0022 193.0154
L204.0736 192.8726
" />
<path d="M204.0736 192.8726
L204.2165 192.8011
" />
<path d="M204.2165 192.8011
L204.5022 192.8011
" />
<path d="M204.5022 192.8011
L204.6451 192.8726
" />
<path d="M204.6451 192.8726
L204.7165 193.0154
" />
<path d="M204.7165 193.0154
L204.7165 193.1583
" />
<path d="M204.7165 193.1583
L204.0022 193.3011
" />
<path d="M205.3593 193.6583
L205.4308 193.7297
" />
<path d="M205.4308 193.7297
L205.3593 193.8011
" />
<path d="M205.3593 193.8011
L205.2879 193.7297
" />
<path d="M205.2879 193.7297
L205.3593 193.6583
" />
<path d="M205.3593 193.6583
L205.3593 193.8011
" />
<path d="M205.3593 192.8726
L205.4308 192.9440
" />
<path d="M205.4308 192.9440
L205.3593 193.0154
" />
<path d="M205.3593 193.0154
L205.2879 192.9440
" />
<path d="M205.2879 192.9440
L205.3593 192.8726
" />
<path d="M205.3593 192.8726
L205.3593 193.0154
" />
</g></g>
<g style="fill:#000000; fill-opacity:0.0; 
stroke:#000000; stroke-width:0.0212; stroke-opacity:1; 
stroke-linecap:round; stroke-linejoin:round;">
</g>
<g style="fill:#000000; fill-opacity:0.0; 
stroke:#000000; stroke-width:0.1500; stroke-opacity:1; 
stroke-linecap:round; stroke-linejoin:round;">
<path d="M177.0022 194.5072
L285.0022 194.5072
" />
</g>
<g style="fill:#000000; fill-opacity:0.0; 
stroke:#000000; stroke-width:0.0212; stroke-opacity:1; 
stroke-linecap:round; stroke-linejoin:round;">
</g>
<g style="fill:#000000; fill-opacity:0.0; 
stroke:#000000; stroke-width:0.1500; stroke-opacity:1; 
stroke-linecap:round; stroke-linejoin:round;">
<text x="178.0022" y="196.6572"
textLength="31.2893" font-size="2.0000" lengthAdjust="spacingAndGlyphs"
text-anchor="start" opacity="0">KiCad E.D.A.  pcbnew 7.0.2</text>
<g class="stroked-text"><desc>KiCad E.D.A.  pcbnew 7.0.2</desc>
<path d="M178.3593 196.6011
L178.3593 195.1011
" />
<path d="M179.2165 196.6011
L178.5736 195.7440
" />
<path d="M179.2165 195.1011
L178.3593 195.9583
" />
<path d="M179.8593 196.6011
L179.8593 195.6011
" />
<path d="M179.8593 195.1011
L179.7879 195.1726
" />
<path d="M179.7879 195.1726
L179.8593 195.2440
" />
<path d="M179.8593 195.2440
L179.9308 195.1726
" />
<path d="M179.9308 195.1726
L179.8593 195.1011
" />
<path d="M179.8593 195.1011
L179.8593 195.2440
" />
<path d="M181.4308 196.4583
L181.3593 196.5297
" />
<path d="M181.3593 196.5297
L181.1451 196.6011
" />
<path d="M181.1451 196.6011
L181.0022 196.6011
" />
<path d="M181.0022 196.6011
L180.7879 196.5297
" />
<path d="M180.7879 196.5297
L180.6451 196.3868
" />
<path d="M180.6451 196.3868
L180.5736 196.2440
" />
<path d="M180.5736 196.2440
L180.5022 195.9583
" />
<path d="M180.5022 195.9583
L180.5022 195.7440
" />
<path d="M180.5022 195.7440
L180.5736 195.4583
" />
<path d="M180.5736 195.4583
L180.6451 195.3154
" />
<path d="M180.6451 195.3154
L180.7879 195.1726
" />
<path d="M180.7879 195.1726
L181.0022 195.1011
" />
<path d="M181.0022 195.1011
L181.1451 195.1011
" />
<path d="M181.1451 195.1011
L181.3593 195.1726
" />
<path d="M181.3593 195.1726
L181.4308 195.2440
" />
<path d="M182.7165 196.6011
L182.7165 195.8154
" />
<path d="M182.7165 195.8154
L182.6451 195.6726
" />
<path d="M182.6451 195.6726
L182.5022 195.6011
" />
<path d="M182.5022 195.6011
L182.2165 195.6011
" />
<path d="M182.2165 195.6011
L182.0736 195.6726
" />
<path d="M182.7165 196.5297
L182.5736 196.6011
" />
<path d="M182.5736 196.6011
L182.2165 196.6011
" />
<path d="M182.2165 196.6011
L182.0736 196.5297
" />
<path d="M182.0736 196.5297
L182.0022 196.3868
" />
<path d="M182.0022 196.3868
L182.0022 196.2440
" />
<path d="M182.0022 196.2440
L182.0736 196.1011
" />
<path d="M182.0736 196.1011
L182.2165 196.0297
" />
<path d="M182.2165 196.0297
L182.5736 196.0297
" />
<path d="M182.5736 196.0297
L182.7165 195.9583
" />
<path d="M184.0736 196.6011
L184.0736 195.1011
" />
<path d="M184.0736 196.5297
L183.9308 196.6011
" />
<path d="M183.9308 196.6011
L183.6451 196.6011
" />
<path d="M183.6451 196.6011
L183.5022 196.5297
" />
<path d="M183.5022 196.5297
L183.4308 196.4583
" />
<path d="M183.4308 196.4583
L183.3593 196.3154
" />
<path d="M183.3593 196.3154
L183.3593 195.8868
" />
<path d="M183.3593 195.8868
L183.4308 195.7440
" />
<path d="M183.4308 195.7440
L183.5022 195.6726
" />
<path d="M183.5022 195.6726
L183.6451 195.6011
" />
<path d="M183.6451 195.6011
L183.9308 195.6011
" />
<path d="M183.9308 195.6011
L184.0736 195.6726
" />
<path d="M185.9308 195.8154
L186.4308 195.8154
" />
<path d="M186.6451 196.6011
L185.9308 196.6011
" />
<path d="M185.9308 196.6011
L185.9308 195.1011
" />
<path d="M185.9308 195.1011
L186.6451 195.1011
" />
<path d="M187.2879 196.4583
L187.3593 196.5297
" />
<path d="M187.3593 196.5297
L187.2879 196.6011
" />
<path d="M187.2879 196.6011
L187.2165 196.5297
" />
<path d="M187.2165 196.5297
L187.2879 196.4583
" />
<path d="M187.2879 196.4583
L187.2879 196.6011
" />
<path d="M188.0022 196.6011
L188.0022 195.1011
" />
<path d="M188.0022 195.1011
L188.3593 195.1011
" />
<path d="M188.3593 195.1011
L188.5736 195.1726
" />
<path d="M188.5736 195.1726
L188.7165 195.3154
" />
<path d="M188.7165 195.3154
L188.7879 195.4583
" />
<path d="M188.7879 195.4583
L188.8593 195.7440
" />
<path d="M188.8593 195.7440
L188.8593 195.9583
" />
<path d="M188.8593 195.9583
L188.7879 196.2440
" />
<path d="M188.7879 196.2440
L188.7165 196.3868
" />
<path d="M188.7165 196.3868
L188.5736 196.5297
" />
<path d="M188.5736 196.5297
L188.3593 196.6011
" />
<path d="M188.3593 196.6011
L188.0022 196.6011
" />
<path d="M189.5022 196.4583
L189.5736 196.5297
" />
<path d="M189.5736 196.5297
L189.5022 196.6011
" />
<path d="M189.5022 196.6011
L189.4308 196.5297
" />
<path d="M189.4308 196.5297
L189.5022 196.4583
" />
<path d="M189.5022 196.4583
L189.5022 196.6011
" />
<path d="M190.1451 196.1726
L190.8593 196.1726
" />
<path d="M190.0022 196.6011
L190.5022 195.1011
" />
<path d="M190.5022 195.1011
L191.0022 196.6011
" />
<path d="M191.5022 196.4583
L191.5736 196.5297
" />
<path d="M191.5736 196.5297
L191.5022 196.6011
" />
<path d="M191.5022 196.6011
L191.4308 196.5297
" />
<path d="M191.4308 196.5297
L191.5022 196.4583
" />
<path d="M191.5022 196.4583
L191.5022 196.6011
" />
<path d="M194.5022 195.6011
L194.5022 197.1011
" />
<path d="M194.5022 195.6726
L194.6451 195.6011
" />
<path d="M194.6451 195.6011
L194.9308 195.6011
" />
<path d="M194.9308 195.6011
L195.0736 195.6726
" />
<path d="M195.0736 195.6726
L195.1451 195.7440
" />
<path d="M195.1451 195.7440
L195.2165 195.8868
" />
<path d="M195.2165 195.8868
L195.2165 196.3154
" />
<path d="M195.2165 196.3154
L195.1451 196.4583
" />
<path d="M195.1451 196.4583
L195.0736 196.5297
" />
<path d="M195.0736 196.5297
L194.9308 196.6011
" />
<path d="M194.9308 196.6011
L194.6451 196.6011
" />
<path d="M194.6451 196.6011
L194.5022 196.5297
" />
<path d="M196.5022 196.5297
L196.3593 196.6011
" />
<path d="M196.3593 196.6011
L196.0736 196.6011
" />
<path d="M196.0736 196.6011
L195.9308 196.5297
" />
<path d="M195.9308 196.5297
L195.8593 196.4583
" />
<path d="M195.8593 196.4583
L195.7879 196.3154
" />
<path d="M195.7879 196.3154
L195.7879 195.8868
" />
<path d="M195.7879 195.8868
L195.8593 195.7440
" />
<path d="M195.8593 195.7440
L195.9308 195.6726
" />
<path d="M195.9308 195.6726
L196.0736 195.6011
" />
<path d="M196.0736 195.6011
L196.3593 195.6011
" />
<path d="M196.3593 195.6011
L196.5022 195.6726
" />
<path d="M197.1451 196.6011
L197.1451 195.1011
" />
<path d="M197.1451 195.6726
L197.2879 195.6011
" />
<path d="M197.2879 195.6011
L197.5736 195.6011
" />
<path d="M197.5736 195.6011
L197.7165 195.6726
" />
<path d="M197.7165 195.6726
L197.7879 195.7440
" />
<path d="M197.7879 195.7440
L197.8593 195.8868
" />
<path d="M197.8593 195.8868
L197.8593 196.3154
" />
<path d="M197.8593 196.3154
L197.7879 196.4583
" />
<path d="M197.7879 196.4583
L197.7165 196.5297
" />
<path d="M197.7165 196.5297
L197.5736 196.6011
" />
<path d="M197.5736 196.6011
L197.2879 196.6011
" />
<path d="M197.2879 196.6011
L197.1451 196.5297
" />
<path d="M198.5022 195.6011
L198.5022 196.6011
" />
<path d="M198.5022 195.7440
L198.5736 195.6726
" />
<path d="M198.5736 195.6726
L198.7165 195.6011
" />
<path d="M198.7165 195.6011
L198.9308 195.6011
" />
<path d="M198.9308 195.6011
L199.0736 195.6726
" />
<path d="M199.0736 195.6726
L199.1451 195.8154
" />
<path d="M199.1451 195.8154
L199.1451 196.6011
" />
<path d="M200.4308 196.5297
L200.2879 196.6011
" />
<path d="M200.2879 196.6011
L200.0022 196.6011
" />
<path d="M200.0022 196.6011
L199.8593 196.5297
" />
<path d="M199.8593 196.5297
L199.7879 196.3868
" />
<path d="M199.7879 196.3868
L199.7879 195.8154
" />
<path d="M199.7879 195.8154
L199.8593 195.6726
" />
<path d="M199.8593 195.6726
L200.0022 195.6011
" />
<path d="M200.0022 195.6011
L200.2879 195.6011
" />
<path d="M200.2879 195.6011
L200.4308 195.6726
" />
<path d="M200.4308 195.6726
L200.5022 195.8154
" />
<path d="M200.5022 195.8154
L200.5022 195.9583
" />
<path d="M200.5022 195.9583
L199.7879 196.1011
" />
<path d="M201.0022 195.6011
L201.2879 196.6011
" />
<path d="M201.2879 196.6011
L201.5736 195.8868
" />
<path d="M201.5736 195.8868
L201.8593 196.6011
" />
<path d="M201.8593 196.6011
L202.1451 195.6011
" />
<path d="M203.7165 195.1011
L204.7165 195.1011
" />
<path d="M204.7165 195.1011
L204.0736 196.6011
" />
<path d="M205.2879 196.4583
L205.3593 196.5297
" />
<path d="M205.3593 196.5297
L205.2879 196.6011
" />
<path d="M205.2879 196.6011
L205.2165 196.5297
" />
<path d="M205.2165 196.5297
L205.2879 196.4583
" />
<path d="M205.2879 196.4583
L205.2879 196.6011
" />
<path d="M206.2879 195.1011
L206.4308 195.1011
" />
<path d="M206.4308 195.1011
L206.5736 195.1726
" />
<path d="M206.5736 195.1726
L206.6451 195.2440
" />
<path d="M206.6451 195.2440
L206.7165 195.3868
" />
<path d="M206.7165 195.3868
L206.7879 195.6726
" />
<path d="M206.7879 195.6726
L206.7879 196.0297
" />
<path d="M206.7879 196.0297
L206.7165 196.3154
" />
<path d="M206.7165 196.3154
L206.6451 196.4583
" />
<path d="M206.6451 196.4583
L206.5736 196.5297
" />
<path d="M206.5736 196.5297
L206.4308 196.6011
" />
<path d="M206.4308 196.6011
L206.2879 196.6011
" />
<path d="M206.2879 196.6011
L206.1451 196.5297
" />
<path d="M206.1451 196.5297
L206.0736 196.4583
" />
<path d="M206.0736 196.4583
L206.0022 196.3154
" />
<path d="M206.0022 196.3154
L205.9308 196.0297
" />
<path d="M205.9308 196.0297
L205.9308 195.6726
" />
<path d="M205.9308 195.6726
L206.0022 195.3868
" />
<path d="M206.0022 195.3868
L206.0736 195.2440
" />
<path d="M206.0736 195.2440
L206.1451 195.1726
" />
<path d="M206.1451 195.1726
L206.2879 195.1011
" />
<path d="M207.4308 196.4583
L207.5022 196.5297
" />
<path d="M207.5022 196.5297
L207.4308 196.6011
" />
<path d="M207.4308 196.6011
L207.3593 196.5297
" />
<path d="M207.3593 196.5297
L207.4308 196.4583
" />
<path d="M207.4308 196.4583
L207.4308 196.6011
" />
<path d="M208.0736 195.2440
L208.1451 195.1726
" />
<path d="M208.1451 195.1726
L208.2879 195.1011
" />
<path d="M208.2879 195.1011
L208.6451 195.1011
" />
<path d="M208.6451 195.1011
L208.7879 195.1726
" />
<path d="M208.7879 195.1726
L208.8593 195.2440
" />
<path d="M208.8593 195.2440
L208.9308 195.3868
" />
<path d="M208.9308 195.3868
L208.9308 195.5297
" />
<path d="M208.9308 195.5297
L208.8593 195.7440
" />
<path d="M208.8593 195.7440
L208.0022 196.6011
" />
<path d="M208.0022 196.6011
L208.9308 196.6011
" />
</g></g>
<g style="fill:#000000; fill-opacity:0.0; 
stroke:#000000; stroke-width:0.0212; stroke-opacity:1; 
stroke-linecap:round; stroke-linejoin:round;">
</g>
<g style="fill:#000000; fill-opacity:0.0; 
stroke:#000000; stroke-width:0.1500; stroke-opacity:1; 
stroke-linecap:round; stroke-linejoin:round;">
<path d="M177.0022 191.5072
L285.0022 191.5072
" />
</g>
<g style="fill:#000000; fill-opacity:0.0; 
stroke:#000000; stroke-width:0.0212; stroke-opacity:1; 
stroke-linecap:round; stroke-linejoin:round;">
</g>
<g style="fill:#000000; fill-opacity:0.0; 
stroke:#000000; stroke-width:0.3000; stroke-opacity:1; 
stroke-linecap:round; stroke-linejoin:round;">
<text x="263.0022" y="193.8572"
textLength="6.2357" font-size="2.0000" lengthAdjust="spacingAndGlyphs"
text-anchor="start" opacity="0">Rev: </text>
<g class="stroked-text"><desc>Rev: </desc>
<path d="M264.2165 193.8011
L263.7165 193.0868
" />
<path d="M263.3593 193.8011
L263.3593 192.3011
" />
<path d="M263.3593 192.3011
L263.9308 192.3011
" />
<path d="M263.9308 192.3011
L264.0736 192.3726
" />
<path d="M264.0736 192.3726
L264.1451 192.4440
" />
<path d="M264.1451 192.4440
L264.2165 192.5868
" />
<path d="M264.2165 192.5868
L264.2165 192.8011
" />
<path d="M264.2165 192.8011
L264.1451 192.9440
" />
<path d="M264.1451 192.9440
L264.0736 193.0154
" />
<path d="M264.0736 193.0154
L263.9308 193.0868
" />
<path d="M263.9308 193.0868
L263.3593 193.0868
" />
<path d="M265.4308 193.7297
L265.2879 193.8011
" />
<path d="M265.2879 193.8011
L265.0022 193.8011
" />
<path d="M265.0022 193.8011
L264.8593 193.7297
" />
<path d="M264.8593 193.7297
L264.7879 193.5868
" />
<path d="M264.7879 193.5868
L264.7879 193.0154
" />
<path d="M264.7879 193.0154
L264.8593 192.8726
" />
<path d="M264.8593 192.8726
L265.0022 192.8011
" />
<path d="M265.0022 192.8011
L265.2879 192.8011
" />
<path d="M265.2879 192.8011
L265.4308 192.8726
" />
<path d="M265.4308 192.8726
L265.5022 193.0154
" />
<path d="M265.5022 193.0154
L265.5022 193.1583
" />
<path d="M265.5022 193.1583
L264.7879 193.3011
" />
<path d="M266.0022 192.8011
L266.3593 193.8011
" />
<path d="M266.3593 193.8011
L266.7165 192.8011
" />
<path d="M267.2879 193.6583
L267.3593 193.7297
" />
<path d="M267.3593 193.7297
L267.2879 193.8011
" />
<path d="M267.2879 193.8011
L267.2165 193.7297
" />
<path d="M267.2165 193.7297
L267.2879 193.6583
" />
<path d="M267.2879 193.6583
L267.2879 193.8011
" />
<path d="M267.2879 192.8726
L267.3593 192.9440
" />
<path d="M267.3593 192.9440
L267.2879 193.0154
" />
<path d="M267.2879 193.0154
L267.2165 192.9440
" />
<path d="M267.2165 192.9440
L267.2879 192.8726
" />
<path d="M267.2879 192.8726
L267.2879 193.0154
" />
</g></g>
<g style="fill:#000000; fill-opacity:0.0; 
stroke:#000000; stroke-width:0.0212; stroke-opacity:1; 
stroke-linecap:round; stroke-linejoin:round;">
</g>
<g style="fill:#000000; fill-opacity:0.0; 
stroke:#000000; stroke-width:0.1500; stroke-opacity:1; 
stroke-linecap:round; stroke-linejoin:round;">
<text x="178.0022" y="193.8572"
textLength="9.2893" font-size="2.0000" lengthAdjust="spacingAndGlyphs"
text-anchor="start" opacity="0">Size: A4</text>
<g class="stroked-text"><desc>Size: A4</desc>
<path d="M178.2879 193.7297
L178.5022 193.8011
" />
<path d="M178.5022 193.8011
L178.8593 193.8011
" />
<path d="M178.8593 193.8011
L179.0022 193.7297
" />
<path d="M179.0022 193.7297
L179.0736 193.6583
" />
<path d="M179.0736 193.6583
L179.1451 193.5154
" />
<path d="M179.1451 193.5154
L179.1451 193.3726
" />
<path d="M179.1451 193.3726
L179.0736 193.2297
" />
<path d="M179.0736 193.2297
L179.0022 193.1583
" />
<path d="M179.0022 193.1583
L178.8593 193.0868
" />
<path d="M178.8593 193.0868
L178.5736 193.0154
" />
<path d="M178.5736 193.0154
L178.4308 192.9440
" />
<path d="M178.4308 192.9440
L178.3593 192.8726
" />
<path d="M178.3593 192.8726
L178.2879 192.7297
" />
<path d="M178.2879 192.7297
L178.2879 192.5868
" />
<path d="M178.2879 192.5868
L178.3593 192.4440
" />
<path d="M178.3593 192.4440
L178.4308 192.3726
" />
<path d="M178.4308 192.3726
L178.5736 192.3011
" />
<path d="M178.5736 192.3011
L178.9308 192.3011
" />
<path d="M178.9308 192.3011
L179.1451 192.3726
" />
<path d="M179.7879 193.8011
L179.7879 192.8011
" />
<path d="M179.7879 192.3011
L179.7165 192.3726
" />
<path d="M179.7165 192.3726
L179.7879 192.4440
" />
<path d="M179.7879 192.4440
L179.8593 192.3726
" />
<path d="M179.8593 192.3726
L179.7879 192.3011
" />
<path d="M179.7879 192.3011
L179.7879 192.4440
" />
<path d="M180.3593 192.8011
L181.1451 192.8011
" />
<path d="M181.1451 192.8011
L180.3593 193.8011
" />
<path d="M180.3593 193.8011
L181.1451 193.8011
" />
<path d="M182.2879 193.7297
L182.1451 193.8011
" />
<path d="M182.1451 193.8011
L181.8593 193.8011
" />
<path d="M181.8593 193.8011
L181.7165 193.7297
" />
<path d="M181.7165 193.7297
L181.6451 193.5868
" />
<path d="M181.6451 193.5868
L181.6451 193.0154
" />
<path d="M181.6451 193.0154
L181.7165 192.8726
" />
<path d="M181.7165 192.8726
L181.8593 192.8011
" />
<path d="M181.8593 192.8011
L182.1451 192.8011
" />
<path d="M182.1451 192.8011
L182.2879 192.8726
" />
<path d="M182.2879 192.8726
L182.3593 193.0154
" />
<path d="M182.3593 193.0154
L182.3593 193.1583
" />
<path d="M182.3593 193.1583
L181.6451 193.3011
" />
<path d="M183.0022 193.6583
L183.0736 193.7297
" />
<path d="M183.0736 193.7297
L183.0022 193.8011
" />
<path d="M183.0022 193.8011
L182.9308 193.7297
" />
<path d="M182.9308 193.7297
L183.0022 193.6583
" />
<path d="M183.0022 193.6583
L183.0022 193.8011
" />
<path d="M183.0022 192.8726
L183.0736 192.9440
" />
<path d="M183.0736 192.9440
L183.0022 193.0154
" />
<path d="M183.0022 193.0154
L182.9308 192.9440
" />
<path d="M182.9308 192.9440
L183.0022 192.8726
" />
<path d="M183.0022 192.8726
L183.0022 193.0154
" />
<path d="M184.7879 193.3726
L185.5022 193.3726
" />
<path d="M184.6451 193.8011
L185.1451 192.3011
" />
<path d="M185.1451 192.3011
L185.6451 193.8011
" />
<path d="M186.7879 192.8011
L186.7879 193.8011
" />
<path d="M186.4308 192.2297
L186.0736 193.3011
" />
<path d="M186.0736 193.3011
L187.0022 193.3011
" />
</g></g>
<g style="fill:#000000; fill-opacity:0.0; 
stroke:#000000; stroke-width:0.0212; stroke-opacity:1; 
stroke-linecap:round; stroke-linejoin:round;">
</g>
<g style="fill:#000000; fill-opacity:0.0; 
stroke:#000000; stroke-width:0.1500; stroke-opacity:1; 
stroke-linecap:round; stroke-linejoin:round;">
<text x="263.0022" y="196.6572"
textLength="8.4321" font-size="2.0000" lengthAdjust="spacingAndGlyphs"
text-anchor="start" opacity="0">Id: 1/1</text>
<g class="stroked-text"><desc>Id: 1/1</desc>
<path d="M263.3593 196.6011
L263.3593 195.1011
" />
<path d="M264.7165 196.6011
L264.7165 195.1011
" />
<path d="M264.7165 196.5297
L264.5736 196.6011
" />
<path d="M264.5736 196.6011
L264.2879 196.6011
" />
<path d="M264.2879 196.6011
L264.1451 196.5297
" />
<path d="M264.1451 196.5297
L264.0736 196.4583
" />
<path d="M264.0736 196.4583
L264.0022 196.3154
" />
<path d="M264.0022 196.3154
L264.0022 195.8868
" />
<path d="M264.0022 195.8868
L264.0736 195.7440
" />
<path d="M264.0736 195.7440
L264.1451 195.6726
" />
<path d="M264.1451 195.6726
L264.2879 195.6011
" />
<path d="M264.2879 195.6011
L264.5736 195.6011
" />
<path d="M264.5736 195.6011
L264.7165 195.6726
" />
<path d="M265.4308 196.4583
L265.5022 196.5297
" />
<path d="M265.5022 196.5297
L265.4308 196.6011
" />
<path d="M265.4308 196.6011
L265.3593 196.5297
" />
<path d="M265.3593 196.5297
L265.4308 196.4583
" />
<path d="M265.4308 196.4583
L265.4308 196.6011
" />
<path d="M265.4308 195.6726
L265.5022 195.7440
" />
<path d="M265.5022 195.7440
L265.4308 195.8154
" />
<path d="M265.4308 195.8154
L265.3593 195.7440
" />
<path d="M265.3593 195.7440
L265.4308 195.6726
" />
<path d="M265.4308 195.6726
L265.4308 195.8154
" />
<path d="M268.0736 196.6011
L267.2165 196.6011
" />
<path d="M267.6451 196.6011
L267.6451 195.1011
" />
<path d="M267.6451 195.1011
L267.5022 195.3154
" />
<path d="M267.5022 195.3154
L267.3593 195.4583
" />
<path d="M267.3593 195.4583
L267.2165 195.5297
" />
<path d="M269.7879 195.0297
L268.5022 196.9583
" />
<path d="M271.0736 196.6011
L270.2165 196.6011
" />
<path d="M270.6451 196.6011
L270.6451 195.1011
" />
<path d="M270.6451 195.1011
L270.5022 195.3154
" />
<path d="M270.5022 195.3154
L270.3593 195.4583
" />
<path d="M270.3593 195.4583
L270.2165 195.5297
" />
</g></g>
<g style="fill:#000000; fill-opacity:0.0; 
stroke:#000000; stroke-width:0.0212; stroke-opacity:1; 
stroke-linecap:round; stroke-linejoin:round;">
</g>
<g style="fill:#000000; fill-opacity:0.0; 
stroke:#000000; stroke-width:0.1500; stroke-opacity:1; 
stroke-linecap:round; stroke-linejoin:round;">
<path d="M177.0022 187.5072
L285.0022 187.5072
" />
</g>
<g style="fill:#000000; fill-opacity:0.0; 
stroke:#000000; stroke-width:0.0212; stroke-opacity:1; 
stroke-linecap:round; stroke-linejoin:round;">
</g>
<g style="fill:#000000; fill-opacity:0.0; 
stroke:#000000; stroke-width:0.4000; stroke-opacity:1; 
stroke-linecap:round; stroke-linejoin:round;">
<text x="178.0022" y="190.3072"
textLength="9.3857" font-size="2.6667" lengthAdjust="spacingAndGlyphs"
text-anchor="start" opacity="0">Title: </text>
<g class="stroked-text"><desc>Title: </desc>
<path d="M178.4308 188.2324
L179.5736 188.2324
" />
<path d="M178.7522 190.2324
L179.0022 188.2324
" />
<path d="M179.9784 190.2324
L180.1451 188.8991
" />
<path d="M180.2284 188.2324
L180.1212 188.3277
" />
<path d="M180.1212 188.3277
L180.2046 188.4229
" />
<path d="M180.2046 188.4229
L180.3117 188.3277
" />
<path d="M180.3117 188.3277
L180.2284 188.2324
" />
<path d="M180.2284 188.2324
L180.2046 188.4229
" />
<path d="M180.7998 188.8991
L181.5617 188.8991
" />
<path d="M181.1689 188.2324
L180.9546 189.9467
" />
<path d="M180.9546 189.9467
L181.0260 190.1372
" />
<path d="M181.0260 190.1372
L181.2046 190.2324
" />
<path d="M181.2046 190.2324
L181.3951 190.2324
" />
<path d="M182.3355 190.2324
L182.1570 190.1372
" />
<path d="M182.1570 190.1372
L182.0855 189.9467
" />
<path d="M182.0855 189.9467
L182.2998 188.2324
" />
<path d="M183.8593 190.1372
L183.6570 190.2324
" />
<path d="M183.6570 190.2324
L183.2760 190.2324
" />
<path d="M183.2760 190.2324
L183.0974 190.1372
" />
<path d="M183.0974 190.1372
L183.0260 189.9467
" />
<path d="M183.0260 189.9467
L183.1212 189.1848
" />
<path d="M183.1212 189.1848
L183.2403 188.9943
" />
<path d="M183.2403 188.9943
L183.4427 188.8991
" />
<path d="M183.4427 188.8991
L183.8236 188.8991
" />
<path d="M183.8236 188.8991
L184.0022 188.9943
" />
<path d="M184.0022 188.9943
L184.0736 189.1848
" />
<path d="M184.0736 189.1848
L184.0498 189.3753
" />
<path d="M184.0498 189.3753
L183.0736 189.5658
" />
<path d="M184.8117 190.0420
L184.8951 190.1372
" />
<path d="M184.8951 190.1372
L184.7879 190.2324
" />
<path d="M184.7879 190.2324
L184.7046 190.1372
" />
<path d="M184.7046 190.1372
L184.8117 190.0420
" />
<path d="M184.8117 190.0420
L184.7879 190.2324
" />
<path d="M184.9427 188.9943
L185.0260 189.0896
" />
<path d="M185.0260 189.0896
L184.9189 189.1848
" />
<path d="M184.9189 189.1848
L184.8355 189.0896
" />
<path d="M184.8355 189.0896
L184.9427 188.9943
" />
<path d="M184.9427 188.9943
L184.9189 189.1848
" />
</g></g>
<g style="fill:#000000; fill-opacity:0.0; 
stroke:#000000; stroke-width:0.0212; stroke-opacity:1; 
stroke-linecap:round; stroke-linejoin:round;">
</g>
<g style="fill:#000000; fill-opacity:0.0; 
stroke:#000000; stroke-width:0.1500; stroke-opacity:1; 
stroke-linecap:round; stroke-linejoin:round;">
<text x="178.0022" y="186.4572"
textLength="26.2893" font-size="2.0000" lengthAdjust="spacingAndGlyphs"
text-anchor="start" opacity="0">File: working.kicad_pcb</text>
<g class="stroked-text"><desc>File: working.kicad_pcb</desc>
<path d="M178.8593 185.6154
L178.3593 185.6154
" />
<path d="M178.3593 186.4011
L178.3593 184.9011
" />
<path d="M178.3593 184.9011
L179.0736 184.9011
" />
<path d="M179.6451 186.4011
L179.6451 185.4011
" />
<path d="M179.6451 184.9011
L179.5736 184.9726
" />
<path d="M179.5736 184.9726
L179.6451 185.0440
" />
<path d="M179.6451 185.0440
L179.7165 184.9726
" />
<path d="M179.7165 184.9726
L179.6451 184.9011
" />
<path d="M179.6451 184.9011
L179.6451 185.0440
" />
<path d="M180.5736 186.4011
L180.4308 186.3297
" />
<path d="M180.4308 186.3297
L180.3593 186.1868
" />
<path d="M180.3593 186.1868
L180.3593 184.9011
" />
<path d="M181.7165 186.3297
L181.5736 186.4011
" />
<path d="M181.5736 186.4011
L181.2879 186.4011
" />
<path d="M181.2879 186.4011
L181.1451 186.3297
" />
<path d="M181.1451 186.3297
L181.0736 186.1868
" />
<path d="M181.0736 186.1868
L181.0736 185.6154
" />
<path d="M181.0736 185.6154
L181.1451 185.4726
" />
<path d="M181.1451 185.4726
L181.2879 185.4011
" />
<path d="M181.2879 185.4011
L181.5736 185.4011
" />
<path d="M181.5736 185.4011
L181.7165 185.4726
" />
<path d="M181.7165 185.4726
L181.7879 185.6154
" />
<path d="M181.7879 185.6154
L181.7879 185.7583
" />
<path d="M181.7879 185.7583
L181.0736 185.9011
" />
<path d="M182.4308 186.2583
L182.5022 186.3297
" />
<path d="M182.5022 186.3297
L182.4308 186.4011
" />
<path d="M182.4308 186.4011
L182.3593 186.3297
" />
<path d="M182.3593 186.3297
L182.4308 186.2583
" />
<path d="M182.4308 186.2583
L182.4308 186.4011
" />
<path d="M182.4308 185.4726
L182.5022 185.5440
" />
<path d="M182.5022 185.5440
L182.4308 185.6154
" />
<path d="M182.4308 185.6154
L182.3593 185.5440
" />
<path d="M182.3593 185.5440
L182.4308 185.4726
" />
<path d="M182.4308 185.4726
L182.4308 185.6154
" />
<path d="M184.1451 185.4011
L184.4308 186.4011
" />
<path d="M184.4308 186.4011
L184.7165 185.6868
" />
<path d="M184.7165 185.6868
L185.0022 186.4011
" />
<path d="M185.0022 186.4011
L185.2879 185.4011
" />
<path d="M186.0736 186.4011
L185.9308 186.3297
" />
<path d="M185.9308 186.3297
L185.8593 186.2583
" />
<path d="M185.8593 186.2583
L185.7879 186.1154
" />
<path d="M185.7879 186.1154
L185.7879 185.6868
" />
<path d="M185.7879 185.6868
L185.8593 185.5440
" />
<path d="M185.8593 185.5440
L185.9308 185.4726
" />
<path d="M185.9308 185.4726
L186.0736 185.4011
" />
<path d="M186.0736 185.4011
L186.2879 185.4011
" />
<path d="M186.2879 185.4011
L186.4308 185.4726
" />
<path d="M186.4308 185.4726
L186.5022 185.5440
" />
<path d="M186.5022 185.5440
L186.5736 185.6868
" />
<path d="M186.5736 185.6868
L186.5736 186.1154
" />
<path d="M186.5736 186.1154
L186.5022 186.2583
" />
<path d="M186.5022 186.2583
L186.4308 186.3297
" />
<path d="M186.4308 186.3297
L186.2879 186.4011
" />
<path d="M186.2879 186.4011
L186.0736 186.4011
" />
<path d="M187.2165 186.4011
L187.2165 185.4011
" />
<path d="M187.2165 185.6868
L187.2879 185.5440
" />
<path d="M187.2879 185.5440
L187.3593 185.4726
" />
<path d="M187.3593 185.4726
L187.5022 185.4011
" />
<path d="M187.5022 185.4011
L187.6451 185.4011
" />
<path d="M188.1451 186.4011
L188.1451 184.9011
" />
<path d="M188.2879 185.8297
L188.7165 186.4011
" />
<path d="M188.7165 185.4011
L188.1451 185.9726
" />
<path d="M189.3593 186.4011
L189.3593 185.4011
" />
<path d="M189.3593 184.9011
L189.2879 184.9726
" />
<path d="M189.2879 184.9726
L189.3593 185.0440
" />
<path d="M189.3593 185.0440
L189.4308 184.9726
" />
<path d="M189.4308 184.9726
L189.3593 184.9011
" />
<path d="M189.3593 184.9011
L189.3593 185.0440
" />
<path d="M190.0736 185.4011
L190.0736 186.4011
" />
<path d="M190.0736 185.5440
L190.1451 185.4726
" />
<path d="M190.1451 185.4726
L190.2879 185.4011
" />
<path d="M190.2879 185.4011
L190.5022 185.4011
" />
<path d="M190.5022 185.4011
L190.6451 185.4726
" />
<path d="M190.6451 185.4726
L190.7165 185.6154
" />
<path d="M190.7165 185.6154
L190.7165 186.4011
" />
<path d="M192.0736 185.4011
L192.0736 186.6154
" />
<path d="M192.0736 186.6154
L192.0022 186.7583
" />
<path d="M192.0022 186.7583
L191.9308 186.8297
" />
<path d="M191.9308 186.8297
L191.7879 186.9011
" />
<path d="M191.7879 186.9011
L191.5736 186.9011
" />
<path d="M191.5736 186.9011
L191.4308 186.8297
" />
<path d="M192.0736 186.3297
L191.9308 186.4011
" />
<path d="M191.9308 186.4011
L191.6451 186.4011
" />
<path d="M191.6451 186.4011
L191.5022 186.3297
" />
<path d="M191.5022 186.3297
L191.4308 186.2583
" />
<path d="M191.4308 186.2583
L191.3593 186.1154
" />
<path d="M191.3593 186.1154
L191.3593 185.6868
" />
<path d="M191.3593 185.6868
L191.4308 185.5440
" />
<path d="M191.4308 185.5440
L191.5022 185.4726
" />
<path d="M191.5022 185.4726
L191.6451 185.4011
" />
<path d="M191.6451 185.4011
L191.9308 185.4011
" />
<path d="M191.9308 185.4011
L192.0736 185.4726
" />
<path d="M192.7879 186.2583
L192.8593 186.3297
" />
<path d="M192.8593 186.3297
L192.7879 186.4011
" />
<path d="M192.7879 186.4011
L192.7165 186.3297
" />
<path d="M192.7165 186.3297
L192.7879 186.2583
" />
<path d="M192.7879 186.2583
L192.7879 186.4011
" />
<path d="M193.5022 186.4011
L193.5022 184.9011
" />
<path d="M193.6451 185.8297
L194.0736 186.4011
" />
<path d="M194.0736 185.4011
L193.5022 185.9726
" />
<path d="M194.7165 186.4011
L194.7165 185.4011
" />
<path d="M194.7165 184.9011
L194.6451 184.9726
" />
<path d="M194.6451 184.9726
L194.7165 185.0440
" />
<path d="M194.7165 185.0440
L194.7879 184.9726
" />
<path d="M194.7879 184.9726
L194.7165 184.9011
" />
<path d="M194.7165 184.9011
L194.7165 185.0440
" />
<path d="M196.0736 186.3297
L195.9308 186.4011
" />
<path d="M195.9308 186.4011
L195.6451 186.4011
" />
<path d="M195.6451 186.4011
L195.5022 186.3297
" />
<path d="M195.5022 186.3297
L195.4308 186.2583
" />
<path d="M195.4308 186.2583
L195.3593 186.1154
" />
<path d="M195.3593 186.1154
L195.3593 185.6868
" />
<path d="M195.3593 185.6868
L195.4308 185.5440
" />
<path d="M195.4308 185.5440
L195.5022 185.4726
" />
<path d="M195.5022 185.4726
L195.6451 185.4011
" />
<path d="M195.6451 185.4011
L195.9308 185.4011
" />
<path d="M195.9308 185.4011
L196.0736 185.4726
" />
<path d="M197.3593 186.4011
L197.3593 185.6154
" />
<path d="M197.3593 185.6154
L197.2879 185.4726
" />
<path d="M197.2879 185.4726
L197.1451 185.4011
" />
<path d="M197.1451 185.4011
L196.8593 185.4011
" />
<path d="M196.8593 185.4011
L196.7165 185.4726
" />
<path d="M197.3593 186.3297
L197.2165 186.4011
" />
<path d="M197.2165 186.4011
L196.8593 186.4011
" />
<path d="M196.8593 186.4011
L196.7165 186.3297
" />
<path d="M196.7165 186.3297
L196.6451 186.1868
" />
<path d="M196.6451 186.1868
L196.6451 186.0440
" />
<path d="M196.6451 186.0440
L196.7165 185.9011
" />
<path d="M196.7165 185.9011
L196.8593 185.8297
" />
<path d="M196.8593 185.8297
L197.2165 185.8297
" />
<path d="M197.2165 185.8297
L197.3593 185.7583
" />
<path d="M198.7165 186.4011
L198.7165 184.9011
" />
<path d="M198.7165 186.3297
L198.5736 186.4011
" />
<path d="M198.5736 186.4011
L198.2879 186.4011
" />
<path d="M198.2879 186.4011
L198.1451 186.3297
" />
<path d="M198.1451 186.3297
L198.0736 186.2583
" />
<path d="M198.0736 186.2583
L198.0022 186.1154
" />
<path d="M198.0022 186.1154
L198.0022 185.6868
" />
<path d="M198.0022 185.6868
L198.0736 185.5440
" />
<path d="M198.0736 185.5440
L198.1451 185.4726
" />
<path d="M198.1451 185.4726
L198.2879 185.4011
" />
<path d="M198.2879 185.4011
L198.5736 185.4011
" />
<path d="M198.5736 185.4011
L198.7165 185.4726
" />
<path d="M199.0736 186.5440
L200.2165 186.5440
" />
<path d="M200.5736 185.4011
L200.5736 186.9011
" />
<path d="M200.5736 185.4726
L200.7165 185.4011
" />
<path d="M200.7165 185.4011
L201.0022 185.4011
" />
<path d="M201.0022 185.4011
L201.1451 185.4726
" />
<path d="M201.1451 185.4726
L201.2165 185.5440
" />
<path d="M201.2165 185.5440
L201.2879 185.6868
" />
<path d="M201.2879 185.6868
L201.2879 186.1154
" />
<path d="M201.2879 186.1154
L201.2165 186.2583
" />
<path d="M201.2165 186.2583
L201.1451 186.3297
" />
<path d="M201.1451 186.3297
L201.0022 186.4011
" />
<path d="M201.0022 186.4011
L200.7165 186.4011
" />
<path d="M200.7165 186.4011
L200.5736 186.3297
" />
<path d="M202.5736 186.3297
L202.4308 186.4011
" />
<path d="M202.4308 186.4011
L202.1451 186.4011
" />
<path d="M202.1451 186.4011
L202.0022 186.3297
" />
<path d="M202.0022 186.3297
L201.9308 186.2583
" />
<path d="M201.9308 186.2583
L201.8593 186.1154
" />
<path d="M201.8593 186.1154
L201.8593 185.6868
" />
<path d="M201.8593 185.6868
L201.9308 185.5440
" />
<path d="M201.9308 185.5440
L202.0022 185.4726
" />
<path d="M202.0022 185.4726
L202.1451 185.4011
" />
<path d="M202.1451 185.4011
L202.4308 185.4011
" />
<path d="M202.4308 185.4011
L202.5736 185.4726
" />
<path d="M203.2165 186.4011
L203.2165 184.9011
" />
<path d="M203.2165 185.4726
L203.3593 185.4011
" />
<path d="M203.3593 185.4011
L203.6451 185.4011
" />
<path d="M203.6451 185.4011
L203.7879 185.4726
" />
<path d="M203.7879 185.4726
L203.8593 185.5440
" />
<path d="M203.8593 185.5440
L203.9308 185.6868
" />
<path d="M203.9308 185.6868
L203.9308 186.1154
" />
<path d="M203.9308 186.1154
L203.8593 186.2583
" />
<path d="M203.8593 186.2583
L203.7879 186.3297
" />
<path d="M203.7879 186.3297
L203.6451 186.4011
" />
<path d="M203.6451 186.4011
L203.3593 186.4011
" />
<path d="M203.3593 186.4011
L203.2165 186.3297
" />
</g></g>
<g style="fill:#000000; fill-opacity:0.0; 
stroke:#000000; stroke-width:0.0212; stroke-opacity:1; 
stroke-linecap:round; stroke-linejoin:round;">
</g>
<g style="fill:#000000; fill-opacity:0.0; 
stroke:#000000; stroke-width:0.1500; stroke-opacity:1; 
stroke-linecap:round; stroke-linejoin:round;">
<path d="M177.0022 181.5072
L285.0022 181.5072
" />
</g>
<g style="fill:#000000; fill-opacity:0.0; 
stroke:#000000; stroke-width:0.0212; stroke-opacity:1; 
stroke-linecap:round; stroke-linejoin:round;">
</g>
<g style="fill:#000000; fill-opacity:0.0; 
stroke:#000000; stroke-width:0.1500; stroke-opacity:1; 
stroke-linecap:round; stroke-linejoin:round;">
<text x="178.0022" y="183.7572"
textLength="8.1464" font-size="2.0000" lengthAdjust="spacingAndGlyphs"
text-anchor="start" opacity="0">Sheet: </text>
<g class="stroked-text"><desc>Sheet: </desc>
<path d="M178.2879 183.6297
L178.5022 183.7011
" />
<path d="M178.5022 183.7011
L178.8593 183.7011
" />
<path d="M178.8593 183.7011
L179.0022 183.6297
" />
<path d="M179.0022 183.6297
L179.0736 183.5583
" />
<path d="M179.0736 183.5583
L179.1451 183.4154
" />
<path d="M179.1451 183.4154
L179.1451 183.2726
" />
<path d="M179.1451 183.2726
L179.0736 183.1297
" />
<path d="M179.0736 183.1297
L179.0022 183.0583
" />
<path d="M179.0022 183.0583
L178.8593 182.9868
" />
<path d="M178.8593 182.9868
L178.5736 182.9154
" />
<path d="M178.5736 182.9154
L178.4308 182.8440
" />
<path d="M178.4308 182.8440
L178.3593 182.7726
" />
<path d="M178.3593 182.7726
L178.2879 182.6297
" />
<path d="M178.2879 182.6297
L178.2879 182.4868
" />
<path d="M178.2879 182.4868
L178.3593 182.3440
" />
<path d="M178.3593 182.3440
L178.4308 182.2726
" />
<path d="M178.4308 182.2726
L178.5736 182.2011
" />
<path d="M178.5736 182.2011
L178.9308 182.2011
" />
<path d="M178.9308 182.2011
L179.1451 182.2726
" />
<path d="M179.7879 183.7011
L179.7879 182.2011
" />
<path d="M180.4308 183.7011
L180.4308 182.9154
" />
<path d="M180.4308 182.9154
L180.3593 182.7726
" />
<path d="M180.3593 182.7726
L180.2165 182.7011
" />
<path d="M180.2165 182.7011
L180.0022 182.7011
" />
<path d="M180.0022 182.7011
L179.8593 182.7726
" />
<path d="M179.8593 182.7726
L179.7879 182.8440
" />
<path d="M181.7165 183.6297
L181.5736 183.7011
" />
<path d="M181.5736 183.7011
L181.2879 183.7011
" />
<path d="M181.2879 183.7011
L181.1451 183.6297
" />
<path d="M181.1451 183.6297
L181.0736 183.4868
" />
<path d="M181.0736 183.4868
L181.0736 182.9154
" />
<path d="M181.0736 182.9154
L181.1451 182.7726
" />
<path d="M181.1451 182.7726
L181.2879 182.7011
" />
<path d="M181.2879 182.7011
L181.5736 182.7011
" />
<path d="M181.5736 182.7011
L181.7165 182.7726
" />
<path d="M181.7165 182.7726
L181.7879 182.9154
" />
<path d="M181.7879 182.9154
L181.7879 183.0583
" />
<path d="M181.7879 183.0583
L181.0736 183.2011
" />
<path d="M183.0022 183.6297
L182.8593 183.7011
" />
<path d="M182.8593 183.7011
L182.5736 183.7011
" />
<path d="M182.5736 183.7011
L182.4308 183.6297
" />
<path d="M182.4308 183.6297
L182.3593 183.4868
" />
<path d="M182.3593 183.4868
L182.3593 182.9154
" />
<path d="M182.3593 182.9154
L182.4308 182.7726
" />
<path d="M182.4308 182.7726
L182.5736 182.7011
" />
<path d="M182.5736 182.7011
L182.8593 182.7011
" />
<path d="M182.8593 182.7011
L183.0022 182.7726
" />
<path d="M183.0022 182.7726
L183.0736 182.9154
" />
<path d="M183.0736 182.9154
L183.0736 183.0583
" />
<path d="M183.0736 183.0583
L182.3593 183.2011
" />
<path d="M183.5022 182.7011
L184.0736 182.7011
" />
<path d="M183.7165 182.2011
L183.7165 183.4868
" />
<path d="M183.7165 183.4868
L183.7879 183.6297
" />
<path d="M183.7879 183.6297
L183.9308 183.7011
" />
<path d="M183.9308 183.7011
L184.0736 183.7011
" />
<path d="M184.5736 183.5583
L184.6451 183.6297
" />
<path d="M184.6451 183.6297
L184.5736 183.7011
" />
<path d="M184.5736 183.7011
L184.5022 183.6297
" />
<path d="M184.5022 183.6297
L184.5736 183.5583
" />
<path d="M184.5736 183.5583
L184.5736 183.7011
" />
<path d="M184.5736 182.7726
L184.6451 182.8440
" />
<path d="M184.6451 182.8440
L184.5736 182.9154
" />
<path d="M184.5736 182.9154
L184.5022 182.8440
" />
<path d="M184.5022 182.8440
L184.5736 182.7726
" />
<path d="M184.5736 182.7726
L184.5736 182.9154
" />
</g></g>
<g style="fill:#000000; fill-opacity:0.0; 
stroke:#000000; stroke-width:0.0212; stroke-opacity:1; 
stroke-linecap:round; stroke-linejoin:round;">
</g>
<g style="fill:#000000; fill-opacity:0.0; 
stroke:#000000; stroke-width:0.3000; stroke-opacity:1; 
stroke-linecap:round; stroke-linejoin:round;">
<text x="178.0022" y="180.7572"
textLength="0.7500" font-size="2.0000" lengthAdjust="spacingAndGlyphs"
text-anchor="start" opacity="0"></text>
<g class="stroked-text"><desc></desc>
</g></g>
<g style="fill:#000000; fill-opacity:0.0; 
stroke:#000000; stroke-width:0.0212; stroke-opacity:1; 
stroke-linecap:round; stroke-linejoin:round;">
</g>
<g style="fill:#000000; fill-opacity:0.0; 
stroke:#000000; stroke-width:0.1500; stroke-opacity:1; 
stroke-linecap:round; stroke-linejoin:round;">
<text x="178.0022" y="177.7572"
textLength="0.3750" font-size="2.0000" lengthAdjust="spacingAndGlyphs"
text-anchor="start" opacity="0"></text>
<g class="stroked-text"><desc></desc>
</g></g>
<g style="fill:#000000; fill-opacity:0.0; 
stroke:#000000; stroke-width:0.0212; stroke-opacity:1; 
stroke-linecap:round; stroke-linejoin:round;">
</g>
<g style="fill:#000000; fill-opacity:0.0; 
stroke:#000000; stroke-width:0.1500; stroke-opacity:1; 
stroke-linecap:round; stroke-linejoin:round;">
<text x="178.0022" y="174.7572"
textLength="0.3750" font-size="2.0000" lengthAdjust="spacingAndGlyphs"
text-anchor="start" opacity="0"></text>
<g class="stroked-text"><desc></desc>
</g></g>
<g style="fill:#000000; fill-opacity:0.0; 
stroke:#000000; stroke-width:0.0212; stroke-opacity:1; 
stroke-linecap:round; stroke-linejoin:round;">
</g>
<g style="fill:#000000; fill-opacity:0.0; 
stroke:#000000; stroke-width:0.1500; stroke-opacity:1; 
stroke-linecap:round; stroke-linejoin:round;">
<text x="178.0022" y="171.7572"
textLength="0.3750" font-size="2.0000" lengthAdjust="spacingAndGlyphs"
text-anchor="start" opacity="0"></text>
<g class="stroked-text"><desc></desc>
</g></g>
<g style="fill:#000000; fill-opacity:0.0; 
stroke:#000000; stroke-width:0.0212; stroke-opacity:1; 
stroke-linecap:round; stroke-linejoin:round;">
</g>
<g style="fill:#000000; fill-opacity:0.0; 
stroke:#000000; stroke-width:0.1500; stroke-opacity:1; 
stroke-linecap:round; stroke-linejoin:round;">
<text x="178.0022" y="168.7572"
textLength="0.3750" font-size="2.0000" lengthAdjust="spacingAndGlyphs"
text-anchor="start" opacity="0"></text>
<g class="stroked-text"><desc></desc>
</g></g>
<g style="fill:#000000; fill-opacity:0.0; 
stroke:#000000; stroke-width:0.0212; stroke-opacity:1; 
stroke-linecap:round; stroke-linejoin:round;">
</g>
<g style="fill:#000000; fill-opacity:0.0; 
stroke:#000000; stroke-width:0.1500; stroke-opacity:1; 
stroke-linecap:round; stroke-linejoin:round;">
<path d="M197.0022 191.5072
L197.0022 194.5072
" />
</g>
<g style="fill:#000000; fill-opacity:0.0; 
stroke:#000000; stroke-width:0.0212; stroke-opacity:1; 
stroke-linecap:round; stroke-linejoin:round;">
</g>
<g style="fill:#000000; fill-opacity:0.0; 
stroke:#000000; stroke-width:0.1500; stroke-opacity:1; 
stroke-linecap:round; stroke-linejoin:round;">
<path d="M261.0022 191.5072
L261.0022 198.0072
" />
</g>
<g style="fill:#585D84; fill-opacity:0.0; 
stroke:#585D84; stroke-width:0.1500; stroke-opacity:1; 
stroke-linecap:round; stroke-linejoin:round;">
</g>
<g style="fill:#585D84; fill-opacity:0.0; 
stroke:#585D84; stroke-width:0.0975; stroke-opacity:1; 
stroke-linecap:round; stroke-linejoin:round;">
<g transform="rotate(-90.000000 152.4381 119.6086)">
<text x="152.4381" y="119.8646"
transform="scale(-1 1) translate(-304.876200 0)"
textLength="12.3090" font-size="0.6828" lengthAdjust="spacingAndGlyphs"
text-anchor="start" opacity="0">JUMPER-SMT_2_NC_TRACE_SILK</text>
</g>
<g class="stroked-text"><desc>JUMPER-SMT_2_NC_TRACE_SILK</desc>
<path d="M152.1629 119.8768
L152.5287 119.8768
" />
<path d="M152.5287 119.8768
L152.6018 119.8524
" />
<path d="M152.6018 119.8524
L152.6506 119.8037
" />
<path d="M152.6506 119.8037
L152.6750 119.7305
" />
<path d="M152.6750 119.7305
L152.6750 119.6818
" />
<path d="M152.1629 120.1207
L152.5775 120.1207
" />
<path d="M152.5775 120.1207
L152.6262 120.1450
" />
<path d="M152.6262 120.1450
L152.6506 120.1694
" />
<path d="M152.6506 120.1694
L152.6750 120.2182
" />
<path d="M152.6750 120.2182
L152.6750 120.3157
" />
<path d="M152.6750 120.3157
L152.6506 120.3645
" />
<path d="M152.6506 120.3645
L152.6262 120.3889
" />
<path d="M152.6262 120.3889
L152.5775 120.4133
" />
<path d="M152.5775 120.4133
L152.1629 120.4133
" />
<path d="M152.6750 120.6571
L152.1629 120.6571
" />
<path d="M152.1629 120.6571
L152.5287 120.8278
" />
<path d="M152.5287 120.8278
L152.1629 120.9985
" />
<path d="M152.1629 120.9985
L152.6750 120.9985
" />
<path d="M152.6750 121.2423
L152.1629 121.2423
" />
<path d="M152.1629 121.2423
L152.1629 121.4374
" />
<path d="M152.1629 121.4374
L152.1873 121.4862
" />
<path d="M152.1873 121.4862
L152.2117 121.5106
" />
<path d="M152.2117 121.5106
L152.2605 121.5349
" />
<path d="M152.2605 121.5349
L152.3336 121.5349
" />
<path d="M152.3336 121.5349
L152.3824 121.5106
" />
<path d="M152.3824 121.5106
L152.4068 121.4862
" />
<path d="M152.4068 121.4862
L152.4312 121.4374
" />
<path d="M152.4312 121.4374
L152.4312 121.2423
" />
<path d="M152.4068 121.7544
L152.4068 121.9251
" />
<path d="M152.6750 121.9982
L152.6750 121.7544
" />
<path d="M152.6750 121.7544
L152.1629 121.7544
" />
<path d="M152.1629 121.7544
L152.1629 121.9982
" />
<path d="M152.6750 122.5103
L152.4312 122.3396
" />
<path d="M152.6750 122.2177
L152.1629 122.2177
" />
<path d="M152.1629 122.2177
L152.1629 122.4128
" />
<path d="M152.1629 122.4128
L152.1873 122.4615
" />
<path d="M152.1873 122.4615
L152.2117 122.4859
" />
<path d="M152.2117 122.4859
L152.2605 122.5103
" />
<path d="M152.2605 122.5103
L152.3336 122.5103
" />
<path d="M152.3336 122.5103
L152.3824 122.4859
" />
<path d="M152.3824 122.4859
L152.4068 122.4615
" />
<path d="M152.4068 122.4615
L152.4312 122.4128
" />
<path d="M152.4312 122.4128
L152.4312 122.2177
" />
<path d="M152.4799 122.7298
L152.4799 123.1199
" />
<path d="M152.6506 123.3394
L152.6750 123.4125
" />
<path d="M152.6750 123.4125
L152.6750 123.5344
" />
<path d="M152.6750 123.5344
L152.6506 123.5832
" />
<path d="M152.6506 123.5832
L152.6262 123.6076
" />
<path d="M152.6262 123.6076
L152.5775 123.6320
" />
<path d="M152.5775 123.6320
L152.5287 123.6320
" />
<path d="M152.5287 123.6320
L152.4799 123.6076
" />
<path d="M152.4799 123.6076
L152.4555 123.5832
" />
<path d="M152.4555 123.5832
L152.4312 123.5344
" />
<path d="M152.4312 123.5344
L152.4068 123.4369
" />
<path d="M152.4068 123.4369
L152.3824 123.3881
" />
<path d="M152.3824 123.3881
L152.3580 123.3637
" />
<path d="M152.3580 123.3637
L152.3092 123.3394
" />
<path d="M152.3092 123.3394
L152.2605 123.3394
" />
<path d="M152.2605 123.3394
L152.2117 123.3637
" />
<path d="M152.2117 123.3637
L152.1873 123.3881
" />
<path d="M152.1873 123.3881
L152.1629 123.4369
" />
<path d="M152.1629 123.4369
L152.1629 123.5588
" />
<path d="M152.1629 123.5588
L152.1873 123.6320
" />
<path d="M152.6750 123.8514
L152.1629 123.8514
" />
<path d="M152.1629 123.8514
L152.5287 124.0221
" />
<path d="M152.5287 124.0221
L152.1629 124.1928
" />
<path d="M152.1629 124.1928
L152.6750 124.1928
" />
<path d="M152.1629 124.3635
L152.1629 124.6561
" />
<path d="M152.6750 124.5098
L152.1629 124.5098
" />
<path d="M152.7238 124.7049
L152.7238 125.0950
" />
<path d="M152.2117 125.1925
L152.1873 125.2169
" />
<path d="M152.1873 125.2169
L152.1629 125.2657
" />
<path d="M152.1629 125.2657
L152.1629 125.3876
" />
<path d="M152.1629 125.3876
L152.1873 125.4364
" />
<path d="M152.1873 125.4364
L152.2117 125.4608
" />
<path d="M152.2117 125.4608
L152.2605 125.4851
" />
<path d="M152.2605 125.4851
L152.3092 125.4851
" />
<path d="M152.3092 125.4851
L152.3824 125.4608
" />
<path d="M152.3824 125.4608
L152.6750 125.1682
" />
<path d="M152.6750 125.1682
L152.6750 125.4851
" />
<path d="M152.7238 125.5827
L152.7238 125.9728
" />
<path d="M152.6750 126.0947
L152.1629 126.0947
" />
<path d="M152.1629 126.0947
L152.6750 126.3874
" />
<path d="M152.6750 126.3874
L152.1629 126.3874
" />
<path d="M152.6262 126.9238
L152.6506 126.8994
" />
<path d="M152.6506 126.8994
L152.6750 126.8263
" />
<path d="M152.6750 126.8263
L152.6750 126.7775
" />
<path d="M152.6750 126.7775
L152.6506 126.7043
" />
<path d="M152.6506 126.7043
L152.6018 126.6556
" />
<path d="M152.6018 126.6556
L152.5531 126.6312
" />
<path d="M152.5531 126.6312
L152.4555 126.6068
" />
<path d="M152.4555 126.6068
L152.3824 126.6068
" />
<path d="M152.3824 126.6068
L152.2848 126.6312
" />
<path d="M152.2848 126.6312
L152.2361 126.6556
" />
<path d="M152.2361 126.6556
L152.1873 126.7043
" />
<path d="M152.1873 126.7043
L152.1629 126.7775
" />
<path d="M152.1629 126.7775
L152.1629 126.8263
" />
<path d="M152.1629 126.8263
L152.1873 126.8994
" />
<path d="M152.1873 126.8994
L152.2117 126.9238
" />
<path d="M152.7238 127.0213
L152.7238 127.4115
" />
<path d="M152.1629 127.4602
L152.1629 127.7529
" />
<path d="M152.6750 127.6066
L152.1629 127.6066
" />
<path d="M152.6750 128.2162
L152.4312 128.0455
" />
<path d="M152.6750 127.9235
L152.1629 127.9235
" />
<path d="M152.1629 127.9235
L152.1629 128.1186
" />
<path d="M152.1629 128.1186
L152.1873 128.1674
" />
<path d="M152.1873 128.1674
L152.2117 128.1918
" />
<path d="M152.2117 128.1918
L152.2605 128.2162
" />
<path d="M152.2605 128.2162
L152.3336 128.2162
" />
<path d="M152.3336 128.2162
L152.3824 128.1918
" />
<path d="M152.3824 128.1918
L152.4068 128.1674
" />
<path d="M152.4068 128.1674
L152.4312 128.1186
" />
<path d="M152.4312 128.1186
L152.4312 127.9235
" />
<path d="M152.5287 128.4112
L152.5287 128.6551
" />
<path d="M152.6750 128.3625
L152.1629 128.5331
" />
<path d="M152.1629 128.5331
L152.6750 128.7038
" />
<path d="M152.6262 129.1671
L152.6506 129.1427
" />
<path d="M152.6506 129.1427
L152.6750 129.0696
" />
<path d="M152.6750 129.0696
L152.6750 129.0208
" />
<path d="M152.6750 129.0208
L152.6506 128.9477
" />
<path d="M152.6506 128.9477
L152.6018 128.8989
" />
<path d="M152.6018 128.8989
L152.5531 128.8745
" />
<path d="M152.5531 128.8745
L152.4555 128.8501
" />
<path d="M152.4555 128.8501
L152.3824 128.8501
" />
<path d="M152.3824 128.8501
L152.2848 128.8745
" />
<path d="M152.2848 128.8745
L152.2361 128.8989
" />
<path d="M152.2361 128.8989
L152.1873 128.9477
" />
<path d="M152.1873 128.9477
L152.1629 129.0208
" />
<path d="M152.1629 129.0208
L152.1629 129.0696
" />
<path d="M152.1629 129.0696
L152.1873 129.1427
" />
<path d="M152.1873 129.1427
L152.2117 129.1671
" />
<path d="M152.4068 129.3866
L152.4068 129.5573
" />
<path d="M152.6750 129.6304
L152.6750 129.3866
" />
<path d="M152.6750 129.3866
L152.1629 129.3866
" />
<path d="M152.1629 129.3866
L152.1629 129.6304
" />
<path d="M152.7238 129.7280
L152.7238 130.1181
" />
<path d="M152.6506 130.2156
L152.6750 130.2888
" />
<path d="M152.6750 130.2888
L152.6750 130.4107
" />
<path d="M152.6750 130.4107
L152.6506 130.4595
" />
<path d="M152.6506 130.4595
L152.6262 130.4839
" />
<path d="M152.6262 130.4839
L152.5775 130.5082
" />
<path d="M152.5775 130.5082
L152.5287 130.5082
" />
<path d="M152.5287 130.5082
L152.4799 130.4839
" />
<path d="M152.4799 130.4839
L152.4555 130.4595
" />
<path d="M152.4555 130.4595
L152.4312 130.4107
" />
<path d="M152.4312 130.4107
L152.4068 130.3132
" />
<path d="M152.4068 130.3132
L152.3824 130.2644
" />
<path d="M152.3824 130.2644
L152.3580 130.2400
" />
<path d="M152.3580 130.2400
L152.3092 130.2156
" />
<path d="M152.3092 130.2156
L152.2605 130.2156
" />
<path d="M152.2605 130.2156
L152.2117 130.2400
" />
<path d="M152.2117 130.2400
L152.1873 130.2644
" />
<path d="M152.1873 130.2644
L152.1629 130.3132
" />
<path d="M152.1629 130.3132
L152.1629 130.4351
" />
<path d="M152.1629 130.4351
L152.1873 130.5082
" />
<path d="M152.6750 130.7277
L152.1629 130.7277
" />
<path d="M152.6750 131.2154
L152.6750 130.9715
" />
<path d="M152.6750 130.9715
L152.1629 130.9715
" />
<path d="M152.6750 131.3861
L152.1629 131.3861
" />
<path d="M152.6750 131.6787
L152.3824 131.4592
" />
<path d="M152.1629 131.6787
L152.4555 131.3861
" />
</g><text x="140.8811" y="123.8016"
transform="scale(-1 1) translate(-281.762200 0)"
textLength="12.3090" font-size="0.6828" lengthAdjust="spacingAndGlyphs"
text-anchor="end" opacity="0">JUMPER-SMT_2_NC_TRACE_SILK</text>
<g class="stroked-text"><desc>JUMPER-SMT_2_NC_TRACE_SILK</desc>
<path d="M152.7805 123.2704
L152.7805 123.6362
" />
<path d="M152.7805 123.6362
L152.8049 123.7093
" />
<path d="M152.8049 123.7093
L152.8536 123.7581
" />
<path d="M152.8536 123.7581
L152.9268 123.7825
" />
<path d="M152.9268 123.7825
L152.9756 123.7825
" />
<path d="M152.5367 123.2704
L152.5367 123.6850
" />
<path d="M152.5367 123.6850
L152.5123 123.7337
" />
<path d="M152.5123 123.7337
L152.4879 123.7581
" />
<path d="M152.4879 123.7581
L152.4391 123.7825
" />
<path d="M152.4391 123.7825
L152.3416 123.7825
" />
<path d="M152.3416 123.7825
L152.2928 123.7581
" />
<path d="M152.2928 123.7581
L152.2684 123.7337
" />
<path d="M152.2684 123.7337
L152.2440 123.6850
" />
<path d="M152.2440 123.6850
L152.2440 123.2704
" />
<path d="M152.0002 123.7825
L152.0002 123.2704
" />
<path d="M152.0002 123.2704
L151.8295 123.6362
" />
<path d="M151.8295 123.6362
L151.6588 123.2704
" />
<path d="M151.6588 123.2704
L151.6588 123.7825
" />
<path d="M151.4150 123.7825
L151.4150 123.2704
" />
<path d="M151.4150 123.2704
L151.2199 123.2704
" />
<path d="M151.2199 123.2704
L151.1711 123.2948
" />
<path d="M151.1711 123.2948
L151.1468 123.3192
" />
<path d="M151.1468 123.3192
L151.1224 123.3680
" />
<path d="M151.1224 123.3680
L151.1224 123.4411
" />
<path d="M151.1224 123.4411
L151.1468 123.4899
" />
<path d="M151.1468 123.4899
L151.1711 123.5143
" />
<path d="M151.1711 123.5143
L151.2199 123.5387
" />
<path d="M151.2199 123.5387
L151.4150 123.5387
" />
<path d="M150.9029 123.5143
L150.7322 123.5143
" />
<path d="M150.6591 123.7825
L150.9029 123.7825
" />
<path d="M150.9029 123.7825
L150.9029 123.2704
" />
<path d="M150.9029 123.2704
L150.6591 123.2704
" />
<path d="M150.1470 123.7825
L150.3177 123.5387
" />
<path d="M150.4396 123.7825
L150.4396 123.2704
" />
<path d="M150.4396 123.2704
L150.2446 123.2704
" />
<path d="M150.2446 123.2704
L150.1958 123.2948
" />
<path d="M150.1958 123.2948
L150.1714 123.3192
" />
<path d="M150.1714 123.3192
L150.1470 123.3680
" />
<path d="M150.1470 123.3680
L150.1470 123.4411
" />
<path d="M150.1470 123.4411
L150.1714 123.4899
" />
<path d="M150.1714 123.4899
L150.1958 123.5143
" />
<path d="M150.1958 123.5143
L150.2446 123.5387
" />
<path d="M150.2446 123.5387
L150.4396 123.5387
" />
<path d="M149.9276 123.5874
L149.5374 123.5874
" />
<path d="M149.3180 123.7581
L149.2448 123.7825
" />
<path d="M149.2448 123.7825
L149.1229 123.7825
" />
<path d="M149.1229 123.7825
L149.0741 123.7581
" />
<path d="M149.0741 123.7581
L149.0497 123.7337
" />
<path d="M149.0497 123.7337
L149.0254 123.6850
" />
<path d="M149.0254 123.6850
L149.0254 123.6362
" />
<path d="M149.0254 123.6362
L149.0497 123.5874
" />
<path d="M149.0497 123.5874
L149.0741 123.5630
" />
<path d="M149.0741 123.5630
L149.1229 123.5387
" />
<path d="M149.1229 123.5387
L149.2204 123.5143
" />
<path d="M149.2204 123.5143
L149.2692 123.4899
" />
<path d="M149.2692 123.4899
L149.2936 123.4655
" />
<path d="M149.2936 123.4655
L149.3180 123.4167
" />
<path d="M149.3180 123.4167
L149.3180 123.3680
" />
<path d="M149.3180 123.3680
L149.2936 123.3192
" />
<path d="M149.2936 123.3192
L149.2692 123.2948
" />
<path d="M149.2692 123.2948
L149.2204 123.2704
" />
<path d="M149.2204 123.2704
L149.0985 123.2704
" />
<path d="M149.0985 123.2704
L149.0254 123.2948
" />
<path d="M148.8059 123.7825
L148.8059 123.2704
" />
<path d="M148.8059 123.2704
L148.6352 123.6362
" />
<path d="M148.6352 123.6362
L148.4645 123.2704
" />
<path d="M148.4645 123.2704
L148.4645 123.7825
" />
<path d="M148.2938 123.2704
L148.0012 123.2704
" />
<path d="M148.1475 123.7825
L148.1475 123.2704
" />
<path d="M147.9525 123.8313
L147.5623 123.8313
" />
<path d="M147.4648 123.3192
L147.4404 123.2948
" />
<path d="M147.4404 123.2948
L147.3916 123.2704
" />
<path d="M147.3916 123.2704
L147.2697 123.2704
" />
<path d="M147.2697 123.2704
L147.2209 123.2948
" />
<path d="M147.2209 123.2948
L147.1966 123.3192
" />
<path d="M147.1966 123.3192
L147.1722 123.3680
" />
<path d="M147.1722 123.3680
L147.1722 123.4167
" />
<path d="M147.1722 123.4167
L147.1966 123.4899
" />
<path d="M147.1966 123.4899
L147.4892 123.7825
" />
<path d="M147.4892 123.7825
L147.1722 123.7825
" />
<path d="M147.0746 123.8313
L146.6845 123.8313
" />
<path d="M146.5626 123.7825
L146.5626 123.2704
" />
<path d="M146.5626 123.2704
L146.2700 123.7825
" />
<path d="M146.2700 123.7825
L146.2700 123.2704
" />
<path d="M145.7335 123.7337
L145.7579 123.7581
" />
<path d="M145.7579 123.7581
L145.8311 123.7825
" />
<path d="M145.8311 123.7825
L145.8798 123.7825
" />
<path d="M145.8798 123.7825
L145.9530 123.7581
" />
<path d="M145.9530 123.7581
L146.0017 123.7093
" />
<path d="M146.0017 123.7093
L146.0261 123.6606
" />
<path d="M146.0261 123.6606
L146.0505 123.5630
" />
<path d="M146.0505 123.5630
L146.0505 123.4899
" />
<path d="M146.0505 123.4899
L146.0261 123.3923
" />
<path d="M146.0261 123.3923
L146.0017 123.3436
" />
<path d="M146.0017 123.3436
L145.9530 123.2948
" />
<path d="M145.9530 123.2948
L145.8798 123.2704
" />
<path d="M145.8798 123.2704
L145.8311 123.2704
" />
<path d="M145.8311 123.2704
L145.7579 123.2948
" />
<path d="M145.7579 123.2948
L145.7335 123.3192
" />
<path d="M145.6360 123.8313
L145.2458 123.8313
" />
<path d="M145.1971 123.2704
L144.9045 123.2704
" />
<path d="M145.0508 123.7825
L145.0508 123.2704
" />
<path d="M144.4412 123.7825
L144.6119 123.5387
" />
<path d="M144.7338 123.7825
L144.7338 123.2704
" />
<path d="M144.7338 123.2704
L144.5387 123.2704
" />
<path d="M144.5387 123.2704
L144.4899 123.2948
" />
<path d="M144.4899 123.2948
L144.4655 123.3192
" />
<path d="M144.4655 123.3192
L144.4412 123.3680
" />
<path d="M144.4412 123.3680
L144.4412 123.4411
" />
<path d="M144.4412 123.4411
L144.4655 123.4899
" />
<path d="M144.4655 123.4899
L144.4899 123.5143
" />
<path d="M144.4899 123.5143
L144.5387 123.5387
" />
<path d="M144.5387 123.5387
L144.7338 123.5387
" />
<path d="M144.2461 123.6362
L144.0023 123.6362
" />
<path d="M144.2949 123.7825
L144.1242 123.2704
" />
<path d="M144.1242 123.2704
L143.9535 123.7825
" />
<path d="M143.4902 123.7337
L143.5146 123.7581
" />
<path d="M143.5146 123.7581
L143.5877 123.7825
" />
<path d="M143.5877 123.7825
L143.6365 123.7825
" />
<path d="M143.6365 123.7825
L143.7096 123.7581
" />
<path d="M143.7096 123.7581
L143.7584 123.7093
" />
<path d="M143.7584 123.7093
L143.7828 123.6606
" />
<path d="M143.7828 123.6606
L143.8072 123.5630
" />
<path d="M143.8072 123.5630
L143.8072 123.4899
" />
<path d="M143.8072 123.4899
L143.7828 123.3923
" />
<path d="M143.7828 123.3923
L143.7584 123.3436
" />
<path d="M143.7584 123.3436
L143.7096 123.2948
" />
<path d="M143.7096 123.2948
L143.6365 123.2704
" />
<path d="M143.6365 123.2704
L143.5877 123.2704
" />
<path d="M143.5877 123.2704
L143.5146 123.2948
" />
<path d="M143.5146 123.2948
L143.4902 123.3192
" />
<path d="M143.2707 123.5143
L143.1000 123.5143
" />
<path d="M143.0269 123.7825
L143.2707 123.7825
" />
<path d="M143.2707 123.7825
L143.2707 123.2704
" />
<path d="M143.2707 123.2704
L143.0269 123.2704
" />
<path d="M142.9294 123.8313
L142.5392 123.8313
" />
<path d="M142.4417 123.7581
L142.3685 123.7825
" />
<path d="M142.3685 123.7825
L142.2466 123.7825
" />
<path d="M142.2466 123.7825
L142.1978 123.7581
" />
<path d="M142.1978 123.7581
L142.1735 123.7337
" />
<path d="M142.1735 123.7337
L142.1491 123.6850
" />
<path d="M142.1491 123.6850
L142.1491 123.6362
" />
<path d="M142.1491 123.6362
L142.1735 123.5874
" />
<path d="M142.1735 123.5874
L142.1978 123.5630
" />
<path d="M142.1978 123.5630
L142.2466 123.5387
" />
<path d="M142.2466 123.5387
L142.3441 123.5143
" />
<path d="M142.3441 123.5143
L142.3929 123.4899
" />
<path d="M142.3929 123.4899
L142.4173 123.4655
" />
<path d="M142.4173 123.4655
L142.4417 123.4167
" />
<path d="M142.4417 123.4167
L142.4417 123.3680
" />
<path d="M142.4417 123.3680
L142.4173 123.3192
" />
<path d="M142.4173 123.3192
L142.3929 123.2948
" />
<path d="M142.3929 123.2948
L142.3441 123.2704
" />
<path d="M142.3441 123.2704
L142.2222 123.2704
" />
<path d="M142.2222 123.2704
L142.1491 123.2948
" />
<path d="M141.9296 123.7825
L141.9296 123.2704
" />
<path d="M141.4419 123.7825
L141.6858 123.7825
" />
<path d="M141.6858 123.7825
L141.6858 123.2704
" />
<path d="M141.2712 123.7825
L141.2712 123.2704
" />
<path d="M140.9786 123.7825
L141.1981 123.4899
" />
<path d="M140.9786 123.2704
L141.2712 123.5630
" />
</g><g >
</g>
<g >
</g>
<g >
</g>
<g >
</g>
<g >
</g>
<g >
</g>
<g >
</g>
<g >
</g>
<g >
</g>
<g >
</g>
<g >
</g>
<g >
</g>
<g >
</g>
<g >
</g>
<g >
</g>
<g >
</g>
<g >
</g>
<g >
</g>
<g >
</g>
<g >
</g>
<g >
</g>
<g >
</g>
<g >
</g>
<g >
</g>
<g >
</g>
<g >
</g>
<g >
</g>
<g >
</g>
<g >
</g>
<g >
</g>
<g >
</g>
<g >
</g>
<g >
</g>
<g >
</g>
<g >
</g>
<g >
</g>
<g >
</g>
<g >
</g>
<g >
</g>
<g >
</g>
<g >
</g>
<g >
</g>
<g >
</g>
<g >
</g>
<g >
</g>
<g >
</g>
<g >
</g>
<g >
</g>
<g >
</g>
<g >
</g>
<g >
</g>
</g>
<g style="fill:#000000; fill-opacity:0.0; 
stroke:#000000; stroke-width:0.0975; stroke-opacity:1; 
stroke-linecap:round; stroke-linejoin:round;">
</g>
<g style="fill:#D0D2CD; fill-opacity:0.0; 
stroke:#D0D2CD; stroke-width:0.0975; stroke-opacity:1; 
stroke-linecap:round; stroke-linejoin:round;">
</g>
<g style="fill:#D0D2CD; fill-opacity:0.0; 
stroke:#D0D2CD; stroke-width:0.0500; stroke-opacity:1; 
stroke-linecap:round; stroke-linejoin:round;">
<path d="M162.4711 133.5786
L134.5311 133.5786
" />
<path d="M162.4711 76.4286
L134.5311 76.4286
" />
<path d="M162.4711 133.5786
L162.4711 76.4286
" />
<path d="M134.5311 76.4286
L134.5311 133.5786
" />
<g >
</g>
<g >
</g>
<g >
</g>
<g >
</g>
<g >
</g>
<g >
</g>
<g >
</g>
<g >
</g>
<g >
</g>
<g >
</g>
<g >
</g>
<g >
</g>
<g >
</g>
<g >
</g>
<g >
</g>
<g >
</g>
<g >
</g>
<g >
</g>
<g >
</g>
<g >
</g>
<g >
</g>
<g >
</g>
<g >
</g>
<g >
</g>
<g >
</g>
<g >
</g>
<g >
</g>
<g >
</g>
<g >
</g>
<g >
</g>
<g >
</g>
<g >
</g>
<g >
</g>
<g >
</g>
<g >
</g>
<g >
</g>
<g >
</g>
<g >
</g>
<g >
</g>
<g >
</g>
<g >
</g>
<g >
</g>
<g >
</g>
<g >
</g>
<g >
</g>
<g >
</g>
<g >
</g>
<g >
</g>
<g >
</g>
<g >
</g>
<g >
</g>
</g> 
</svg>
