<?xml version="1.0" standalone="no"?>
 <!DOCTYPE svg PUBLIC "-//W3C//DTD SVG 1.1//EN" 
 "http://www.w3.org/Graphics/SVG/1.1/DTD/svg11.dtd"> 
<svg
  xmlns:svg="http://www.w3.org/2000/svg"
  xmlns="http://www.w3.org/2000/svg"
  xmlns:xlink="http://www.w3.org/1999/xlink"
  version="1.1"
  width="297.0022mm" height="210.0072mm" viewBox="0.0000 0.0000 297.0022 210.0072">
<title>SVG Image created as working-F_Silkscreen.svg date 2023/07/26 10:54:14 </title>
  <desc>Image generated by PCBNEW </desc>
<g style="fill:#000000; fill-opacity:1.0000;stroke:#000000; stroke-opacity:1.0000;
stroke-linecap:round; stroke-linejoin:round;"
 transform="translate(0 0) scale(1 1)">
</g>
<g style="fill:#000000; fill-opacity:0.0; 
stroke:#000000; stroke-width:0.0000; stroke-opacity:1; 
stroke-linecap:round; stroke-linejoin:round;">
</g>
<g style="fill:#000000; fill-opacity:0.0; 
stroke:#000000; stroke-width:0.0212; stroke-opacity:1; 
stroke-linecap:round; stroke-linejoin:round;">
</g>
<g style="fill:#000000; fill-opacity:0.0; 
stroke:#000000; stroke-width:0.1500; stroke-opacity:1; 
stroke-linecap:round; stroke-linejoin:round;">
<path d="M177.0022 166.0072
L285.0022 166.0072
L285.0022 198.0072
L177.0022 198.0072
L177.0022 166.0072
" />
</g>
<g style="fill:#000000; fill-opacity:0.0; 
stroke:#000000; stroke-width:0.0212; stroke-opacity:1; 
stroke-linecap:round; stroke-linejoin:round;">
</g>
<g style="fill:#000000; fill-opacity:0.0; 
stroke:#000000; stroke-width:0.1500; stroke-opacity:1; 
stroke-linecap:round; stroke-linejoin:round;">
<path d="M10.0000 10.0000
L287.0022 10.0000
L287.0022 200.0072
L10.0000 200.0072
L10.0000 10.0000
" />
</g>
<g style="fill:#000000; fill-opacity:0.0; 
stroke:#000000; stroke-width:0.0212; stroke-opacity:1; 
stroke-linecap:round; stroke-linejoin:round;">
</g>
<g style="fill:#000000; fill-opacity:0.0; 
stroke:#000000; stroke-width:0.1500; stroke-opacity:1; 
stroke-linecap:round; stroke-linejoin:round;">
<path d="M12.0000 12.0000
L285.0022 12.0000
L285.0022 198.0072
L12.0000 198.0072
L12.0000 12.0000
" />
</g>
<g style="fill:#000000; fill-opacity:0.0; 
stroke:#000000; stroke-width:0.0212; stroke-opacity:1; 
stroke-linecap:round; stroke-linejoin:round;">
</g>
<g style="fill:#000000; fill-opacity:0.0; 
stroke:#000000; stroke-width:0.1500; stroke-opacity:1; 
stroke-linecap:round; stroke-linejoin:round;">
<path d="M60.0000 12.0000
L60.0000 10.0000
" />
</g>
<g style="fill:#000000; fill-opacity:0.0; 
stroke:#000000; stroke-width:0.0212; stroke-opacity:1; 
stroke-linecap:round; stroke-linejoin:round;">
</g>
<g style="fill:#000000; fill-opacity:0.0; 
stroke:#000000; stroke-width:0.1500; stroke-opacity:1; 
stroke-linecap:round; stroke-linejoin:round;">
<path d="M110.0000 12.0000
L110.0000 10.0000
" />
</g>
<g style="fill:#000000; fill-opacity:0.0; 
stroke:#000000; stroke-width:0.0212; stroke-opacity:1; 
stroke-linecap:round; stroke-linejoin:round;">
</g>
<g style="fill:#000000; fill-opacity:0.0; 
stroke:#000000; stroke-width:0.1500; stroke-opacity:1; 
stroke-linecap:round; stroke-linejoin:round;">
<path d="M160.0000 12.0000
L160.0000 10.0000
" />
</g>
<g style="fill:#000000; fill-opacity:0.0; 
stroke:#000000; stroke-width:0.0212; stroke-opacity:1; 
stroke-linecap:round; stroke-linejoin:round;">
</g>
<g style="fill:#000000; fill-opacity:0.0; 
stroke:#000000; stroke-width:0.1500; stroke-opacity:1; 
stroke-linecap:round; stroke-linejoin:round;">
<path d="M210.0000 12.0000
L210.0000 10.0000
" />
</g>
<g style="fill:#000000; fill-opacity:0.0; 
stroke:#000000; stroke-width:0.0212; stroke-opacity:1; 
stroke-linecap:round; stroke-linejoin:round;">
</g>
<g style="fill:#000000; fill-opacity:0.0; 
stroke:#000000; stroke-width:0.1500; stroke-opacity:1; 
stroke-linecap:round; stroke-linejoin:round;">
<path d="M260.0000 12.0000
L260.0000 10.0000
" />
</g>
<g style="fill:#000000; fill-opacity:0.0; 
stroke:#000000; stroke-width:0.0212; stroke-opacity:1; 
stroke-linecap:round; stroke-linejoin:round;">
</g>
<g style="fill:#000000; fill-opacity:0.0; 
stroke:#000000; stroke-width:0.1500; stroke-opacity:1; 
stroke-linecap:round; stroke-linejoin:round;">
<text x="35.0000" y="11.6500"
textLength="1.4281" font-size="1.7333" lengthAdjust="spacingAndGlyphs"
text-anchor="start" opacity="0">1</text>
<g class="stroked-text"><desc>1</desc>
<path d="M36.0892 11.5936
L35.3463 11.5936
" />
<path d="M35.7177 11.5936
L35.7177 10.2936
" />
<path d="M35.7177 10.2936
L35.5939 10.4793
" />
<path d="M35.5939 10.4793
L35.4701 10.6031
" />
<path d="M35.4701 10.6031
L35.3463 10.6650
" />
</g></g>
<g style="fill:#000000; fill-opacity:0.0; 
stroke:#000000; stroke-width:0.0212; stroke-opacity:1; 
stroke-linecap:round; stroke-linejoin:round;">
</g>
<g style="fill:#000000; fill-opacity:0.0; 
stroke:#000000; stroke-width:0.1500; stroke-opacity:1; 
stroke-linecap:round; stroke-linejoin:round;">
<text x="85.0000" y="11.6500"
textLength="1.4281" font-size="1.7333" lengthAdjust="spacingAndGlyphs"
text-anchor="start" opacity="0">2</text>
<g class="stroked-text"><desc>2</desc>
<path d="M85.3463 10.4174
L85.4082 10.3555
" />
<path d="M85.4082 10.3555
L85.5320 10.2936
" />
<path d="M85.5320 10.2936
L85.8415 10.2936
" />
<path d="M85.8415 10.2936
L85.9654 10.3555
" />
<path d="M85.9654 10.3555
L86.0273 10.4174
" />
<path d="M86.0273 10.4174
L86.0892 10.5412
" />
<path d="M86.0892 10.5412
L86.0892 10.6650
" />
<path d="M86.0892 10.6650
L86.0273 10.8507
" />
<path d="M86.0273 10.8507
L85.2844 11.5936
" />
<path d="M85.2844 11.5936
L86.0892 11.5936
" />
</g></g>
<g style="fill:#000000; fill-opacity:0.0; 
stroke:#000000; stroke-width:0.0212; stroke-opacity:1; 
stroke-linecap:round; stroke-linejoin:round;">
</g>
<g style="fill:#000000; fill-opacity:0.0; 
stroke:#000000; stroke-width:0.1500; stroke-opacity:1; 
stroke-linecap:round; stroke-linejoin:round;">
<text x="135.0000" y="11.6500"
textLength="1.4281" font-size="1.7333" lengthAdjust="spacingAndGlyphs"
text-anchor="start" opacity="0">3</text>
<g class="stroked-text"><desc>3</desc>
<path d="M135.2844 10.2936
L136.0892 10.2936
" />
<path d="M136.0892 10.2936
L135.6558 10.7888
" />
<path d="M135.6558 10.7888
L135.8415 10.7888
" />
<path d="M135.8415 10.7888
L135.9654 10.8507
" />
<path d="M135.9654 10.8507
L136.0273 10.9127
" />
<path d="M136.0273 10.9127
L136.0892 11.0365
" />
<path d="M136.0892 11.0365
L136.0892 11.3460
" />
<path d="M136.0892 11.3460
L136.0273 11.4698
" />
<path d="M136.0273 11.4698
L135.9654 11.5317
" />
<path d="M135.9654 11.5317
L135.8415 11.5936
" />
<path d="M135.8415 11.5936
L135.4701 11.5936
" />
<path d="M135.4701 11.5936
L135.3463 11.5317
" />
<path d="M135.3463 11.5317
L135.2844 11.4698
" />
</g></g>
<g style="fill:#000000; fill-opacity:0.0; 
stroke:#000000; stroke-width:0.0212; stroke-opacity:1; 
stroke-linecap:round; stroke-linejoin:round;">
</g>
<g style="fill:#000000; fill-opacity:0.0; 
stroke:#000000; stroke-width:0.1500; stroke-opacity:1; 
stroke-linecap:round; stroke-linejoin:round;">
<text x="185.0000" y="11.6500"
textLength="1.4281" font-size="1.7333" lengthAdjust="spacingAndGlyphs"
text-anchor="start" opacity="0">4</text>
<g class="stroked-text"><desc>4</desc>
<path d="M185.9654 10.7269
L185.9654 11.5936
" />
<path d="M185.6558 10.2317
L185.3463 11.1603
" />
<path d="M185.3463 11.1603
L186.1511 11.1603
" />
</g></g>
<g style="fill:#000000; fill-opacity:0.0; 
stroke:#000000; stroke-width:0.0212; stroke-opacity:1; 
stroke-linecap:round; stroke-linejoin:round;">
</g>
<g style="fill:#000000; fill-opacity:0.0; 
stroke:#000000; stroke-width:0.1500; stroke-opacity:1; 
stroke-linecap:round; stroke-linejoin:round;">
<text x="235.0000" y="11.6500"
textLength="1.4281" font-size="1.7333" lengthAdjust="spacingAndGlyphs"
text-anchor="start" opacity="0">5</text>
<g class="stroked-text"><desc>5</desc>
<path d="M236.0273 10.2936
L235.4082 10.2936
" />
<path d="M235.4082 10.2936
L235.3463 10.9127
" />
<path d="M235.3463 10.9127
L235.4082 10.8507
" />
<path d="M235.4082 10.8507
L235.5320 10.7888
" />
<path d="M235.5320 10.7888
L235.8415 10.7888
" />
<path d="M235.8415 10.7888
L235.9654 10.8507
" />
<path d="M235.9654 10.8507
L236.0273 10.9127
" />
<path d="M236.0273 10.9127
L236.0892 11.0365
" />
<path d="M236.0892 11.0365
L236.0892 11.3460
" />
<path d="M236.0892 11.3460
L236.0273 11.4698
" />
<path d="M236.0273 11.4698
L235.9654 11.5317
" />
<path d="M235.9654 11.5317
L235.8415 11.5936
" />
<path d="M235.8415 11.5936
L235.5320 11.5936
" />
<path d="M235.5320 11.5936
L235.4082 11.5317
" />
<path d="M235.4082 11.5317
L235.3463 11.4698
" />
</g></g>
<g style="fill:#000000; fill-opacity:0.0; 
stroke:#000000; stroke-width:0.0212; stroke-opacity:1; 
stroke-linecap:round; stroke-linejoin:round;">
</g>
<g style="fill:#000000; fill-opacity:0.0; 
stroke:#000000; stroke-width:0.1500; stroke-opacity:1; 
stroke-linecap:round; stroke-linejoin:round;">
<text x="285.0000" y="11.6500"
textLength="1.4281" font-size="1.7333" lengthAdjust="spacingAndGlyphs"
text-anchor="start" opacity="0">6</text>
<g class="stroked-text"><desc>6</desc>
<path d="M285.9654 10.2936
L285.7177 10.2936
" />
<path d="M285.7177 10.2936
L285.5939 10.3555
" />
<path d="M285.5939 10.3555
L285.5320 10.4174
" />
<path d="M285.5320 10.4174
L285.4082 10.6031
" />
<path d="M285.4082 10.6031
L285.3463 10.8507
" />
<path d="M285.3463 10.8507
L285.3463 11.3460
" />
<path d="M285.3463 11.3460
L285.4082 11.4698
" />
<path d="M285.4082 11.4698
L285.4701 11.5317
" />
<path d="M285.4701 11.5317
L285.5939 11.5936
" />
<path d="M285.5939 11.5936
L285.8415 11.5936
" />
<path d="M285.8415 11.5936
L285.9654 11.5317
" />
<path d="M285.9654 11.5317
L286.0273 11.4698
" />
<path d="M286.0273 11.4698
L286.0892 11.3460
" />
<path d="M286.0892 11.3460
L286.0892 11.0365
" />
<path d="M286.0892 11.0365
L286.0273 10.9127
" />
<path d="M286.0273 10.9127
L285.9654 10.8507
" />
<path d="M285.9654 10.8507
L285.8415 10.7888
" />
<path d="M285.8415 10.7888
L285.5939 10.7888
" />
<path d="M285.5939 10.7888
L285.4701 10.8507
" />
<path d="M285.4701 10.8507
L285.4082 10.9127
" />
<path d="M285.4082 10.9127
L285.3463 11.0365
" />
</g></g>
<g style="fill:#000000; fill-opacity:0.0; 
stroke:#000000; stroke-width:0.0212; stroke-opacity:1; 
stroke-linecap:round; stroke-linejoin:round;">
</g>
<g style="fill:#000000; fill-opacity:0.0; 
stroke:#000000; stroke-width:0.1500; stroke-opacity:1; 
stroke-linecap:round; stroke-linejoin:round;">
<path d="M60.0000 198.0072
L60.0000 200.0072
" />
</g>
<g style="fill:#000000; fill-opacity:0.0; 
stroke:#000000; stroke-width:0.0212; stroke-opacity:1; 
stroke-linecap:round; stroke-linejoin:round;">
</g>
<g style="fill:#000000; fill-opacity:0.0; 
stroke:#000000; stroke-width:0.1500; stroke-opacity:1; 
stroke-linecap:round; stroke-linejoin:round;">
<path d="M110.0000 198.0072
L110.0000 200.0072
" />
</g>
<g style="fill:#000000; fill-opacity:0.0; 
stroke:#000000; stroke-width:0.0212; stroke-opacity:1; 
stroke-linecap:round; stroke-linejoin:round;">
</g>
<g style="fill:#000000; fill-opacity:0.0; 
stroke:#000000; stroke-width:0.1500; stroke-opacity:1; 
stroke-linecap:round; stroke-linejoin:round;">
<path d="M160.0000 198.0072
L160.0000 200.0072
" />
</g>
<g style="fill:#000000; fill-opacity:0.0; 
stroke:#000000; stroke-width:0.0212; stroke-opacity:1; 
stroke-linecap:round; stroke-linejoin:round;">
</g>
<g style="fill:#000000; fill-opacity:0.0; 
stroke:#000000; stroke-width:0.1500; stroke-opacity:1; 
stroke-linecap:round; stroke-linejoin:round;">
<path d="M210.0000 198.0072
L210.0000 200.0072
" />
</g>
<g style="fill:#000000; fill-opacity:0.0; 
stroke:#000000; stroke-width:0.0212; stroke-opacity:1; 
stroke-linecap:round; stroke-linejoin:round;">
</g>
<g style="fill:#000000; fill-opacity:0.0; 
stroke:#000000; stroke-width:0.1500; stroke-opacity:1; 
stroke-linecap:round; stroke-linejoin:round;">
<path d="M260.0000 198.0072
L260.0000 200.0072
" />
</g>
<g style="fill:#000000; fill-opacity:0.0; 
stroke:#000000; stroke-width:0.0212; stroke-opacity:1; 
stroke-linecap:round; stroke-linejoin:round;">
</g>
<g style="fill:#000000; fill-opacity:0.0; 
stroke:#000000; stroke-width:0.1500; stroke-opacity:1; 
stroke-linecap:round; stroke-linejoin:round;">
<text x="35.0000" y="199.6572"
textLength="1.4281" font-size="1.7333" lengthAdjust="spacingAndGlyphs"
text-anchor="start" opacity="0">1</text>
<g class="stroked-text"><desc>1</desc>
<path d="M36.0892 199.6008
L35.3463 199.6008
" />
<path d="M35.7177 199.6008
L35.7177 198.3008
" />
<path d="M35.7177 198.3008
L35.5939 198.4865
" />
<path d="M35.5939 198.4865
L35.4701 198.6103
" />
<path d="M35.4701 198.6103
L35.3463 198.6722
" />
</g></g>
<g style="fill:#000000; fill-opacity:0.0; 
stroke:#000000; stroke-width:0.0212; stroke-opacity:1; 
stroke-linecap:round; stroke-linejoin:round;">
</g>
<g style="fill:#000000; fill-opacity:0.0; 
stroke:#000000; stroke-width:0.1500; stroke-opacity:1; 
stroke-linecap:round; stroke-linejoin:round;">
<text x="85.0000" y="199.6572"
textLength="1.4281" font-size="1.7333" lengthAdjust="spacingAndGlyphs"
text-anchor="start" opacity="0">2</text>
<g class="stroked-text"><desc>2</desc>
<path d="M85.3463 198.4246
L85.4082 198.3627
" />
<path d="M85.4082 198.3627
L85.5320 198.3008
" />
<path d="M85.5320 198.3008
L85.8415 198.3008
" />
<path d="M85.8415 198.3008
L85.9654 198.3627
" />
<path d="M85.9654 198.3627
L86.0273 198.4246
" />
<path d="M86.0273 198.4246
L86.0892 198.5484
" />
<path d="M86.0892 198.5484
L86.0892 198.6722
" />
<path d="M86.0892 198.6722
L86.0273 198.8579
" />
<path d="M86.0273 198.8579
L85.2844 199.6008
" />
<path d="M85.2844 199.6008
L86.0892 199.6008
" />
</g></g>
<g style="fill:#000000; fill-opacity:0.0; 
stroke:#000000; stroke-width:0.0212; stroke-opacity:1; 
stroke-linecap:round; stroke-linejoin:round;">
</g>
<g style="fill:#000000; fill-opacity:0.0; 
stroke:#000000; stroke-width:0.1500; stroke-opacity:1; 
stroke-linecap:round; stroke-linejoin:round;">
<text x="135.0000" y="199.6572"
textLength="1.4281" font-size="1.7333" lengthAdjust="spacingAndGlyphs"
text-anchor="start" opacity="0">3</text>
<g class="stroked-text"><desc>3</desc>
<path d="M135.2844 198.3008
L136.0892 198.3008
" />
<path d="M136.0892 198.3008
L135.6558 198.7960
" />
<path d="M135.6558 198.7960
L135.8415 198.7960
" />
<path d="M135.8415 198.7960
L135.9654 198.8579
" />
<path d="M135.9654 198.8579
L136.0273 198.9199
" />
<path d="M136.0273 198.9199
L136.0892 199.0437
" />
<path d="M136.0892 199.0437
L136.0892 199.3532
" />
<path d="M136.0892 199.3532
L136.0273 199.4770
" />
<path d="M136.0273 199.4770
L135.9654 199.5389
" />
<path d="M135.9654 199.5389
L135.8415 199.6008
" />
<path d="M135.8415 199.6008
L135.4701 199.6008
" />
<path d="M135.4701 199.6008
L135.3463 199.5389
" />
<path d="M135.3463 199.5389
L135.2844 199.4770
" />
</g></g>
<g style="fill:#000000; fill-opacity:0.0; 
stroke:#000000; stroke-width:0.0212; stroke-opacity:1; 
stroke-linecap:round; stroke-linejoin:round;">
</g>
<g style="fill:#000000; fill-opacity:0.0; 
stroke:#000000; stroke-width:0.1500; stroke-opacity:1; 
stroke-linecap:round; stroke-linejoin:round;">
<text x="185.0000" y="199.6572"
textLength="1.4281" font-size="1.7333" lengthAdjust="spacingAndGlyphs"
text-anchor="start" opacity="0">4</text>
<g class="stroked-text"><desc>4</desc>
<path d="M185.9654 198.7341
L185.9654 199.6008
" />
<path d="M185.6558 198.2389
L185.3463 199.1675
" />
<path d="M185.3463 199.1675
L186.1511 199.1675
" />
</g></g>
<g style="fill:#000000; fill-opacity:0.0; 
stroke:#000000; stroke-width:0.0212; stroke-opacity:1; 
stroke-linecap:round; stroke-linejoin:round;">
</g>
<g style="fill:#000000; fill-opacity:0.0; 
stroke:#000000; stroke-width:0.1500; stroke-opacity:1; 
stroke-linecap:round; stroke-linejoin:round;">
<text x="235.0000" y="199.6572"
textLength="1.4281" font-size="1.7333" lengthAdjust="spacingAndGlyphs"
text-anchor="start" opacity="0">5</text>
<g class="stroked-text"><desc>5</desc>
<path d="M236.0273 198.3008
L235.4082 198.3008
" />
<path d="M235.4082 198.3008
L235.3463 198.9199
" />
<path d="M235.3463 198.9199
L235.4082 198.8579
" />
<path d="M235.4082 198.8579
L235.5320 198.7960
" />
<path d="M235.5320 198.7960
L235.8415 198.7960
" />
<path d="M235.8415 198.7960
L235.9654 198.8579
" />
<path d="M235.9654 198.8579
L236.0273 198.9199
" />
<path d="M236.0273 198.9199
L236.0892 199.0437
" />
<path d="M236.0892 199.0437
L236.0892 199.3532
" />
<path d="M236.0892 199.3532
L236.0273 199.4770
" />
<path d="M236.0273 199.4770
L235.9654 199.5389
" />
<path d="M235.9654 199.5389
L235.8415 199.6008
" />
<path d="M235.8415 199.6008
L235.5320 199.6008
" />
<path d="M235.5320 199.6008
L235.4082 199.5389
" />
<path d="M235.4082 199.5389
L235.3463 199.4770
" />
</g></g>
<g style="fill:#000000; fill-opacity:0.0; 
stroke:#000000; stroke-width:0.0212; stroke-opacity:1; 
stroke-linecap:round; stroke-linejoin:round;">
</g>
<g style="fill:#000000; fill-opacity:0.0; 
stroke:#000000; stroke-width:0.1500; stroke-opacity:1; 
stroke-linecap:round; stroke-linejoin:round;">
<text x="285.0000" y="199.6572"
textLength="1.4281" font-size="1.7333" lengthAdjust="spacingAndGlyphs"
text-anchor="start" opacity="0">6</text>
<g class="stroked-text"><desc>6</desc>
<path d="M285.9654 198.3008
L285.7177 198.3008
" />
<path d="M285.7177 198.3008
L285.5939 198.3627
" />
<path d="M285.5939 198.3627
L285.5320 198.4246
" />
<path d="M285.5320 198.4246
L285.4082 198.6103
" />
<path d="M285.4082 198.6103
L285.3463 198.8579
" />
<path d="M285.3463 198.8579
L285.3463 199.3532
" />
<path d="M285.3463 199.3532
L285.4082 199.4770
" />
<path d="M285.4082 199.4770
L285.4701 199.5389
" />
<path d="M285.4701 199.5389
L285.5939 199.6008
" />
<path d="M285.5939 199.6008
L285.8415 199.6008
" />
<path d="M285.8415 199.6008
L285.9654 199.5389
" />
<path d="M285.9654 199.5389
L286.0273 199.4770
" />
<path d="M286.0273 199.4770
L286.0892 199.3532
" />
<path d="M286.0892 199.3532
L286.0892 199.0437
" />
<path d="M286.0892 199.0437
L286.0273 198.9199
" />
<path d="M286.0273 198.9199
L285.9654 198.8579
" />
<path d="M285.9654 198.8579
L285.8415 198.7960
" />
<path d="M285.8415 198.7960
L285.5939 198.7960
" />
<path d="M285.5939 198.7960
L285.4701 198.8579
" />
<path d="M285.4701 198.8579
L285.4082 198.9199
" />
<path d="M285.4082 198.9199
L285.3463 199.0437
" />
</g></g>
<g style="fill:#000000; fill-opacity:0.0; 
stroke:#000000; stroke-width:0.0212; stroke-opacity:1; 
stroke-linecap:round; stroke-linejoin:round;">
</g>
<g style="fill:#000000; fill-opacity:0.0; 
stroke:#000000; stroke-width:0.1500; stroke-opacity:1; 
stroke-linecap:round; stroke-linejoin:round;">
<path d="M10.0000 60.0000
L12.0000 60.0000
" />
</g>
<g style="fill:#000000; fill-opacity:0.0; 
stroke:#000000; stroke-width:0.0212; stroke-opacity:1; 
stroke-linecap:round; stroke-linejoin:round;">
</g>
<g style="fill:#000000; fill-opacity:0.0; 
stroke:#000000; stroke-width:0.1500; stroke-opacity:1; 
stroke-linecap:round; stroke-linejoin:round;">
<path d="M10.0000 110.0000
L12.0000 110.0000
" />
</g>
<g style="fill:#000000; fill-opacity:0.0; 
stroke:#000000; stroke-width:0.0212; stroke-opacity:1; 
stroke-linecap:round; stroke-linejoin:round;">
</g>
<g style="fill:#000000; fill-opacity:0.0; 
stroke:#000000; stroke-width:0.1500; stroke-opacity:1; 
stroke-linecap:round; stroke-linejoin:round;">
<path d="M10.0000 160.0000
L12.0000 160.0000
" />
</g>
<g style="fill:#000000; fill-opacity:0.0; 
stroke:#000000; stroke-width:0.0212; stroke-opacity:1; 
stroke-linecap:round; stroke-linejoin:round;">
</g>
<g style="fill:#000000; fill-opacity:0.0; 
stroke:#000000; stroke-width:0.1500; stroke-opacity:1; 
stroke-linecap:round; stroke-linejoin:round;">
<text x="11.0000" y="35.6500"
textLength="1.3043" font-size="1.7333" lengthAdjust="spacingAndGlyphs"
text-anchor="middle" opacity="0">A</text>
<g class="stroked-text"><desc>A</desc>
<path d="M10.6905 35.2222
L11.3095 35.2222
" />
<path d="M10.5667 35.5936
L11.0000 34.2936
" />
<path d="M11.0000 34.2936
L11.4333 35.5936
" />
</g></g>
<g style="fill:#000000; fill-opacity:0.0; 
stroke:#000000; stroke-width:0.0212; stroke-opacity:1; 
stroke-linecap:round; stroke-linejoin:round;">
</g>
<g style="fill:#000000; fill-opacity:0.0; 
stroke:#000000; stroke-width:0.1500; stroke-opacity:1; 
stroke-linecap:round; stroke-linejoin:round;">
<text x="11.0000" y="85.6500"
textLength="1.4900" font-size="1.7333" lengthAdjust="spacingAndGlyphs"
text-anchor="middle" opacity="0">B</text>
<g class="stroked-text"><desc>B</desc>
<path d="M11.0929 84.9127
L11.2786 84.9746
" />
<path d="M11.2786 84.9746
L11.3405 85.0365
" />
<path d="M11.3405 85.0365
L11.4024 85.1603
" />
<path d="M11.4024 85.1603
L11.4024 85.3460
" />
<path d="M11.4024 85.3460
L11.3405 85.4698
" />
<path d="M11.3405 85.4698
L11.2786 85.5317
" />
<path d="M11.2786 85.5317
L11.1548 85.5936
" />
<path d="M11.1548 85.5936
L10.6595 85.5936
" />
<path d="M10.6595 85.5936
L10.6595 84.2936
" />
<path d="M10.6595 84.2936
L11.0929 84.2936
" />
<path d="M11.0929 84.2936
L11.2167 84.3555
" />
<path d="M11.2167 84.3555
L11.2786 84.4174
" />
<path d="M11.2786 84.4174
L11.3405 84.5412
" />
<path d="M11.3405 84.5412
L11.3405 84.6650
" />
<path d="M11.3405 84.6650
L11.2786 84.7888
" />
<path d="M11.2786 84.7888
L11.2167 84.8507
" />
<path d="M11.2167 84.8507
L11.0929 84.9127
" />
<path d="M11.0929 84.9127
L10.6595 84.9127
" />
</g></g>
<g style="fill:#000000; fill-opacity:0.0; 
stroke:#000000; stroke-width:0.0212; stroke-opacity:1; 
stroke-linecap:round; stroke-linejoin:round;">
</g>
<g style="fill:#000000; fill-opacity:0.0; 
stroke:#000000; stroke-width:0.1500; stroke-opacity:1; 
stroke-linecap:round; stroke-linejoin:round;">
<text x="11.0000" y="135.6500"
textLength="1.4900" font-size="1.7333" lengthAdjust="spacingAndGlyphs"
text-anchor="middle" opacity="0">C</text>
<g class="stroked-text"><desc>C</desc>
<path d="M11.4024 135.4698
L11.3405 135.5317
" />
<path d="M11.3405 135.5317
L11.1548 135.5936
" />
<path d="M11.1548 135.5936
L11.0310 135.5936
" />
<path d="M11.0310 135.5936
L10.8452 135.5317
" />
<path d="M10.8452 135.5317
L10.7214 135.4079
" />
<path d="M10.7214 135.4079
L10.6595 135.2841
" />
<path d="M10.6595 135.2841
L10.5976 135.0365
" />
<path d="M10.5976 135.0365
L10.5976 134.8507
" />
<path d="M10.5976 134.8507
L10.6595 134.6031
" />
<path d="M10.6595 134.6031
L10.7214 134.4793
" />
<path d="M10.7214 134.4793
L10.8452 134.3555
" />
<path d="M10.8452 134.3555
L11.0310 134.2936
" />
<path d="M11.0310 134.2936
L11.1548 134.2936
" />
<path d="M11.1548 134.2936
L11.3405 134.3555
" />
<path d="M11.3405 134.3555
L11.4024 134.4174
" />
</g></g>
<g style="fill:#000000; fill-opacity:0.0; 
stroke:#000000; stroke-width:0.0212; stroke-opacity:1; 
stroke-linecap:round; stroke-linejoin:round;">
</g>
<g style="fill:#000000; fill-opacity:0.0; 
stroke:#000000; stroke-width:0.1500; stroke-opacity:1; 
stroke-linecap:round; stroke-linejoin:round;">
<text x="11.0000" y="185.6500"
textLength="1.4900" font-size="1.7333" lengthAdjust="spacingAndGlyphs"
text-anchor="middle" opacity="0">D</text>
<g class="stroked-text"><desc>D</desc>
<path d="M10.6595 185.5936
L10.6595 184.2936
" />
<path d="M10.6595 184.2936
L10.9690 184.2936
" />
<path d="M10.9690 184.2936
L11.1548 184.3555
" />
<path d="M11.1548 184.3555
L11.2786 184.4793
" />
<path d="M11.2786 184.4793
L11.3405 184.6031
" />
<path d="M11.3405 184.6031
L11.4024 184.8507
" />
<path d="M11.4024 184.8507
L11.4024 185.0365
" />
<path d="M11.4024 185.0365
L11.3405 185.2841
" />
<path d="M11.3405 185.2841
L11.2786 185.4079
" />
<path d="M11.2786 185.4079
L11.1548 185.5317
" />
<path d="M11.1548 185.5317
L10.9690 185.5936
" />
<path d="M10.9690 185.5936
L10.6595 185.5936
" />
</g></g>
<g style="fill:#000000; fill-opacity:0.0; 
stroke:#000000; stroke-width:0.0212; stroke-opacity:1; 
stroke-linecap:round; stroke-linejoin:round;">
</g>
<g style="fill:#000000; fill-opacity:0.0; 
stroke:#000000; stroke-width:0.1500; stroke-opacity:1; 
stroke-linecap:round; stroke-linejoin:round;">
<path d="M287.0022 60.0000
L285.0022 60.0000
" />
</g>
<g style="fill:#000000; fill-opacity:0.0; 
stroke:#000000; stroke-width:0.0212; stroke-opacity:1; 
stroke-linecap:round; stroke-linejoin:round;">
</g>
<g style="fill:#000000; fill-opacity:0.0; 
stroke:#000000; stroke-width:0.1500; stroke-opacity:1; 
stroke-linecap:round; stroke-linejoin:round;">
<path d="M287.0022 110.0000
L285.0022 110.0000
" />
</g>
<g style="fill:#000000; fill-opacity:0.0; 
stroke:#000000; stroke-width:0.0212; stroke-opacity:1; 
stroke-linecap:round; stroke-linejoin:round;">
</g>
<g style="fill:#000000; fill-opacity:0.0; 
stroke:#000000; stroke-width:0.1500; stroke-opacity:1; 
stroke-linecap:round; stroke-linejoin:round;">
<path d="M287.0022 160.0000
L285.0022 160.0000
" />
</g>
<g style="fill:#000000; fill-opacity:0.0; 
stroke:#000000; stroke-width:0.0212; stroke-opacity:1; 
stroke-linecap:round; stroke-linejoin:round;">
</g>
<g style="fill:#000000; fill-opacity:0.0; 
stroke:#000000; stroke-width:0.1500; stroke-opacity:1; 
stroke-linecap:round; stroke-linejoin:round;">
<text x="286.0022" y="35.6500"
textLength="1.3043" font-size="1.7333" lengthAdjust="spacingAndGlyphs"
text-anchor="middle" opacity="0">A</text>
<g class="stroked-text"><desc>A</desc>
<path d="M285.6927 35.2222
L286.3117 35.2222
" />
<path d="M285.5689 35.5936
L286.0022 34.2936
" />
<path d="M286.0022 34.2936
L286.4355 35.5936
" />
</g></g>
<g style="fill:#000000; fill-opacity:0.0; 
stroke:#000000; stroke-width:0.0212; stroke-opacity:1; 
stroke-linecap:round; stroke-linejoin:round;">
</g>
<g style="fill:#000000; fill-opacity:0.0; 
stroke:#000000; stroke-width:0.1500; stroke-opacity:1; 
stroke-linecap:round; stroke-linejoin:round;">
<text x="286.0022" y="85.6500"
textLength="1.4900" font-size="1.7333" lengthAdjust="spacingAndGlyphs"
text-anchor="middle" opacity="0">B</text>
<g class="stroked-text"><desc>B</desc>
<path d="M286.0951 84.9127
L286.2808 84.9746
" />
<path d="M286.2808 84.9746
L286.3427 85.0365
" />
<path d="M286.3427 85.0365
L286.4046 85.1603
" />
<path d="M286.4046 85.1603
L286.4046 85.3460
" />
<path d="M286.4046 85.3460
L286.3427 85.4698
" />
<path d="M286.3427 85.4698
L286.2808 85.5317
" />
<path d="M286.2808 85.5317
L286.1570 85.5936
" />
<path d="M286.1570 85.5936
L285.6617 85.5936
" />
<path d="M285.6617 85.5936
L285.6617 84.2936
" />
<path d="M285.6617 84.2936
L286.0951 84.2936
" />
<path d="M286.0951 84.2936
L286.2189 84.3555
" />
<path d="M286.2189 84.3555
L286.2808 84.4174
" />
<path d="M286.2808 84.4174
L286.3427 84.5412
" />
<path d="M286.3427 84.5412
L286.3427 84.6650
" />
<path d="M286.3427 84.6650
L286.2808 84.7888
" />
<path d="M286.2808 84.7888
L286.2189 84.8507
" />
<path d="M286.2189 84.8507
L286.0951 84.9127
" />
<path d="M286.0951 84.9127
L285.6617 84.9127
" />
</g></g>
<g style="fill:#000000; fill-opacity:0.0; 
stroke:#000000; stroke-width:0.0212; stroke-opacity:1; 
stroke-linecap:round; stroke-linejoin:round;">
</g>
<g style="fill:#000000; fill-opacity:0.0; 
stroke:#000000; stroke-width:0.1500; stroke-opacity:1; 
stroke-linecap:round; stroke-linejoin:round;">
<text x="286.0022" y="135.6500"
textLength="1.4900" font-size="1.7333" lengthAdjust="spacingAndGlyphs"
text-anchor="middle" opacity="0">C</text>
<g class="stroked-text"><desc>C</desc>
<path d="M286.4046 135.4698
L286.3427 135.5317
" />
<path d="M286.3427 135.5317
L286.1570 135.5936
" />
<path d="M286.1570 135.5936
L286.0332 135.5936
" />
<path d="M286.0332 135.5936
L285.8474 135.5317
" />
<path d="M285.8474 135.5317
L285.7236 135.4079
" />
<path d="M285.7236 135.4079
L285.6617 135.2841
" />
<path d="M285.6617 135.2841
L285.5998 135.0365
" />
<path d="M285.5998 135.0365
L285.5998 134.8507
" />
<path d="M285.5998 134.8507
L285.6617 134.6031
" />
<path d="M285.6617 134.6031
L285.7236 134.4793
" />
<path d="M285.7236 134.4793
L285.8474 134.3555
" />
<path d="M285.8474 134.3555
L286.0332 134.2936
" />
<path d="M286.0332 134.2936
L286.1570 134.2936
" />
<path d="M286.1570 134.2936
L286.3427 134.3555
" />
<path d="M286.3427 134.3555
L286.4046 134.4174
" />
</g></g>
<g style="fill:#000000; fill-opacity:0.0; 
stroke:#000000; stroke-width:0.0212; stroke-opacity:1; 
stroke-linecap:round; stroke-linejoin:round;">
</g>
<g style="fill:#000000; fill-opacity:0.0; 
stroke:#000000; stroke-width:0.1500; stroke-opacity:1; 
stroke-linecap:round; stroke-linejoin:round;">
<text x="286.0022" y="185.6500"
textLength="1.4900" font-size="1.7333" lengthAdjust="spacingAndGlyphs"
text-anchor="middle" opacity="0">D</text>
<g class="stroked-text"><desc>D</desc>
<path d="M285.6617 185.5936
L285.6617 184.2936
" />
<path d="M285.6617 184.2936
L285.9712 184.2936
" />
<path d="M285.9712 184.2936
L286.1570 184.3555
" />
<path d="M286.1570 184.3555
L286.2808 184.4793
" />
<path d="M286.2808 184.4793
L286.3427 184.6031
" />
<path d="M286.3427 184.6031
L286.4046 184.8507
" />
<path d="M286.4046 184.8507
L286.4046 185.0365
" />
<path d="M286.4046 185.0365
L286.3427 185.2841
" />
<path d="M286.3427 185.2841
L286.2808 185.4079
" />
<path d="M286.2808 185.4079
L286.1570 185.5317
" />
<path d="M286.1570 185.5317
L285.9712 185.5936
" />
<path d="M285.9712 185.5936
L285.6617 185.5936
" />
</g></g>
<g style="fill:#000000; fill-opacity:0.0; 
stroke:#000000; stroke-width:0.0212; stroke-opacity:1; 
stroke-linecap:round; stroke-linejoin:round;">
</g>
<g style="fill:#000000; fill-opacity:0.0; 
stroke:#000000; stroke-width:0.1500; stroke-opacity:1; 
stroke-linecap:round; stroke-linejoin:round;">
<text x="200.0022" y="193.8572"
textLength="7.0071" font-size="2.0000" lengthAdjust="spacingAndGlyphs"
text-anchor="start" opacity="0">Date: </text>
<g class="stroked-text"><desc>Date: </desc>
<path d="M200.4580 193.7933
L200.4580 192.2933
" />
<path d="M200.4580 192.2933
L200.8152 192.2933
" />
<path d="M200.8152 192.2933
L201.0295 192.3648
" />
<path d="M201.0295 192.3648
L201.1723 192.5076
" />
<path d="M201.1723 192.5076
L201.2437 192.6505
" />
<path d="M201.2437 192.6505
L201.3152 192.9362
" />
<path d="M201.3152 192.9362
L201.3152 193.1505
" />
<path d="M201.3152 193.1505
L201.2437 193.4362
" />
<path d="M201.2437 193.4362
L201.1723 193.5790
" />
<path d="M201.1723 193.5790
L201.0295 193.7219
" />
<path d="M201.0295 193.7219
L200.8152 193.7933
" />
<path d="M200.8152 193.7933
L200.4580 193.7933
" />
<path d="M202.6009 193.7933
L202.6009 193.0076
" />
<path d="M202.6009 193.0076
L202.5295 192.8648
" />
<path d="M202.5295 192.8648
L202.3866 192.7933
" />
<path d="M202.3866 192.7933
L202.1009 192.7933
" />
<path d="M202.1009 192.7933
L201.9580 192.8648
" />
<path d="M202.6009 193.7219
L202.4580 193.7933
" />
<path d="M202.4580 193.7933
L202.1009 193.7933
" />
<path d="M202.1009 193.7933
L201.9580 193.7219
" />
<path d="M201.9580 193.7219
L201.8866 193.5790
" />
<path d="M201.8866 193.5790
L201.8866 193.4362
" />
<path d="M201.8866 193.4362
L201.9580 193.2933
" />
<path d="M201.9580 193.2933
L202.1009 193.2219
" />
<path d="M202.1009 193.2219
L202.4580 193.2219
" />
<path d="M202.4580 193.2219
L202.6009 193.1505
" />
<path d="M203.1009 192.7933
L203.6723 192.7933
" />
<path d="M203.3152 192.2933
L203.3152 193.5790
" />
<path d="M203.3152 193.5790
L203.3866 193.7219
" />
<path d="M203.3866 193.7219
L203.5295 193.7933
" />
<path d="M203.5295 193.7933
L203.6723 193.7933
" />
<path d="M204.7437 193.7219
L204.6009 193.7933
" />
<path d="M204.6009 193.7933
L204.3152 193.7933
" />
<path d="M204.3152 193.7933
L204.1723 193.7219
" />
<path d="M204.1723 193.7219
L204.1009 193.5790
" />
<path d="M204.1009 193.5790
L204.1009 193.0076
" />
<path d="M204.1009 193.0076
L204.1723 192.8648
" />
<path d="M204.1723 192.8648
L204.3152 192.7933
" />
<path d="M204.3152 192.7933
L204.6009 192.7933
" />
<path d="M204.6009 192.7933
L204.7437 192.8648
" />
<path d="M204.7437 192.8648
L204.8152 193.0076
" />
<path d="M204.8152 193.0076
L204.8152 193.1505
" />
<path d="M204.8152 193.1505
L204.1009 193.2933
" />
<path d="M205.4580 193.6505
L205.5295 193.7219
" />
<path d="M205.5295 193.7219
L205.4580 193.7933
" />
<path d="M205.4580 193.7933
L205.3866 193.7219
" />
<path d="M205.3866 193.7219
L205.4580 193.6505
" />
<path d="M205.4580 193.6505
L205.4580 193.7933
" />
<path d="M205.4580 192.8648
L205.5295 192.9362
" />
<path d="M205.5295 192.9362
L205.4580 193.0076
" />
<path d="M205.4580 193.0076
L205.3866 192.9362
" />
<path d="M205.3866 192.9362
L205.4580 192.8648
" />
<path d="M205.4580 192.8648
L205.4580 193.0076
" />
</g></g>
<g style="fill:#000000; fill-opacity:0.0; 
stroke:#000000; stroke-width:0.0212; stroke-opacity:1; 
stroke-linecap:round; stroke-linejoin:round;">
</g>
<g style="fill:#000000; fill-opacity:0.0; 
stroke:#000000; stroke-width:0.1500; stroke-opacity:1; 
stroke-linecap:round; stroke-linejoin:round;">
<path d="M177.0022 194.5072
L285.0022 194.5072
" />
</g>
<g style="fill:#000000; fill-opacity:0.0; 
stroke:#000000; stroke-width:0.0212; stroke-opacity:1; 
stroke-linecap:round; stroke-linejoin:round;">
</g>
<g style="fill:#000000; fill-opacity:0.0; 
stroke:#000000; stroke-width:0.1500; stroke-opacity:1; 
stroke-linecap:round; stroke-linejoin:round;">
<text x="178.0022" y="196.6572"
textLength="31.3643" font-size="2.0000" lengthAdjust="spacingAndGlyphs"
text-anchor="start" opacity="0">KiCad E.D.A.  pcbnew 7.0.6</text>
<g class="stroked-text"><desc>KiCad E.D.A.  pcbnew 7.0.6</desc>
<path d="M178.4580 196.5933
L178.4580 195.0933
" />
<path d="M179.3152 196.5933
L178.6723 195.7362
" />
<path d="M179.3152 195.0933
L178.4580 195.9505
" />
<path d="M179.9580 196.5933
L179.9580 195.5933
" />
<path d="M179.9580 195.0933
L179.8866 195.1648
" />
<path d="M179.8866 195.1648
L179.9580 195.2362
" />
<path d="M179.9580 195.2362
L180.0295 195.1648
" />
<path d="M180.0295 195.1648
L179.9580 195.0933
" />
<path d="M179.9580 195.0933
L179.9580 195.2362
" />
<path d="M181.5295 196.4505
L181.4580 196.5219
" />
<path d="M181.4580 196.5219
L181.2437 196.5933
" />
<path d="M181.2437 196.5933
L181.1009 196.5933
" />
<path d="M181.1009 196.5933
L180.8866 196.5219
" />
<path d="M180.8866 196.5219
L180.7437 196.3790
" />
<path d="M180.7437 196.3790
L180.6723 196.2362
" />
<path d="M180.6723 196.2362
L180.6009 195.9505
" />
<path d="M180.6009 195.9505
L180.6009 195.7362
" />
<path d="M180.6009 195.7362
L180.6723 195.4505
" />
<path d="M180.6723 195.4505
L180.7437 195.3076
" />
<path d="M180.7437 195.3076
L180.8866 195.1648
" />
<path d="M180.8866 195.1648
L181.1009 195.0933
" />
<path d="M181.1009 195.0933
L181.2437 195.0933
" />
<path d="M181.2437 195.0933
L181.4580 195.1648
" />
<path d="M181.4580 195.1648
L181.5295 195.2362
" />
<path d="M182.8152 196.5933
L182.8152 195.8076
" />
<path d="M182.8152 195.8076
L182.7437 195.6648
" />
<path d="M182.7437 195.6648
L182.6009 195.5933
" />
<path d="M182.6009 195.5933
L182.3152 195.5933
" />
<path d="M182.3152 195.5933
L182.1723 195.6648
" />
<path d="M182.8152 196.5219
L182.6723 196.5933
" />
<path d="M182.6723 196.5933
L182.3152 196.5933
" />
<path d="M182.3152 196.5933
L182.1723 196.5219
" />
<path d="M182.1723 196.5219
L182.1009 196.3790
" />
<path d="M182.1009 196.3790
L182.1009 196.2362
" />
<path d="M182.1009 196.2362
L182.1723 196.0933
" />
<path d="M182.1723 196.0933
L182.3152 196.0219
" />
<path d="M182.3152 196.0219
L182.6723 196.0219
" />
<path d="M182.6723 196.0219
L182.8152 195.9505
" />
<path d="M184.1723 196.5933
L184.1723 195.0933
" />
<path d="M184.1723 196.5219
L184.0295 196.5933
" />
<path d="M184.0295 196.5933
L183.7437 196.5933
" />
<path d="M183.7437 196.5933
L183.6009 196.5219
" />
<path d="M183.6009 196.5219
L183.5295 196.4505
" />
<path d="M183.5295 196.4505
L183.4580 196.3076
" />
<path d="M183.4580 196.3076
L183.4580 195.8790
" />
<path d="M183.4580 195.8790
L183.5295 195.7362
" />
<path d="M183.5295 195.7362
L183.6009 195.6648
" />
<path d="M183.6009 195.6648
L183.7437 195.5933
" />
<path d="M183.7437 195.5933
L184.0295 195.5933
" />
<path d="M184.0295 195.5933
L184.1723 195.6648
" />
<path d="M186.0295 195.8076
L186.5295 195.8076
" />
<path d="M186.7437 196.5933
L186.0295 196.5933
" />
<path d="M186.0295 196.5933
L186.0295 195.0933
" />
<path d="M186.0295 195.0933
L186.7437 195.0933
" />
<path d="M187.3866 196.4505
L187.4580 196.5219
" />
<path d="M187.4580 196.5219
L187.3866 196.5933
" />
<path d="M187.3866 196.5933
L187.3152 196.5219
" />
<path d="M187.3152 196.5219
L187.3866 196.4505
" />
<path d="M187.3866 196.4505
L187.3866 196.5933
" />
<path d="M188.1009 196.5933
L188.1009 195.0933
" />
<path d="M188.1009 195.0933
L188.4580 195.0933
" />
<path d="M188.4580 195.0933
L188.6723 195.1648
" />
<path d="M188.6723 195.1648
L188.8152 195.3076
" />
<path d="M188.8152 195.3076
L188.8866 195.4505
" />
<path d="M188.8866 195.4505
L188.9580 195.7362
" />
<path d="M188.9580 195.7362
L188.9580 195.9505
" />
<path d="M188.9580 195.9505
L188.8866 196.2362
" />
<path d="M188.8866 196.2362
L188.8152 196.3790
" />
<path d="M188.8152 196.3790
L188.6723 196.5219
" />
<path d="M188.6723 196.5219
L188.4580 196.5933
" />
<path d="M188.4580 196.5933
L188.1009 196.5933
" />
<path d="M189.6009 196.4505
L189.6723 196.5219
" />
<path d="M189.6723 196.5219
L189.6009 196.5933
" />
<path d="M189.6009 196.5933
L189.5295 196.5219
" />
<path d="M189.5295 196.5219
L189.6009 196.4505
" />
<path d="M189.6009 196.4505
L189.6009 196.5933
" />
<path d="M190.2437 196.1648
L190.9580 196.1648
" />
<path d="M190.1009 196.5933
L190.6009 195.0933
" />
<path d="M190.6009 195.0933
L191.1009 196.5933
" />
<path d="M191.6009 196.4505
L191.6723 196.5219
" />
<path d="M191.6723 196.5219
L191.6009 196.5933
" />
<path d="M191.6009 196.5933
L191.5295 196.5219
" />
<path d="M191.5295 196.5219
L191.6009 196.4505
" />
<path d="M191.6009 196.4505
L191.6009 196.5933
" />
<path d="M194.6009 195.5933
L194.6009 197.0933
" />
<path d="M194.6009 195.6648
L194.7437 195.5933
" />
<path d="M194.7437 195.5933
L195.0295 195.5933
" />
<path d="M195.0295 195.5933
L195.1723 195.6648
" />
<path d="M195.1723 195.6648
L195.2437 195.7362
" />
<path d="M195.2437 195.7362
L195.3152 195.8790
" />
<path d="M195.3152 195.8790
L195.3152 196.3076
" />
<path d="M195.3152 196.3076
L195.2437 196.4505
" />
<path d="M195.2437 196.4505
L195.1723 196.5219
" />
<path d="M195.1723 196.5219
L195.0295 196.5933
" />
<path d="M195.0295 196.5933
L194.7437 196.5933
" />
<path d="M194.7437 196.5933
L194.6009 196.5219
" />
<path d="M196.6009 196.5219
L196.4580 196.5933
" />
<path d="M196.4580 196.5933
L196.1723 196.5933
" />
<path d="M196.1723 196.5933
L196.0295 196.5219
" />
<path d="M196.0295 196.5219
L195.9580 196.4505
" />
<path d="M195.9580 196.4505
L195.8866 196.3076
" />
<path d="M195.8866 196.3076
L195.8866 195.8790
" />
<path d="M195.8866 195.8790
L195.9580 195.7362
" />
<path d="M195.9580 195.7362
L196.0295 195.6648
" />
<path d="M196.0295 195.6648
L196.1723 195.5933
" />
<path d="M196.1723 195.5933
L196.4580 195.5933
" />
<path d="M196.4580 195.5933
L196.6009 195.6648
" />
<path d="M197.2437 196.5933
L197.2437 195.0933
" />
<path d="M197.2437 195.6648
L197.3866 195.5933
" />
<path d="M197.3866 195.5933
L197.6723 195.5933
" />
<path d="M197.6723 195.5933
L197.8152 195.6648
" />
<path d="M197.8152 195.6648
L197.8866 195.7362
" />
<path d="M197.8866 195.7362
L197.9580 195.8790
" />
<path d="M197.9580 195.8790
L197.9580 196.3076
" />
<path d="M197.9580 196.3076
L197.8866 196.4505
" />
<path d="M197.8866 196.4505
L197.8152 196.5219
" />
<path d="M197.8152 196.5219
L197.6723 196.5933
" />
<path d="M197.6723 196.5933
L197.3866 196.5933
" />
<path d="M197.3866 196.5933
L197.2437 196.5219
" />
<path d="M198.6009 195.5933
L198.6009 196.5933
" />
<path d="M198.6009 195.7362
L198.6723 195.6648
" />
<path d="M198.6723 195.6648
L198.8152 195.5933
" />
<path d="M198.8152 195.5933
L199.0295 195.5933
" />
<path d="M199.0295 195.5933
L199.1723 195.6648
" />
<path d="M199.1723 195.6648
L199.2437 195.8076
" />
<path d="M199.2437 195.8076
L199.2437 196.5933
" />
<path d="M200.5295 196.5219
L200.3866 196.5933
" />
<path d="M200.3866 196.5933
L200.1009 196.5933
" />
<path d="M200.1009 196.5933
L199.9580 196.5219
" />
<path d="M199.9580 196.5219
L199.8866 196.3790
" />
<path d="M199.8866 196.3790
L199.8866 195.8076
" />
<path d="M199.8866 195.8076
L199.9580 195.6648
" />
<path d="M199.9580 195.6648
L200.1009 195.5933
" />
<path d="M200.1009 195.5933
L200.3866 195.5933
" />
<path d="M200.3866 195.5933
L200.5295 195.6648
" />
<path d="M200.5295 195.6648
L200.6009 195.8076
" />
<path d="M200.6009 195.8076
L200.6009 195.9505
" />
<path d="M200.6009 195.9505
L199.8866 196.0933
" />
<path d="M201.1009 195.5933
L201.3866 196.5933
" />
<path d="M201.3866 196.5933
L201.6723 195.8790
" />
<path d="M201.6723 195.8790
L201.9580 196.5933
" />
<path d="M201.9580 196.5933
L202.2437 195.5933
" />
<path d="M203.8152 195.0933
L204.8152 195.0933
" />
<path d="M204.8152 195.0933
L204.1723 196.5933
" />
<path d="M205.3866 196.4505
L205.4580 196.5219
" />
<path d="M205.4580 196.5219
L205.3866 196.5933
" />
<path d="M205.3866 196.5933
L205.3152 196.5219
" />
<path d="M205.3152 196.5219
L205.3866 196.4505
" />
<path d="M205.3866 196.4505
L205.3866 196.5933
" />
<path d="M206.3866 195.0933
L206.5295 195.0933
" />
<path d="M206.5295 195.0933
L206.6723 195.1648
" />
<path d="M206.6723 195.1648
L206.7437 195.2362
" />
<path d="M206.7437 195.2362
L206.8152 195.3790
" />
<path d="M206.8152 195.3790
L206.8866 195.6648
" />
<path d="M206.8866 195.6648
L206.8866 196.0219
" />
<path d="M206.8866 196.0219
L206.8152 196.3076
" />
<path d="M206.8152 196.3076
L206.7437 196.4505
" />
<path d="M206.7437 196.4505
L206.6723 196.5219
" />
<path d="M206.6723 196.5219
L206.5295 196.5933
" />
<path d="M206.5295 196.5933
L206.3866 196.5933
" />
<path d="M206.3866 196.5933
L206.2437 196.5219
" />
<path d="M206.2437 196.5219
L206.1723 196.4505
" />
<path d="M206.1723 196.4505
L206.1009 196.3076
" />
<path d="M206.1009 196.3076
L206.0295 196.0219
" />
<path d="M206.0295 196.0219
L206.0295 195.6648
" />
<path d="M206.0295 195.6648
L206.1009 195.3790
" />
<path d="M206.1009 195.3790
L206.1723 195.2362
" />
<path d="M206.1723 195.2362
L206.2437 195.1648
" />
<path d="M206.2437 195.1648
L206.3866 195.0933
" />
<path d="M207.5295 196.4505
L207.6009 196.5219
" />
<path d="M207.6009 196.5219
L207.5295 196.5933
" />
<path d="M207.5295 196.5933
L207.4580 196.5219
" />
<path d="M207.4580 196.5219
L207.5295 196.4505
" />
<path d="M207.5295 196.4505
L207.5295 196.5933
" />
<path d="M208.8866 195.0933
L208.6009 195.0933
" />
<path d="M208.6009 195.0933
L208.4580 195.1648
" />
<path d="M208.4580 195.1648
L208.3866 195.2362
" />
<path d="M208.3866 195.2362
L208.2437 195.4505
" />
<path d="M208.2437 195.4505
L208.1723 195.7362
" />
<path d="M208.1723 195.7362
L208.1723 196.3076
" />
<path d="M208.1723 196.3076
L208.2437 196.4505
" />
<path d="M208.2437 196.4505
L208.3152 196.5219
" />
<path d="M208.3152 196.5219
L208.4580 196.5933
" />
<path d="M208.4580 196.5933
L208.7437 196.5933
" />
<path d="M208.7437 196.5933
L208.8866 196.5219
" />
<path d="M208.8866 196.5219
L208.9580 196.4505
" />
<path d="M208.9580 196.4505
L209.0295 196.3076
" />
<path d="M209.0295 196.3076
L209.0295 195.9505
" />
<path d="M209.0295 195.9505
L208.9580 195.8076
" />
<path d="M208.9580 195.8076
L208.8866 195.7362
" />
<path d="M208.8866 195.7362
L208.7437 195.6648
" />
<path d="M208.7437 195.6648
L208.4580 195.6648
" />
<path d="M208.4580 195.6648
L208.3152 195.7362
" />
<path d="M208.3152 195.7362
L208.2437 195.8076
" />
<path d="M208.2437 195.8076
L208.1723 195.9505
" />
</g></g>
<g style="fill:#000000; fill-opacity:0.0; 
stroke:#000000; stroke-width:0.0212; stroke-opacity:1; 
stroke-linecap:round; stroke-linejoin:round;">
</g>
<g style="fill:#000000; fill-opacity:0.0; 
stroke:#000000; stroke-width:0.1500; stroke-opacity:1; 
stroke-linecap:round; stroke-linejoin:round;">
<path d="M177.0022 191.5072
L285.0022 191.5072
" />
</g>
<g style="fill:#000000; fill-opacity:0.0; 
stroke:#000000; stroke-width:0.0212; stroke-opacity:1; 
stroke-linecap:round; stroke-linejoin:round;">
</g>
<g style="fill:#000000; fill-opacity:0.0; 
stroke:#000000; stroke-width:0.3000; stroke-opacity:1; 
stroke-linecap:round; stroke-linejoin:round;">
<text x="263.0022" y="193.8572"
textLength="6.3857" font-size="2.0000" lengthAdjust="spacingAndGlyphs"
text-anchor="start" opacity="0">Rev: </text>
<g class="stroked-text"><desc>Rev: </desc>
<path d="M264.4139 193.7855
L263.9139 193.0712
" />
<path d="M263.5567 193.7855
L263.5567 192.2855
" />
<path d="M263.5567 192.2855
L264.1281 192.2855
" />
<path d="M264.1281 192.2855
L264.2710 192.3570
" />
<path d="M264.2710 192.3570
L264.3424 192.4284
" />
<path d="M264.3424 192.4284
L264.4139 192.5712
" />
<path d="M264.4139 192.5712
L264.4139 192.7855
" />
<path d="M264.4139 192.7855
L264.3424 192.9284
" />
<path d="M264.3424 192.9284
L264.2710 192.9998
" />
<path d="M264.2710 192.9998
L264.1281 193.0712
" />
<path d="M264.1281 193.0712
L263.5567 193.0712
" />
<path d="M265.6281 193.7141
L265.4853 193.7855
" />
<path d="M265.4853 193.7855
L265.1996 193.7855
" />
<path d="M265.1996 193.7855
L265.0567 193.7141
" />
<path d="M265.0567 193.7141
L264.9853 193.5712
" />
<path d="M264.9853 193.5712
L264.9853 192.9998
" />
<path d="M264.9853 192.9998
L265.0567 192.8570
" />
<path d="M265.0567 192.8570
L265.1996 192.7855
" />
<path d="M265.1996 192.7855
L265.4853 192.7855
" />
<path d="M265.4853 192.7855
L265.6281 192.8570
" />
<path d="M265.6281 192.8570
L265.6996 192.9998
" />
<path d="M265.6996 192.9998
L265.6996 193.1427
" />
<path d="M265.6996 193.1427
L264.9853 193.2855
" />
<path d="M266.1996 192.7855
L266.5567 193.7855
" />
<path d="M266.5567 193.7855
L266.9139 192.7855
" />
<path d="M267.4853 193.6427
L267.5567 193.7141
" />
<path d="M267.5567 193.7141
L267.4853 193.7855
" />
<path d="M267.4853 193.7855
L267.4139 193.7141
" />
<path d="M267.4139 193.7141
L267.4853 193.6427
" />
<path d="M267.4853 193.6427
L267.4853 193.7855
" />
<path d="M267.4853 192.8570
L267.5567 192.9284
" />
<path d="M267.5567 192.9284
L267.4853 192.9998
" />
<path d="M267.4853 192.9998
L267.4139 192.9284
" />
<path d="M267.4139 192.9284
L267.4853 192.8570
" />
<path d="M267.4853 192.8570
L267.4853 192.9998
" />
</g></g>
<g style="fill:#000000; fill-opacity:0.0; 
stroke:#000000; stroke-width:0.0212; stroke-opacity:1; 
stroke-linecap:round; stroke-linejoin:round;">
</g>
<g style="fill:#000000; fill-opacity:0.0; 
stroke:#000000; stroke-width:0.1500; stroke-opacity:1; 
stroke-linecap:round; stroke-linejoin:round;">
<text x="178.0022" y="193.8572"
textLength="9.3643" font-size="2.0000" lengthAdjust="spacingAndGlyphs"
text-anchor="start" opacity="0">Size: A4</text>
<g class="stroked-text"><desc>Size: A4</desc>
<path d="M178.3866 193.7219
L178.6009 193.7933
" />
<path d="M178.6009 193.7933
L178.9580 193.7933
" />
<path d="M178.9580 193.7933
L179.1009 193.7219
" />
<path d="M179.1009 193.7219
L179.1723 193.6505
" />
<path d="M179.1723 193.6505
L179.2437 193.5076
" />
<path d="M179.2437 193.5076
L179.2437 193.3648
" />
<path d="M179.2437 193.3648
L179.1723 193.2219
" />
<path d="M179.1723 193.2219
L179.1009 193.1505
" />
<path d="M179.1009 193.1505
L178.9580 193.0790
" />
<path d="M178.9580 193.0790
L178.6723 193.0076
" />
<path d="M178.6723 193.0076
L178.5295 192.9362
" />
<path d="M178.5295 192.9362
L178.4580 192.8648
" />
<path d="M178.4580 192.8648
L178.3866 192.7219
" />
<path d="M178.3866 192.7219
L178.3866 192.5790
" />
<path d="M178.3866 192.5790
L178.4580 192.4362
" />
<path d="M178.4580 192.4362
L178.5295 192.3648
" />
<path d="M178.5295 192.3648
L178.6723 192.2933
" />
<path d="M178.6723 192.2933
L179.0295 192.2933
" />
<path d="M179.0295 192.2933
L179.2437 192.3648
" />
<path d="M179.8866 193.7933
L179.8866 192.7933
" />
<path d="M179.8866 192.2933
L179.8152 192.3648
" />
<path d="M179.8152 192.3648
L179.8866 192.4362
" />
<path d="M179.8866 192.4362
L179.9580 192.3648
" />
<path d="M179.9580 192.3648
L179.8866 192.2933
" />
<path d="M179.8866 192.2933
L179.8866 192.4362
" />
<path d="M180.4580 192.7933
L181.2437 192.7933
" />
<path d="M181.2437 192.7933
L180.4580 193.7933
" />
<path d="M180.4580 193.7933
L181.2437 193.7933
" />
<path d="M182.3866 193.7219
L182.2437 193.7933
" />
<path d="M182.2437 193.7933
L181.9580 193.7933
" />
<path d="M181.9580 193.7933
L181.8152 193.7219
" />
<path d="M181.8152 193.7219
L181.7437 193.5790
" />
<path d="M181.7437 193.5790
L181.7437 193.0076
" />
<path d="M181.7437 193.0076
L181.8152 192.8648
" />
<path d="M181.8152 192.8648
L181.9580 192.7933
" />
<path d="M181.9580 192.7933
L182.2437 192.7933
" />
<path d="M182.2437 192.7933
L182.3866 192.8648
" />
<path d="M182.3866 192.8648
L182.4580 193.0076
" />
<path d="M182.4580 193.0076
L182.4580 193.1505
" />
<path d="M182.4580 193.1505
L181.7437 193.2933
" />
<path d="M183.1009 193.6505
L183.1723 193.7219
" />
<path d="M183.1723 193.7219
L183.1009 193.7933
" />
<path d="M183.1009 193.7933
L183.0295 193.7219
" />
<path d="M183.0295 193.7219
L183.1009 193.6505
" />
<path d="M183.1009 193.6505
L183.1009 193.7933
" />
<path d="M183.1009 192.8648
L183.1723 192.9362
" />
<path d="M183.1723 192.9362
L183.1009 193.0076
" />
<path d="M183.1009 193.0076
L183.0295 192.9362
" />
<path d="M183.0295 192.9362
L183.1009 192.8648
" />
<path d="M183.1009 192.8648
L183.1009 193.0076
" />
<path d="M184.8866 193.3648
L185.6009 193.3648
" />
<path d="M184.7437 193.7933
L185.2437 192.2933
" />
<path d="M185.2437 192.2933
L185.7437 193.7933
" />
<path d="M186.8866 192.7933
L186.8866 193.7933
" />
<path d="M186.5295 192.2219
L186.1723 193.2933
" />
<path d="M186.1723 193.2933
L187.1009 193.2933
" />
</g></g>
<g style="fill:#000000; fill-opacity:0.0; 
stroke:#000000; stroke-width:0.0212; stroke-opacity:1; 
stroke-linecap:round; stroke-linejoin:round;">
</g>
<g style="fill:#000000; fill-opacity:0.0; 
stroke:#000000; stroke-width:0.1500; stroke-opacity:1; 
stroke-linecap:round; stroke-linejoin:round;">
<text x="263.0022" y="196.6572"
textLength="8.5071" font-size="2.0000" lengthAdjust="spacingAndGlyphs"
text-anchor="start" opacity="0">Id: 1/1</text>
<g class="stroked-text"><desc>Id: 1/1</desc>
<path d="M263.4580 196.5933
L263.4580 195.0933
" />
<path d="M264.8152 196.5933
L264.8152 195.0933
" />
<path d="M264.8152 196.5219
L264.6723 196.5933
" />
<path d="M264.6723 196.5933
L264.3866 196.5933
" />
<path d="M264.3866 196.5933
L264.2437 196.5219
" />
<path d="M264.2437 196.5219
L264.1723 196.4505
" />
<path d="M264.1723 196.4505
L264.1009 196.3076
" />
<path d="M264.1009 196.3076
L264.1009 195.8790
" />
<path d="M264.1009 195.8790
L264.1723 195.7362
" />
<path d="M264.1723 195.7362
L264.2437 195.6648
" />
<path d="M264.2437 195.6648
L264.3866 195.5933
" />
<path d="M264.3866 195.5933
L264.6723 195.5933
" />
<path d="M264.6723 195.5933
L264.8152 195.6648
" />
<path d="M265.5295 196.4505
L265.6009 196.5219
" />
<path d="M265.6009 196.5219
L265.5295 196.5933
" />
<path d="M265.5295 196.5933
L265.4580 196.5219
" />
<path d="M265.4580 196.5219
L265.5295 196.4505
" />
<path d="M265.5295 196.4505
L265.5295 196.5933
" />
<path d="M265.5295 195.6648
L265.6009 195.7362
" />
<path d="M265.6009 195.7362
L265.5295 195.8076
" />
<path d="M265.5295 195.8076
L265.4580 195.7362
" />
<path d="M265.4580 195.7362
L265.5295 195.6648
" />
<path d="M265.5295 195.6648
L265.5295 195.8076
" />
<path d="M268.1723 196.5933
L267.3152 196.5933
" />
<path d="M267.7437 196.5933
L267.7437 195.0933
" />
<path d="M267.7437 195.0933
L267.6009 195.3076
" />
<path d="M267.6009 195.3076
L267.4580 195.4505
" />
<path d="M267.4580 195.4505
L267.3152 195.5219
" />
<path d="M269.8866 195.0219
L268.6009 196.9505
" />
<path d="M271.1723 196.5933
L270.3152 196.5933
" />
<path d="M270.7437 196.5933
L270.7437 195.0933
" />
<path d="M270.7437 195.0933
L270.6009 195.3076
" />
<path d="M270.6009 195.3076
L270.4580 195.4505
" />
<path d="M270.4580 195.4505
L270.3152 195.5219
" />
</g></g>
<g style="fill:#000000; fill-opacity:0.0; 
stroke:#000000; stroke-width:0.0212; stroke-opacity:1; 
stroke-linecap:round; stroke-linejoin:round;">
</g>
<g style="fill:#000000; fill-opacity:0.0; 
stroke:#000000; stroke-width:0.1500; stroke-opacity:1; 
stroke-linecap:round; stroke-linejoin:round;">
<path d="M177.0022 187.5072
L285.0022 187.5072
" />
</g>
<g style="fill:#000000; fill-opacity:0.0; 
stroke:#000000; stroke-width:0.0212; stroke-opacity:1; 
stroke-linecap:round; stroke-linejoin:round;">
</g>
<g style="fill:#000000; fill-opacity:0.0; 
stroke:#000000; stroke-width:0.4000; stroke-opacity:1; 
stroke-linecap:round; stroke-linejoin:round;">
<text x="178.0022" y="190.3072"
textLength="9.6571" font-size="2.6667" lengthAdjust="spacingAndGlyphs"
text-anchor="start" opacity="0">Title: </text>
<g class="stroked-text"><desc>Title: </desc>
<path d="M178.6939 188.2116
L179.8368 188.2116
" />
<path d="M179.0154 190.2116
L179.2654 188.2116
" />
<path d="M180.2535 190.2116
L180.4201 188.8783
" />
<path d="M180.5035 188.2116
L180.3963 188.3069
" />
<path d="M180.3963 188.3069
L180.4796 188.4021
" />
<path d="M180.4796 188.4021
L180.5868 188.3069
" />
<path d="M180.5868 188.3069
L180.5035 188.2116
" />
<path d="M180.5035 188.2116
L180.4796 188.4021
" />
<path d="M181.0868 188.8783
L181.8487 188.8783
" />
<path d="M181.4558 188.2116
L181.2415 189.9259
" />
<path d="M181.2415 189.9259
L181.3130 190.1164
" />
<path d="M181.3130 190.1164
L181.4915 190.2116
" />
<path d="M181.4915 190.2116
L181.6820 190.2116
" />
<path d="M182.6344 190.2116
L182.4558 190.1164
" />
<path d="M182.4558 190.1164
L182.3844 189.9259
" />
<path d="M182.3844 189.9259
L182.5987 188.2116
" />
<path d="M184.1701 190.1164
L183.9677 190.2116
" />
<path d="M183.9677 190.2116
L183.5868 190.2116
" />
<path d="M183.5868 190.2116
L183.4082 190.1164
" />
<path d="M183.4082 190.1164
L183.3368 189.9259
" />
<path d="M183.3368 189.9259
L183.4320 189.1640
" />
<path d="M183.4320 189.1640
L183.5511 188.9735
" />
<path d="M183.5511 188.9735
L183.7535 188.8783
" />
<path d="M183.7535 188.8783
L184.1344 188.8783
" />
<path d="M184.1344 188.8783
L184.3130 188.9735
" />
<path d="M184.3130 188.9735
L184.3844 189.1640
" />
<path d="M184.3844 189.1640
L184.3606 189.3545
" />
<path d="M184.3606 189.3545
L183.3844 189.5450
" />
<path d="M185.1344 190.0212
L185.2177 190.1164
" />
<path d="M185.2177 190.1164
L185.1106 190.2116
" />
<path d="M185.1106 190.2116
L185.0273 190.1164
" />
<path d="M185.0273 190.1164
L185.1344 190.0212
" />
<path d="M185.1344 190.0212
L185.1106 190.2116
" />
<path d="M185.2654 188.9735
L185.3487 189.0688
" />
<path d="M185.3487 189.0688
L185.2415 189.1640
" />
<path d="M185.2415 189.1640
L185.1582 189.0688
" />
<path d="M185.1582 189.0688
L185.2654 188.9735
" />
<path d="M185.2654 188.9735
L185.2415 189.1640
" />
</g></g>
<g style="fill:#000000; fill-opacity:0.0; 
stroke:#000000; stroke-width:0.0212; stroke-opacity:1; 
stroke-linecap:round; stroke-linejoin:round;">
</g>
<g style="fill:#000000; fill-opacity:0.0; 
stroke:#000000; stroke-width:0.1500; stroke-opacity:1; 
stroke-linecap:round; stroke-linejoin:round;">
<text x="178.0022" y="186.4572"
textLength="26.3643" font-size="2.0000" lengthAdjust="spacingAndGlyphs"
text-anchor="start" opacity="0">File: working.kicad_pcb</text>
<g class="stroked-text"><desc>File: working.kicad_pcb</desc>
<path d="M178.9580 185.6076
L178.4580 185.6076
" />
<path d="M178.4580 186.3933
L178.4580 184.8933
" />
<path d="M178.4580 184.8933
L179.1723 184.8933
" />
<path d="M179.7437 186.3933
L179.7437 185.3933
" />
<path d="M179.7437 184.8933
L179.6723 184.9648
" />
<path d="M179.6723 184.9648
L179.7437 185.0362
" />
<path d="M179.7437 185.0362
L179.8152 184.9648
" />
<path d="M179.8152 184.9648
L179.7437 184.8933
" />
<path d="M179.7437 184.8933
L179.7437 185.0362
" />
<path d="M180.6723 186.3933
L180.5295 186.3219
" />
<path d="M180.5295 186.3219
L180.4580 186.1790
" />
<path d="M180.4580 186.1790
L180.4580 184.8933
" />
<path d="M181.8152 186.3219
L181.6723 186.3933
" />
<path d="M181.6723 186.3933
L181.3866 186.3933
" />
<path d="M181.3866 186.3933
L181.2437 186.3219
" />
<path d="M181.2437 186.3219
L181.1723 186.1790
" />
<path d="M181.1723 186.1790
L181.1723 185.6076
" />
<path d="M181.1723 185.6076
L181.2437 185.4648
" />
<path d="M181.2437 185.4648
L181.3866 185.3933
" />
<path d="M181.3866 185.3933
L181.6723 185.3933
" />
<path d="M181.6723 185.3933
L181.8152 185.4648
" />
<path d="M181.8152 185.4648
L181.8866 185.6076
" />
<path d="M181.8866 185.6076
L181.8866 185.7505
" />
<path d="M181.8866 185.7505
L181.1723 185.8933
" />
<path d="M182.5295 186.2505
L182.6009 186.3219
" />
<path d="M182.6009 186.3219
L182.5295 186.3933
" />
<path d="M182.5295 186.3933
L182.4580 186.3219
" />
<path d="M182.4580 186.3219
L182.5295 186.2505
" />
<path d="M182.5295 186.2505
L182.5295 186.3933
" />
<path d="M182.5295 185.4648
L182.6009 185.5362
" />
<path d="M182.6009 185.5362
L182.5295 185.6076
" />
<path d="M182.5295 185.6076
L182.4580 185.5362
" />
<path d="M182.4580 185.5362
L182.5295 185.4648
" />
<path d="M182.5295 185.4648
L182.5295 185.6076
" />
<path d="M184.2437 185.3933
L184.5295 186.3933
" />
<path d="M184.5295 186.3933
L184.8152 185.6790
" />
<path d="M184.8152 185.6790
L185.1009 186.3933
" />
<path d="M185.1009 186.3933
L185.3866 185.3933
" />
<path d="M186.1723 186.3933
L186.0295 186.3219
" />
<path d="M186.0295 186.3219
L185.9580 186.2505
" />
<path d="M185.9580 186.2505
L185.8866 186.1076
" />
<path d="M185.8866 186.1076
L185.8866 185.6790
" />
<path d="M185.8866 185.6790
L185.9580 185.5362
" />
<path d="M185.9580 185.5362
L186.0295 185.4648
" />
<path d="M186.0295 185.4648
L186.1723 185.3933
" />
<path d="M186.1723 185.3933
L186.3866 185.3933
" />
<path d="M186.3866 185.3933
L186.5295 185.4648
" />
<path d="M186.5295 185.4648
L186.6009 185.5362
" />
<path d="M186.6009 185.5362
L186.6723 185.6790
" />
<path d="M186.6723 185.6790
L186.6723 186.1076
" />
<path d="M186.6723 186.1076
L186.6009 186.2505
" />
<path d="M186.6009 186.2505
L186.5295 186.3219
" />
<path d="M186.5295 186.3219
L186.3866 186.3933
" />
<path d="M186.3866 186.3933
L186.1723 186.3933
" />
<path d="M187.3152 186.3933
L187.3152 185.3933
" />
<path d="M187.3152 185.6790
L187.3866 185.5362
" />
<path d="M187.3866 185.5362
L187.4580 185.4648
" />
<path d="M187.4580 185.4648
L187.6009 185.3933
" />
<path d="M187.6009 185.3933
L187.7437 185.3933
" />
<path d="M188.2437 186.3933
L188.2437 184.8933
" />
<path d="M188.3866 185.8219
L188.8152 186.3933
" />
<path d="M188.8152 185.3933
L188.2437 185.9648
" />
<path d="M189.4580 186.3933
L189.4580 185.3933
" />
<path d="M189.4580 184.8933
L189.3866 184.9648
" />
<path d="M189.3866 184.9648
L189.4580 185.0362
" />
<path d="M189.4580 185.0362
L189.5295 184.9648
" />
<path d="M189.5295 184.9648
L189.4580 184.8933
" />
<path d="M189.4580 184.8933
L189.4580 185.0362
" />
<path d="M190.1723 185.3933
L190.1723 186.3933
" />
<path d="M190.1723 185.5362
L190.2437 185.4648
" />
<path d="M190.2437 185.4648
L190.3866 185.3933
" />
<path d="M190.3866 185.3933
L190.6009 185.3933
" />
<path d="M190.6009 185.3933
L190.7437 185.4648
" />
<path d="M190.7437 185.4648
L190.8152 185.6076
" />
<path d="M190.8152 185.6076
L190.8152 186.3933
" />
<path d="M192.1723 185.3933
L192.1723 186.6076
" />
<path d="M192.1723 186.6076
L192.1009 186.7505
" />
<path d="M192.1009 186.7505
L192.0295 186.8219
" />
<path d="M192.0295 186.8219
L191.8866 186.8933
" />
<path d="M191.8866 186.8933
L191.6723 186.8933
" />
<path d="M191.6723 186.8933
L191.5295 186.8219
" />
<path d="M192.1723 186.3219
L192.0295 186.3933
" />
<path d="M192.0295 186.3933
L191.7437 186.3933
" />
<path d="M191.7437 186.3933
L191.6009 186.3219
" />
<path d="M191.6009 186.3219
L191.5295 186.2505
" />
<path d="M191.5295 186.2505
L191.4580 186.1076
" />
<path d="M191.4580 186.1076
L191.4580 185.6790
" />
<path d="M191.4580 185.6790
L191.5295 185.5362
" />
<path d="M191.5295 185.5362
L191.6009 185.4648
" />
<path d="M191.6009 185.4648
L191.7437 185.3933
" />
<path d="M191.7437 185.3933
L192.0295 185.3933
" />
<path d="M192.0295 185.3933
L192.1723 185.4648
" />
<path d="M192.8866 186.2505
L192.9580 186.3219
" />
<path d="M192.9580 186.3219
L192.8866 186.3933
" />
<path d="M192.8866 186.3933
L192.8152 186.3219
" />
<path d="M192.8152 186.3219
L192.8866 186.2505
" />
<path d="M192.8866 186.2505
L192.8866 186.3933
" />
<path d="M193.6009 186.3933
L193.6009 184.8933
" />
<path d="M193.7437 185.8219
L194.1723 186.3933
" />
<path d="M194.1723 185.3933
L193.6009 185.9648
" />
<path d="M194.8152 186.3933
L194.8152 185.3933
" />
<path d="M194.8152 184.8933
L194.7437 184.9648
" />
<path d="M194.7437 184.9648
L194.8152 185.0362
" />
<path d="M194.8152 185.0362
L194.8866 184.9648
" />
<path d="M194.8866 184.9648
L194.8152 184.8933
" />
<path d="M194.8152 184.8933
L194.8152 185.0362
" />
<path d="M196.1723 186.3219
L196.0295 186.3933
" />
<path d="M196.0295 186.3933
L195.7437 186.3933
" />
<path d="M195.7437 186.3933
L195.6009 186.3219
" />
<path d="M195.6009 186.3219
L195.5295 186.2505
" />
<path d="M195.5295 186.2505
L195.4580 186.1076
" />
<path d="M195.4580 186.1076
L195.4580 185.6790
" />
<path d="M195.4580 185.6790
L195.5295 185.5362
" />
<path d="M195.5295 185.5362
L195.6009 185.4648
" />
<path d="M195.6009 185.4648
L195.7437 185.3933
" />
<path d="M195.7437 185.3933
L196.0295 185.3933
" />
<path d="M196.0295 185.3933
L196.1723 185.4648
" />
<path d="M197.4580 186.3933
L197.4580 185.6076
" />
<path d="M197.4580 185.6076
L197.3866 185.4648
" />
<path d="M197.3866 185.4648
L197.2437 185.3933
" />
<path d="M197.2437 185.3933
L196.9580 185.3933
" />
<path d="M196.9580 185.3933
L196.8152 185.4648
" />
<path d="M197.4580 186.3219
L197.3152 186.3933
" />
<path d="M197.3152 186.3933
L196.9580 186.3933
" />
<path d="M196.9580 186.3933
L196.8152 186.3219
" />
<path d="M196.8152 186.3219
L196.7437 186.1790
" />
<path d="M196.7437 186.1790
L196.7437 186.0362
" />
<path d="M196.7437 186.0362
L196.8152 185.8933
" />
<path d="M196.8152 185.8933
L196.9580 185.8219
" />
<path d="M196.9580 185.8219
L197.3152 185.8219
" />
<path d="M197.3152 185.8219
L197.4580 185.7505
" />
<path d="M198.8152 186.3933
L198.8152 184.8933
" />
<path d="M198.8152 186.3219
L198.6723 186.3933
" />
<path d="M198.6723 186.3933
L198.3866 186.3933
" />
<path d="M198.3866 186.3933
L198.2437 186.3219
" />
<path d="M198.2437 186.3219
L198.1723 186.2505
" />
<path d="M198.1723 186.2505
L198.1009 186.1076
" />
<path d="M198.1009 186.1076
L198.1009 185.6790
" />
<path d="M198.1009 185.6790
L198.1723 185.5362
" />
<path d="M198.1723 185.5362
L198.2437 185.4648
" />
<path d="M198.2437 185.4648
L198.3866 185.3933
" />
<path d="M198.3866 185.3933
L198.6723 185.3933
" />
<path d="M198.6723 185.3933
L198.8152 185.4648
" />
<path d="M199.1723 186.5362
L200.3152 186.5362
" />
<path d="M200.6723 185.3933
L200.6723 186.8933
" />
<path d="M200.6723 185.4648
L200.8152 185.3933
" />
<path d="M200.8152 185.3933
L201.1009 185.3933
" />
<path d="M201.1009 185.3933
L201.2437 185.4648
" />
<path d="M201.2437 185.4648
L201.3152 185.5362
" />
<path d="M201.3152 185.5362
L201.3866 185.6790
" />
<path d="M201.3866 185.6790
L201.3866 186.1076
" />
<path d="M201.3866 186.1076
L201.3152 186.2505
" />
<path d="M201.3152 186.2505
L201.2437 186.3219
" />
<path d="M201.2437 186.3219
L201.1009 186.3933
" />
<path d="M201.1009 186.3933
L200.8152 186.3933
" />
<path d="M200.8152 186.3933
L200.6723 186.3219
" />
<path d="M202.6723 186.3219
L202.5295 186.3933
" />
<path d="M202.5295 186.3933
L202.2437 186.3933
" />
<path d="M202.2437 186.3933
L202.1009 186.3219
" />
<path d="M202.1009 186.3219
L202.0295 186.2505
" />
<path d="M202.0295 186.2505
L201.9580 186.1076
" />
<path d="M201.9580 186.1076
L201.9580 185.6790
" />
<path d="M201.9580 185.6790
L202.0295 185.5362
" />
<path d="M202.0295 185.5362
L202.1009 185.4648
" />
<path d="M202.1009 185.4648
L202.2437 185.3933
" />
<path d="M202.2437 185.3933
L202.5295 185.3933
" />
<path d="M202.5295 185.3933
L202.6723 185.4648
" />
<path d="M203.3152 186.3933
L203.3152 184.8933
" />
<path d="M203.3152 185.4648
L203.4580 185.3933
" />
<path d="M203.4580 185.3933
L203.7437 185.3933
" />
<path d="M203.7437 185.3933
L203.8866 185.4648
" />
<path d="M203.8866 185.4648
L203.9580 185.5362
" />
<path d="M203.9580 185.5362
L204.0295 185.6790
" />
<path d="M204.0295 185.6790
L204.0295 186.1076
" />
<path d="M204.0295 186.1076
L203.9580 186.2505
" />
<path d="M203.9580 186.2505
L203.8866 186.3219
" />
<path d="M203.8866 186.3219
L203.7437 186.3933
" />
<path d="M203.7437 186.3933
L203.4580 186.3933
" />
<path d="M203.4580 186.3933
L203.3152 186.3219
" />
</g></g>
<g style="fill:#000000; fill-opacity:0.0; 
stroke:#000000; stroke-width:0.0212; stroke-opacity:1; 
stroke-linecap:round; stroke-linejoin:round;">
</g>
<g style="fill:#000000; fill-opacity:0.0; 
stroke:#000000; stroke-width:0.1500; stroke-opacity:1; 
stroke-linecap:round; stroke-linejoin:round;">
<path d="M177.0022 181.5072
L285.0022 181.5072
" />
</g>
<g style="fill:#000000; fill-opacity:0.0; 
stroke:#000000; stroke-width:0.0212; stroke-opacity:1; 
stroke-linecap:round; stroke-linejoin:round;">
</g>
<g style="fill:#000000; fill-opacity:0.0; 
stroke:#000000; stroke-width:0.1500; stroke-opacity:1; 
stroke-linecap:round; stroke-linejoin:round;">
<text x="178.0022" y="183.7572"
textLength="8.2214" font-size="2.0000" lengthAdjust="spacingAndGlyphs"
text-anchor="start" opacity="0">Sheet: </text>
<g class="stroked-text"><desc>Sheet: </desc>
<path d="M178.3866 183.6219
L178.6009 183.6933
" />
<path d="M178.6009 183.6933
L178.9580 183.6933
" />
<path d="M178.9580 183.6933
L179.1009 183.6219
" />
<path d="M179.1009 183.6219
L179.1723 183.5505
" />
<path d="M179.1723 183.5505
L179.2437 183.4076
" />
<path d="M179.2437 183.4076
L179.2437 183.2648
" />
<path d="M179.2437 183.2648
L179.1723 183.1219
" />
<path d="M179.1723 183.1219
L179.1009 183.0505
" />
<path d="M179.1009 183.0505
L178.9580 182.9790
" />
<path d="M178.9580 182.9790
L178.6723 182.9076
" />
<path d="M178.6723 182.9076
L178.5295 182.8362
" />
<path d="M178.5295 182.8362
L178.4580 182.7648
" />
<path d="M178.4580 182.7648
L178.3866 182.6219
" />
<path d="M178.3866 182.6219
L178.3866 182.4790
" />
<path d="M178.3866 182.4790
L178.4580 182.3362
" />
<path d="M178.4580 182.3362
L178.5295 182.2648
" />
<path d="M178.5295 182.2648
L178.6723 182.1933
" />
<path d="M178.6723 182.1933
L179.0295 182.1933
" />
<path d="M179.0295 182.1933
L179.2437 182.2648
" />
<path d="M179.8866 183.6933
L179.8866 182.1933
" />
<path d="M180.5295 183.6933
L180.5295 182.9076
" />
<path d="M180.5295 182.9076
L180.4580 182.7648
" />
<path d="M180.4580 182.7648
L180.3152 182.6933
" />
<path d="M180.3152 182.6933
L180.1009 182.6933
" />
<path d="M180.1009 182.6933
L179.9580 182.7648
" />
<path d="M179.9580 182.7648
L179.8866 182.8362
" />
<path d="M181.8152 183.6219
L181.6723 183.6933
" />
<path d="M181.6723 183.6933
L181.3866 183.6933
" />
<path d="M181.3866 183.6933
L181.2437 183.6219
" />
<path d="M181.2437 183.6219
L181.1723 183.4790
" />
<path d="M181.1723 183.4790
L181.1723 182.9076
" />
<path d="M181.1723 182.9076
L181.2437 182.7648
" />
<path d="M181.2437 182.7648
L181.3866 182.6933
" />
<path d="M181.3866 182.6933
L181.6723 182.6933
" />
<path d="M181.6723 182.6933
L181.8152 182.7648
" />
<path d="M181.8152 182.7648
L181.8866 182.9076
" />
<path d="M181.8866 182.9076
L181.8866 183.0505
" />
<path d="M181.8866 183.0505
L181.1723 183.1933
" />
<path d="M183.1009 183.6219
L182.9580 183.6933
" />
<path d="M182.9580 183.6933
L182.6723 183.6933
" />
<path d="M182.6723 183.6933
L182.5295 183.6219
" />
<path d="M182.5295 183.6219
L182.4580 183.4790
" />
<path d="M182.4580 183.4790
L182.4580 182.9076
" />
<path d="M182.4580 182.9076
L182.5295 182.7648
" />
<path d="M182.5295 182.7648
L182.6723 182.6933
" />
<path d="M182.6723 182.6933
L182.9580 182.6933
" />
<path d="M182.9580 182.6933
L183.1009 182.7648
" />
<path d="M183.1009 182.7648
L183.1723 182.9076
" />
<path d="M183.1723 182.9076
L183.1723 183.0505
" />
<path d="M183.1723 183.0505
L182.4580 183.1933
" />
<path d="M183.6009 182.6933
L184.1723 182.6933
" />
<path d="M183.8152 182.1933
L183.8152 183.4790
" />
<path d="M183.8152 183.4790
L183.8866 183.6219
" />
<path d="M183.8866 183.6219
L184.0295 183.6933
" />
<path d="M184.0295 183.6933
L184.1723 183.6933
" />
<path d="M184.6723 183.5505
L184.7437 183.6219
" />
<path d="M184.7437 183.6219
L184.6723 183.6933
" />
<path d="M184.6723 183.6933
L184.6009 183.6219
" />
<path d="M184.6009 183.6219
L184.6723 183.5505
" />
<path d="M184.6723 183.5505
L184.6723 183.6933
" />
<path d="M184.6723 182.7648
L184.7437 182.8362
" />
<path d="M184.7437 182.8362
L184.6723 182.9076
" />
<path d="M184.6723 182.9076
L184.6009 182.8362
" />
<path d="M184.6009 182.8362
L184.6723 182.7648
" />
<path d="M184.6723 182.7648
L184.6723 182.9076
" />
</g></g>
<g style="fill:#000000; fill-opacity:0.0; 
stroke:#000000; stroke-width:0.0212; stroke-opacity:1; 
stroke-linecap:round; stroke-linejoin:round;">
</g>
<g style="fill:#000000; fill-opacity:0.0; 
stroke:#000000; stroke-width:0.3000; stroke-opacity:1; 
stroke-linecap:round; stroke-linejoin:round;">
<text x="178.0022" y="180.7572"
textLength="0.9000" font-size="2.0000" lengthAdjust="spacingAndGlyphs"
text-anchor="start" opacity="0"></text>
<g class="stroked-text"><desc></desc>
</g></g>
<g style="fill:#000000; fill-opacity:0.0; 
stroke:#000000; stroke-width:0.0212; stroke-opacity:1; 
stroke-linecap:round; stroke-linejoin:round;">
</g>
<g style="fill:#000000; fill-opacity:0.0; 
stroke:#000000; stroke-width:0.1500; stroke-opacity:1; 
stroke-linecap:round; stroke-linejoin:round;">
<text x="178.0022" y="177.7572"
textLength="0.4500" font-size="2.0000" lengthAdjust="spacingAndGlyphs"
text-anchor="start" opacity="0"></text>
<g class="stroked-text"><desc></desc>
</g></g>
<g style="fill:#000000; fill-opacity:0.0; 
stroke:#000000; stroke-width:0.0212; stroke-opacity:1; 
stroke-linecap:round; stroke-linejoin:round;">
</g>
<g style="fill:#000000; fill-opacity:0.0; 
stroke:#000000; stroke-width:0.1500; stroke-opacity:1; 
stroke-linecap:round; stroke-linejoin:round;">
<text x="178.0022" y="174.7572"
textLength="0.4500" font-size="2.0000" lengthAdjust="spacingAndGlyphs"
text-anchor="start" opacity="0"></text>
<g class="stroked-text"><desc></desc>
</g></g>
<g style="fill:#000000; fill-opacity:0.0; 
stroke:#000000; stroke-width:0.0212; stroke-opacity:1; 
stroke-linecap:round; stroke-linejoin:round;">
</g>
<g style="fill:#000000; fill-opacity:0.0; 
stroke:#000000; stroke-width:0.1500; stroke-opacity:1; 
stroke-linecap:round; stroke-linejoin:round;">
<text x="178.0022" y="171.7572"
textLength="0.4500" font-size="2.0000" lengthAdjust="spacingAndGlyphs"
text-anchor="start" opacity="0"></text>
<g class="stroked-text"><desc></desc>
</g></g>
<g style="fill:#000000; fill-opacity:0.0; 
stroke:#000000; stroke-width:0.0212; stroke-opacity:1; 
stroke-linecap:round; stroke-linejoin:round;">
</g>
<g style="fill:#000000; fill-opacity:0.0; 
stroke:#000000; stroke-width:0.1500; stroke-opacity:1; 
stroke-linecap:round; stroke-linejoin:round;">
<text x="178.0022" y="168.7572"
textLength="0.4500" font-size="2.0000" lengthAdjust="spacingAndGlyphs"
text-anchor="start" opacity="0"></text>
<g class="stroked-text"><desc></desc>
</g></g>
<g style="fill:#000000; fill-opacity:0.0; 
stroke:#000000; stroke-width:0.0212; stroke-opacity:1; 
stroke-linecap:round; stroke-linejoin:round;">
</g>
<g style="fill:#000000; fill-opacity:0.0; 
stroke:#000000; stroke-width:0.1500; stroke-opacity:1; 
stroke-linecap:round; stroke-linejoin:round;">
<path d="M197.0022 191.5072
L197.0022 194.5072
" />
</g>
<g style="fill:#000000; fill-opacity:0.0; 
stroke:#000000; stroke-width:0.0212; stroke-opacity:1; 
stroke-linecap:round; stroke-linejoin:round;">
</g>
<g style="fill:#000000; fill-opacity:0.0; 
stroke:#000000; stroke-width:0.1500; stroke-opacity:1; 
stroke-linecap:round; stroke-linejoin:round;">
<path d="M261.0022 191.5072
L261.0022 198.0072
" />
</g>
<g style="fill:#F2EDA1; fill-opacity:0.0; 
stroke:#F2EDA1; stroke-width:0.1500; stroke-opacity:1; 
stroke-linecap:round; stroke-linejoin:round;">
</g>
<g style="fill:#F2EDA1; fill-opacity:0.0; 
stroke:#F2EDA1; stroke-width:0.2560; stroke-opacity:1; 
stroke-linecap:round; stroke-linejoin:round;">
<text x="148.0249" y="112.7823"
textLength="1.4790" font-size="1.5552" lengthAdjust="spacingAndGlyphs"
text-anchor="start" opacity="0">L</text>
<g class="stroked-text"><desc>L</desc>
<path d="M149.0265 112.6262
L148.4710 112.6262
" />
<path d="M148.4710 112.6262
L148.4710 111.4599
" />
</g><text x="142.9449" y="112.7823"
textLength="1.7567" font-size="1.5552" lengthAdjust="spacingAndGlyphs"
text-anchor="start" opacity="0">U</text>
<g class="stroked-text"><desc>U</desc>
<path d="M143.3910 111.4599
L143.3910 112.4041
" />
<path d="M143.3910 112.4041
L143.4466 112.5152
" />
<path d="M143.4466 112.5152
L143.5021 112.5707
" />
<path d="M143.5021 112.5707
L143.6132 112.6262
" />
<path d="M143.6132 112.6262
L143.8354 112.6262
" />
<path d="M143.8354 112.6262
L143.9465 112.5707
" />
<path d="M143.9465 112.5707
L144.0020 112.5152
" />
<path d="M144.0020 112.5152
L144.0575 112.4041
" />
<path d="M144.0575 112.4041
L144.0575 111.4599
" />
</g><text x="147.3867" y="97.3836"
textLength="2.9231" font-size="1.5552" lengthAdjust="spacingAndGlyphs"
text-anchor="start" opacity="0">UP</text>
<g class="stroked-text"><desc>UP</desc>
<path d="M147.8328 96.0612
L147.8328 97.0054
" />
<path d="M147.8328 97.0054
L147.8884 97.1165
" />
<path d="M147.8884 97.1165
L147.9439 97.1720
" />
<path d="M147.9439 97.1720
L148.0550 97.2275
" />
<path d="M148.0550 97.2275
L148.2772 97.2275
" />
<path d="M148.2772 97.2275
L148.3882 97.1720
" />
<path d="M148.3882 97.1720
L148.4438 97.1165
" />
<path d="M148.4438 97.1165
L148.4993 97.0054
" />
<path d="M148.4993 97.0054
L148.4993 96.0612
" />
<path d="M149.0547 97.2275
L149.0547 96.0612
" />
<path d="M149.0547 96.0612
L149.4991 96.0612
" />
<path d="M149.4991 96.0612
L149.6101 96.1167
" />
<path d="M149.6101 96.1167
L149.6657 96.1723
" />
<path d="M149.6657 96.1723
L149.7212 96.2833
" />
<path d="M149.7212 96.2833
L149.7212 96.4500
" />
<path d="M149.7212 96.4500
L149.6657 96.5610
" />
<path d="M149.6657 96.5610
L149.6101 96.6166
" />
<path d="M149.6101 96.6166
L149.4991 96.6721
" />
<path d="M149.4991 96.6721
L149.0547 96.6721
" />
</g><text x="140.4049" y="112.7824"
textLength="1.9789" font-size="1.5552" lengthAdjust="spacingAndGlyphs"
text-anchor="start" opacity="0">+</text>
<g class="stroked-text"><desc>+</desc>
<path d="M140.8510 112.1820
L141.7397 112.1820
" />
<path d="M141.2954 112.6263
L141.2954 111.7377
" />
</g><text x="150.5649" y="112.7823"
textLength="1.7012" font-size="1.5552" lengthAdjust="spacingAndGlyphs"
text-anchor="start" opacity="0">D</text>
<g class="stroked-text"><desc>D</desc>
<path d="M151.0110 112.6262
L151.0110 111.4599
" />
<path d="M151.0110 111.4599
L151.2888 111.4599
" />
<path d="M151.2888 111.4599
L151.4554 111.5154
" />
<path d="M151.4554 111.5154
L151.5665 111.6265
" />
<path d="M151.5665 111.6265
L151.6220 111.7376
" />
<path d="M151.6220 111.7376
L151.6775 111.9597
" />
<path d="M151.6775 111.9597
L151.6775 112.1264
" />
<path d="M151.6775 112.1264
L151.6220 112.3485
" />
<path d="M151.6220 112.3485
L151.5665 112.4596
" />
<path d="M151.5665 112.4596
L151.4554 112.5707
" />
<path d="M151.4554 112.5707
L151.2888 112.6262
" />
<path d="M151.2888 112.6262
L151.0110 112.6262
" />
</g><text x="153.1049" y="112.7823"
textLength="1.7012" font-size="1.5552" lengthAdjust="spacingAndGlyphs"
text-anchor="start" opacity="0">R</text>
<g class="stroked-text"><desc>R</desc>
<path d="M154.2175 112.6262
L153.8288 112.0708
" />
<path d="M153.5510 112.6262
L153.5510 111.4599
" />
<path d="M153.5510 111.4599
L153.9954 111.4599
" />
<path d="M153.9954 111.4599
L154.1065 111.5154
" />
<path d="M154.1065 111.5154
L154.1620 111.5710
" />
<path d="M154.1620 111.5710
L154.2175 111.6820
" />
<path d="M154.2175 111.6820
L154.2175 111.8487
" />
<path d="M154.2175 111.8487
L154.1620 111.9597
" />
<path d="M154.1620 111.9597
L154.1065 112.0153
" />
<path d="M154.1065 112.0153
L153.9954 112.0708
" />
<path d="M153.9954 112.0708
L153.5510 112.0708
" />
</g><text x="155.6449" y="112.7823"
textLength="1.9789" font-size="1.5552" lengthAdjust="spacingAndGlyphs"
text-anchor="start" opacity="0">-</text>
<g class="stroked-text"><desc>-</desc>
<path d="M156.0910 112.1819
L156.9797 112.1819
" />
</g><text x="145.4849" y="112.7823"
textLength="1.7012" font-size="1.5552" lengthAdjust="spacingAndGlyphs"
text-anchor="start" opacity="0">C</text>
<g class="stroked-text"><desc>C</desc>
<path d="M146.5975 112.5152
L146.5420 112.5707
" />
<path d="M146.5420 112.5707
L146.3754 112.6262
" />
<path d="M146.3754 112.6262
L146.2643 112.6262
" />
<path d="M146.2643 112.6262
L146.0977 112.5707
" />
<path d="M146.0977 112.5707
L145.9866 112.4596
" />
<path d="M145.9866 112.4596
L145.9310 112.3485
" />
<path d="M145.9310 112.3485
L145.8755 112.1264
" />
<path d="M145.8755 112.1264
L145.8755 111.9597
" />
<path d="M145.8755 111.9597
L145.9310 111.7376
" />
<path d="M145.9310 111.7376
L145.9866 111.6265
" />
<path d="M145.9866 111.6265
L146.0977 111.5154
" />
<path d="M146.0977 111.5154
L146.2643 111.4599
" />
<path d="M146.2643 111.4599
L146.3754 111.4599
" />
<path d="M146.3754 111.4599
L146.5420 111.5154
" />
<path d="M146.5420 111.5154
L146.5975 111.5710
" />
</g></g>
<g style="fill:#F2EDA1; fill-opacity:0.0; 
stroke:#F2EDA1; stroke-width:0.0325; stroke-opacity:1; 
stroke-linecap:round; stroke-linejoin:round;">
<g transform="rotate(-90.000000 147.7391 110.6551)">
<text x="147.7391" y="110.6551"
textLength="0.7527" font-size="0.4985" lengthAdjust="spacingAndGlyphs"
text-anchor="start" opacity="0">R3</text>
</g>
<g class="stroked-text"><desc>R3</desc>
<path d="M147.6917 110.3310
L147.5136 110.4557
" />
<path d="M147.6917 110.5447
L147.3178 110.5447
" />
<path d="M147.3178 110.5447
L147.3178 110.4023
" />
<path d="M147.3178 110.4023
L147.3356 110.3666
" />
<path d="M147.3356 110.3666
L147.3534 110.3488
" />
<path d="M147.3534 110.3488
L147.3890 110.3310
" />
<path d="M147.3890 110.3310
L147.4424 110.3310
" />
<path d="M147.4424 110.3310
L147.4780 110.3488
" />
<path d="M147.4780 110.3488
L147.4958 110.3666
" />
<path d="M147.4958 110.3666
L147.5136 110.4023
" />
<path d="M147.5136 110.4023
L147.5136 110.5447
" />
<path d="M147.3178 110.2064
L147.3178 109.9750
" />
<path d="M147.3178 109.9750
L147.4602 110.0996
" />
<path d="M147.4602 110.0996
L147.4602 110.0462
" />
<path d="M147.4602 110.0462
L147.4780 110.0106
" />
<path d="M147.4780 110.0106
L147.4958 109.9928
" />
<path d="M147.4958 109.9928
L147.5314 109.9750
" />
<path d="M147.5314 109.9750
L147.6204 109.9750
" />
<path d="M147.6204 109.9750
L147.6560 109.9928
" />
<path d="M147.6560 109.9928
L147.6738 110.0106
" />
<path d="M147.6738 110.0106
L147.6917 110.0462
" />
<path d="M147.6917 110.0462
L147.6917 110.1530
" />
<path d="M147.6917 110.1530
L147.6738 110.1886
" />
<path d="M147.6738 110.1886
L147.6560 110.2064
" />
</g><g transform="rotate(-90.000000 142.6591 110.6551)">
<text x="142.6591" y="110.6551"
textLength="0.7527" font-size="0.4985" lengthAdjust="spacingAndGlyphs"
text-anchor="start" opacity="0">R1</text>
</g>
<g class="stroked-text"><desc>R1</desc>
<path d="M142.6117 110.3310
L142.4336 110.4557
" />
<path d="M142.6117 110.5447
L142.2378 110.5447
" />
<path d="M142.2378 110.5447
L142.2378 110.4023
" />
<path d="M142.2378 110.4023
L142.2556 110.3666
" />
<path d="M142.2556 110.3666
L142.2734 110.3488
" />
<path d="M142.2734 110.3488
L142.3090 110.3310
" />
<path d="M142.3090 110.3310
L142.3624 110.3310
" />
<path d="M142.3624 110.3310
L142.3980 110.3488
" />
<path d="M142.3980 110.3488
L142.4158 110.3666
" />
<path d="M142.4158 110.3666
L142.4336 110.4023
" />
<path d="M142.4336 110.4023
L142.4336 110.5447
" />
<path d="M142.6117 109.9750
L142.6117 110.1886
" />
<path d="M142.6117 110.0818
L142.2378 110.0818
" />
<path d="M142.2378 110.0818
L142.2912 110.1174
" />
<path d="M142.2912 110.1174
L142.3268 110.1530
" />
<path d="M142.3268 110.1530
L142.3446 110.1886
" />
</g><g transform="rotate(-90.000000 145.1991 110.6551)">
<text x="145.1991" y="110.6551"
textLength="0.7527" font-size="0.4985" lengthAdjust="spacingAndGlyphs"
text-anchor="start" opacity="0">R2</text>
</g>
<g class="stroked-text"><desc>R2</desc>
<path d="M145.1517 110.3310
L144.9736 110.4557
" />
<path d="M145.1517 110.5447
L144.7778 110.5447
" />
<path d="M144.7778 110.5447
L144.7778 110.4023
" />
<path d="M144.7778 110.4023
L144.7956 110.3666
" />
<path d="M144.7956 110.3666
L144.8134 110.3488
" />
<path d="M144.8134 110.3488
L144.8490 110.3310
" />
<path d="M144.8490 110.3310
L144.9024 110.3310
" />
<path d="M144.9024 110.3310
L144.9380 110.3488
" />
<path d="M144.9380 110.3488
L144.9558 110.3666
" />
<path d="M144.9558 110.3666
L144.9736 110.4023
" />
<path d="M144.9736 110.4023
L144.9736 110.5447
" />
<path d="M144.8134 110.1886
L144.7956 110.1708
" />
<path d="M144.7956 110.1708
L144.7778 110.1352
" />
<path d="M144.7778 110.1352
L144.7778 110.0462
" />
<path d="M144.7778 110.0462
L144.7956 110.0106
" />
<path d="M144.7956 110.0106
L144.8134 109.9928
" />
<path d="M144.8134 109.9928
L144.8490 109.9750
" />
<path d="M144.8490 109.9750
L144.8846 109.9750
" />
<path d="M144.8846 109.9750
L144.9380 109.9928
" />
<path d="M144.9380 109.9928
L145.1517 110.2064
" />
<path d="M145.1517 110.2064
L145.1517 109.9750
" />
</g><g transform="rotate(-90.000000 152.8191 110.6551)">
<text x="152.8191" y="110.6551"
textLength="0.7527" font-size="0.4985" lengthAdjust="spacingAndGlyphs"
text-anchor="start" opacity="0">R5</text>
</g>
<g class="stroked-text"><desc>R5</desc>
<path d="M152.7717 110.3310
L152.5936 110.4557
" />
<path d="M152.7717 110.5447
L152.3978 110.5447
" />
<path d="M152.3978 110.5447
L152.3978 110.4023
" />
<path d="M152.3978 110.4023
L152.4156 110.3666
" />
<path d="M152.4156 110.3666
L152.4334 110.3488
" />
<path d="M152.4334 110.3488
L152.4690 110.3310
" />
<path d="M152.4690 110.3310
L152.5224 110.3310
" />
<path d="M152.5224 110.3310
L152.5580 110.3488
" />
<path d="M152.5580 110.3488
L152.5758 110.3666
" />
<path d="M152.5758 110.3666
L152.5936 110.4023
" />
<path d="M152.5936 110.4023
L152.5936 110.5447
" />
<path d="M152.3978 109.9928
L152.3978 110.1708
" />
<path d="M152.3978 110.1708
L152.5758 110.1886
" />
<path d="M152.5758 110.1886
L152.5580 110.1708
" />
<path d="M152.5580 110.1708
L152.5402 110.1352
" />
<path d="M152.5402 110.1352
L152.5402 110.0462
" />
<path d="M152.5402 110.0462
L152.5580 110.0106
" />
<path d="M152.5580 110.0106
L152.5758 109.9928
" />
<path d="M152.5758 109.9928
L152.6114 109.9750
" />
<path d="M152.6114 109.9750
L152.7004 109.9750
" />
<path d="M152.7004 109.9750
L152.7360 109.9928
" />
<path d="M152.7360 109.9928
L152.7538 110.0106
" />
<path d="M152.7538 110.0106
L152.7717 110.0462
" />
<path d="M152.7717 110.0462
L152.7717 110.1352
" />
<path d="M152.7717 110.1352
L152.7538 110.1708
" />
<path d="M152.7538 110.1708
L152.7360 110.1886
" />
</g><g transform="rotate(-90.000000 150.2791 110.6551)">
<text x="150.2791" y="110.6551"
textLength="0.7527" font-size="0.4985" lengthAdjust="spacingAndGlyphs"
text-anchor="start" opacity="0">R4</text>
</g>
<g class="stroked-text"><desc>R4</desc>
<path d="M150.2317 110.3310
L150.0536 110.4557
" />
<path d="M150.2317 110.5447
L149.8578 110.5447
" />
<path d="M149.8578 110.5447
L149.8578 110.4023
" />
<path d="M149.8578 110.4023
L149.8756 110.3666
" />
<path d="M149.8756 110.3666
L149.8934 110.3488
" />
<path d="M149.8934 110.3488
L149.9290 110.3310
" />
<path d="M149.9290 110.3310
L149.9824 110.3310
" />
<path d="M149.9824 110.3310
L150.0180 110.3488
" />
<path d="M150.0180 110.3488
L150.0358 110.3666
" />
<path d="M150.0358 110.3666
L150.0536 110.4023
" />
<path d="M150.0536 110.4023
L150.0536 110.5447
" />
<path d="M149.9824 110.0106
L150.2317 110.0106
" />
<path d="M149.8400 110.0996
L150.1070 110.1886
" />
<path d="M150.1070 110.1886
L150.1070 109.9572
" />
</g><g transform="rotate(45.000000 149.4203 98.0088)">
<text x="149.4203" y="98.0088"
textLength="0.7349" font-size="0.4985" lengthAdjust="spacingAndGlyphs"
text-anchor="start" opacity="0">S1</text>
</g>
<g class="stroked-text"><desc>S1</desc>
<path d="M149.5320 98.0282
L149.5571 98.0785
" />
<path d="M149.5571 98.0785
L149.6201 98.1415
" />
<path d="M149.6201 98.1415
L149.6579 98.1541
" />
<path d="M149.6579 98.1541
L149.6830 98.1541
" />
<path d="M149.6830 98.1541
L149.7208 98.1415
" />
<path d="M149.7208 98.1415
L149.7460 98.1163
" />
<path d="M149.7460 98.1163
L149.7586 98.0785
" />
<path d="M149.7586 98.0785
L149.7586 98.0533
" />
<path d="M149.7586 98.0533
L149.7460 98.0156
" />
<path d="M149.7460 98.0156
L149.7082 97.9526
" />
<path d="M149.7082 97.9526
L149.6956 97.9149
" />
<path d="M149.6956 97.9149
L149.6956 97.8897
" />
<path d="M149.6956 97.8897
L149.7082 97.8519
" />
<path d="M149.7082 97.8519
L149.7334 97.8267
" />
<path d="M149.7334 97.8267
L149.7712 97.8141
" />
<path d="M149.7712 97.8141
L149.7963 97.8141
" />
<path d="M149.7963 97.8141
L149.8341 97.8267
" />
<path d="M149.8341 97.8267
L149.8971 97.8897
" />
<path d="M149.8971 97.8897
L149.9222 97.9400
" />
<path d="M149.9222 98.4436
L149.7712 98.2925
" />
<path d="M149.8467 98.3681
L150.1111 98.1037
" />
<path d="M150.1111 98.1037
L150.0481 98.1163
" />
<path d="M150.0481 98.1163
L149.9978 98.1163
" />
<path d="M149.9978 98.1163
L149.9600 98.1037
" />
</g></g>
<g style="fill:#F2EDA1; fill-opacity:0.0; 
stroke:#F2EDA1; stroke-width:0.1626; stroke-opacity:1; 
stroke-linecap:round; stroke-linejoin:round;">
<text x="147.7940" y="99.0695"
textLength="1.6891" font-size="0.8670" lengthAdjust="spacingAndGlyphs"
text-anchor="start" opacity="0">UP</text>
<g class="stroked-text"><desc>UP</desc>
<path d="M148.0558 98.3312
L148.0558 98.8576
" />
<path d="M148.0558 98.8576
L148.0867 98.9195
" />
<path d="M148.0867 98.9195
L148.1177 98.9505
" />
<path d="M148.1177 98.9505
L148.1796 98.9815
" />
<path d="M148.1796 98.9815
L148.3035 98.9815
" />
<path d="M148.3035 98.9815
L148.3654 98.9505
" />
<path d="M148.3654 98.9505
L148.3964 98.9195
" />
<path d="M148.3964 98.9195
L148.4273 98.8576
" />
<path d="M148.4273 98.8576
L148.4273 98.3312
" />
<path d="M148.7370 98.9815
L148.7370 98.3312
" />
<path d="M148.7370 98.3312
L148.9847 98.3312
" />
<path d="M148.9847 98.3312
L149.0466 98.3622
" />
<path d="M149.0466 98.3622
L149.0776 98.3931
" />
<path d="M149.0776 98.3931
L149.1085 98.4551
" />
<path d="M149.1085 98.4551
L149.1085 98.5480
" />
<path d="M149.1085 98.5480
L149.0776 98.6099
" />
<path d="M149.0776 98.6099
L149.0466 98.6409
" />
<path d="M149.0466 98.6409
L148.9847 98.6718
" />
<path d="M148.9847 98.6718
L148.7370 98.6718
" />
</g></g>
<g style="fill:#F2EDA1; fill-opacity:1.0000; 
stroke:#F2EDA1; stroke-width:0.0000; stroke-opacity:1; 
stroke-linecap:round; stroke-linejoin:round;">
<path style="fill:#F2EDA1; fill-opacity:1.0000; 
stroke:#F2EDA1; stroke-width:0.0000; stroke-opacity:1; 
stroke-linecap:round; stroke-linejoin:round;fill-rule:evenodd;"
d="M 148.8821,109.9947
148.1201,109.9947
148.1201,109.5375
148.8821,109.5375
Z" /> 
<path style="fill:#F2EDA1; fill-opacity:1.0000; 
stroke:#F2EDA1; stroke-width:0.0000; stroke-opacity:1; 
stroke-linecap:round; stroke-linejoin:round;fill-rule:evenodd;"
d="M 157.6927,101.4022
157.8146,101.4413
157.9283,101.4998
158.3197,101.1807
158.6740,101.5350
158.3521,101.9298
158.4481,102.1615
158.9549,102.2130
158.9549,102.7142
158.4481,102.7657
158.3521,102.9974
158.6740,103.3922
158.3197,103.7465
157.9283,103.4274
157.7477,103.5204
157.4798,102.8737
157.7174,102.6812
157.7647,102.5851
157.7838,102.4739
157.7706,102.3620
157.7260,102.2584
157.6539,102.1717
157.5602,102.1090
157.4525,102.0756
157.3398,102.0741
157.2312,102.1047
157.1359,102.1649
157.0615,102.2496
157.0143,102.3520
156.9989,102.4578
157.0682,102.6862
157.1418,102.7674
157.4828,102.9717
157.2618,102.9717
157.0358,103.5173
156.8845,103.4472
156.8522,103.4288
156.4625,103.7465
156.1082,103.3922
156.4301,102.9974
156.3341,102.7657
155.8273,102.7142
155.8273,102.2130
156.3341,102.1615
156.4301,101.9298
156.1082,101.5350
156.4625,101.1807
156.8573,101.5026
157.0890,101.4066
157.1405,100.8998
157.6417,100.8998
Z" /> 
<path style="fill:#F2EDA1; fill-opacity:1.0000; 
stroke:#F2EDA1; stroke-width:0.0000; stroke-opacity:1; 
stroke-linecap:round; stroke-linejoin:round;fill-rule:evenodd;"
d="M 143.8021,109.9947
143.0401,109.9947
143.0401,109.5375
143.8021,109.5375
Z" /> 
<path style="fill:#F2EDA1; fill-opacity:1.0000; 
stroke:#F2EDA1; stroke-width:0.0000; stroke-opacity:1; 
stroke-linecap:round; stroke-linejoin:round;fill-rule:evenodd;"
d="M 146.3421,109.9947
145.5801,109.9947
145.5801,109.5375
146.3421,109.5375
Z" /> 
<path style="fill:#F2EDA1; fill-opacity:1.0000; 
stroke:#F2EDA1; stroke-width:0.0000; stroke-opacity:1; 
stroke-linecap:round; stroke-linejoin:round;fill-rule:evenodd;"
d="M 139.9434,100.9254
140.0328,100.9478
140.0459,100.9528
140.0576,100.9587
140.0743,100.9670
140.0930,100.9738
140.1891,101.0310
140.1967,101.0310
140.1967,101.0564
140.1242,101.0564
140.0258,101.0757
139.8923,101.2383
139.8968,101.2968
139.9455,101.3917
140.0221,101.4684
140.1115,101.5330
140.1867,101.5648
140.2681,101.5620
140.2763,101.5594
140.2837,101.5562
140.3479,101.4966
140.3542,101.4738
140.3542,101.3557
140.5811,101.5855
140.6856,101.8768
140.6890,101.8767
140.6955,102.0832
140.6663,102.2762
140.6027,102.4608
140.4837,102.6720
140.4837,102.6530
140.1955,102.9246
139.7996,103.0351
139.5704,103.0351
139.5336,103.0416
139.4992,103.0540
139.3137,103.1918
138.8048,103.7645
138.8048,102.2128
138.8774,101.9716
138.9857,101.8681
139.1245,101.8161
139.2213,101.8085
139.3168,101.8160
139.3773,101.8255
139.3752,101.8492
139.3396,101.8484
139.3192,101.8575
139.2379,101.9164
139.2181,101.9429
139.2078,102.0051
139.2183,102.0684
139.2388,102.1084
139.2697,102.1409
139.3639,102.1900
139.4696,102.2019
139.5602,102.1835
139.6416,102.1439
139.7394,101.9789
139.7251,101.8848
139.6683,101.8032
139.4021,101.4704
139.3791,101.2227
139.4449,101.1120
139.4464,101.1105
139.5963,100.9865
139.8501,100.9165
Z" /> 
<path style="fill:#F2EDA1; fill-opacity:1.0000; 
stroke:#F2EDA1; stroke-width:0.0000; stroke-opacity:1; 
stroke-linecap:round; stroke-linejoin:round;fill-rule:evenodd;"
d="M 153.9621,109.9947
153.2001,109.9947
153.2001,109.5375
153.9621,109.5375
Z" /> 
<path style="fill:#F2EDA1; fill-opacity:1.0000; 
stroke:#F2EDA1; stroke-width:0.0000; stroke-opacity:1; 
stroke-linecap:round; stroke-linejoin:round;fill-rule:evenodd;"
d="M 151.4221,109.9947
150.6601,109.9947
150.6601,109.5375
151.4221,109.5375
Z" /> 
</g>
<g style="fill:#F2EDA1; fill-opacity:1.0000; 
stroke:#F2EDA1; stroke-width:0.2032; stroke-opacity:1; 
stroke-linecap:round; stroke-linejoin:round;">
</g>
<g style="fill:#F2EDA1; fill-opacity:0.0; 
stroke:#F2EDA1; stroke-width:0.2032; stroke-opacity:1; 
stroke-linecap:round; stroke-linejoin:round;">
<path d="M147.6879 98.1149
L149.1021 98.1149
" />
<path d="M144.1524 101.6504
L147.6879 98.1149
" />
<path d="M149.1021 98.1149
L150.2689 99.2816
" />
<path d="M144.1524 103.0646
L144.1524 101.6504
" />
<path d="M148.5011 99.3523
L148.0768 99.7766
" />
<path d="M148.5011 99.3523
L148.9254 99.7766
" />
<path d="M148.5011 100.6251
L148.5011 99.3523
" />
<path d="M147.5112 101.9737
L147.5112 102.9535
" />
<path d="M150.2689 99.2816
L151.6831 100.6958
" />
<path d="M148.9910 101.4737
L148.0112 101.4737
" />
<path d="M150.2689 100.6958
L150.2689 99.2816
" />
<path d="M150.2689 100.6958
L151.6831 100.6958
" />
<path d="M148.0112 103.4535
L148.9910 103.4535
" />
<path d="M151.6831 100.6958
L152.8498 101.8626
" />
<path d="M149.4910 102.9535
L149.4910 101.9737
" />
<path d="M152.8498 101.8626
L152.8498 103.2768
" />
<path d="M147.9001 106.8123
L144.1524 103.0646
" />
<path d="M152.8498 103.2768
L149.3143 106.8123
" />
<path d="M149.3143 106.8123
L147.9001 106.8123
" />
<path d="M148.0112 101.4737 A0.5000 0.5000 0.0 0 0 147.5112 101.9737" />
<path d="M149.4910 101.9737 A0.5000 0.5000 0.0 0 0 148.9910 101.4737" />
<path d="M147.5112 102.9535 A0.5000 0.5000 0.0 0 0 148.0112 103.4535" />
<path d="M148.9910 103.4535 A0.5000 0.5000 0.0 0 0 149.4910 102.9535" />
<circle cx="148.5011" cy="102.4636" r="1.5000" /> 
<g >
</g>
<g >
</g>
<g >
</g>
<g >
</g>
<g >
</g>
<g >
</g>
<g >
</g>
<g >
</g>
<g >
</g>
<g >
</g>
<g >
</g>
<g >
</g>
<g >
</g>
<g >
</g>
<g >
</g>
<g >
</g>
<g >
</g>
<g >
</g>
<g >
</g>
<g >
</g>
</g>
<g style="fill:#000000; fill-opacity:0.0; 
stroke:#000000; stroke-width:0.2032; stroke-opacity:1; 
stroke-linecap:round; stroke-linejoin:round;">
</g>
<g style="fill:#D0D2CD; fill-opacity:0.0; 
stroke:#D0D2CD; stroke-width:0.2032; stroke-opacity:1; 
stroke-linecap:round; stroke-linejoin:round;">
<path d="M159.9311 94.8436
L137.0711 94.8436
" />
<path d="M137.0711 94.8436
L137.0711 115.1636
" />
<path d="M159.9311 115.1636
L159.9311 94.8436
" />
<path d="M137.0711 115.1636
L159.9311 115.1636
" />
<g >
</g>
<g >
</g>
<g >
</g>
<g >
</g>
<g >
</g>
<g >
</g>
<g >
</g>
<g >
</g>
<g >
</g>
<g >
</g>
<g >
</g>
<g >
</g>
<g >
</g>
<g >
</g>
<g >
</g>
<g >
</g>
<g >
</g>
<g >
</g>
<g >
</g>
<g >
</g>
</g> 
</svg>
