<?xml version="1.0" standalone="no"?>
 <!DOCTYPE svg PUBLIC "-//W3C//DTD SVG 1.1//EN" 
 "http://www.w3.org/Graphics/SVG/1.1/DTD/svg11.dtd"> 
<svg
  xmlns:svg="http://www.w3.org/2000/svg"
  xmlns="http://www.w3.org/2000/svg"
  xmlns:xlink="http://www.w3.org/1999/xlink"
  version="1.1"
  width="297.0022mm" height="210.0072mm" viewBox="0.0000 0.0000 297.0022 210.0072">
<title>SVG Image created as working-B_Fab.svg date 2023/07/24 10:06:59 </title>
  <desc>Image generated by PCBNEW </desc>
<g style="fill:#000000; fill-opacity:1.0000;stroke:#000000; stroke-opacity:1.0000;
stroke-linecap:round; stroke-linejoin:round;"
 transform="translate(0 0) scale(1 1)">
</g>
<g style="fill:#000000; fill-opacity:0.0; 
stroke:#000000; stroke-width:0.0000; stroke-opacity:1; 
stroke-linecap:round; stroke-linejoin:round;">
</g>
<g style="fill:#000000; fill-opacity:0.0; 
stroke:#000000; stroke-width:0.0212; stroke-opacity:1; 
stroke-linecap:round; stroke-linejoin:round;">
</g>
<g style="fill:#000000; fill-opacity:0.0; 
stroke:#000000; stroke-width:0.1500; stroke-opacity:1; 
stroke-linecap:round; stroke-linejoin:round;">
<path d="M177.0022 166.0072
L285.0022 166.0072
L285.0022 198.0072
L177.0022 198.0072
L177.0022 166.0072
" />
</g>
<g style="fill:#000000; fill-opacity:0.0; 
stroke:#000000; stroke-width:0.0212; stroke-opacity:1; 
stroke-linecap:round; stroke-linejoin:round;">
</g>
<g style="fill:#000000; fill-opacity:0.0; 
stroke:#000000; stroke-width:0.1500; stroke-opacity:1; 
stroke-linecap:round; stroke-linejoin:round;">
<path d="M10.0000 10.0000
L287.0022 10.0000
L287.0022 200.0072
L10.0000 200.0072
L10.0000 10.0000
" />
</g>
<g style="fill:#000000; fill-opacity:0.0; 
stroke:#000000; stroke-width:0.0212; stroke-opacity:1; 
stroke-linecap:round; stroke-linejoin:round;">
</g>
<g style="fill:#000000; fill-opacity:0.0; 
stroke:#000000; stroke-width:0.1500; stroke-opacity:1; 
stroke-linecap:round; stroke-linejoin:round;">
<path d="M12.0000 12.0000
L285.0022 12.0000
L285.0022 198.0072
L12.0000 198.0072
L12.0000 12.0000
" />
</g>
<g style="fill:#000000; fill-opacity:0.0; 
stroke:#000000; stroke-width:0.0212; stroke-opacity:1; 
stroke-linecap:round; stroke-linejoin:round;">
</g>
<g style="fill:#000000; fill-opacity:0.0; 
stroke:#000000; stroke-width:0.1500; stroke-opacity:1; 
stroke-linecap:round; stroke-linejoin:round;">
<path d="M60.0000 12.0000
L60.0000 10.0000
" />
</g>
<g style="fill:#000000; fill-opacity:0.0; 
stroke:#000000; stroke-width:0.0212; stroke-opacity:1; 
stroke-linecap:round; stroke-linejoin:round;">
</g>
<g style="fill:#000000; fill-opacity:0.0; 
stroke:#000000; stroke-width:0.1500; stroke-opacity:1; 
stroke-linecap:round; stroke-linejoin:round;">
<path d="M110.0000 12.0000
L110.0000 10.0000
" />
</g>
<g style="fill:#000000; fill-opacity:0.0; 
stroke:#000000; stroke-width:0.0212; stroke-opacity:1; 
stroke-linecap:round; stroke-linejoin:round;">
</g>
<g style="fill:#000000; fill-opacity:0.0; 
stroke:#000000; stroke-width:0.1500; stroke-opacity:1; 
stroke-linecap:round; stroke-linejoin:round;">
<path d="M160.0000 12.0000
L160.0000 10.0000
" />
</g>
<g style="fill:#000000; fill-opacity:0.0; 
stroke:#000000; stroke-width:0.0212; stroke-opacity:1; 
stroke-linecap:round; stroke-linejoin:round;">
</g>
<g style="fill:#000000; fill-opacity:0.0; 
stroke:#000000; stroke-width:0.1500; stroke-opacity:1; 
stroke-linecap:round; stroke-linejoin:round;">
<path d="M210.0000 12.0000
L210.0000 10.0000
" />
</g>
<g style="fill:#000000; fill-opacity:0.0; 
stroke:#000000; stroke-width:0.0212; stroke-opacity:1; 
stroke-linecap:round; stroke-linejoin:round;">
</g>
<g style="fill:#000000; fill-opacity:0.0; 
stroke:#000000; stroke-width:0.1500; stroke-opacity:1; 
stroke-linecap:round; stroke-linejoin:round;">
<path d="M260.0000 12.0000
L260.0000 10.0000
" />
</g>
<g style="fill:#000000; fill-opacity:0.0; 
stroke:#000000; stroke-width:0.0212; stroke-opacity:1; 
stroke-linecap:round; stroke-linejoin:round;">
</g>
<g style="fill:#000000; fill-opacity:0.0; 
stroke:#000000; stroke-width:0.1500; stroke-opacity:1; 
stroke-linecap:round; stroke-linejoin:round;">
<text x="35.0000" y="11.6500"
textLength="1.3531" font-size="1.7333" lengthAdjust="spacingAndGlyphs"
text-anchor="start" opacity="0">1</text>
<g class="stroked-text"><desc>1</desc>
<path d="M35.9905 11.6014
L35.2476 11.6014
" />
<path d="M35.6190 11.6014
L35.6190 10.3014
" />
<path d="M35.6190 10.3014
L35.4952 10.4871
" />
<path d="M35.4952 10.4871
L35.3714 10.6109
" />
<path d="M35.3714 10.6109
L35.2476 10.6728
" />
</g></g>
<g style="fill:#000000; fill-opacity:0.0; 
stroke:#000000; stroke-width:0.0212; stroke-opacity:1; 
stroke-linecap:round; stroke-linejoin:round;">
</g>
<g style="fill:#000000; fill-opacity:0.0; 
stroke:#000000; stroke-width:0.1500; stroke-opacity:1; 
stroke-linecap:round; stroke-linejoin:round;">
<text x="85.0000" y="11.6500"
textLength="1.3531" font-size="1.7333" lengthAdjust="spacingAndGlyphs"
text-anchor="start" opacity="0">2</text>
<g class="stroked-text"><desc>2</desc>
<path d="M85.2476 10.4252
L85.3095 10.3633
" />
<path d="M85.3095 10.3633
L85.4333 10.3014
" />
<path d="M85.4333 10.3014
L85.7429 10.3014
" />
<path d="M85.7429 10.3014
L85.8667 10.3633
" />
<path d="M85.8667 10.3633
L85.9286 10.4252
" />
<path d="M85.9286 10.4252
L85.9905 10.5490
" />
<path d="M85.9905 10.5490
L85.9905 10.6728
" />
<path d="M85.9905 10.6728
L85.9286 10.8585
" />
<path d="M85.9286 10.8585
L85.1857 11.6014
" />
<path d="M85.1857 11.6014
L85.9905 11.6014
" />
</g></g>
<g style="fill:#000000; fill-opacity:0.0; 
stroke:#000000; stroke-width:0.0212; stroke-opacity:1; 
stroke-linecap:round; stroke-linejoin:round;">
</g>
<g style="fill:#000000; fill-opacity:0.0; 
stroke:#000000; stroke-width:0.1500; stroke-opacity:1; 
stroke-linecap:round; stroke-linejoin:round;">
<text x="135.0000" y="11.6500"
textLength="1.3531" font-size="1.7333" lengthAdjust="spacingAndGlyphs"
text-anchor="start" opacity="0">3</text>
<g class="stroked-text"><desc>3</desc>
<path d="M135.1857 10.3014
L135.9905 10.3014
" />
<path d="M135.9905 10.3014
L135.5571 10.7966
" />
<path d="M135.5571 10.7966
L135.7429 10.7966
" />
<path d="M135.7429 10.7966
L135.8667 10.8585
" />
<path d="M135.8667 10.8585
L135.9286 10.9205
" />
<path d="M135.9286 10.9205
L135.9905 11.0443
" />
<path d="M135.9905 11.0443
L135.9905 11.3538
" />
<path d="M135.9905 11.3538
L135.9286 11.4776
" />
<path d="M135.9286 11.4776
L135.8667 11.5395
" />
<path d="M135.8667 11.5395
L135.7429 11.6014
" />
<path d="M135.7429 11.6014
L135.3714 11.6014
" />
<path d="M135.3714 11.6014
L135.2476 11.5395
" />
<path d="M135.2476 11.5395
L135.1857 11.4776
" />
</g></g>
<g style="fill:#000000; fill-opacity:0.0; 
stroke:#000000; stroke-width:0.0212; stroke-opacity:1; 
stroke-linecap:round; stroke-linejoin:round;">
</g>
<g style="fill:#000000; fill-opacity:0.0; 
stroke:#000000; stroke-width:0.1500; stroke-opacity:1; 
stroke-linecap:round; stroke-linejoin:round;">
<text x="185.0000" y="11.6500"
textLength="1.3531" font-size="1.7333" lengthAdjust="spacingAndGlyphs"
text-anchor="start" opacity="0">4</text>
<g class="stroked-text"><desc>4</desc>
<path d="M185.8667 10.7347
L185.8667 11.6014
" />
<path d="M185.5571 10.2395
L185.2476 11.1681
" />
<path d="M185.2476 11.1681
L186.0524 11.1681
" />
</g></g>
<g style="fill:#000000; fill-opacity:0.0; 
stroke:#000000; stroke-width:0.0212; stroke-opacity:1; 
stroke-linecap:round; stroke-linejoin:round;">
</g>
<g style="fill:#000000; fill-opacity:0.0; 
stroke:#000000; stroke-width:0.1500; stroke-opacity:1; 
stroke-linecap:round; stroke-linejoin:round;">
<text x="235.0000" y="11.6500"
textLength="1.3531" font-size="1.7333" lengthAdjust="spacingAndGlyphs"
text-anchor="start" opacity="0">5</text>
<g class="stroked-text"><desc>5</desc>
<path d="M235.9286 10.3014
L235.3095 10.3014
" />
<path d="M235.3095 10.3014
L235.2476 10.9205
" />
<path d="M235.2476 10.9205
L235.3095 10.8585
" />
<path d="M235.3095 10.8585
L235.4333 10.7966
" />
<path d="M235.4333 10.7966
L235.7429 10.7966
" />
<path d="M235.7429 10.7966
L235.8667 10.8585
" />
<path d="M235.8667 10.8585
L235.9286 10.9205
" />
<path d="M235.9286 10.9205
L235.9905 11.0443
" />
<path d="M235.9905 11.0443
L235.9905 11.3538
" />
<path d="M235.9905 11.3538
L235.9286 11.4776
" />
<path d="M235.9286 11.4776
L235.8667 11.5395
" />
<path d="M235.8667 11.5395
L235.7429 11.6014
" />
<path d="M235.7429 11.6014
L235.4333 11.6014
" />
<path d="M235.4333 11.6014
L235.3095 11.5395
" />
<path d="M235.3095 11.5395
L235.2476 11.4776
" />
</g></g>
<g style="fill:#000000; fill-opacity:0.0; 
stroke:#000000; stroke-width:0.0212; stroke-opacity:1; 
stroke-linecap:round; stroke-linejoin:round;">
</g>
<g style="fill:#000000; fill-opacity:0.0; 
stroke:#000000; stroke-width:0.1500; stroke-opacity:1; 
stroke-linecap:round; stroke-linejoin:round;">
<text x="285.0000" y="11.6500"
textLength="1.3531" font-size="1.7333" lengthAdjust="spacingAndGlyphs"
text-anchor="start" opacity="0">6</text>
<g class="stroked-text"><desc>6</desc>
<path d="M285.8667 10.3014
L285.6190 10.3014
" />
<path d="M285.6190 10.3014
L285.4952 10.3633
" />
<path d="M285.4952 10.3633
L285.4333 10.4252
" />
<path d="M285.4333 10.4252
L285.3095 10.6109
" />
<path d="M285.3095 10.6109
L285.2476 10.8585
" />
<path d="M285.2476 10.8585
L285.2476 11.3538
" />
<path d="M285.2476 11.3538
L285.3095 11.4776
" />
<path d="M285.3095 11.4776
L285.3714 11.5395
" />
<path d="M285.3714 11.5395
L285.4952 11.6014
" />
<path d="M285.4952 11.6014
L285.7429 11.6014
" />
<path d="M285.7429 11.6014
L285.8667 11.5395
" />
<path d="M285.8667 11.5395
L285.9286 11.4776
" />
<path d="M285.9286 11.4776
L285.9905 11.3538
" />
<path d="M285.9905 11.3538
L285.9905 11.0443
" />
<path d="M285.9905 11.0443
L285.9286 10.9205
" />
<path d="M285.9286 10.9205
L285.8667 10.8585
" />
<path d="M285.8667 10.8585
L285.7429 10.7966
" />
<path d="M285.7429 10.7966
L285.4952 10.7966
" />
<path d="M285.4952 10.7966
L285.3714 10.8585
" />
<path d="M285.3714 10.8585
L285.3095 10.9205
" />
<path d="M285.3095 10.9205
L285.2476 11.0443
" />
</g></g>
<g style="fill:#000000; fill-opacity:0.0; 
stroke:#000000; stroke-width:0.0212; stroke-opacity:1; 
stroke-linecap:round; stroke-linejoin:round;">
</g>
<g style="fill:#000000; fill-opacity:0.0; 
stroke:#000000; stroke-width:0.1500; stroke-opacity:1; 
stroke-linecap:round; stroke-linejoin:round;">
<path d="M60.0000 198.0072
L60.0000 200.0072
" />
</g>
<g style="fill:#000000; fill-opacity:0.0; 
stroke:#000000; stroke-width:0.0212; stroke-opacity:1; 
stroke-linecap:round; stroke-linejoin:round;">
</g>
<g style="fill:#000000; fill-opacity:0.0; 
stroke:#000000; stroke-width:0.1500; stroke-opacity:1; 
stroke-linecap:round; stroke-linejoin:round;">
<path d="M110.0000 198.0072
L110.0000 200.0072
" />
</g>
<g style="fill:#000000; fill-opacity:0.0; 
stroke:#000000; stroke-width:0.0212; stroke-opacity:1; 
stroke-linecap:round; stroke-linejoin:round;">
</g>
<g style="fill:#000000; fill-opacity:0.0; 
stroke:#000000; stroke-width:0.1500; stroke-opacity:1; 
stroke-linecap:round; stroke-linejoin:round;">
<path d="M160.0000 198.0072
L160.0000 200.0072
" />
</g>
<g style="fill:#000000; fill-opacity:0.0; 
stroke:#000000; stroke-width:0.0212; stroke-opacity:1; 
stroke-linecap:round; stroke-linejoin:round;">
</g>
<g style="fill:#000000; fill-opacity:0.0; 
stroke:#000000; stroke-width:0.1500; stroke-opacity:1; 
stroke-linecap:round; stroke-linejoin:round;">
<path d="M210.0000 198.0072
L210.0000 200.0072
" />
</g>
<g style="fill:#000000; fill-opacity:0.0; 
stroke:#000000; stroke-width:0.0212; stroke-opacity:1; 
stroke-linecap:round; stroke-linejoin:round;">
</g>
<g style="fill:#000000; fill-opacity:0.0; 
stroke:#000000; stroke-width:0.1500; stroke-opacity:1; 
stroke-linecap:round; stroke-linejoin:round;">
<path d="M260.0000 198.0072
L260.0000 200.0072
" />
</g>
<g style="fill:#000000; fill-opacity:0.0; 
stroke:#000000; stroke-width:0.0212; stroke-opacity:1; 
stroke-linecap:round; stroke-linejoin:round;">
</g>
<g style="fill:#000000; fill-opacity:0.0; 
stroke:#000000; stroke-width:0.1500; stroke-opacity:1; 
stroke-linecap:round; stroke-linejoin:round;">
<text x="35.0000" y="199.6572"
textLength="1.3531" font-size="1.7333" lengthAdjust="spacingAndGlyphs"
text-anchor="start" opacity="0">1</text>
<g class="stroked-text"><desc>1</desc>
<path d="M35.9905 199.6086
L35.2476 199.6086
" />
<path d="M35.6190 199.6086
L35.6190 198.3086
" />
<path d="M35.6190 198.3086
L35.4952 198.4943
" />
<path d="M35.4952 198.4943
L35.3714 198.6181
" />
<path d="M35.3714 198.6181
L35.2476 198.6800
" />
</g></g>
<g style="fill:#000000; fill-opacity:0.0; 
stroke:#000000; stroke-width:0.0212; stroke-opacity:1; 
stroke-linecap:round; stroke-linejoin:round;">
</g>
<g style="fill:#000000; fill-opacity:0.0; 
stroke:#000000; stroke-width:0.1500; stroke-opacity:1; 
stroke-linecap:round; stroke-linejoin:round;">
<text x="85.0000" y="199.6572"
textLength="1.3531" font-size="1.7333" lengthAdjust="spacingAndGlyphs"
text-anchor="start" opacity="0">2</text>
<g class="stroked-text"><desc>2</desc>
<path d="M85.2476 198.4324
L85.3095 198.3705
" />
<path d="M85.3095 198.3705
L85.4333 198.3086
" />
<path d="M85.4333 198.3086
L85.7429 198.3086
" />
<path d="M85.7429 198.3086
L85.8667 198.3705
" />
<path d="M85.8667 198.3705
L85.9286 198.4324
" />
<path d="M85.9286 198.4324
L85.9905 198.5562
" />
<path d="M85.9905 198.5562
L85.9905 198.6800
" />
<path d="M85.9905 198.6800
L85.9286 198.8657
" />
<path d="M85.9286 198.8657
L85.1857 199.6086
" />
<path d="M85.1857 199.6086
L85.9905 199.6086
" />
</g></g>
<g style="fill:#000000; fill-opacity:0.0; 
stroke:#000000; stroke-width:0.0212; stroke-opacity:1; 
stroke-linecap:round; stroke-linejoin:round;">
</g>
<g style="fill:#000000; fill-opacity:0.0; 
stroke:#000000; stroke-width:0.1500; stroke-opacity:1; 
stroke-linecap:round; stroke-linejoin:round;">
<text x="135.0000" y="199.6572"
textLength="1.3531" font-size="1.7333" lengthAdjust="spacingAndGlyphs"
text-anchor="start" opacity="0">3</text>
<g class="stroked-text"><desc>3</desc>
<path d="M135.1857 198.3086
L135.9905 198.3086
" />
<path d="M135.9905 198.3086
L135.5571 198.8038
" />
<path d="M135.5571 198.8038
L135.7429 198.8038
" />
<path d="M135.7429 198.8038
L135.8667 198.8657
" />
<path d="M135.8667 198.8657
L135.9286 198.9277
" />
<path d="M135.9286 198.9277
L135.9905 199.0515
" />
<path d="M135.9905 199.0515
L135.9905 199.3610
" />
<path d="M135.9905 199.3610
L135.9286 199.4848
" />
<path d="M135.9286 199.4848
L135.8667 199.5467
" />
<path d="M135.8667 199.5467
L135.7429 199.6086
" />
<path d="M135.7429 199.6086
L135.3714 199.6086
" />
<path d="M135.3714 199.6086
L135.2476 199.5467
" />
<path d="M135.2476 199.5467
L135.1857 199.4848
" />
</g></g>
<g style="fill:#000000; fill-opacity:0.0; 
stroke:#000000; stroke-width:0.0212; stroke-opacity:1; 
stroke-linecap:round; stroke-linejoin:round;">
</g>
<g style="fill:#000000; fill-opacity:0.0; 
stroke:#000000; stroke-width:0.1500; stroke-opacity:1; 
stroke-linecap:round; stroke-linejoin:round;">
<text x="185.0000" y="199.6572"
textLength="1.3531" font-size="1.7333" lengthAdjust="spacingAndGlyphs"
text-anchor="start" opacity="0">4</text>
<g class="stroked-text"><desc>4</desc>
<path d="M185.8667 198.7419
L185.8667 199.6086
" />
<path d="M185.5571 198.2467
L185.2476 199.1753
" />
<path d="M185.2476 199.1753
L186.0524 199.1753
" />
</g></g>
<g style="fill:#000000; fill-opacity:0.0; 
stroke:#000000; stroke-width:0.0212; stroke-opacity:1; 
stroke-linecap:round; stroke-linejoin:round;">
</g>
<g style="fill:#000000; fill-opacity:0.0; 
stroke:#000000; stroke-width:0.1500; stroke-opacity:1; 
stroke-linecap:round; stroke-linejoin:round;">
<text x="235.0000" y="199.6572"
textLength="1.3531" font-size="1.7333" lengthAdjust="spacingAndGlyphs"
text-anchor="start" opacity="0">5</text>
<g class="stroked-text"><desc>5</desc>
<path d="M235.9286 198.3086
L235.3095 198.3086
" />
<path d="M235.3095 198.3086
L235.2476 198.9277
" />
<path d="M235.2476 198.9277
L235.3095 198.8657
" />
<path d="M235.3095 198.8657
L235.4333 198.8038
" />
<path d="M235.4333 198.8038
L235.7429 198.8038
" />
<path d="M235.7429 198.8038
L235.8667 198.8657
" />
<path d="M235.8667 198.8657
L235.9286 198.9277
" />
<path d="M235.9286 198.9277
L235.9905 199.0515
" />
<path d="M235.9905 199.0515
L235.9905 199.3610
" />
<path d="M235.9905 199.3610
L235.9286 199.4848
" />
<path d="M235.9286 199.4848
L235.8667 199.5467
" />
<path d="M235.8667 199.5467
L235.7429 199.6086
" />
<path d="M235.7429 199.6086
L235.4333 199.6086
" />
<path d="M235.4333 199.6086
L235.3095 199.5467
" />
<path d="M235.3095 199.5467
L235.2476 199.4848
" />
</g></g>
<g style="fill:#000000; fill-opacity:0.0; 
stroke:#000000; stroke-width:0.0212; stroke-opacity:1; 
stroke-linecap:round; stroke-linejoin:round;">
</g>
<g style="fill:#000000; fill-opacity:0.0; 
stroke:#000000; stroke-width:0.1500; stroke-opacity:1; 
stroke-linecap:round; stroke-linejoin:round;">
<text x="285.0000" y="199.6572"
textLength="1.3531" font-size="1.7333" lengthAdjust="spacingAndGlyphs"
text-anchor="start" opacity="0">6</text>
<g class="stroked-text"><desc>6</desc>
<path d="M285.8667 198.3086
L285.6190 198.3086
" />
<path d="M285.6190 198.3086
L285.4952 198.3705
" />
<path d="M285.4952 198.3705
L285.4333 198.4324
" />
<path d="M285.4333 198.4324
L285.3095 198.6181
" />
<path d="M285.3095 198.6181
L285.2476 198.8657
" />
<path d="M285.2476 198.8657
L285.2476 199.3610
" />
<path d="M285.2476 199.3610
L285.3095 199.4848
" />
<path d="M285.3095 199.4848
L285.3714 199.5467
" />
<path d="M285.3714 199.5467
L285.4952 199.6086
" />
<path d="M285.4952 199.6086
L285.7429 199.6086
" />
<path d="M285.7429 199.6086
L285.8667 199.5467
" />
<path d="M285.8667 199.5467
L285.9286 199.4848
" />
<path d="M285.9286 199.4848
L285.9905 199.3610
" />
<path d="M285.9905 199.3610
L285.9905 199.0515
" />
<path d="M285.9905 199.0515
L285.9286 198.9277
" />
<path d="M285.9286 198.9277
L285.8667 198.8657
" />
<path d="M285.8667 198.8657
L285.7429 198.8038
" />
<path d="M285.7429 198.8038
L285.4952 198.8038
" />
<path d="M285.4952 198.8038
L285.3714 198.8657
" />
<path d="M285.3714 198.8657
L285.3095 198.9277
" />
<path d="M285.3095 198.9277
L285.2476 199.0515
" />
</g></g>
<g style="fill:#000000; fill-opacity:0.0; 
stroke:#000000; stroke-width:0.0212; stroke-opacity:1; 
stroke-linecap:round; stroke-linejoin:round;">
</g>
<g style="fill:#000000; fill-opacity:0.0; 
stroke:#000000; stroke-width:0.1500; stroke-opacity:1; 
stroke-linecap:round; stroke-linejoin:round;">
<path d="M10.0000 60.0000
L12.0000 60.0000
" />
</g>
<g style="fill:#000000; fill-opacity:0.0; 
stroke:#000000; stroke-width:0.0212; stroke-opacity:1; 
stroke-linecap:round; stroke-linejoin:round;">
</g>
<g style="fill:#000000; fill-opacity:0.0; 
stroke:#000000; stroke-width:0.1500; stroke-opacity:1; 
stroke-linecap:round; stroke-linejoin:round;">
<path d="M10.0000 110.0000
L12.0000 110.0000
" />
</g>
<g style="fill:#000000; fill-opacity:0.0; 
stroke:#000000; stroke-width:0.0212; stroke-opacity:1; 
stroke-linecap:round; stroke-linejoin:round;">
</g>
<g style="fill:#000000; fill-opacity:0.0; 
stroke:#000000; stroke-width:0.1500; stroke-opacity:1; 
stroke-linecap:round; stroke-linejoin:round;">
<path d="M10.0000 160.0000
L12.0000 160.0000
" />
</g>
<g style="fill:#000000; fill-opacity:0.0; 
stroke:#000000; stroke-width:0.0212; stroke-opacity:1; 
stroke-linecap:round; stroke-linejoin:round;">
</g>
<g style="fill:#000000; fill-opacity:0.0; 
stroke:#000000; stroke-width:0.1500; stroke-opacity:1; 
stroke-linecap:round; stroke-linejoin:round;">
<text x="11.0000" y="35.6500"
textLength="1.2293" font-size="1.7333" lengthAdjust="spacingAndGlyphs"
text-anchor="middle" opacity="0">A</text>
<g class="stroked-text"><desc>A</desc>
<path d="M10.6905 35.2300
L11.3095 35.2300
" />
<path d="M10.5667 35.6014
L11.0000 34.3014
" />
<path d="M11.0000 34.3014
L11.4333 35.6014
" />
</g></g>
<g style="fill:#000000; fill-opacity:0.0; 
stroke:#000000; stroke-width:0.0212; stroke-opacity:1; 
stroke-linecap:round; stroke-linejoin:round;">
</g>
<g style="fill:#000000; fill-opacity:0.0; 
stroke:#000000; stroke-width:0.1500; stroke-opacity:1; 
stroke-linecap:round; stroke-linejoin:round;">
<text x="11.0000" y="85.6500"
textLength="1.4150" font-size="1.7333" lengthAdjust="spacingAndGlyphs"
text-anchor="middle" opacity="0">B</text>
<g class="stroked-text"><desc>B</desc>
<path d="M11.0929 84.9205
L11.2786 84.9824
" />
<path d="M11.2786 84.9824
L11.3405 85.0443
" />
<path d="M11.3405 85.0443
L11.4024 85.1681
" />
<path d="M11.4024 85.1681
L11.4024 85.3538
" />
<path d="M11.4024 85.3538
L11.3405 85.4776
" />
<path d="M11.3405 85.4776
L11.2786 85.5395
" />
<path d="M11.2786 85.5395
L11.1548 85.6014
" />
<path d="M11.1548 85.6014
L10.6595 85.6014
" />
<path d="M10.6595 85.6014
L10.6595 84.3014
" />
<path d="M10.6595 84.3014
L11.0929 84.3014
" />
<path d="M11.0929 84.3014
L11.2167 84.3633
" />
<path d="M11.2167 84.3633
L11.2786 84.4252
" />
<path d="M11.2786 84.4252
L11.3405 84.5490
" />
<path d="M11.3405 84.5490
L11.3405 84.6728
" />
<path d="M11.3405 84.6728
L11.2786 84.7966
" />
<path d="M11.2786 84.7966
L11.2167 84.8585
" />
<path d="M11.2167 84.8585
L11.0929 84.9205
" />
<path d="M11.0929 84.9205
L10.6595 84.9205
" />
</g></g>
<g style="fill:#000000; fill-opacity:0.0; 
stroke:#000000; stroke-width:0.0212; stroke-opacity:1; 
stroke-linecap:round; stroke-linejoin:round;">
</g>
<g style="fill:#000000; fill-opacity:0.0; 
stroke:#000000; stroke-width:0.1500; stroke-opacity:1; 
stroke-linecap:round; stroke-linejoin:round;">
<text x="11.0000" y="135.6500"
textLength="1.4150" font-size="1.7333" lengthAdjust="spacingAndGlyphs"
text-anchor="middle" opacity="0">C</text>
<g class="stroked-text"><desc>C</desc>
<path d="M11.4024 135.4776
L11.3405 135.5395
" />
<path d="M11.3405 135.5395
L11.1548 135.6014
" />
<path d="M11.1548 135.6014
L11.0310 135.6014
" />
<path d="M11.0310 135.6014
L10.8452 135.5395
" />
<path d="M10.8452 135.5395
L10.7214 135.4157
" />
<path d="M10.7214 135.4157
L10.6595 135.2919
" />
<path d="M10.6595 135.2919
L10.5976 135.0443
" />
<path d="M10.5976 135.0443
L10.5976 134.8585
" />
<path d="M10.5976 134.8585
L10.6595 134.6109
" />
<path d="M10.6595 134.6109
L10.7214 134.4871
" />
<path d="M10.7214 134.4871
L10.8452 134.3633
" />
<path d="M10.8452 134.3633
L11.0310 134.3014
" />
<path d="M11.0310 134.3014
L11.1548 134.3014
" />
<path d="M11.1548 134.3014
L11.3405 134.3633
" />
<path d="M11.3405 134.3633
L11.4024 134.4252
" />
</g></g>
<g style="fill:#000000; fill-opacity:0.0; 
stroke:#000000; stroke-width:0.0212; stroke-opacity:1; 
stroke-linecap:round; stroke-linejoin:round;">
</g>
<g style="fill:#000000; fill-opacity:0.0; 
stroke:#000000; stroke-width:0.1500; stroke-opacity:1; 
stroke-linecap:round; stroke-linejoin:round;">
<text x="11.0000" y="185.6500"
textLength="1.4150" font-size="1.7333" lengthAdjust="spacingAndGlyphs"
text-anchor="middle" opacity="0">D</text>
<g class="stroked-text"><desc>D</desc>
<path d="M10.6595 185.6014
L10.6595 184.3014
" />
<path d="M10.6595 184.3014
L10.9690 184.3014
" />
<path d="M10.9690 184.3014
L11.1548 184.3633
" />
<path d="M11.1548 184.3633
L11.2786 184.4871
" />
<path d="M11.2786 184.4871
L11.3405 184.6109
" />
<path d="M11.3405 184.6109
L11.4024 184.8585
" />
<path d="M11.4024 184.8585
L11.4024 185.0443
" />
<path d="M11.4024 185.0443
L11.3405 185.2919
" />
<path d="M11.3405 185.2919
L11.2786 185.4157
" />
<path d="M11.2786 185.4157
L11.1548 185.5395
" />
<path d="M11.1548 185.5395
L10.9690 185.6014
" />
<path d="M10.9690 185.6014
L10.6595 185.6014
" />
</g></g>
<g style="fill:#000000; fill-opacity:0.0; 
stroke:#000000; stroke-width:0.0212; stroke-opacity:1; 
stroke-linecap:round; stroke-linejoin:round;">
</g>
<g style="fill:#000000; fill-opacity:0.0; 
stroke:#000000; stroke-width:0.1500; stroke-opacity:1; 
stroke-linecap:round; stroke-linejoin:round;">
<path d="M287.0022 60.0000
L285.0022 60.0000
" />
</g>
<g style="fill:#000000; fill-opacity:0.0; 
stroke:#000000; stroke-width:0.0212; stroke-opacity:1; 
stroke-linecap:round; stroke-linejoin:round;">
</g>
<g style="fill:#000000; fill-opacity:0.0; 
stroke:#000000; stroke-width:0.1500; stroke-opacity:1; 
stroke-linecap:round; stroke-linejoin:round;">
<path d="M287.0022 110.0000
L285.0022 110.0000
" />
</g>
<g style="fill:#000000; fill-opacity:0.0; 
stroke:#000000; stroke-width:0.0212; stroke-opacity:1; 
stroke-linecap:round; stroke-linejoin:round;">
</g>
<g style="fill:#000000; fill-opacity:0.0; 
stroke:#000000; stroke-width:0.1500; stroke-opacity:1; 
stroke-linecap:round; stroke-linejoin:round;">
<path d="M287.0022 160.0000
L285.0022 160.0000
" />
</g>
<g style="fill:#000000; fill-opacity:0.0; 
stroke:#000000; stroke-width:0.0212; stroke-opacity:1; 
stroke-linecap:round; stroke-linejoin:round;">
</g>
<g style="fill:#000000; fill-opacity:0.0; 
stroke:#000000; stroke-width:0.1500; stroke-opacity:1; 
stroke-linecap:round; stroke-linejoin:round;">
<text x="286.0022" y="35.6500"
textLength="1.2293" font-size="1.7333" lengthAdjust="spacingAndGlyphs"
text-anchor="middle" opacity="0">A</text>
<g class="stroked-text"><desc>A</desc>
<path d="M285.6927 35.2300
L286.3117 35.2300
" />
<path d="M285.5689 35.6014
L286.0022 34.3014
" />
<path d="M286.0022 34.3014
L286.4355 35.6014
" />
</g></g>
<g style="fill:#000000; fill-opacity:0.0; 
stroke:#000000; stroke-width:0.0212; stroke-opacity:1; 
stroke-linecap:round; stroke-linejoin:round;">
</g>
<g style="fill:#000000; fill-opacity:0.0; 
stroke:#000000; stroke-width:0.1500; stroke-opacity:1; 
stroke-linecap:round; stroke-linejoin:round;">
<text x="286.0022" y="85.6500"
textLength="1.4150" font-size="1.7333" lengthAdjust="spacingAndGlyphs"
text-anchor="middle" opacity="0">B</text>
<g class="stroked-text"><desc>B</desc>
<path d="M286.0951 84.9205
L286.2808 84.9824
" />
<path d="M286.2808 84.9824
L286.3427 85.0443
" />
<path d="M286.3427 85.0443
L286.4046 85.1681
" />
<path d="M286.4046 85.1681
L286.4046 85.3538
" />
<path d="M286.4046 85.3538
L286.3427 85.4776
" />
<path d="M286.3427 85.4776
L286.2808 85.5395
" />
<path d="M286.2808 85.5395
L286.1570 85.6014
" />
<path d="M286.1570 85.6014
L285.6617 85.6014
" />
<path d="M285.6617 85.6014
L285.6617 84.3014
" />
<path d="M285.6617 84.3014
L286.0951 84.3014
" />
<path d="M286.0951 84.3014
L286.2189 84.3633
" />
<path d="M286.2189 84.3633
L286.2808 84.4252
" />
<path d="M286.2808 84.4252
L286.3427 84.5490
" />
<path d="M286.3427 84.5490
L286.3427 84.6728
" />
<path d="M286.3427 84.6728
L286.2808 84.7966
" />
<path d="M286.2808 84.7966
L286.2189 84.8585
" />
<path d="M286.2189 84.8585
L286.0951 84.9205
" />
<path d="M286.0951 84.9205
L285.6617 84.9205
" />
</g></g>
<g style="fill:#000000; fill-opacity:0.0; 
stroke:#000000; stroke-width:0.0212; stroke-opacity:1; 
stroke-linecap:round; stroke-linejoin:round;">
</g>
<g style="fill:#000000; fill-opacity:0.0; 
stroke:#000000; stroke-width:0.1500; stroke-opacity:1; 
stroke-linecap:round; stroke-linejoin:round;">
<text x="286.0022" y="135.6500"
textLength="1.4150" font-size="1.7333" lengthAdjust="spacingAndGlyphs"
text-anchor="middle" opacity="0">C</text>
<g class="stroked-text"><desc>C</desc>
<path d="M286.4046 135.4776
L286.3427 135.5395
" />
<path d="M286.3427 135.5395
L286.1570 135.6014
" />
<path d="M286.1570 135.6014
L286.0332 135.6014
" />
<path d="M286.0332 135.6014
L285.8474 135.5395
" />
<path d="M285.8474 135.5395
L285.7236 135.4157
" />
<path d="M285.7236 135.4157
L285.6617 135.2919
" />
<path d="M285.6617 135.2919
L285.5998 135.0443
" />
<path d="M285.5998 135.0443
L285.5998 134.8585
" />
<path d="M285.5998 134.8585
L285.6617 134.6109
" />
<path d="M285.6617 134.6109
L285.7236 134.4871
" />
<path d="M285.7236 134.4871
L285.8474 134.3633
" />
<path d="M285.8474 134.3633
L286.0332 134.3014
" />
<path d="M286.0332 134.3014
L286.1570 134.3014
" />
<path d="M286.1570 134.3014
L286.3427 134.3633
" />
<path d="M286.3427 134.3633
L286.4046 134.4252
" />
</g></g>
<g style="fill:#000000; fill-opacity:0.0; 
stroke:#000000; stroke-width:0.0212; stroke-opacity:1; 
stroke-linecap:round; stroke-linejoin:round;">
</g>
<g style="fill:#000000; fill-opacity:0.0; 
stroke:#000000; stroke-width:0.1500; stroke-opacity:1; 
stroke-linecap:round; stroke-linejoin:round;">
<text x="286.0022" y="185.6500"
textLength="1.4150" font-size="1.7333" lengthAdjust="spacingAndGlyphs"
text-anchor="middle" opacity="0">D</text>
<g class="stroked-text"><desc>D</desc>
<path d="M285.6617 185.6014
L285.6617 184.3014
" />
<path d="M285.6617 184.3014
L285.9712 184.3014
" />
<path d="M285.9712 184.3014
L286.1570 184.3633
" />
<path d="M286.1570 184.3633
L286.2808 184.4871
" />
<path d="M286.2808 184.4871
L286.3427 184.6109
" />
<path d="M286.3427 184.6109
L286.4046 184.8585
" />
<path d="M286.4046 184.8585
L286.4046 185.0443
" />
<path d="M286.4046 185.0443
L286.3427 185.2919
" />
<path d="M286.3427 185.2919
L286.2808 185.4157
" />
<path d="M286.2808 185.4157
L286.1570 185.5395
" />
<path d="M286.1570 185.5395
L285.9712 185.6014
" />
<path d="M285.9712 185.6014
L285.6617 185.6014
" />
</g></g>
<g style="fill:#000000; fill-opacity:0.0; 
stroke:#000000; stroke-width:0.0212; stroke-opacity:1; 
stroke-linecap:round; stroke-linejoin:round;">
</g>
<g style="fill:#000000; fill-opacity:0.0; 
stroke:#000000; stroke-width:0.1500; stroke-opacity:1; 
stroke-linecap:round; stroke-linejoin:round;">
<text x="200.0022" y="193.8572"
textLength="6.9321" font-size="2.0000" lengthAdjust="spacingAndGlyphs"
text-anchor="start" opacity="0">Date: </text>
<g class="stroked-text"><desc>Date: </desc>
<path d="M200.3593 193.8011
L200.3593 192.3011
" />
<path d="M200.3593 192.3011
L200.7165 192.3011
" />
<path d="M200.7165 192.3011
L200.9308 192.3726
" />
<path d="M200.9308 192.3726
L201.0736 192.5154
" />
<path d="M201.0736 192.5154
L201.1451 192.6583
" />
<path d="M201.1451 192.6583
L201.2165 192.9440
" />
<path d="M201.2165 192.9440
L201.2165 193.1583
" />
<path d="M201.2165 193.1583
L201.1451 193.4440
" />
<path d="M201.1451 193.4440
L201.0736 193.5868
" />
<path d="M201.0736 193.5868
L200.9308 193.7297
" />
<path d="M200.9308 193.7297
L200.7165 193.8011
" />
<path d="M200.7165 193.8011
L200.3593 193.8011
" />
<path d="M202.5022 193.8011
L202.5022 193.0154
" />
<path d="M202.5022 193.0154
L202.4308 192.8726
" />
<path d="M202.4308 192.8726
L202.2879 192.8011
" />
<path d="M202.2879 192.8011
L202.0022 192.8011
" />
<path d="M202.0022 192.8011
L201.8593 192.8726
" />
<path d="M202.5022 193.7297
L202.3593 193.8011
" />
<path d="M202.3593 193.8011
L202.0022 193.8011
" />
<path d="M202.0022 193.8011
L201.8593 193.7297
" />
<path d="M201.8593 193.7297
L201.7879 193.5868
" />
<path d="M201.7879 193.5868
L201.7879 193.4440
" />
<path d="M201.7879 193.4440
L201.8593 193.3011
" />
<path d="M201.8593 193.3011
L202.0022 193.2297
" />
<path d="M202.0022 193.2297
L202.3593 193.2297
" />
<path d="M202.3593 193.2297
L202.5022 193.1583
" />
<path d="M203.0022 192.8011
L203.5736 192.8011
" />
<path d="M203.2165 192.3011
L203.2165 193.5868
" />
<path d="M203.2165 193.5868
L203.2879 193.7297
" />
<path d="M203.2879 193.7297
L203.4308 193.8011
" />
<path d="M203.4308 193.8011
L203.5736 193.8011
" />
<path d="M204.6451 193.7297
L204.5022 193.8011
" />
<path d="M204.5022 193.8011
L204.2165 193.8011
" />
<path d="M204.2165 193.8011
L204.0736 193.7297
" />
<path d="M204.0736 193.7297
L204.0022 193.5868
" />
<path d="M204.0022 193.5868
L204.0022 193.0154
" />
<path d="M204.0022 193.0154
L204.0736 192.8726
" />
<path d="M204.0736 192.8726
L204.2165 192.8011
" />
<path d="M204.2165 192.8011
L204.5022 192.8011
" />
<path d="M204.5022 192.8011
L204.6451 192.8726
" />
<path d="M204.6451 192.8726
L204.7165 193.0154
" />
<path d="M204.7165 193.0154
L204.7165 193.1583
" />
<path d="M204.7165 193.1583
L204.0022 193.3011
" />
<path d="M205.3593 193.6583
L205.4308 193.7297
" />
<path d="M205.4308 193.7297
L205.3593 193.8011
" />
<path d="M205.3593 193.8011
L205.2879 193.7297
" />
<path d="M205.2879 193.7297
L205.3593 193.6583
" />
<path d="M205.3593 193.6583
L205.3593 193.8011
" />
<path d="M205.3593 192.8726
L205.4308 192.9440
" />
<path d="M205.4308 192.9440
L205.3593 193.0154
" />
<path d="M205.3593 193.0154
L205.2879 192.9440
" />
<path d="M205.2879 192.9440
L205.3593 192.8726
" />
<path d="M205.3593 192.8726
L205.3593 193.0154
" />
</g></g>
<g style="fill:#000000; fill-opacity:0.0; 
stroke:#000000; stroke-width:0.0212; stroke-opacity:1; 
stroke-linecap:round; stroke-linejoin:round;">
</g>
<g style="fill:#000000; fill-opacity:0.0; 
stroke:#000000; stroke-width:0.1500; stroke-opacity:1; 
stroke-linecap:round; stroke-linejoin:round;">
<path d="M177.0022 194.5072
L285.0022 194.5072
" />
</g>
<g style="fill:#000000; fill-opacity:0.0; 
stroke:#000000; stroke-width:0.0212; stroke-opacity:1; 
stroke-linecap:round; stroke-linejoin:round;">
</g>
<g style="fill:#000000; fill-opacity:0.0; 
stroke:#000000; stroke-width:0.1500; stroke-opacity:1; 
stroke-linecap:round; stroke-linejoin:round;">
<text x="178.0022" y="196.6572"
textLength="31.2893" font-size="2.0000" lengthAdjust="spacingAndGlyphs"
text-anchor="start" opacity="0">KiCad E.D.A.  pcbnew 7.0.2</text>
<g class="stroked-text"><desc>KiCad E.D.A.  pcbnew 7.0.2</desc>
<path d="M178.3593 196.6011
L178.3593 195.1011
" />
<path d="M179.2165 196.6011
L178.5736 195.7440
" />
<path d="M179.2165 195.1011
L178.3593 195.9583
" />
<path d="M179.8593 196.6011
L179.8593 195.6011
" />
<path d="M179.8593 195.1011
L179.7879 195.1726
" />
<path d="M179.7879 195.1726
L179.8593 195.2440
" />
<path d="M179.8593 195.2440
L179.9308 195.1726
" />
<path d="M179.9308 195.1726
L179.8593 195.1011
" />
<path d="M179.8593 195.1011
L179.8593 195.2440
" />
<path d="M181.4308 196.4583
L181.3593 196.5297
" />
<path d="M181.3593 196.5297
L181.1451 196.6011
" />
<path d="M181.1451 196.6011
L181.0022 196.6011
" />
<path d="M181.0022 196.6011
L180.7879 196.5297
" />
<path d="M180.7879 196.5297
L180.6451 196.3868
" />
<path d="M180.6451 196.3868
L180.5736 196.2440
" />
<path d="M180.5736 196.2440
L180.5022 195.9583
" />
<path d="M180.5022 195.9583
L180.5022 195.7440
" />
<path d="M180.5022 195.7440
L180.5736 195.4583
" />
<path d="M180.5736 195.4583
L180.6451 195.3154
" />
<path d="M180.6451 195.3154
L180.7879 195.1726
" />
<path d="M180.7879 195.1726
L181.0022 195.1011
" />
<path d="M181.0022 195.1011
L181.1451 195.1011
" />
<path d="M181.1451 195.1011
L181.3593 195.1726
" />
<path d="M181.3593 195.1726
L181.4308 195.2440
" />
<path d="M182.7165 196.6011
L182.7165 195.8154
" />
<path d="M182.7165 195.8154
L182.6451 195.6726
" />
<path d="M182.6451 195.6726
L182.5022 195.6011
" />
<path d="M182.5022 195.6011
L182.2165 195.6011
" />
<path d="M182.2165 195.6011
L182.0736 195.6726
" />
<path d="M182.7165 196.5297
L182.5736 196.6011
" />
<path d="M182.5736 196.6011
L182.2165 196.6011
" />
<path d="M182.2165 196.6011
L182.0736 196.5297
" />
<path d="M182.0736 196.5297
L182.0022 196.3868
" />
<path d="M182.0022 196.3868
L182.0022 196.2440
" />
<path d="M182.0022 196.2440
L182.0736 196.1011
" />
<path d="M182.0736 196.1011
L182.2165 196.0297
" />
<path d="M182.2165 196.0297
L182.5736 196.0297
" />
<path d="M182.5736 196.0297
L182.7165 195.9583
" />
<path d="M184.0736 196.6011
L184.0736 195.1011
" />
<path d="M184.0736 196.5297
L183.9308 196.6011
" />
<path d="M183.9308 196.6011
L183.6451 196.6011
" />
<path d="M183.6451 196.6011
L183.5022 196.5297
" />
<path d="M183.5022 196.5297
L183.4308 196.4583
" />
<path d="M183.4308 196.4583
L183.3593 196.3154
" />
<path d="M183.3593 196.3154
L183.3593 195.8868
" />
<path d="M183.3593 195.8868
L183.4308 195.7440
" />
<path d="M183.4308 195.7440
L183.5022 195.6726
" />
<path d="M183.5022 195.6726
L183.6451 195.6011
" />
<path d="M183.6451 195.6011
L183.9308 195.6011
" />
<path d="M183.9308 195.6011
L184.0736 195.6726
" />
<path d="M185.9308 195.8154
L186.4308 195.8154
" />
<path d="M186.6451 196.6011
L185.9308 196.6011
" />
<path d="M185.9308 196.6011
L185.9308 195.1011
" />
<path d="M185.9308 195.1011
L186.6451 195.1011
" />
<path d="M187.2879 196.4583
L187.3593 196.5297
" />
<path d="M187.3593 196.5297
L187.2879 196.6011
" />
<path d="M187.2879 196.6011
L187.2165 196.5297
" />
<path d="M187.2165 196.5297
L187.2879 196.4583
" />
<path d="M187.2879 196.4583
L187.2879 196.6011
" />
<path d="M188.0022 196.6011
L188.0022 195.1011
" />
<path d="M188.0022 195.1011
L188.3593 195.1011
" />
<path d="M188.3593 195.1011
L188.5736 195.1726
" />
<path d="M188.5736 195.1726
L188.7165 195.3154
" />
<path d="M188.7165 195.3154
L188.7879 195.4583
" />
<path d="M188.7879 195.4583
L188.8593 195.7440
" />
<path d="M188.8593 195.7440
L188.8593 195.9583
" />
<path d="M188.8593 195.9583
L188.7879 196.2440
" />
<path d="M188.7879 196.2440
L188.7165 196.3868
" />
<path d="M188.7165 196.3868
L188.5736 196.5297
" />
<path d="M188.5736 196.5297
L188.3593 196.6011
" />
<path d="M188.3593 196.6011
L188.0022 196.6011
" />
<path d="M189.5022 196.4583
L189.5736 196.5297
" />
<path d="M189.5736 196.5297
L189.5022 196.6011
" />
<path d="M189.5022 196.6011
L189.4308 196.5297
" />
<path d="M189.4308 196.5297
L189.5022 196.4583
" />
<path d="M189.5022 196.4583
L189.5022 196.6011
" />
<path d="M190.1451 196.1726
L190.8593 196.1726
" />
<path d="M190.0022 196.6011
L190.5022 195.1011
" />
<path d="M190.5022 195.1011
L191.0022 196.6011
" />
<path d="M191.5022 196.4583
L191.5736 196.5297
" />
<path d="M191.5736 196.5297
L191.5022 196.6011
" />
<path d="M191.5022 196.6011
L191.4308 196.5297
" />
<path d="M191.4308 196.5297
L191.5022 196.4583
" />
<path d="M191.5022 196.4583
L191.5022 196.6011
" />
<path d="M194.5022 195.6011
L194.5022 197.1011
" />
<path d="M194.5022 195.6726
L194.6451 195.6011
" />
<path d="M194.6451 195.6011
L194.9308 195.6011
" />
<path d="M194.9308 195.6011
L195.0736 195.6726
" />
<path d="M195.0736 195.6726
L195.1451 195.7440
" />
<path d="M195.1451 195.7440
L195.2165 195.8868
" />
<path d="M195.2165 195.8868
L195.2165 196.3154
" />
<path d="M195.2165 196.3154
L195.1451 196.4583
" />
<path d="M195.1451 196.4583
L195.0736 196.5297
" />
<path d="M195.0736 196.5297
L194.9308 196.6011
" />
<path d="M194.9308 196.6011
L194.6451 196.6011
" />
<path d="M194.6451 196.6011
L194.5022 196.5297
" />
<path d="M196.5022 196.5297
L196.3593 196.6011
" />
<path d="M196.3593 196.6011
L196.0736 196.6011
" />
<path d="M196.0736 196.6011
L195.9308 196.5297
" />
<path d="M195.9308 196.5297
L195.8593 196.4583
" />
<path d="M195.8593 196.4583
L195.7879 196.3154
" />
<path d="M195.7879 196.3154
L195.7879 195.8868
" />
<path d="M195.7879 195.8868
L195.8593 195.7440
" />
<path d="M195.8593 195.7440
L195.9308 195.6726
" />
<path d="M195.9308 195.6726
L196.0736 195.6011
" />
<path d="M196.0736 195.6011
L196.3593 195.6011
" />
<path d="M196.3593 195.6011
L196.5022 195.6726
" />
<path d="M197.1451 196.6011
L197.1451 195.1011
" />
<path d="M197.1451 195.6726
L197.2879 195.6011
" />
<path d="M197.2879 195.6011
L197.5736 195.6011
" />
<path d="M197.5736 195.6011
L197.7165 195.6726
" />
<path d="M197.7165 195.6726
L197.7879 195.7440
" />
<path d="M197.7879 195.7440
L197.8593 195.8868
" />
<path d="M197.8593 195.8868
L197.8593 196.3154
" />
<path d="M197.8593 196.3154
L197.7879 196.4583
" />
<path d="M197.7879 196.4583
L197.7165 196.5297
" />
<path d="M197.7165 196.5297
L197.5736 196.6011
" />
<path d="M197.5736 196.6011
L197.2879 196.6011
" />
<path d="M197.2879 196.6011
L197.1451 196.5297
" />
<path d="M198.5022 195.6011
L198.5022 196.6011
" />
<path d="M198.5022 195.7440
L198.5736 195.6726
" />
<path d="M198.5736 195.6726
L198.7165 195.6011
" />
<path d="M198.7165 195.6011
L198.9308 195.6011
" />
<path d="M198.9308 195.6011
L199.0736 195.6726
" />
<path d="M199.0736 195.6726
L199.1451 195.8154
" />
<path d="M199.1451 195.8154
L199.1451 196.6011
" />
<path d="M200.4308 196.5297
L200.2879 196.6011
" />
<path d="M200.2879 196.6011
L200.0022 196.6011
" />
<path d="M200.0022 196.6011
L199.8593 196.5297
" />
<path d="M199.8593 196.5297
L199.7879 196.3868
" />
<path d="M199.7879 196.3868
L199.7879 195.8154
" />
<path d="M199.7879 195.8154
L199.8593 195.6726
" />
<path d="M199.8593 195.6726
L200.0022 195.6011
" />
<path d="M200.0022 195.6011
L200.2879 195.6011
" />
<path d="M200.2879 195.6011
L200.4308 195.6726
" />
<path d="M200.4308 195.6726
L200.5022 195.8154
" />
<path d="M200.5022 195.8154
L200.5022 195.9583
" />
<path d="M200.5022 195.9583
L199.7879 196.1011
" />
<path d="M201.0022 195.6011
L201.2879 196.6011
" />
<path d="M201.2879 196.6011
L201.5736 195.8868
" />
<path d="M201.5736 195.8868
L201.8593 196.6011
" />
<path d="M201.8593 196.6011
L202.1451 195.6011
" />
<path d="M203.7165 195.1011
L204.7165 195.1011
" />
<path d="M204.7165 195.1011
L204.0736 196.6011
" />
<path d="M205.2879 196.4583
L205.3593 196.5297
" />
<path d="M205.3593 196.5297
L205.2879 196.6011
" />
<path d="M205.2879 196.6011
L205.2165 196.5297
" />
<path d="M205.2165 196.5297
L205.2879 196.4583
" />
<path d="M205.2879 196.4583
L205.2879 196.6011
" />
<path d="M206.2879 195.1011
L206.4308 195.1011
" />
<path d="M206.4308 195.1011
L206.5736 195.1726
" />
<path d="M206.5736 195.1726
L206.6451 195.2440
" />
<path d="M206.6451 195.2440
L206.7165 195.3868
" />
<path d="M206.7165 195.3868
L206.7879 195.6726
" />
<path d="M206.7879 195.6726
L206.7879 196.0297
" />
<path d="M206.7879 196.0297
L206.7165 196.3154
" />
<path d="M206.7165 196.3154
L206.6451 196.4583
" />
<path d="M206.6451 196.4583
L206.5736 196.5297
" />
<path d="M206.5736 196.5297
L206.4308 196.6011
" />
<path d="M206.4308 196.6011
L206.2879 196.6011
" />
<path d="M206.2879 196.6011
L206.1451 196.5297
" />
<path d="M206.1451 196.5297
L206.0736 196.4583
" />
<path d="M206.0736 196.4583
L206.0022 196.3154
" />
<path d="M206.0022 196.3154
L205.9308 196.0297
" />
<path d="M205.9308 196.0297
L205.9308 195.6726
" />
<path d="M205.9308 195.6726
L206.0022 195.3868
" />
<path d="M206.0022 195.3868
L206.0736 195.2440
" />
<path d="M206.0736 195.2440
L206.1451 195.1726
" />
<path d="M206.1451 195.1726
L206.2879 195.1011
" />
<path d="M207.4308 196.4583
L207.5022 196.5297
" />
<path d="M207.5022 196.5297
L207.4308 196.6011
" />
<path d="M207.4308 196.6011
L207.3593 196.5297
" />
<path d="M207.3593 196.5297
L207.4308 196.4583
" />
<path d="M207.4308 196.4583
L207.4308 196.6011
" />
<path d="M208.0736 195.2440
L208.1451 195.1726
" />
<path d="M208.1451 195.1726
L208.2879 195.1011
" />
<path d="M208.2879 195.1011
L208.6451 195.1011
" />
<path d="M208.6451 195.1011
L208.7879 195.1726
" />
<path d="M208.7879 195.1726
L208.8593 195.2440
" />
<path d="M208.8593 195.2440
L208.9308 195.3868
" />
<path d="M208.9308 195.3868
L208.9308 195.5297
" />
<path d="M208.9308 195.5297
L208.8593 195.7440
" />
<path d="M208.8593 195.7440
L208.0022 196.6011
" />
<path d="M208.0022 196.6011
L208.9308 196.6011
" />
</g></g>
<g style="fill:#000000; fill-opacity:0.0; 
stroke:#000000; stroke-width:0.0212; stroke-opacity:1; 
stroke-linecap:round; stroke-linejoin:round;">
</g>
<g style="fill:#000000; fill-opacity:0.0; 
stroke:#000000; stroke-width:0.1500; stroke-opacity:1; 
stroke-linecap:round; stroke-linejoin:round;">
<path d="M177.0022 191.5072
L285.0022 191.5072
" />
</g>
<g style="fill:#000000; fill-opacity:0.0; 
stroke:#000000; stroke-width:0.0212; stroke-opacity:1; 
stroke-linecap:round; stroke-linejoin:round;">
</g>
<g style="fill:#000000; fill-opacity:0.0; 
stroke:#000000; stroke-width:0.3000; stroke-opacity:1; 
stroke-linecap:round; stroke-linejoin:round;">
<text x="263.0022" y="193.8572"
textLength="6.2357" font-size="2.0000" lengthAdjust="spacingAndGlyphs"
text-anchor="start" opacity="0">Rev: </text>
<g class="stroked-text"><desc>Rev: </desc>
<path d="M264.2165 193.8011
L263.7165 193.0868
" />
<path d="M263.3593 193.8011
L263.3593 192.3011
" />
<path d="M263.3593 192.3011
L263.9308 192.3011
" />
<path d="M263.9308 192.3011
L264.0736 192.3726
" />
<path d="M264.0736 192.3726
L264.1451 192.4440
" />
<path d="M264.1451 192.4440
L264.2165 192.5868
" />
<path d="M264.2165 192.5868
L264.2165 192.8011
" />
<path d="M264.2165 192.8011
L264.1451 192.9440
" />
<path d="M264.1451 192.9440
L264.0736 193.0154
" />
<path d="M264.0736 193.0154
L263.9308 193.0868
" />
<path d="M263.9308 193.0868
L263.3593 193.0868
" />
<path d="M265.4308 193.7297
L265.2879 193.8011
" />
<path d="M265.2879 193.8011
L265.0022 193.8011
" />
<path d="M265.0022 193.8011
L264.8593 193.7297
" />
<path d="M264.8593 193.7297
L264.7879 193.5868
" />
<path d="M264.7879 193.5868
L264.7879 193.0154
" />
<path d="M264.7879 193.0154
L264.8593 192.8726
" />
<path d="M264.8593 192.8726
L265.0022 192.8011
" />
<path d="M265.0022 192.8011
L265.2879 192.8011
" />
<path d="M265.2879 192.8011
L265.4308 192.8726
" />
<path d="M265.4308 192.8726
L265.5022 193.0154
" />
<path d="M265.5022 193.0154
L265.5022 193.1583
" />
<path d="M265.5022 193.1583
L264.7879 193.3011
" />
<path d="M266.0022 192.8011
L266.3593 193.8011
" />
<path d="M266.3593 193.8011
L266.7165 192.8011
" />
<path d="M267.2879 193.6583
L267.3593 193.7297
" />
<path d="M267.3593 193.7297
L267.2879 193.8011
" />
<path d="M267.2879 193.8011
L267.2165 193.7297
" />
<path d="M267.2165 193.7297
L267.2879 193.6583
" />
<path d="M267.2879 193.6583
L267.2879 193.8011
" />
<path d="M267.2879 192.8726
L267.3593 192.9440
" />
<path d="M267.3593 192.9440
L267.2879 193.0154
" />
<path d="M267.2879 193.0154
L267.2165 192.9440
" />
<path d="M267.2165 192.9440
L267.2879 192.8726
" />
<path d="M267.2879 192.8726
L267.2879 193.0154
" />
</g></g>
<g style="fill:#000000; fill-opacity:0.0; 
stroke:#000000; stroke-width:0.0212; stroke-opacity:1; 
stroke-linecap:round; stroke-linejoin:round;">
</g>
<g style="fill:#000000; fill-opacity:0.0; 
stroke:#000000; stroke-width:0.1500; stroke-opacity:1; 
stroke-linecap:round; stroke-linejoin:round;">
<text x="178.0022" y="193.8572"
textLength="9.2893" font-size="2.0000" lengthAdjust="spacingAndGlyphs"
text-anchor="start" opacity="0">Size: A4</text>
<g class="stroked-text"><desc>Size: A4</desc>
<path d="M178.2879 193.7297
L178.5022 193.8011
" />
<path d="M178.5022 193.8011
L178.8593 193.8011
" />
<path d="M178.8593 193.8011
L179.0022 193.7297
" />
<path d="M179.0022 193.7297
L179.0736 193.6583
" />
<path d="M179.0736 193.6583
L179.1451 193.5154
" />
<path d="M179.1451 193.5154
L179.1451 193.3726
" />
<path d="M179.1451 193.3726
L179.0736 193.2297
" />
<path d="M179.0736 193.2297
L179.0022 193.1583
" />
<path d="M179.0022 193.1583
L178.8593 193.0868
" />
<path d="M178.8593 193.0868
L178.5736 193.0154
" />
<path d="M178.5736 193.0154
L178.4308 192.9440
" />
<path d="M178.4308 192.9440
L178.3593 192.8726
" />
<path d="M178.3593 192.8726
L178.2879 192.7297
" />
<path d="M178.2879 192.7297
L178.2879 192.5868
" />
<path d="M178.2879 192.5868
L178.3593 192.4440
" />
<path d="M178.3593 192.4440
L178.4308 192.3726
" />
<path d="M178.4308 192.3726
L178.5736 192.3011
" />
<path d="M178.5736 192.3011
L178.9308 192.3011
" />
<path d="M178.9308 192.3011
L179.1451 192.3726
" />
<path d="M179.7879 193.8011
L179.7879 192.8011
" />
<path d="M179.7879 192.3011
L179.7165 192.3726
" />
<path d="M179.7165 192.3726
L179.7879 192.4440
" />
<path d="M179.7879 192.4440
L179.8593 192.3726
" />
<path d="M179.8593 192.3726
L179.7879 192.3011
" />
<path d="M179.7879 192.3011
L179.7879 192.4440
" />
<path d="M180.3593 192.8011
L181.1451 192.8011
" />
<path d="M181.1451 192.8011
L180.3593 193.8011
" />
<path d="M180.3593 193.8011
L181.1451 193.8011
" />
<path d="M182.2879 193.7297
L182.1451 193.8011
" />
<path d="M182.1451 193.8011
L181.8593 193.8011
" />
<path d="M181.8593 193.8011
L181.7165 193.7297
" />
<path d="M181.7165 193.7297
L181.6451 193.5868
" />
<path d="M181.6451 193.5868
L181.6451 193.0154
" />
<path d="M181.6451 193.0154
L181.7165 192.8726
" />
<path d="M181.7165 192.8726
L181.8593 192.8011
" />
<path d="M181.8593 192.8011
L182.1451 192.8011
" />
<path d="M182.1451 192.8011
L182.2879 192.8726
" />
<path d="M182.2879 192.8726
L182.3593 193.0154
" />
<path d="M182.3593 193.0154
L182.3593 193.1583
" />
<path d="M182.3593 193.1583
L181.6451 193.3011
" />
<path d="M183.0022 193.6583
L183.0736 193.7297
" />
<path d="M183.0736 193.7297
L183.0022 193.8011
" />
<path d="M183.0022 193.8011
L182.9308 193.7297
" />
<path d="M182.9308 193.7297
L183.0022 193.6583
" />
<path d="M183.0022 193.6583
L183.0022 193.8011
" />
<path d="M183.0022 192.8726
L183.0736 192.9440
" />
<path d="M183.0736 192.9440
L183.0022 193.0154
" />
<path d="M183.0022 193.0154
L182.9308 192.9440
" />
<path d="M182.9308 192.9440
L183.0022 192.8726
" />
<path d="M183.0022 192.8726
L183.0022 193.0154
" />
<path d="M184.7879 193.3726
L185.5022 193.3726
" />
<path d="M184.6451 193.8011
L185.1451 192.3011
" />
<path d="M185.1451 192.3011
L185.6451 193.8011
" />
<path d="M186.7879 192.8011
L186.7879 193.8011
" />
<path d="M186.4308 192.2297
L186.0736 193.3011
" />
<path d="M186.0736 193.3011
L187.0022 193.3011
" />
</g></g>
<g style="fill:#000000; fill-opacity:0.0; 
stroke:#000000; stroke-width:0.0212; stroke-opacity:1; 
stroke-linecap:round; stroke-linejoin:round;">
</g>
<g style="fill:#000000; fill-opacity:0.0; 
stroke:#000000; stroke-width:0.1500; stroke-opacity:1; 
stroke-linecap:round; stroke-linejoin:round;">
<text x="263.0022" y="196.6572"
textLength="8.4321" font-size="2.0000" lengthAdjust="spacingAndGlyphs"
text-anchor="start" opacity="0">Id: 1/1</text>
<g class="stroked-text"><desc>Id: 1/1</desc>
<path d="M263.3593 196.6011
L263.3593 195.1011
" />
<path d="M264.7165 196.6011
L264.7165 195.1011
" />
<path d="M264.7165 196.5297
L264.5736 196.6011
" />
<path d="M264.5736 196.6011
L264.2879 196.6011
" />
<path d="M264.2879 196.6011
L264.1451 196.5297
" />
<path d="M264.1451 196.5297
L264.0736 196.4583
" />
<path d="M264.0736 196.4583
L264.0022 196.3154
" />
<path d="M264.0022 196.3154
L264.0022 195.8868
" />
<path d="M264.0022 195.8868
L264.0736 195.7440
" />
<path d="M264.0736 195.7440
L264.1451 195.6726
" />
<path d="M264.1451 195.6726
L264.2879 195.6011
" />
<path d="M264.2879 195.6011
L264.5736 195.6011
" />
<path d="M264.5736 195.6011
L264.7165 195.6726
" />
<path d="M265.4308 196.4583
L265.5022 196.5297
" />
<path d="M265.5022 196.5297
L265.4308 196.6011
" />
<path d="M265.4308 196.6011
L265.3593 196.5297
" />
<path d="M265.3593 196.5297
L265.4308 196.4583
" />
<path d="M265.4308 196.4583
L265.4308 196.6011
" />
<path d="M265.4308 195.6726
L265.5022 195.7440
" />
<path d="M265.5022 195.7440
L265.4308 195.8154
" />
<path d="M265.4308 195.8154
L265.3593 195.7440
" />
<path d="M265.3593 195.7440
L265.4308 195.6726
" />
<path d="M265.4308 195.6726
L265.4308 195.8154
" />
<path d="M268.0736 196.6011
L267.2165 196.6011
" />
<path d="M267.6451 196.6011
L267.6451 195.1011
" />
<path d="M267.6451 195.1011
L267.5022 195.3154
" />
<path d="M267.5022 195.3154
L267.3593 195.4583
" />
<path d="M267.3593 195.4583
L267.2165 195.5297
" />
<path d="M269.7879 195.0297
L268.5022 196.9583
" />
<path d="M271.0736 196.6011
L270.2165 196.6011
" />
<path d="M270.6451 196.6011
L270.6451 195.1011
" />
<path d="M270.6451 195.1011
L270.5022 195.3154
" />
<path d="M270.5022 195.3154
L270.3593 195.4583
" />
<path d="M270.3593 195.4583
L270.2165 195.5297
" />
</g></g>
<g style="fill:#000000; fill-opacity:0.0; 
stroke:#000000; stroke-width:0.0212; stroke-opacity:1; 
stroke-linecap:round; stroke-linejoin:round;">
</g>
<g style="fill:#000000; fill-opacity:0.0; 
stroke:#000000; stroke-width:0.1500; stroke-opacity:1; 
stroke-linecap:round; stroke-linejoin:round;">
<path d="M177.0022 187.5072
L285.0022 187.5072
" />
</g>
<g style="fill:#000000; fill-opacity:0.0; 
stroke:#000000; stroke-width:0.0212; stroke-opacity:1; 
stroke-linecap:round; stroke-linejoin:round;">
</g>
<g style="fill:#000000; fill-opacity:0.0; 
stroke:#000000; stroke-width:0.4000; stroke-opacity:1; 
stroke-linecap:round; stroke-linejoin:round;">
<text x="178.0022" y="190.3072"
textLength="9.3857" font-size="2.6667" lengthAdjust="spacingAndGlyphs"
text-anchor="start" opacity="0">Title: </text>
<g class="stroked-text"><desc>Title: </desc>
<path d="M178.4308 188.2324
L179.5736 188.2324
" />
<path d="M178.7522 190.2324
L179.0022 188.2324
" />
<path d="M179.9784 190.2324
L180.1451 188.8991
" />
<path d="M180.2284 188.2324
L180.1212 188.3277
" />
<path d="M180.1212 188.3277
L180.2046 188.4229
" />
<path d="M180.2046 188.4229
L180.3117 188.3277
" />
<path d="M180.3117 188.3277
L180.2284 188.2324
" />
<path d="M180.2284 188.2324
L180.2046 188.4229
" />
<path d="M180.7998 188.8991
L181.5617 188.8991
" />
<path d="M181.1689 188.2324
L180.9546 189.9467
" />
<path d="M180.9546 189.9467
L181.0260 190.1372
" />
<path d="M181.0260 190.1372
L181.2046 190.2324
" />
<path d="M181.2046 190.2324
L181.3951 190.2324
" />
<path d="M182.3355 190.2324
L182.1570 190.1372
" />
<path d="M182.1570 190.1372
L182.0855 189.9467
" />
<path d="M182.0855 189.9467
L182.2998 188.2324
" />
<path d="M183.8593 190.1372
L183.6570 190.2324
" />
<path d="M183.6570 190.2324
L183.2760 190.2324
" />
<path d="M183.2760 190.2324
L183.0974 190.1372
" />
<path d="M183.0974 190.1372
L183.0260 189.9467
" />
<path d="M183.0260 189.9467
L183.1212 189.1848
" />
<path d="M183.1212 189.1848
L183.2403 188.9943
" />
<path d="M183.2403 188.9943
L183.4427 188.8991
" />
<path d="M183.4427 188.8991
L183.8236 188.8991
" />
<path d="M183.8236 188.8991
L184.0022 188.9943
" />
<path d="M184.0022 188.9943
L184.0736 189.1848
" />
<path d="M184.0736 189.1848
L184.0498 189.3753
" />
<path d="M184.0498 189.3753
L183.0736 189.5658
" />
<path d="M184.8117 190.0420
L184.8951 190.1372
" />
<path d="M184.8951 190.1372
L184.7879 190.2324
" />
<path d="M184.7879 190.2324
L184.7046 190.1372
" />
<path d="M184.7046 190.1372
L184.8117 190.0420
" />
<path d="M184.8117 190.0420
L184.7879 190.2324
" />
<path d="M184.9427 188.9943
L185.0260 189.0896
" />
<path d="M185.0260 189.0896
L184.9189 189.1848
" />
<path d="M184.9189 189.1848
L184.8355 189.0896
" />
<path d="M184.8355 189.0896
L184.9427 188.9943
" />
<path d="M184.9427 188.9943
L184.9189 189.1848
" />
</g></g>
<g style="fill:#000000; fill-opacity:0.0; 
stroke:#000000; stroke-width:0.0212; stroke-opacity:1; 
stroke-linecap:round; stroke-linejoin:round;">
</g>
<g style="fill:#000000; fill-opacity:0.0; 
stroke:#000000; stroke-width:0.1500; stroke-opacity:1; 
stroke-linecap:round; stroke-linejoin:round;">
<text x="178.0022" y="186.4572"
textLength="26.2893" font-size="2.0000" lengthAdjust="spacingAndGlyphs"
text-anchor="start" opacity="0">File: working.kicad_pcb</text>
<g class="stroked-text"><desc>File: working.kicad_pcb</desc>
<path d="M178.8593 185.6154
L178.3593 185.6154
" />
<path d="M178.3593 186.4011
L178.3593 184.9011
" />
<path d="M178.3593 184.9011
L179.0736 184.9011
" />
<path d="M179.6451 186.4011
L179.6451 185.4011
" />
<path d="M179.6451 184.9011
L179.5736 184.9726
" />
<path d="M179.5736 184.9726
L179.6451 185.0440
" />
<path d="M179.6451 185.0440
L179.7165 184.9726
" />
<path d="M179.7165 184.9726
L179.6451 184.9011
" />
<path d="M179.6451 184.9011
L179.6451 185.0440
" />
<path d="M180.5736 186.4011
L180.4308 186.3297
" />
<path d="M180.4308 186.3297
L180.3593 186.1868
" />
<path d="M180.3593 186.1868
L180.3593 184.9011
" />
<path d="M181.7165 186.3297
L181.5736 186.4011
" />
<path d="M181.5736 186.4011
L181.2879 186.4011
" />
<path d="M181.2879 186.4011
L181.1451 186.3297
" />
<path d="M181.1451 186.3297
L181.0736 186.1868
" />
<path d="M181.0736 186.1868
L181.0736 185.6154
" />
<path d="M181.0736 185.6154
L181.1451 185.4726
" />
<path d="M181.1451 185.4726
L181.2879 185.4011
" />
<path d="M181.2879 185.4011
L181.5736 185.4011
" />
<path d="M181.5736 185.4011
L181.7165 185.4726
" />
<path d="M181.7165 185.4726
L181.7879 185.6154
" />
<path d="M181.7879 185.6154
L181.7879 185.7583
" />
<path d="M181.7879 185.7583
L181.0736 185.9011
" />
<path d="M182.4308 186.2583
L182.5022 186.3297
" />
<path d="M182.5022 186.3297
L182.4308 186.4011
" />
<path d="M182.4308 186.4011
L182.3593 186.3297
" />
<path d="M182.3593 186.3297
L182.4308 186.2583
" />
<path d="M182.4308 186.2583
L182.4308 186.4011
" />
<path d="M182.4308 185.4726
L182.5022 185.5440
" />
<path d="M182.5022 185.5440
L182.4308 185.6154
" />
<path d="M182.4308 185.6154
L182.3593 185.5440
" />
<path d="M182.3593 185.5440
L182.4308 185.4726
" />
<path d="M182.4308 185.4726
L182.4308 185.6154
" />
<path d="M184.1451 185.4011
L184.4308 186.4011
" />
<path d="M184.4308 186.4011
L184.7165 185.6868
" />
<path d="M184.7165 185.6868
L185.0022 186.4011
" />
<path d="M185.0022 186.4011
L185.2879 185.4011
" />
<path d="M186.0736 186.4011
L185.9308 186.3297
" />
<path d="M185.9308 186.3297
L185.8593 186.2583
" />
<path d="M185.8593 186.2583
L185.7879 186.1154
" />
<path d="M185.7879 186.1154
L185.7879 185.6868
" />
<path d="M185.7879 185.6868
L185.8593 185.5440
" />
<path d="M185.8593 185.5440
L185.9308 185.4726
" />
<path d="M185.9308 185.4726
L186.0736 185.4011
" />
<path d="M186.0736 185.4011
L186.2879 185.4011
" />
<path d="M186.2879 185.4011
L186.4308 185.4726
" />
<path d="M186.4308 185.4726
L186.5022 185.5440
" />
<path d="M186.5022 185.5440
L186.5736 185.6868
" />
<path d="M186.5736 185.6868
L186.5736 186.1154
" />
<path d="M186.5736 186.1154
L186.5022 186.2583
" />
<path d="M186.5022 186.2583
L186.4308 186.3297
" />
<path d="M186.4308 186.3297
L186.2879 186.4011
" />
<path d="M186.2879 186.4011
L186.0736 186.4011
" />
<path d="M187.2165 186.4011
L187.2165 185.4011
" />
<path d="M187.2165 185.6868
L187.2879 185.5440
" />
<path d="M187.2879 185.5440
L187.3593 185.4726
" />
<path d="M187.3593 185.4726
L187.5022 185.4011
" />
<path d="M187.5022 185.4011
L187.6451 185.4011
" />
<path d="M188.1451 186.4011
L188.1451 184.9011
" />
<path d="M188.2879 185.8297
L188.7165 186.4011
" />
<path d="M188.7165 185.4011
L188.1451 185.9726
" />
<path d="M189.3593 186.4011
L189.3593 185.4011
" />
<path d="M189.3593 184.9011
L189.2879 184.9726
" />
<path d="M189.2879 184.9726
L189.3593 185.0440
" />
<path d="M189.3593 185.0440
L189.4308 184.9726
" />
<path d="M189.4308 184.9726
L189.3593 184.9011
" />
<path d="M189.3593 184.9011
L189.3593 185.0440
" />
<path d="M190.0736 185.4011
L190.0736 186.4011
" />
<path d="M190.0736 185.5440
L190.1451 185.4726
" />
<path d="M190.1451 185.4726
L190.2879 185.4011
" />
<path d="M190.2879 185.4011
L190.5022 185.4011
" />
<path d="M190.5022 185.4011
L190.6451 185.4726
" />
<path d="M190.6451 185.4726
L190.7165 185.6154
" />
<path d="M190.7165 185.6154
L190.7165 186.4011
" />
<path d="M192.0736 185.4011
L192.0736 186.6154
" />
<path d="M192.0736 186.6154
L192.0022 186.7583
" />
<path d="M192.0022 186.7583
L191.9308 186.8297
" />
<path d="M191.9308 186.8297
L191.7879 186.9011
" />
<path d="M191.7879 186.9011
L191.5736 186.9011
" />
<path d="M191.5736 186.9011
L191.4308 186.8297
" />
<path d="M192.0736 186.3297
L191.9308 186.4011
" />
<path d="M191.9308 186.4011
L191.6451 186.4011
" />
<path d="M191.6451 186.4011
L191.5022 186.3297
" />
<path d="M191.5022 186.3297
L191.4308 186.2583
" />
<path d="M191.4308 186.2583
L191.3593 186.1154
" />
<path d="M191.3593 186.1154
L191.3593 185.6868
" />
<path d="M191.3593 185.6868
L191.4308 185.5440
" />
<path d="M191.4308 185.5440
L191.5022 185.4726
" />
<path d="M191.5022 185.4726
L191.6451 185.4011
" />
<path d="M191.6451 185.4011
L191.9308 185.4011
" />
<path d="M191.9308 185.4011
L192.0736 185.4726
" />
<path d="M192.7879 186.2583
L192.8593 186.3297
" />
<path d="M192.8593 186.3297
L192.7879 186.4011
" />
<path d="M192.7879 186.4011
L192.7165 186.3297
" />
<path d="M192.7165 186.3297
L192.7879 186.2583
" />
<path d="M192.7879 186.2583
L192.7879 186.4011
" />
<path d="M193.5022 186.4011
L193.5022 184.9011
" />
<path d="M193.6451 185.8297
L194.0736 186.4011
" />
<path d="M194.0736 185.4011
L193.5022 185.9726
" />
<path d="M194.7165 186.4011
L194.7165 185.4011
" />
<path d="M194.7165 184.9011
L194.6451 184.9726
" />
<path d="M194.6451 184.9726
L194.7165 185.0440
" />
<path d="M194.7165 185.0440
L194.7879 184.9726
" />
<path d="M194.7879 184.9726
L194.7165 184.9011
" />
<path d="M194.7165 184.9011
L194.7165 185.0440
" />
<path d="M196.0736 186.3297
L195.9308 186.4011
" />
<path d="M195.9308 186.4011
L195.6451 186.4011
" />
<path d="M195.6451 186.4011
L195.5022 186.3297
" />
<path d="M195.5022 186.3297
L195.4308 186.2583
" />
<path d="M195.4308 186.2583
L195.3593 186.1154
" />
<path d="M195.3593 186.1154
L195.3593 185.6868
" />
<path d="M195.3593 185.6868
L195.4308 185.5440
" />
<path d="M195.4308 185.5440
L195.5022 185.4726
" />
<path d="M195.5022 185.4726
L195.6451 185.4011
" />
<path d="M195.6451 185.4011
L195.9308 185.4011
" />
<path d="M195.9308 185.4011
L196.0736 185.4726
" />
<path d="M197.3593 186.4011
L197.3593 185.6154
" />
<path d="M197.3593 185.6154
L197.2879 185.4726
" />
<path d="M197.2879 185.4726
L197.1451 185.4011
" />
<path d="M197.1451 185.4011
L196.8593 185.4011
" />
<path d="M196.8593 185.4011
L196.7165 185.4726
" />
<path d="M197.3593 186.3297
L197.2165 186.4011
" />
<path d="M197.2165 186.4011
L196.8593 186.4011
" />
<path d="M196.8593 186.4011
L196.7165 186.3297
" />
<path d="M196.7165 186.3297
L196.6451 186.1868
" />
<path d="M196.6451 186.1868
L196.6451 186.0440
" />
<path d="M196.6451 186.0440
L196.7165 185.9011
" />
<path d="M196.7165 185.9011
L196.8593 185.8297
" />
<path d="M196.8593 185.8297
L197.2165 185.8297
" />
<path d="M197.2165 185.8297
L197.3593 185.7583
" />
<path d="M198.7165 186.4011
L198.7165 184.9011
" />
<path d="M198.7165 186.3297
L198.5736 186.4011
" />
<path d="M198.5736 186.4011
L198.2879 186.4011
" />
<path d="M198.2879 186.4011
L198.1451 186.3297
" />
<path d="M198.1451 186.3297
L198.0736 186.2583
" />
<path d="M198.0736 186.2583
L198.0022 186.1154
" />
<path d="M198.0022 186.1154
L198.0022 185.6868
" />
<path d="M198.0022 185.6868
L198.0736 185.5440
" />
<path d="M198.0736 185.5440
L198.1451 185.4726
" />
<path d="M198.1451 185.4726
L198.2879 185.4011
" />
<path d="M198.2879 185.4011
L198.5736 185.4011
" />
<path d="M198.5736 185.4011
L198.7165 185.4726
" />
<path d="M199.0736 186.5440
L200.2165 186.5440
" />
<path d="M200.5736 185.4011
L200.5736 186.9011
" />
<path d="M200.5736 185.4726
L200.7165 185.4011
" />
<path d="M200.7165 185.4011
L201.0022 185.4011
" />
<path d="M201.0022 185.4011
L201.1451 185.4726
" />
<path d="M201.1451 185.4726
L201.2165 185.5440
" />
<path d="M201.2165 185.5440
L201.2879 185.6868
" />
<path d="M201.2879 185.6868
L201.2879 186.1154
" />
<path d="M201.2879 186.1154
L201.2165 186.2583
" />
<path d="M201.2165 186.2583
L201.1451 186.3297
" />
<path d="M201.1451 186.3297
L201.0022 186.4011
" />
<path d="M201.0022 186.4011
L200.7165 186.4011
" />
<path d="M200.7165 186.4011
L200.5736 186.3297
" />
<path d="M202.5736 186.3297
L202.4308 186.4011
" />
<path d="M202.4308 186.4011
L202.1451 186.4011
" />
<path d="M202.1451 186.4011
L202.0022 186.3297
" />
<path d="M202.0022 186.3297
L201.9308 186.2583
" />
<path d="M201.9308 186.2583
L201.8593 186.1154
" />
<path d="M201.8593 186.1154
L201.8593 185.6868
" />
<path d="M201.8593 185.6868
L201.9308 185.5440
" />
<path d="M201.9308 185.5440
L202.0022 185.4726
" />
<path d="M202.0022 185.4726
L202.1451 185.4011
" />
<path d="M202.1451 185.4011
L202.4308 185.4011
" />
<path d="M202.4308 185.4011
L202.5736 185.4726
" />
<path d="M203.2165 186.4011
L203.2165 184.9011
" />
<path d="M203.2165 185.4726
L203.3593 185.4011
" />
<path d="M203.3593 185.4011
L203.6451 185.4011
" />
<path d="M203.6451 185.4011
L203.7879 185.4726
" />
<path d="M203.7879 185.4726
L203.8593 185.5440
" />
<path d="M203.8593 185.5440
L203.9308 185.6868
" />
<path d="M203.9308 185.6868
L203.9308 186.1154
" />
<path d="M203.9308 186.1154
L203.8593 186.2583
" />
<path d="M203.8593 186.2583
L203.7879 186.3297
" />
<path d="M203.7879 186.3297
L203.6451 186.4011
" />
<path d="M203.6451 186.4011
L203.3593 186.4011
" />
<path d="M203.3593 186.4011
L203.2165 186.3297
" />
</g></g>
<g style="fill:#000000; fill-opacity:0.0; 
stroke:#000000; stroke-width:0.0212; stroke-opacity:1; 
stroke-linecap:round; stroke-linejoin:round;">
</g>
<g style="fill:#000000; fill-opacity:0.0; 
stroke:#000000; stroke-width:0.1500; stroke-opacity:1; 
stroke-linecap:round; stroke-linejoin:round;">
<path d="M177.0022 181.5072
L285.0022 181.5072
" />
</g>
<g style="fill:#000000; fill-opacity:0.0; 
stroke:#000000; stroke-width:0.0212; stroke-opacity:1; 
stroke-linecap:round; stroke-linejoin:round;">
</g>
<g style="fill:#000000; fill-opacity:0.0; 
stroke:#000000; stroke-width:0.1500; stroke-opacity:1; 
stroke-linecap:round; stroke-linejoin:round;">
<text x="178.0022" y="183.7572"
textLength="8.1464" font-size="2.0000" lengthAdjust="spacingAndGlyphs"
text-anchor="start" opacity="0">Sheet: </text>
<g class="stroked-text"><desc>Sheet: </desc>
<path d="M178.2879 183.6297
L178.5022 183.7011
" />
<path d="M178.5022 183.7011
L178.8593 183.7011
" />
<path d="M178.8593 183.7011
L179.0022 183.6297
" />
<path d="M179.0022 183.6297
L179.0736 183.5583
" />
<path d="M179.0736 183.5583
L179.1451 183.4154
" />
<path d="M179.1451 183.4154
L179.1451 183.2726
" />
<path d="M179.1451 183.2726
L179.0736 183.1297
" />
<path d="M179.0736 183.1297
L179.0022 183.0583
" />
<path d="M179.0022 183.0583
L178.8593 182.9868
" />
<path d="M178.8593 182.9868
L178.5736 182.9154
" />
<path d="M178.5736 182.9154
L178.4308 182.8440
" />
<path d="M178.4308 182.8440
L178.3593 182.7726
" />
<path d="M178.3593 182.7726
L178.2879 182.6297
" />
<path d="M178.2879 182.6297
L178.2879 182.4868
" />
<path d="M178.2879 182.4868
L178.3593 182.3440
" />
<path d="M178.3593 182.3440
L178.4308 182.2726
" />
<path d="M178.4308 182.2726
L178.5736 182.2011
" />
<path d="M178.5736 182.2011
L178.9308 182.2011
" />
<path d="M178.9308 182.2011
L179.1451 182.2726
" />
<path d="M179.7879 183.7011
L179.7879 182.2011
" />
<path d="M180.4308 183.7011
L180.4308 182.9154
" />
<path d="M180.4308 182.9154
L180.3593 182.7726
" />
<path d="M180.3593 182.7726
L180.2165 182.7011
" />
<path d="M180.2165 182.7011
L180.0022 182.7011
" />
<path d="M180.0022 182.7011
L179.8593 182.7726
" />
<path d="M179.8593 182.7726
L179.7879 182.8440
" />
<path d="M181.7165 183.6297
L181.5736 183.7011
" />
<path d="M181.5736 183.7011
L181.2879 183.7011
" />
<path d="M181.2879 183.7011
L181.1451 183.6297
" />
<path d="M181.1451 183.6297
L181.0736 183.4868
" />
<path d="M181.0736 183.4868
L181.0736 182.9154
" />
<path d="M181.0736 182.9154
L181.1451 182.7726
" />
<path d="M181.1451 182.7726
L181.2879 182.7011
" />
<path d="M181.2879 182.7011
L181.5736 182.7011
" />
<path d="M181.5736 182.7011
L181.7165 182.7726
" />
<path d="M181.7165 182.7726
L181.7879 182.9154
" />
<path d="M181.7879 182.9154
L181.7879 183.0583
" />
<path d="M181.7879 183.0583
L181.0736 183.2011
" />
<path d="M183.0022 183.6297
L182.8593 183.7011
" />
<path d="M182.8593 183.7011
L182.5736 183.7011
" />
<path d="M182.5736 183.7011
L182.4308 183.6297
" />
<path d="M182.4308 183.6297
L182.3593 183.4868
" />
<path d="M182.3593 183.4868
L182.3593 182.9154
" />
<path d="M182.3593 182.9154
L182.4308 182.7726
" />
<path d="M182.4308 182.7726
L182.5736 182.7011
" />
<path d="M182.5736 182.7011
L182.8593 182.7011
" />
<path d="M182.8593 182.7011
L183.0022 182.7726
" />
<path d="M183.0022 182.7726
L183.0736 182.9154
" />
<path d="M183.0736 182.9154
L183.0736 183.0583
" />
<path d="M183.0736 183.0583
L182.3593 183.2011
" />
<path d="M183.5022 182.7011
L184.0736 182.7011
" />
<path d="M183.7165 182.2011
L183.7165 183.4868
" />
<path d="M183.7165 183.4868
L183.7879 183.6297
" />
<path d="M183.7879 183.6297
L183.9308 183.7011
" />
<path d="M183.9308 183.7011
L184.0736 183.7011
" />
<path d="M184.5736 183.5583
L184.6451 183.6297
" />
<path d="M184.6451 183.6297
L184.5736 183.7011
" />
<path d="M184.5736 183.7011
L184.5022 183.6297
" />
<path d="M184.5022 183.6297
L184.5736 183.5583
" />
<path d="M184.5736 183.5583
L184.5736 183.7011
" />
<path d="M184.5736 182.7726
L184.6451 182.8440
" />
<path d="M184.6451 182.8440
L184.5736 182.9154
" />
<path d="M184.5736 182.9154
L184.5022 182.8440
" />
<path d="M184.5022 182.8440
L184.5736 182.7726
" />
<path d="M184.5736 182.7726
L184.5736 182.9154
" />
</g></g>
<g style="fill:#000000; fill-opacity:0.0; 
stroke:#000000; stroke-width:0.0212; stroke-opacity:1; 
stroke-linecap:round; stroke-linejoin:round;">
</g>
<g style="fill:#000000; fill-opacity:0.0; 
stroke:#000000; stroke-width:0.3000; stroke-opacity:1; 
stroke-linecap:round; stroke-linejoin:round;">
<text x="178.0022" y="180.7572"
textLength="0.7500" font-size="2.0000" lengthAdjust="spacingAndGlyphs"
text-anchor="start" opacity="0"></text>
<g class="stroked-text"><desc></desc>
</g></g>
<g style="fill:#000000; fill-opacity:0.0; 
stroke:#000000; stroke-width:0.0212; stroke-opacity:1; 
stroke-linecap:round; stroke-linejoin:round;">
</g>
<g style="fill:#000000; fill-opacity:0.0; 
stroke:#000000; stroke-width:0.1500; stroke-opacity:1; 
stroke-linecap:round; stroke-linejoin:round;">
<text x="178.0022" y="177.7572"
textLength="0.3750" font-size="2.0000" lengthAdjust="spacingAndGlyphs"
text-anchor="start" opacity="0"></text>
<g class="stroked-text"><desc></desc>
</g></g>
<g style="fill:#000000; fill-opacity:0.0; 
stroke:#000000; stroke-width:0.0212; stroke-opacity:1; 
stroke-linecap:round; stroke-linejoin:round;">
</g>
<g style="fill:#000000; fill-opacity:0.0; 
stroke:#000000; stroke-width:0.1500; stroke-opacity:1; 
stroke-linecap:round; stroke-linejoin:round;">
<text x="178.0022" y="174.7572"
textLength="0.3750" font-size="2.0000" lengthAdjust="spacingAndGlyphs"
text-anchor="start" opacity="0"></text>
<g class="stroked-text"><desc></desc>
</g></g>
<g style="fill:#000000; fill-opacity:0.0; 
stroke:#000000; stroke-width:0.0212; stroke-opacity:1; 
stroke-linecap:round; stroke-linejoin:round;">
</g>
<g style="fill:#000000; fill-opacity:0.0; 
stroke:#000000; stroke-width:0.1500; stroke-opacity:1; 
stroke-linecap:round; stroke-linejoin:round;">
<text x="178.0022" y="171.7572"
textLength="0.3750" font-size="2.0000" lengthAdjust="spacingAndGlyphs"
text-anchor="start" opacity="0"></text>
<g class="stroked-text"><desc></desc>
</g></g>
<g style="fill:#000000; fill-opacity:0.0; 
stroke:#000000; stroke-width:0.0212; stroke-opacity:1; 
stroke-linecap:round; stroke-linejoin:round;">
</g>
<g style="fill:#000000; fill-opacity:0.0; 
stroke:#000000; stroke-width:0.1500; stroke-opacity:1; 
stroke-linecap:round; stroke-linejoin:round;">
<text x="178.0022" y="168.7572"
textLength="0.3750" font-size="2.0000" lengthAdjust="spacingAndGlyphs"
text-anchor="start" opacity="0"></text>
<g class="stroked-text"><desc></desc>
</g></g>
<g style="fill:#000000; fill-opacity:0.0; 
stroke:#000000; stroke-width:0.0212; stroke-opacity:1; 
stroke-linecap:round; stroke-linejoin:round;">
</g>
<g style="fill:#000000; fill-opacity:0.0; 
stroke:#000000; stroke-width:0.1500; stroke-opacity:1; 
stroke-linecap:round; stroke-linejoin:round;">
<path d="M197.0022 191.5072
L197.0022 194.5072
" />
</g>
<g style="fill:#000000; fill-opacity:0.0; 
stroke:#000000; stroke-width:0.0212; stroke-opacity:1; 
stroke-linecap:round; stroke-linejoin:round;">
</g>
<g style="fill:#000000; fill-opacity:0.0; 
stroke:#000000; stroke-width:0.1500; stroke-opacity:1; 
stroke-linecap:round; stroke-linejoin:round;">
<path d="M261.0022 191.5072
L261.0022 198.0072
" />
</g>
<g style="fill:#585D84; fill-opacity:0.0; 
stroke:#585D84; stroke-width:0.1500; stroke-opacity:1; 
stroke-linecap:round; stroke-linejoin:round;">
</g>
<g style="fill:#585D84; fill-opacity:0.0; 
stroke:#585D84; stroke-width:0.0975; stroke-opacity:1; 
stroke-linecap:round; stroke-linejoin:round;">
<text x="143.4211" y="101.3226"
transform="scale(-1 1) translate(-286.842200 0)"
textLength="12.3090" font-size="0.6828" lengthAdjust="spacingAndGlyphs"
text-anchor="start" opacity="0">JUMPER-SMT_2_NC_TRACE_SILK</text>
<g class="stroked-text"><desc>JUMPER-SMT_2_NC_TRACE_SILK</desc>
<path d="M143.1529 100.7914
L143.1529 101.1572
" />
<path d="M143.1529 101.1572
L143.1773 101.2303
" />
<path d="M143.1773 101.2303
L143.2260 101.2791
" />
<path d="M143.2260 101.2791
L143.2992 101.3035
" />
<path d="M143.2992 101.3035
L143.3479 101.3035
" />
<path d="M142.9090 100.7914
L142.9090 101.2060
" />
<path d="M142.9090 101.2060
L142.8847 101.2547
" />
<path d="M142.8847 101.2547
L142.8603 101.2791
" />
<path d="M142.8603 101.2791
L142.8115 101.3035
" />
<path d="M142.8115 101.3035
L142.7140 101.3035
" />
<path d="M142.7140 101.3035
L142.6652 101.2791
" />
<path d="M142.6652 101.2791
L142.6408 101.2547
" />
<path d="M142.6408 101.2547
L142.6164 101.2060
" />
<path d="M142.6164 101.2060
L142.6164 100.7914
" />
<path d="M142.3726 101.3035
L142.3726 100.7914
" />
<path d="M142.3726 100.7914
L142.2019 101.1572
" />
<path d="M142.2019 101.1572
L142.0312 100.7914
" />
<path d="M142.0312 100.7914
L142.0312 101.3035
" />
<path d="M141.7874 101.3035
L141.7874 100.7914
" />
<path d="M141.7874 100.7914
L141.5923 100.7914
" />
<path d="M141.5923 100.7914
L141.5435 100.8158
" />
<path d="M141.5435 100.8158
L141.5191 100.8402
" />
<path d="M141.5191 100.8402
L141.4948 100.8890
" />
<path d="M141.4948 100.8890
L141.4948 100.9621
" />
<path d="M141.4948 100.9621
L141.5191 101.0109
" />
<path d="M141.5191 101.0109
L141.5435 101.0353
" />
<path d="M141.5435 101.0353
L141.5923 101.0597
" />
<path d="M141.5923 101.0597
L141.7874 101.0597
" />
<path d="M141.2753 101.0353
L141.1046 101.0353
" />
<path d="M141.0315 101.3035
L141.2753 101.3035
" />
<path d="M141.2753 101.3035
L141.2753 100.7914
" />
<path d="M141.2753 100.7914
L141.0315 100.7914
" />
<path d="M140.5194 101.3035
L140.6901 101.0597
" />
<path d="M140.8120 101.3035
L140.8120 100.7914
" />
<path d="M140.8120 100.7914
L140.6169 100.7914
" />
<path d="M140.6169 100.7914
L140.5682 100.8158
" />
<path d="M140.5682 100.8158
L140.5438 100.8402
" />
<path d="M140.5438 100.8402
L140.5194 100.8890
" />
<path d="M140.5194 100.8890
L140.5194 100.9621
" />
<path d="M140.5194 100.9621
L140.5438 101.0109
" />
<path d="M140.5438 101.0109
L140.5682 101.0353
" />
<path d="M140.5682 101.0353
L140.6169 101.0597
" />
<path d="M140.6169 101.0597
L140.8120 101.0597
" />
<path d="M140.2999 101.1084
L139.9098 101.1084
" />
<path d="M139.6903 101.2791
L139.6172 101.3035
" />
<path d="M139.6172 101.3035
L139.4953 101.3035
" />
<path d="M139.4953 101.3035
L139.4465 101.2791
" />
<path d="M139.4465 101.2791
L139.4221 101.2547
" />
<path d="M139.4221 101.2547
L139.3977 101.2060
" />
<path d="M139.3977 101.2060
L139.3977 101.1572
" />
<path d="M139.3977 101.1572
L139.4221 101.1084
" />
<path d="M139.4221 101.1084
L139.4465 101.0840
" />
<path d="M139.4465 101.0840
L139.4953 101.0597
" />
<path d="M139.4953 101.0597
L139.5928 101.0353
" />
<path d="M139.5928 101.0353
L139.6416 101.0109
" />
<path d="M139.6416 101.0109
L139.6660 100.9865
" />
<path d="M139.6660 100.9865
L139.6903 100.9377
" />
<path d="M139.6903 100.9377
L139.6903 100.8890
" />
<path d="M139.6903 100.8890
L139.6660 100.8402
" />
<path d="M139.6660 100.8402
L139.6416 100.8158
" />
<path d="M139.6416 100.8158
L139.5928 100.7914
" />
<path d="M139.5928 100.7914
L139.4709 100.7914
" />
<path d="M139.4709 100.7914
L139.3977 100.8158
" />
<path d="M139.1783 101.3035
L139.1783 100.7914
" />
<path d="M139.1783 100.7914
L139.0076 101.1572
" />
<path d="M139.0076 101.1572
L138.8369 100.7914
" />
<path d="M138.8369 100.7914
L138.8369 101.3035
" />
<path d="M138.6662 100.7914
L138.3736 100.7914
" />
<path d="M138.5199 101.3035
L138.5199 100.7914
" />
<path d="M138.3248 101.3523
L137.9347 101.3523
" />
<path d="M137.8372 100.8402
L137.8128 100.8158
" />
<path d="M137.8128 100.8158
L137.7640 100.7914
" />
<path d="M137.7640 100.7914
L137.6421 100.7914
" />
<path d="M137.6421 100.7914
L137.5933 100.8158
" />
<path d="M137.5933 100.8158
L137.5689 100.8402
" />
<path d="M137.5689 100.8402
L137.5446 100.8890
" />
<path d="M137.5446 100.8890
L137.5446 100.9377
" />
<path d="M137.5446 100.9377
L137.5689 101.0109
" />
<path d="M137.5689 101.0109
L137.8615 101.3035
" />
<path d="M137.8615 101.3035
L137.5446 101.3035
" />
<path d="M137.4470 101.3523
L137.0569 101.3523
" />
<path d="M136.9350 101.3035
L136.9350 100.7914
" />
<path d="M136.9350 100.7914
L136.6423 101.3035
" />
<path d="M136.6423 101.3035
L136.6423 100.7914
" />
<path d="M136.1059 101.2547
L136.1303 101.2791
" />
<path d="M136.1303 101.2791
L136.2034 101.3035
" />
<path d="M136.2034 101.3035
L136.2522 101.3035
" />
<path d="M136.2522 101.3035
L136.3254 101.2791
" />
<path d="M136.3254 101.2791
L136.3741 101.2303
" />
<path d="M136.3741 101.2303
L136.3985 101.1816
" />
<path d="M136.3985 101.1816
L136.4229 101.0840
" />
<path d="M136.4229 101.0840
L136.4229 101.0109
" />
<path d="M136.4229 101.0109
L136.3985 100.9133
" />
<path d="M136.3985 100.9133
L136.3741 100.8646
" />
<path d="M136.3741 100.8646
L136.3254 100.8158
" />
<path d="M136.3254 100.8158
L136.2522 100.7914
" />
<path d="M136.2522 100.7914
L136.2034 100.7914
" />
<path d="M136.2034 100.7914
L136.1303 100.8158
" />
<path d="M136.1303 100.8158
L136.1059 100.8402
" />
<path d="M136.0084 101.3523
L135.6182 101.3523
" />
<path d="M135.5695 100.7914
L135.2768 100.7914
" />
<path d="M135.4231 101.3035
L135.4231 100.7914
" />
<path d="M134.8135 101.3035
L134.9842 101.0597
" />
<path d="M135.1062 101.3035
L135.1062 100.7914
" />
<path d="M135.1062 100.7914
L134.9111 100.7914
" />
<path d="M134.9111 100.7914
L134.8623 100.8158
" />
<path d="M134.8623 100.8158
L134.8379 100.8402
" />
<path d="M134.8379 100.8402
L134.8135 100.8890
" />
<path d="M134.8135 100.8890
L134.8135 100.9621
" />
<path d="M134.8135 100.9621
L134.8379 101.0109
" />
<path d="M134.8379 101.0109
L134.8623 101.0353
" />
<path d="M134.8623 101.0353
L134.9111 101.0597
" />
<path d="M134.9111 101.0597
L135.1062 101.0597
" />
<path d="M134.6185 101.1572
L134.3746 101.1572
" />
<path d="M134.6672 101.3035
L134.4966 100.7914
" />
<path d="M134.4966 100.7914
L134.3259 101.3035
" />
<path d="M133.8626 101.2547
L133.8870 101.2791
" />
<path d="M133.8870 101.2791
L133.9601 101.3035
" />
<path d="M133.9601 101.3035
L134.0089 101.3035
" />
<path d="M134.0089 101.3035
L134.0820 101.2791
" />
<path d="M134.0820 101.2791
L134.1308 101.2303
" />
<path d="M134.1308 101.2303
L134.1552 101.1816
" />
<path d="M134.1552 101.1816
L134.1796 101.0840
" />
<path d="M134.1796 101.0840
L134.1796 101.0109
" />
<path d="M134.1796 101.0109
L134.1552 100.9133
" />
<path d="M134.1552 100.9133
L134.1308 100.8646
" />
<path d="M134.1308 100.8646
L134.0820 100.8158
" />
<path d="M134.0820 100.8158
L134.0089 100.7914
" />
<path d="M134.0089 100.7914
L133.9601 100.7914
" />
<path d="M133.9601 100.7914
L133.8870 100.8158
" />
<path d="M133.8870 100.8158
L133.8626 100.8402
" />
<path d="M133.6431 101.0353
L133.4724 101.0353
" />
<path d="M133.3993 101.3035
L133.6431 101.3035
" />
<path d="M133.6431 101.3035
L133.6431 100.7914
" />
<path d="M133.6431 100.7914
L133.3993 100.7914
" />
<path d="M133.3017 101.3523
L132.9116 101.3523
" />
<path d="M132.8141 101.2791
L132.7409 101.3035
" />
<path d="M132.7409 101.3035
L132.6190 101.3035
" />
<path d="M132.6190 101.3035
L132.5702 101.2791
" />
<path d="M132.5702 101.2791
L132.5458 101.2547
" />
<path d="M132.5458 101.2547
L132.5215 101.2060
" />
<path d="M132.5215 101.2060
L132.5215 101.1572
" />
<path d="M132.5215 101.1572
L132.5458 101.1084
" />
<path d="M132.5458 101.1084
L132.5702 101.0840
" />
<path d="M132.5702 101.0840
L132.6190 101.0597
" />
<path d="M132.6190 101.0597
L132.7165 101.0353
" />
<path d="M132.7165 101.0353
L132.7653 101.0109
" />
<path d="M132.7653 101.0109
L132.7897 100.9865
" />
<path d="M132.7897 100.9865
L132.8141 100.9377
" />
<path d="M132.8141 100.9377
L132.8141 100.8890
" />
<path d="M132.8141 100.8890
L132.7897 100.8402
" />
<path d="M132.7897 100.8402
L132.7653 100.8158
" />
<path d="M132.7653 100.8158
L132.7165 100.7914
" />
<path d="M132.7165 100.7914
L132.5946 100.7914
" />
<path d="M132.5946 100.7914
L132.5215 100.8158
" />
<path d="M132.3020 101.3035
L132.3020 100.7914
" />
<path d="M131.8143 101.3035
L132.0582 101.3035
" />
<path d="M132.0582 101.3035
L132.0582 100.7914
" />
<path d="M131.6436 101.3035
L131.6436 100.7914
" />
<path d="M131.3510 101.3035
L131.5705 101.0109
" />
<path d="M131.3510 100.7914
L131.6436 101.0840
" />
</g><text x="156.1211" y="99.0366"
transform="scale(-1 1) translate(-312.242200 0)"
textLength="12.3090" font-size="0.6828" lengthAdjust="spacingAndGlyphs"
text-anchor="end" opacity="0">JUMPER-SMT_2_NC_TRACE_SILK</text>
<g class="stroked-text"><desc>JUMPER-SMT_2_NC_TRACE_SILK</desc>
<path d="M168.0205 98.5054
L168.0205 98.8712
" />
<path d="M168.0205 98.8712
L168.0449 98.9443
" />
<path d="M168.0449 98.9443
L168.0936 98.9931
" />
<path d="M168.0936 98.9931
L168.1668 99.0175
" />
<path d="M168.1668 99.0175
L168.2156 99.0175
" />
<path d="M167.7767 98.5054
L167.7767 98.9200
" />
<path d="M167.7767 98.9200
L167.7523 98.9687
" />
<path d="M167.7523 98.9687
L167.7279 98.9931
" />
<path d="M167.7279 98.9931
L167.6791 99.0175
" />
<path d="M167.6791 99.0175
L167.5816 99.0175
" />
<path d="M167.5816 99.0175
L167.5328 98.9931
" />
<path d="M167.5328 98.9931
L167.5084 98.9687
" />
<path d="M167.5084 98.9687
L167.4840 98.9200
" />
<path d="M167.4840 98.9200
L167.4840 98.5054
" />
<path d="M167.2402 99.0175
L167.2402 98.5054
" />
<path d="M167.2402 98.5054
L167.0695 98.8712
" />
<path d="M167.0695 98.8712
L166.8988 98.5054
" />
<path d="M166.8988 98.5054
L166.8988 99.0175
" />
<path d="M166.6550 99.0175
L166.6550 98.5054
" />
<path d="M166.6550 98.5054
L166.4599 98.5054
" />
<path d="M166.4599 98.5054
L166.4111 98.5298
" />
<path d="M166.4111 98.5298
L166.3868 98.5542
" />
<path d="M166.3868 98.5542
L166.3624 98.6030
" />
<path d="M166.3624 98.6030
L166.3624 98.6761
" />
<path d="M166.3624 98.6761
L166.3868 98.7249
" />
<path d="M166.3868 98.7249
L166.4111 98.7493
" />
<path d="M166.4111 98.7493
L166.4599 98.7737
" />
<path d="M166.4599 98.7737
L166.6550 98.7737
" />
<path d="M166.1429 98.7493
L165.9722 98.7493
" />
<path d="M165.8991 99.0175
L166.1429 99.0175
" />
<path d="M166.1429 99.0175
L166.1429 98.5054
" />
<path d="M166.1429 98.5054
L165.8991 98.5054
" />
<path d="M165.3870 99.0175
L165.5577 98.7737
" />
<path d="M165.6796 99.0175
L165.6796 98.5054
" />
<path d="M165.6796 98.5054
L165.4846 98.5054
" />
<path d="M165.4846 98.5054
L165.4358 98.5298
" />
<path d="M165.4358 98.5298
L165.4114 98.5542
" />
<path d="M165.4114 98.5542
L165.3870 98.6030
" />
<path d="M165.3870 98.6030
L165.3870 98.6761
" />
<path d="M165.3870 98.6761
L165.4114 98.7249
" />
<path d="M165.4114 98.7249
L165.4358 98.7493
" />
<path d="M165.4358 98.7493
L165.4846 98.7737
" />
<path d="M165.4846 98.7737
L165.6796 98.7737
" />
<path d="M165.1676 98.8224
L164.7774 98.8224
" />
<path d="M164.5580 98.9931
L164.4848 99.0175
" />
<path d="M164.4848 99.0175
L164.3629 99.0175
" />
<path d="M164.3629 99.0175
L164.3141 98.9931
" />
<path d="M164.3141 98.9931
L164.2897 98.9687
" />
<path d="M164.2897 98.9687
L164.2654 98.9200
" />
<path d="M164.2654 98.9200
L164.2654 98.8712
" />
<path d="M164.2654 98.8712
L164.2897 98.8224
" />
<path d="M164.2897 98.8224
L164.3141 98.7980
" />
<path d="M164.3141 98.7980
L164.3629 98.7737
" />
<path d="M164.3629 98.7737
L164.4604 98.7493
" />
<path d="M164.4604 98.7493
L164.5092 98.7249
" />
<path d="M164.5092 98.7249
L164.5336 98.7005
" />
<path d="M164.5336 98.7005
L164.5580 98.6517
" />
<path d="M164.5580 98.6517
L164.5580 98.6030
" />
<path d="M164.5580 98.6030
L164.5336 98.5542
" />
<path d="M164.5336 98.5542
L164.5092 98.5298
" />
<path d="M164.5092 98.5298
L164.4604 98.5054
" />
<path d="M164.4604 98.5054
L164.3385 98.5054
" />
<path d="M164.3385 98.5054
L164.2654 98.5298
" />
<path d="M164.0459 99.0175
L164.0459 98.5054
" />
<path d="M164.0459 98.5054
L163.8752 98.8712
" />
<path d="M163.8752 98.8712
L163.7045 98.5054
" />
<path d="M163.7045 98.5054
L163.7045 99.0175
" />
<path d="M163.5338 98.5054
L163.2412 98.5054
" />
<path d="M163.3875 99.0175
L163.3875 98.5054
" />
<path d="M163.1925 99.0663
L162.8023 99.0663
" />
<path d="M162.7048 98.5542
L162.6804 98.5298
" />
<path d="M162.6804 98.5298
L162.6316 98.5054
" />
<path d="M162.6316 98.5054
L162.5097 98.5054
" />
<path d="M162.5097 98.5054
L162.4609 98.5298
" />
<path d="M162.4609 98.5298
L162.4366 98.5542
" />
<path d="M162.4366 98.5542
L162.4122 98.6030
" />
<path d="M162.4122 98.6030
L162.4122 98.6517
" />
<path d="M162.4122 98.6517
L162.4366 98.7249
" />
<path d="M162.4366 98.7249
L162.7292 99.0175
" />
<path d="M162.7292 99.0175
L162.4122 99.0175
" />
<path d="M162.3146 99.0663
L161.9245 99.0663
" />
<path d="M161.8026 99.0175
L161.8026 98.5054
" />
<path d="M161.8026 98.5054
L161.5100 99.0175
" />
<path d="M161.5100 99.0175
L161.5100 98.5054
" />
<path d="M160.9735 98.9687
L160.9979 98.9931
" />
<path d="M160.9979 98.9931
L161.0711 99.0175
" />
<path d="M161.0711 99.0175
L161.1198 99.0175
" />
<path d="M161.1198 99.0175
L161.1930 98.9931
" />
<path d="M161.1930 98.9931
L161.2417 98.9443
" />
<path d="M161.2417 98.9443
L161.2661 98.8956
" />
<path d="M161.2661 98.8956
L161.2905 98.7980
" />
<path d="M161.2905 98.7980
L161.2905 98.7249
" />
<path d="M161.2905 98.7249
L161.2661 98.6273
" />
<path d="M161.2661 98.6273
L161.2417 98.5786
" />
<path d="M161.2417 98.5786
L161.1930 98.5298
" />
<path d="M161.1930 98.5298
L161.1198 98.5054
" />
<path d="M161.1198 98.5054
L161.0711 98.5054
" />
<path d="M161.0711 98.5054
L160.9979 98.5298
" />
<path d="M160.9979 98.5298
L160.9735 98.5542
" />
<path d="M160.8760 99.0663
L160.4858 99.0663
" />
<path d="M160.4371 98.5054
L160.1445 98.5054
" />
<path d="M160.2908 99.0175
L160.2908 98.5054
" />
<path d="M159.6812 99.0175
L159.8519 98.7737
" />
<path d="M159.9738 99.0175
L159.9738 98.5054
" />
<path d="M159.9738 98.5054
L159.7787 98.5054
" />
<path d="M159.7787 98.5054
L159.7299 98.5298
" />
<path d="M159.7299 98.5298
L159.7055 98.5542
" />
<path d="M159.7055 98.5542
L159.6812 98.6030
" />
<path d="M159.6812 98.6030
L159.6812 98.6761
" />
<path d="M159.6812 98.6761
L159.7055 98.7249
" />
<path d="M159.7055 98.7249
L159.7299 98.7493
" />
<path d="M159.7299 98.7493
L159.7787 98.7737
" />
<path d="M159.7787 98.7737
L159.9738 98.7737
" />
<path d="M159.4861 98.8712
L159.2423 98.8712
" />
<path d="M159.5349 99.0175
L159.3642 98.5054
" />
<path d="M159.3642 98.5054
L159.1935 99.0175
" />
<path d="M158.7302 98.9687
L158.7546 98.9931
" />
<path d="M158.7546 98.9931
L158.8277 99.0175
" />
<path d="M158.8277 99.0175
L158.8765 99.0175
" />
<path d="M158.8765 99.0175
L158.9496 98.9931
" />
<path d="M158.9496 98.9931
L158.9984 98.9443
" />
<path d="M158.9984 98.9443
L159.0228 98.8956
" />
<path d="M159.0228 98.8956
L159.0472 98.7980
" />
<path d="M159.0472 98.7980
L159.0472 98.7249
" />
<path d="M159.0472 98.7249
L159.0228 98.6273
" />
<path d="M159.0228 98.6273
L158.9984 98.5786
" />
<path d="M158.9984 98.5786
L158.9496 98.5298
" />
<path d="M158.9496 98.5298
L158.8765 98.5054
" />
<path d="M158.8765 98.5054
L158.8277 98.5054
" />
<path d="M158.8277 98.5054
L158.7546 98.5298
" />
<path d="M158.7546 98.5298
L158.7302 98.5542
" />
<path d="M158.5107 98.7493
L158.3400 98.7493
" />
<path d="M158.2669 99.0175
L158.5107 99.0175
" />
<path d="M158.5107 99.0175
L158.5107 98.5054
" />
<path d="M158.5107 98.5054
L158.2669 98.5054
" />
<path d="M158.1694 99.0663
L157.7792 99.0663
" />
<path d="M157.6817 98.9931
L157.6085 99.0175
" />
<path d="M157.6085 99.0175
L157.4866 99.0175
" />
<path d="M157.4866 99.0175
L157.4378 98.9931
" />
<path d="M157.4378 98.9931
L157.4135 98.9687
" />
<path d="M157.4135 98.9687
L157.3891 98.9200
" />
<path d="M157.3891 98.9200
L157.3891 98.8712
" />
<path d="M157.3891 98.8712
L157.4135 98.8224
" />
<path d="M157.4135 98.8224
L157.4378 98.7980
" />
<path d="M157.4378 98.7980
L157.4866 98.7737
" />
<path d="M157.4866 98.7737
L157.5841 98.7493
" />
<path d="M157.5841 98.7493
L157.6329 98.7249
" />
<path d="M157.6329 98.7249
L157.6573 98.7005
" />
<path d="M157.6573 98.7005
L157.6817 98.6517
" />
<path d="M157.6817 98.6517
L157.6817 98.6030
" />
<path d="M157.6817 98.6030
L157.6573 98.5542
" />
<path d="M157.6573 98.5542
L157.6329 98.5298
" />
<path d="M157.6329 98.5298
L157.5841 98.5054
" />
<path d="M157.5841 98.5054
L157.4622 98.5054
" />
<path d="M157.4622 98.5054
L157.3891 98.5298
" />
<path d="M157.1696 99.0175
L157.1696 98.5054
" />
<path d="M156.6819 99.0175
L156.9258 99.0175
" />
<path d="M156.9258 99.0175
L156.9258 98.5054
" />
<path d="M156.5112 99.0175
L156.5112 98.5054
" />
<path d="M156.2186 99.0175
L156.4381 98.7249
" />
<path d="M156.2186 98.5054
L156.5112 98.7980
" />
</g><text x="148.5011" y="101.3226"
transform="scale(-1 1) translate(-297.002200 0)"
textLength="13.4307" font-size="0.6828" lengthAdjust="spacingAndGlyphs"
text-anchor="start" opacity="0">JUMPER-SMT_3_2-NC_TRACE_SILK</text>
<g class="stroked-text"><desc>JUMPER-SMT_3_2-NC_TRACE_SILK</desc>
<path d="M148.2329 100.7914
L148.2329 101.1572
" />
<path d="M148.2329 101.1572
L148.2573 101.2303
" />
<path d="M148.2573 101.2303
L148.3060 101.2791
" />
<path d="M148.3060 101.2791
L148.3792 101.3035
" />
<path d="M148.3792 101.3035
L148.4279 101.3035
" />
<path d="M147.9890 100.7914
L147.9890 101.2060
" />
<path d="M147.9890 101.2060
L147.9647 101.2547
" />
<path d="M147.9647 101.2547
L147.9403 101.2791
" />
<path d="M147.9403 101.2791
L147.8915 101.3035
" />
<path d="M147.8915 101.3035
L147.7940 101.3035
" />
<path d="M147.7940 101.3035
L147.7452 101.2791
" />
<path d="M147.7452 101.2791
L147.7208 101.2547
" />
<path d="M147.7208 101.2547
L147.6964 101.2060
" />
<path d="M147.6964 101.2060
L147.6964 100.7914
" />
<path d="M147.4526 101.3035
L147.4526 100.7914
" />
<path d="M147.4526 100.7914
L147.2819 101.1572
" />
<path d="M147.2819 101.1572
L147.1112 100.7914
" />
<path d="M147.1112 100.7914
L147.1112 101.3035
" />
<path d="M146.8674 101.3035
L146.8674 100.7914
" />
<path d="M146.8674 100.7914
L146.6723 100.7914
" />
<path d="M146.6723 100.7914
L146.6235 100.8158
" />
<path d="M146.6235 100.8158
L146.5991 100.8402
" />
<path d="M146.5991 100.8402
L146.5748 100.8890
" />
<path d="M146.5748 100.8890
L146.5748 100.9621
" />
<path d="M146.5748 100.9621
L146.5991 101.0109
" />
<path d="M146.5991 101.0109
L146.6235 101.0353
" />
<path d="M146.6235 101.0353
L146.6723 101.0597
" />
<path d="M146.6723 101.0597
L146.8674 101.0597
" />
<path d="M146.3553 101.0353
L146.1846 101.0353
" />
<path d="M146.1115 101.3035
L146.3553 101.3035
" />
<path d="M146.3553 101.3035
L146.3553 100.7914
" />
<path d="M146.3553 100.7914
L146.1115 100.7914
" />
<path d="M145.5994 101.3035
L145.7701 101.0597
" />
<path d="M145.8920 101.3035
L145.8920 100.7914
" />
<path d="M145.8920 100.7914
L145.6969 100.7914
" />
<path d="M145.6969 100.7914
L145.6482 100.8158
" />
<path d="M145.6482 100.8158
L145.6238 100.8402
" />
<path d="M145.6238 100.8402
L145.5994 100.8890
" />
<path d="M145.5994 100.8890
L145.5994 100.9621
" />
<path d="M145.5994 100.9621
L145.6238 101.0109
" />
<path d="M145.6238 101.0109
L145.6482 101.0353
" />
<path d="M145.6482 101.0353
L145.6969 101.0597
" />
<path d="M145.6969 101.0597
L145.8920 101.0597
" />
<path d="M145.3799 101.1084
L144.9898 101.1084
" />
<path d="M144.7703 101.2791
L144.6972 101.3035
" />
<path d="M144.6972 101.3035
L144.5753 101.3035
" />
<path d="M144.5753 101.3035
L144.5265 101.2791
" />
<path d="M144.5265 101.2791
L144.5021 101.2547
" />
<path d="M144.5021 101.2547
L144.4777 101.2060
" />
<path d="M144.4777 101.2060
L144.4777 101.1572
" />
<path d="M144.4777 101.1572
L144.5021 101.1084
" />
<path d="M144.5021 101.1084
L144.5265 101.0840
" />
<path d="M144.5265 101.0840
L144.5753 101.0597
" />
<path d="M144.5753 101.0597
L144.6728 101.0353
" />
<path d="M144.6728 101.0353
L144.7216 101.0109
" />
<path d="M144.7216 101.0109
L144.7460 100.9865
" />
<path d="M144.7460 100.9865
L144.7703 100.9377
" />
<path d="M144.7703 100.9377
L144.7703 100.8890
" />
<path d="M144.7703 100.8890
L144.7460 100.8402
" />
<path d="M144.7460 100.8402
L144.7216 100.8158
" />
<path d="M144.7216 100.8158
L144.6728 100.7914
" />
<path d="M144.6728 100.7914
L144.5509 100.7914
" />
<path d="M144.5509 100.7914
L144.4777 100.8158
" />
<path d="M144.2583 101.3035
L144.2583 100.7914
" />
<path d="M144.2583 100.7914
L144.0876 101.1572
" />
<path d="M144.0876 101.1572
L143.9169 100.7914
" />
<path d="M143.9169 100.7914
L143.9169 101.3035
" />
<path d="M143.7462 100.7914
L143.4536 100.7914
" />
<path d="M143.5999 101.3035
L143.5999 100.7914
" />
<path d="M143.4048 101.3523
L143.0147 101.3523
" />
<path d="M142.9415 100.7914
L142.6246 100.7914
" />
<path d="M142.6246 100.7914
L142.7952 100.9865
" />
<path d="M142.7952 100.9865
L142.7221 100.9865
" />
<path d="M142.7221 100.9865
L142.6733 101.0109
" />
<path d="M142.6733 101.0109
L142.6489 101.0353
" />
<path d="M142.6489 101.0353
L142.6246 101.0840
" />
<path d="M142.6246 101.0840
L142.6246 101.2060
" />
<path d="M142.6246 101.2060
L142.6489 101.2547
" />
<path d="M142.6489 101.2547
L142.6733 101.2791
" />
<path d="M142.6733 101.2791
L142.7221 101.3035
" />
<path d="M142.7221 101.3035
L142.8684 101.3035
" />
<path d="M142.8684 101.3035
L142.9172 101.2791
" />
<path d="M142.9172 101.2791
L142.9415 101.2547
" />
<path d="M142.5270 101.3523
L142.1369 101.3523
" />
<path d="M142.0393 100.8402
L142.0150 100.8158
" />
<path d="M142.0150 100.8158
L141.9662 100.7914
" />
<path d="M141.9662 100.7914
L141.8443 100.7914
" />
<path d="M141.8443 100.7914
L141.7955 100.8158
" />
<path d="M141.7955 100.8158
L141.7711 100.8402
" />
<path d="M141.7711 100.8402
L141.7467 100.8890
" />
<path d="M141.7467 100.8890
L141.7467 100.9377
" />
<path d="M141.7467 100.9377
L141.7711 101.0109
" />
<path d="M141.7711 101.0109
L142.0637 101.3035
" />
<path d="M142.0637 101.3035
L141.7467 101.3035
" />
<path d="M141.5273 101.1084
L141.1371 101.1084
" />
<path d="M140.8933 101.3035
L140.8933 100.7914
" />
<path d="M140.8933 100.7914
L140.6007 101.3035
" />
<path d="M140.6007 101.3035
L140.6007 100.7914
" />
<path d="M140.0642 101.2547
L140.0886 101.2791
" />
<path d="M140.0886 101.2791
L140.1618 101.3035
" />
<path d="M140.1618 101.3035
L140.2105 101.3035
" />
<path d="M140.2105 101.3035
L140.2837 101.2791
" />
<path d="M140.2837 101.2791
L140.3325 101.2303
" />
<path d="M140.3325 101.2303
L140.3568 101.1816
" />
<path d="M140.3568 101.1816
L140.3812 101.0840
" />
<path d="M140.3812 101.0840
L140.3812 101.0109
" />
<path d="M140.3812 101.0109
L140.3568 100.9133
" />
<path d="M140.3568 100.9133
L140.3325 100.8646
" />
<path d="M140.3325 100.8646
L140.2837 100.8158
" />
<path d="M140.2837 100.8158
L140.2105 100.7914
" />
<path d="M140.2105 100.7914
L140.1618 100.7914
" />
<path d="M140.1618 100.7914
L140.0886 100.8158
" />
<path d="M140.0886 100.8158
L140.0642 100.8402
" />
<path d="M139.9667 101.3523
L139.5766 101.3523
" />
<path d="M139.5278 100.7914
L139.2352 100.7914
" />
<path d="M139.3815 101.3035
L139.3815 100.7914
" />
<path d="M138.7719 101.3035
L138.9426 101.0597
" />
<path d="M139.0645 101.3035
L139.0645 100.7914
" />
<path d="M139.0645 100.7914
L138.8694 100.7914
" />
<path d="M138.8694 100.7914
L138.8207 100.8158
" />
<path d="M138.8207 100.8158
L138.7963 100.8402
" />
<path d="M138.7963 100.8402
L138.7719 100.8890
" />
<path d="M138.7719 100.8890
L138.7719 100.9621
" />
<path d="M138.7719 100.9621
L138.7963 101.0109
" />
<path d="M138.7963 101.0109
L138.8207 101.0353
" />
<path d="M138.8207 101.0353
L138.8694 101.0597
" />
<path d="M138.8694 101.0597
L139.0645 101.0597
" />
<path d="M138.5768 101.1572
L138.3330 101.1572
" />
<path d="M138.6256 101.3035
L138.4549 100.7914
" />
<path d="M138.4549 100.7914
L138.2842 101.3035
" />
<path d="M137.8209 101.2547
L137.8453 101.2791
" />
<path d="M137.8453 101.2791
L137.9184 101.3035
" />
<path d="M137.9184 101.3035
L137.9672 101.3035
" />
<path d="M137.9672 101.3035
L138.0404 101.2791
" />
<path d="M138.0404 101.2791
L138.0891 101.2303
" />
<path d="M138.0891 101.2303
L138.1135 101.1816
" />
<path d="M138.1135 101.1816
L138.1379 101.0840
" />
<path d="M138.1379 101.0840
L138.1379 101.0109
" />
<path d="M138.1379 101.0109
L138.1135 100.9133
" />
<path d="M138.1135 100.9133
L138.0891 100.8646
" />
<path d="M138.0891 100.8646
L138.0404 100.8158
" />
<path d="M138.0404 100.8158
L137.9672 100.7914
" />
<path d="M137.9672 100.7914
L137.9184 100.7914
" />
<path d="M137.9184 100.7914
L137.8453 100.8158
" />
<path d="M137.8453 100.8158
L137.8209 100.8402
" />
<path d="M137.6015 101.0353
L137.4308 101.0353
" />
<path d="M137.3576 101.3035
L137.6015 101.3035
" />
<path d="M137.6015 101.3035
L137.6015 100.7914
" />
<path d="M137.6015 100.7914
L137.3576 100.7914
" />
<path d="M137.2601 101.3523
L136.8699 101.3523
" />
<path d="M136.7724 101.2791
L136.6992 101.3035
" />
<path d="M136.6992 101.3035
L136.5773 101.3035
" />
<path d="M136.5773 101.3035
L136.5286 101.2791
" />
<path d="M136.5286 101.2791
L136.5042 101.2547
" />
<path d="M136.5042 101.2547
L136.4798 101.2060
" />
<path d="M136.4798 101.2060
L136.4798 101.1572
" />
<path d="M136.4798 101.1572
L136.5042 101.1084
" />
<path d="M136.5042 101.1084
L136.5286 101.0840
" />
<path d="M136.5286 101.0840
L136.5773 101.0597
" />
<path d="M136.5773 101.0597
L136.6749 101.0353
" />
<path d="M136.6749 101.0353
L136.7236 101.0109
" />
<path d="M136.7236 101.0109
L136.7480 100.9865
" />
<path d="M136.7480 100.9865
L136.7724 100.9377
" />
<path d="M136.7724 100.9377
L136.7724 100.8890
" />
<path d="M136.7724 100.8890
L136.7480 100.8402
" />
<path d="M136.7480 100.8402
L136.7236 100.8158
" />
<path d="M136.7236 100.8158
L136.6749 100.7914
" />
<path d="M136.6749 100.7914
L136.5529 100.7914
" />
<path d="M136.5529 100.7914
L136.4798 100.8158
" />
<path d="M136.2603 101.3035
L136.2603 100.7914
" />
<path d="M135.7727 101.3035
L136.0165 101.3035
" />
<path d="M136.0165 101.3035
L136.0165 100.7914
" />
<path d="M135.6020 101.3035
L135.6020 100.7914
" />
<path d="M135.3094 101.3035
L135.5288 101.0109
" />
<path d="M135.3094 100.7914
L135.6020 101.0840
" />
</g><g >
</g>
<g >
</g>
<g >
</g>
<g >
</g>
<g >
</g>
<g >
</g>
<g >
</g>
<g >
</g>
<g >
</g>
<g >
</g>
<g >
</g>
<g >
</g>
<g >
</g>
<g >
</g>
<g >
</g>
<g >
</g>
<g >
</g>
<g >
</g>
<g >
</g>
<g >
</g>
<g >
</g>
<g >
</g>
<g >
</g>
<g >
</g>
<g >
</g>
<g >
</g>
<g >
</g>
<g >
</g>
<g >
</g>
<g >
</g>
<g >
</g>
<g >
</g>
<g >
</g>
<g >
</g>
<g >
</g>
<g >
</g>
<g >
</g>
<g >
</g>
<g >
</g>
<g >
</g>
<g >
</g>
<g >
</g>
<g >
</g>
<g >
</g>
<g >
</g>
<g >
</g>
<g >
</g>
<g >
</g>
<g >
</g>
<g >
</g>
<g >
</g>
<g >
</g>
<g >
</g>
<g >
</g>
<g >
</g>
<g >
</g>
<g >
</g>
<g >
</g>
<g >
</g>
<g >
</g>
<g >
</g>
<g >
</g>
<g >
</g>
<g >
</g>
<g >
</g>
<g >
</g>
<g >
</g>
<g >
</g>
<g >
</g>
<g >
</g>
<g >
</g>
</g>
<g style="fill:#000000; fill-opacity:0.0; 
stroke:#000000; stroke-width:0.0975; stroke-opacity:1; 
stroke-linecap:round; stroke-linejoin:round;">
</g>
<g style="fill:#D0D2CD; fill-opacity:0.0; 
stroke:#D0D2CD; stroke-width:0.0975; stroke-opacity:1; 
stroke-linecap:round; stroke-linejoin:round;">
</g>
<g style="fill:#D0D2CD; fill-opacity:0.0; 
stroke:#D0D2CD; stroke-width:0.0500; stroke-opacity:1; 
stroke-linecap:round; stroke-linejoin:round;">
<path d="M161.2011 92.3036
L135.8011 92.3036
" />
<path d="M135.8011 92.3036
L135.8011 117.7036
" />
<path d="M161.1811 117.7036
L161.2011 92.3036
" />
<path d="M135.8011 117.7036
L161.1811 117.7036
" />
<g >
</g>
<g >
</g>
<g >
</g>
<g >
</g>
<g >
</g>
<g >
</g>
<g >
</g>
<g >
</g>
<g >
</g>
<g >
</g>
<g >
</g>
<g >
</g>
<g >
</g>
<g >
</g>
<g >
</g>
<g >
</g>
<g >
</g>
<g >
</g>
<g >
</g>
<g >
</g>
<g >
</g>
<g >
</g>
<g >
</g>
<g >
</g>
<g >
</g>
<g >
</g>
<g >
</g>
<g >
</g>
<g >
</g>
<g >
</g>
<g >
</g>
<g >
</g>
<g >
</g>
<g >
</g>
<g >
</g>
<g >
</g>
<g >
</g>
<g >
</g>
<g >
</g>
<g >
</g>
<g >
</g>
<g >
</g>
<g >
</g>
<g >
</g>
<g >
</g>
<g >
</g>
<g >
</g>
<g >
</g>
<g >
</g>
<g >
</g>
<g >
</g>
<g >
</g>
<g >
</g>
<g >
</g>
<g >
</g>
<g >
</g>
<g >
</g>
<g >
</g>
<g >
</g>
<g >
</g>
<g >
</g>
<g >
</g>
<g >
</g>
<g >
</g>
<g >
</g>
<g >
</g>
<g >
</g>
<g >
</g>
<g >
</g>
<g >
</g>
<g >
</g>
</g> 
</svg>
