<?xml version="1.0" standalone="no"?>
 <!DOCTYPE svg PUBLIC "-//W3C//DTD SVG 1.1//EN" 
 "http://www.w3.org/Graphics/SVG/1.1/DTD/svg11.dtd"> 
<svg
  xmlns:svg="http://www.w3.org/2000/svg"
  xmlns="http://www.w3.org/2000/svg"
  xmlns:xlink="http://www.w3.org/1999/xlink"
  version="1.1"
  width="297.0022mm" height="210.0072mm" viewBox="0.0000 0.0000 297.0022 210.0072">
<title>SVG Image created as working-B_Mask.svg date 2023/07/24 12:21:56 </title>
  <desc>Image generated by PCBNEW </desc>
<g style="fill:#000000; fill-opacity:1.0000;stroke:#000000; stroke-opacity:1.0000;
stroke-linecap:round; stroke-linejoin:round;"
 transform="translate(0 0) scale(1 1)">
</g>
<g style="fill:#000000; fill-opacity:0.0; 
stroke:#000000; stroke-width:0.0000; stroke-opacity:1; 
stroke-linecap:round; stroke-linejoin:round;">
</g>
<g style="fill:#000000; fill-opacity:0.0; 
stroke:#000000; stroke-width:0.0212; stroke-opacity:1; 
stroke-linecap:round; stroke-linejoin:round;">
</g>
<g style="fill:#000000; fill-opacity:0.0; 
stroke:#000000; stroke-width:0.1500; stroke-opacity:1; 
stroke-linecap:round; stroke-linejoin:round;">
<path d="M177.0022 166.0072
L285.0022 166.0072
L285.0022 198.0072
L177.0022 198.0072
L177.0022 166.0072
" />
</g>
<g style="fill:#000000; fill-opacity:0.0; 
stroke:#000000; stroke-width:0.0212; stroke-opacity:1; 
stroke-linecap:round; stroke-linejoin:round;">
</g>
<g style="fill:#000000; fill-opacity:0.0; 
stroke:#000000; stroke-width:0.1500; stroke-opacity:1; 
stroke-linecap:round; stroke-linejoin:round;">
<path d="M10.0000 10.0000
L287.0022 10.0000
L287.0022 200.0072
L10.0000 200.0072
L10.0000 10.0000
" />
</g>
<g style="fill:#000000; fill-opacity:0.0; 
stroke:#000000; stroke-width:0.0212; stroke-opacity:1; 
stroke-linecap:round; stroke-linejoin:round;">
</g>
<g style="fill:#000000; fill-opacity:0.0; 
stroke:#000000; stroke-width:0.1500; stroke-opacity:1; 
stroke-linecap:round; stroke-linejoin:round;">
<path d="M12.0000 12.0000
L285.0022 12.0000
L285.0022 198.0072
L12.0000 198.0072
L12.0000 12.0000
" />
</g>
<g style="fill:#000000; fill-opacity:0.0; 
stroke:#000000; stroke-width:0.0212; stroke-opacity:1; 
stroke-linecap:round; stroke-linejoin:round;">
</g>
<g style="fill:#000000; fill-opacity:0.0; 
stroke:#000000; stroke-width:0.1500; stroke-opacity:1; 
stroke-linecap:round; stroke-linejoin:round;">
<path d="M60.0000 12.0000
L60.0000 10.0000
" />
</g>
<g style="fill:#000000; fill-opacity:0.0; 
stroke:#000000; stroke-width:0.0212; stroke-opacity:1; 
stroke-linecap:round; stroke-linejoin:round;">
</g>
<g style="fill:#000000; fill-opacity:0.0; 
stroke:#000000; stroke-width:0.1500; stroke-opacity:1; 
stroke-linecap:round; stroke-linejoin:round;">
<path d="M110.0000 12.0000
L110.0000 10.0000
" />
</g>
<g style="fill:#000000; fill-opacity:0.0; 
stroke:#000000; stroke-width:0.0212; stroke-opacity:1; 
stroke-linecap:round; stroke-linejoin:round;">
</g>
<g style="fill:#000000; fill-opacity:0.0; 
stroke:#000000; stroke-width:0.1500; stroke-opacity:1; 
stroke-linecap:round; stroke-linejoin:round;">
<path d="M160.0000 12.0000
L160.0000 10.0000
" />
</g>
<g style="fill:#000000; fill-opacity:0.0; 
stroke:#000000; stroke-width:0.0212; stroke-opacity:1; 
stroke-linecap:round; stroke-linejoin:round;">
</g>
<g style="fill:#000000; fill-opacity:0.0; 
stroke:#000000; stroke-width:0.1500; stroke-opacity:1; 
stroke-linecap:round; stroke-linejoin:round;">
<path d="M210.0000 12.0000
L210.0000 10.0000
" />
</g>
<g style="fill:#000000; fill-opacity:0.0; 
stroke:#000000; stroke-width:0.0212; stroke-opacity:1; 
stroke-linecap:round; stroke-linejoin:round;">
</g>
<g style="fill:#000000; fill-opacity:0.0; 
stroke:#000000; stroke-width:0.1500; stroke-opacity:1; 
stroke-linecap:round; stroke-linejoin:round;">
<path d="M260.0000 12.0000
L260.0000 10.0000
" />
</g>
<g style="fill:#000000; fill-opacity:0.0; 
stroke:#000000; stroke-width:0.0212; stroke-opacity:1; 
stroke-linecap:round; stroke-linejoin:round;">
</g>
<g style="fill:#000000; fill-opacity:0.0; 
stroke:#000000; stroke-width:0.1500; stroke-opacity:1; 
stroke-linecap:round; stroke-linejoin:round;">
<text x="35.0000" y="11.6500"
textLength="1.3531" font-size="1.7333" lengthAdjust="spacingAndGlyphs"
text-anchor="start" opacity="0">1</text>
<g class="stroked-text"><desc>1</desc>
<path d="M35.9905 11.6014
L35.2476 11.6014
" />
<path d="M35.6190 11.6014
L35.6190 10.3014
" />
<path d="M35.6190 10.3014
L35.4952 10.4871
" />
<path d="M35.4952 10.4871
L35.3714 10.6109
" />
<path d="M35.3714 10.6109
L35.2476 10.6728
" />
</g></g>
<g style="fill:#000000; fill-opacity:0.0; 
stroke:#000000; stroke-width:0.0212; stroke-opacity:1; 
stroke-linecap:round; stroke-linejoin:round;">
</g>
<g style="fill:#000000; fill-opacity:0.0; 
stroke:#000000; stroke-width:0.1500; stroke-opacity:1; 
stroke-linecap:round; stroke-linejoin:round;">
<text x="85.0000" y="11.6500"
textLength="1.3531" font-size="1.7333" lengthAdjust="spacingAndGlyphs"
text-anchor="start" opacity="0">2</text>
<g class="stroked-text"><desc>2</desc>
<path d="M85.2476 10.4252
L85.3095 10.3633
" />
<path d="M85.3095 10.3633
L85.4333 10.3014
" />
<path d="M85.4333 10.3014
L85.7429 10.3014
" />
<path d="M85.7429 10.3014
L85.8667 10.3633
" />
<path d="M85.8667 10.3633
L85.9286 10.4252
" />
<path d="M85.9286 10.4252
L85.9905 10.5490
" />
<path d="M85.9905 10.5490
L85.9905 10.6728
" />
<path d="M85.9905 10.6728
L85.9286 10.8585
" />
<path d="M85.9286 10.8585
L85.1857 11.6014
" />
<path d="M85.1857 11.6014
L85.9905 11.6014
" />
</g></g>
<g style="fill:#000000; fill-opacity:0.0; 
stroke:#000000; stroke-width:0.0212; stroke-opacity:1; 
stroke-linecap:round; stroke-linejoin:round;">
</g>
<g style="fill:#000000; fill-opacity:0.0; 
stroke:#000000; stroke-width:0.1500; stroke-opacity:1; 
stroke-linecap:round; stroke-linejoin:round;">
<text x="135.0000" y="11.6500"
textLength="1.3531" font-size="1.7333" lengthAdjust="spacingAndGlyphs"
text-anchor="start" opacity="0">3</text>
<g class="stroked-text"><desc>3</desc>
<path d="M135.1857 10.3014
L135.9905 10.3014
" />
<path d="M135.9905 10.3014
L135.5571 10.7966
" />
<path d="M135.5571 10.7966
L135.7429 10.7966
" />
<path d="M135.7429 10.7966
L135.8667 10.8585
" />
<path d="M135.8667 10.8585
L135.9286 10.9205
" />
<path d="M135.9286 10.9205
L135.9905 11.0443
" />
<path d="M135.9905 11.0443
L135.9905 11.3538
" />
<path d="M135.9905 11.3538
L135.9286 11.4776
" />
<path d="M135.9286 11.4776
L135.8667 11.5395
" />
<path d="M135.8667 11.5395
L135.7429 11.6014
" />
<path d="M135.7429 11.6014
L135.3714 11.6014
" />
<path d="M135.3714 11.6014
L135.2476 11.5395
" />
<path d="M135.2476 11.5395
L135.1857 11.4776
" />
</g></g>
<g style="fill:#000000; fill-opacity:0.0; 
stroke:#000000; stroke-width:0.0212; stroke-opacity:1; 
stroke-linecap:round; stroke-linejoin:round;">
</g>
<g style="fill:#000000; fill-opacity:0.0; 
stroke:#000000; stroke-width:0.1500; stroke-opacity:1; 
stroke-linecap:round; stroke-linejoin:round;">
<text x="185.0000" y="11.6500"
textLength="1.3531" font-size="1.7333" lengthAdjust="spacingAndGlyphs"
text-anchor="start" opacity="0">4</text>
<g class="stroked-text"><desc>4</desc>
<path d="M185.8667 10.7347
L185.8667 11.6014
" />
<path d="M185.5571 10.2395
L185.2476 11.1681
" />
<path d="M185.2476 11.1681
L186.0524 11.1681
" />
</g></g>
<g style="fill:#000000; fill-opacity:0.0; 
stroke:#000000; stroke-width:0.0212; stroke-opacity:1; 
stroke-linecap:round; stroke-linejoin:round;">
</g>
<g style="fill:#000000; fill-opacity:0.0; 
stroke:#000000; stroke-width:0.1500; stroke-opacity:1; 
stroke-linecap:round; stroke-linejoin:round;">
<text x="235.0000" y="11.6500"
textLength="1.3531" font-size="1.7333" lengthAdjust="spacingAndGlyphs"
text-anchor="start" opacity="0">5</text>
<g class="stroked-text"><desc>5</desc>
<path d="M235.9286 10.3014
L235.3095 10.3014
" />
<path d="M235.3095 10.3014
L235.2476 10.9205
" />
<path d="M235.2476 10.9205
L235.3095 10.8585
" />
<path d="M235.3095 10.8585
L235.4333 10.7966
" />
<path d="M235.4333 10.7966
L235.7429 10.7966
" />
<path d="M235.7429 10.7966
L235.8667 10.8585
" />
<path d="M235.8667 10.8585
L235.9286 10.9205
" />
<path d="M235.9286 10.9205
L235.9905 11.0443
" />
<path d="M235.9905 11.0443
L235.9905 11.3538
" />
<path d="M235.9905 11.3538
L235.9286 11.4776
" />
<path d="M235.9286 11.4776
L235.8667 11.5395
" />
<path d="M235.8667 11.5395
L235.7429 11.6014
" />
<path d="M235.7429 11.6014
L235.4333 11.6014
" />
<path d="M235.4333 11.6014
L235.3095 11.5395
" />
<path d="M235.3095 11.5395
L235.2476 11.4776
" />
</g></g>
<g style="fill:#000000; fill-opacity:0.0; 
stroke:#000000; stroke-width:0.0212; stroke-opacity:1; 
stroke-linecap:round; stroke-linejoin:round;">
</g>
<g style="fill:#000000; fill-opacity:0.0; 
stroke:#000000; stroke-width:0.1500; stroke-opacity:1; 
stroke-linecap:round; stroke-linejoin:round;">
<text x="285.0000" y="11.6500"
textLength="1.3531" font-size="1.7333" lengthAdjust="spacingAndGlyphs"
text-anchor="start" opacity="0">6</text>
<g class="stroked-text"><desc>6</desc>
<path d="M285.8667 10.3014
L285.6190 10.3014
" />
<path d="M285.6190 10.3014
L285.4952 10.3633
" />
<path d="M285.4952 10.3633
L285.4333 10.4252
" />
<path d="M285.4333 10.4252
L285.3095 10.6109
" />
<path d="M285.3095 10.6109
L285.2476 10.8585
" />
<path d="M285.2476 10.8585
L285.2476 11.3538
" />
<path d="M285.2476 11.3538
L285.3095 11.4776
" />
<path d="M285.3095 11.4776
L285.3714 11.5395
" />
<path d="M285.3714 11.5395
L285.4952 11.6014
" />
<path d="M285.4952 11.6014
L285.7429 11.6014
" />
<path d="M285.7429 11.6014
L285.8667 11.5395
" />
<path d="M285.8667 11.5395
L285.9286 11.4776
" />
<path d="M285.9286 11.4776
L285.9905 11.3538
" />
<path d="M285.9905 11.3538
L285.9905 11.0443
" />
<path d="M285.9905 11.0443
L285.9286 10.9205
" />
<path d="M285.9286 10.9205
L285.8667 10.8585
" />
<path d="M285.8667 10.8585
L285.7429 10.7966
" />
<path d="M285.7429 10.7966
L285.4952 10.7966
" />
<path d="M285.4952 10.7966
L285.3714 10.8585
" />
<path d="M285.3714 10.8585
L285.3095 10.9205
" />
<path d="M285.3095 10.9205
L285.2476 11.0443
" />
</g></g>
<g style="fill:#000000; fill-opacity:0.0; 
stroke:#000000; stroke-width:0.0212; stroke-opacity:1; 
stroke-linecap:round; stroke-linejoin:round;">
</g>
<g style="fill:#000000; fill-opacity:0.0; 
stroke:#000000; stroke-width:0.1500; stroke-opacity:1; 
stroke-linecap:round; stroke-linejoin:round;">
<path d="M60.0000 198.0072
L60.0000 200.0072
" />
</g>
<g style="fill:#000000; fill-opacity:0.0; 
stroke:#000000; stroke-width:0.0212; stroke-opacity:1; 
stroke-linecap:round; stroke-linejoin:round;">
</g>
<g style="fill:#000000; fill-opacity:0.0; 
stroke:#000000; stroke-width:0.1500; stroke-opacity:1; 
stroke-linecap:round; stroke-linejoin:round;">
<path d="M110.0000 198.0072
L110.0000 200.0072
" />
</g>
<g style="fill:#000000; fill-opacity:0.0; 
stroke:#000000; stroke-width:0.0212; stroke-opacity:1; 
stroke-linecap:round; stroke-linejoin:round;">
</g>
<g style="fill:#000000; fill-opacity:0.0; 
stroke:#000000; stroke-width:0.1500; stroke-opacity:1; 
stroke-linecap:round; stroke-linejoin:round;">
<path d="M160.0000 198.0072
L160.0000 200.0072
" />
</g>
<g style="fill:#000000; fill-opacity:0.0; 
stroke:#000000; stroke-width:0.0212; stroke-opacity:1; 
stroke-linecap:round; stroke-linejoin:round;">
</g>
<g style="fill:#000000; fill-opacity:0.0; 
stroke:#000000; stroke-width:0.1500; stroke-opacity:1; 
stroke-linecap:round; stroke-linejoin:round;">
<path d="M210.0000 198.0072
L210.0000 200.0072
" />
</g>
<g style="fill:#000000; fill-opacity:0.0; 
stroke:#000000; stroke-width:0.0212; stroke-opacity:1; 
stroke-linecap:round; stroke-linejoin:round;">
</g>
<g style="fill:#000000; fill-opacity:0.0; 
stroke:#000000; stroke-width:0.1500; stroke-opacity:1; 
stroke-linecap:round; stroke-linejoin:round;">
<path d="M260.0000 198.0072
L260.0000 200.0072
" />
</g>
<g style="fill:#000000; fill-opacity:0.0; 
stroke:#000000; stroke-width:0.0212; stroke-opacity:1; 
stroke-linecap:round; stroke-linejoin:round;">
</g>
<g style="fill:#000000; fill-opacity:0.0; 
stroke:#000000; stroke-width:0.1500; stroke-opacity:1; 
stroke-linecap:round; stroke-linejoin:round;">
<text x="35.0000" y="199.6572"
textLength="1.3531" font-size="1.7333" lengthAdjust="spacingAndGlyphs"
text-anchor="start" opacity="0">1</text>
<g class="stroked-text"><desc>1</desc>
<path d="M35.9905 199.6086
L35.2476 199.6086
" />
<path d="M35.6190 199.6086
L35.6190 198.3086
" />
<path d="M35.6190 198.3086
L35.4952 198.4943
" />
<path d="M35.4952 198.4943
L35.3714 198.6181
" />
<path d="M35.3714 198.6181
L35.2476 198.6800
" />
</g></g>
<g style="fill:#000000; fill-opacity:0.0; 
stroke:#000000; stroke-width:0.0212; stroke-opacity:1; 
stroke-linecap:round; stroke-linejoin:round;">
</g>
<g style="fill:#000000; fill-opacity:0.0; 
stroke:#000000; stroke-width:0.1500; stroke-opacity:1; 
stroke-linecap:round; stroke-linejoin:round;">
<text x="85.0000" y="199.6572"
textLength="1.3531" font-size="1.7333" lengthAdjust="spacingAndGlyphs"
text-anchor="start" opacity="0">2</text>
<g class="stroked-text"><desc>2</desc>
<path d="M85.2476 198.4324
L85.3095 198.3705
" />
<path d="M85.3095 198.3705
L85.4333 198.3086
" />
<path d="M85.4333 198.3086
L85.7429 198.3086
" />
<path d="M85.7429 198.3086
L85.8667 198.3705
" />
<path d="M85.8667 198.3705
L85.9286 198.4324
" />
<path d="M85.9286 198.4324
L85.9905 198.5562
" />
<path d="M85.9905 198.5562
L85.9905 198.6800
" />
<path d="M85.9905 198.6800
L85.9286 198.8657
" />
<path d="M85.9286 198.8657
L85.1857 199.6086
" />
<path d="M85.1857 199.6086
L85.9905 199.6086
" />
</g></g>
<g style="fill:#000000; fill-opacity:0.0; 
stroke:#000000; stroke-width:0.0212; stroke-opacity:1; 
stroke-linecap:round; stroke-linejoin:round;">
</g>
<g style="fill:#000000; fill-opacity:0.0; 
stroke:#000000; stroke-width:0.1500; stroke-opacity:1; 
stroke-linecap:round; stroke-linejoin:round;">
<text x="135.0000" y="199.6572"
textLength="1.3531" font-size="1.7333" lengthAdjust="spacingAndGlyphs"
text-anchor="start" opacity="0">3</text>
<g class="stroked-text"><desc>3</desc>
<path d="M135.1857 198.3086
L135.9905 198.3086
" />
<path d="M135.9905 198.3086
L135.5571 198.8038
" />
<path d="M135.5571 198.8038
L135.7429 198.8038
" />
<path d="M135.7429 198.8038
L135.8667 198.8657
" />
<path d="M135.8667 198.8657
L135.9286 198.9277
" />
<path d="M135.9286 198.9277
L135.9905 199.0515
" />
<path d="M135.9905 199.0515
L135.9905 199.3610
" />
<path d="M135.9905 199.3610
L135.9286 199.4848
" />
<path d="M135.9286 199.4848
L135.8667 199.5467
" />
<path d="M135.8667 199.5467
L135.7429 199.6086
" />
<path d="M135.7429 199.6086
L135.3714 199.6086
" />
<path d="M135.3714 199.6086
L135.2476 199.5467
" />
<path d="M135.2476 199.5467
L135.1857 199.4848
" />
</g></g>
<g style="fill:#000000; fill-opacity:0.0; 
stroke:#000000; stroke-width:0.0212; stroke-opacity:1; 
stroke-linecap:round; stroke-linejoin:round;">
</g>
<g style="fill:#000000; fill-opacity:0.0; 
stroke:#000000; stroke-width:0.1500; stroke-opacity:1; 
stroke-linecap:round; stroke-linejoin:round;">
<text x="185.0000" y="199.6572"
textLength="1.3531" font-size="1.7333" lengthAdjust="spacingAndGlyphs"
text-anchor="start" opacity="0">4</text>
<g class="stroked-text"><desc>4</desc>
<path d="M185.8667 198.7419
L185.8667 199.6086
" />
<path d="M185.5571 198.2467
L185.2476 199.1753
" />
<path d="M185.2476 199.1753
L186.0524 199.1753
" />
</g></g>
<g style="fill:#000000; fill-opacity:0.0; 
stroke:#000000; stroke-width:0.0212; stroke-opacity:1; 
stroke-linecap:round; stroke-linejoin:round;">
</g>
<g style="fill:#000000; fill-opacity:0.0; 
stroke:#000000; stroke-width:0.1500; stroke-opacity:1; 
stroke-linecap:round; stroke-linejoin:round;">
<text x="235.0000" y="199.6572"
textLength="1.3531" font-size="1.7333" lengthAdjust="spacingAndGlyphs"
text-anchor="start" opacity="0">5</text>
<g class="stroked-text"><desc>5</desc>
<path d="M235.9286 198.3086
L235.3095 198.3086
" />
<path d="M235.3095 198.3086
L235.2476 198.9277
" />
<path d="M235.2476 198.9277
L235.3095 198.8657
" />
<path d="M235.3095 198.8657
L235.4333 198.8038
" />
<path d="M235.4333 198.8038
L235.7429 198.8038
" />
<path d="M235.7429 198.8038
L235.8667 198.8657
" />
<path d="M235.8667 198.8657
L235.9286 198.9277
" />
<path d="M235.9286 198.9277
L235.9905 199.0515
" />
<path d="M235.9905 199.0515
L235.9905 199.3610
" />
<path d="M235.9905 199.3610
L235.9286 199.4848
" />
<path d="M235.9286 199.4848
L235.8667 199.5467
" />
<path d="M235.8667 199.5467
L235.7429 199.6086
" />
<path d="M235.7429 199.6086
L235.4333 199.6086
" />
<path d="M235.4333 199.6086
L235.3095 199.5467
" />
<path d="M235.3095 199.5467
L235.2476 199.4848
" />
</g></g>
<g style="fill:#000000; fill-opacity:0.0; 
stroke:#000000; stroke-width:0.0212; stroke-opacity:1; 
stroke-linecap:round; stroke-linejoin:round;">
</g>
<g style="fill:#000000; fill-opacity:0.0; 
stroke:#000000; stroke-width:0.1500; stroke-opacity:1; 
stroke-linecap:round; stroke-linejoin:round;">
<text x="285.0000" y="199.6572"
textLength="1.3531" font-size="1.7333" lengthAdjust="spacingAndGlyphs"
text-anchor="start" opacity="0">6</text>
<g class="stroked-text"><desc>6</desc>
<path d="M285.8667 198.3086
L285.6190 198.3086
" />
<path d="M285.6190 198.3086
L285.4952 198.3705
" />
<path d="M285.4952 198.3705
L285.4333 198.4324
" />
<path d="M285.4333 198.4324
L285.3095 198.6181
" />
<path d="M285.3095 198.6181
L285.2476 198.8657
" />
<path d="M285.2476 198.8657
L285.2476 199.3610
" />
<path d="M285.2476 199.3610
L285.3095 199.4848
" />
<path d="M285.3095 199.4848
L285.3714 199.5467
" />
<path d="M285.3714 199.5467
L285.4952 199.6086
" />
<path d="M285.4952 199.6086
L285.7429 199.6086
" />
<path d="M285.7429 199.6086
L285.8667 199.5467
" />
<path d="M285.8667 199.5467
L285.9286 199.4848
" />
<path d="M285.9286 199.4848
L285.9905 199.3610
" />
<path d="M285.9905 199.3610
L285.9905 199.0515
" />
<path d="M285.9905 199.0515
L285.9286 198.9277
" />
<path d="M285.9286 198.9277
L285.8667 198.8657
" />
<path d="M285.8667 198.8657
L285.7429 198.8038
" />
<path d="M285.7429 198.8038
L285.4952 198.8038
" />
<path d="M285.4952 198.8038
L285.3714 198.8657
" />
<path d="M285.3714 198.8657
L285.3095 198.9277
" />
<path d="M285.3095 198.9277
L285.2476 199.0515
" />
</g></g>
<g style="fill:#000000; fill-opacity:0.0; 
stroke:#000000; stroke-width:0.0212; stroke-opacity:1; 
stroke-linecap:round; stroke-linejoin:round;">
</g>
<g style="fill:#000000; fill-opacity:0.0; 
stroke:#000000; stroke-width:0.1500; stroke-opacity:1; 
stroke-linecap:round; stroke-linejoin:round;">
<path d="M10.0000 60.0000
L12.0000 60.0000
" />
</g>
<g style="fill:#000000; fill-opacity:0.0; 
stroke:#000000; stroke-width:0.0212; stroke-opacity:1; 
stroke-linecap:round; stroke-linejoin:round;">
</g>
<g style="fill:#000000; fill-opacity:0.0; 
stroke:#000000; stroke-width:0.1500; stroke-opacity:1; 
stroke-linecap:round; stroke-linejoin:round;">
<path d="M10.0000 110.0000
L12.0000 110.0000
" />
</g>
<g style="fill:#000000; fill-opacity:0.0; 
stroke:#000000; stroke-width:0.0212; stroke-opacity:1; 
stroke-linecap:round; stroke-linejoin:round;">
</g>
<g style="fill:#000000; fill-opacity:0.0; 
stroke:#000000; stroke-width:0.1500; stroke-opacity:1; 
stroke-linecap:round; stroke-linejoin:round;">
<path d="M10.0000 160.0000
L12.0000 160.0000
" />
</g>
<g style="fill:#000000; fill-opacity:0.0; 
stroke:#000000; stroke-width:0.0212; stroke-opacity:1; 
stroke-linecap:round; stroke-linejoin:round;">
</g>
<g style="fill:#000000; fill-opacity:0.0; 
stroke:#000000; stroke-width:0.1500; stroke-opacity:1; 
stroke-linecap:round; stroke-linejoin:round;">
<text x="11.0000" y="35.6500"
textLength="1.2293" font-size="1.7333" lengthAdjust="spacingAndGlyphs"
text-anchor="middle" opacity="0">A</text>
<g class="stroked-text"><desc>A</desc>
<path d="M10.6905 35.2300
L11.3095 35.2300
" />
<path d="M10.5667 35.6014
L11.0000 34.3014
" />
<path d="M11.0000 34.3014
L11.4333 35.6014
" />
</g></g>
<g style="fill:#000000; fill-opacity:0.0; 
stroke:#000000; stroke-width:0.0212; stroke-opacity:1; 
stroke-linecap:round; stroke-linejoin:round;">
</g>
<g style="fill:#000000; fill-opacity:0.0; 
stroke:#000000; stroke-width:0.1500; stroke-opacity:1; 
stroke-linecap:round; stroke-linejoin:round;">
<text x="11.0000" y="85.6500"
textLength="1.4150" font-size="1.7333" lengthAdjust="spacingAndGlyphs"
text-anchor="middle" opacity="0">B</text>
<g class="stroked-text"><desc>B</desc>
<path d="M11.0929 84.9205
L11.2786 84.9824
" />
<path d="M11.2786 84.9824
L11.3405 85.0443
" />
<path d="M11.3405 85.0443
L11.4024 85.1681
" />
<path d="M11.4024 85.1681
L11.4024 85.3538
" />
<path d="M11.4024 85.3538
L11.3405 85.4776
" />
<path d="M11.3405 85.4776
L11.2786 85.5395
" />
<path d="M11.2786 85.5395
L11.1548 85.6014
" />
<path d="M11.1548 85.6014
L10.6595 85.6014
" />
<path d="M10.6595 85.6014
L10.6595 84.3014
" />
<path d="M10.6595 84.3014
L11.0929 84.3014
" />
<path d="M11.0929 84.3014
L11.2167 84.3633
" />
<path d="M11.2167 84.3633
L11.2786 84.4252
" />
<path d="M11.2786 84.4252
L11.3405 84.5490
" />
<path d="M11.3405 84.5490
L11.3405 84.6728
" />
<path d="M11.3405 84.6728
L11.2786 84.7966
" />
<path d="M11.2786 84.7966
L11.2167 84.8585
" />
<path d="M11.2167 84.8585
L11.0929 84.9205
" />
<path d="M11.0929 84.9205
L10.6595 84.9205
" />
</g></g>
<g style="fill:#000000; fill-opacity:0.0; 
stroke:#000000; stroke-width:0.0212; stroke-opacity:1; 
stroke-linecap:round; stroke-linejoin:round;">
</g>
<g style="fill:#000000; fill-opacity:0.0; 
stroke:#000000; stroke-width:0.1500; stroke-opacity:1; 
stroke-linecap:round; stroke-linejoin:round;">
<text x="11.0000" y="135.6500"
textLength="1.4150" font-size="1.7333" lengthAdjust="spacingAndGlyphs"
text-anchor="middle" opacity="0">C</text>
<g class="stroked-text"><desc>C</desc>
<path d="M11.4024 135.4776
L11.3405 135.5395
" />
<path d="M11.3405 135.5395
L11.1548 135.6014
" />
<path d="M11.1548 135.6014
L11.0310 135.6014
" />
<path d="M11.0310 135.6014
L10.8452 135.5395
" />
<path d="M10.8452 135.5395
L10.7214 135.4157
" />
<path d="M10.7214 135.4157
L10.6595 135.2919
" />
<path d="M10.6595 135.2919
L10.5976 135.0443
" />
<path d="M10.5976 135.0443
L10.5976 134.8585
" />
<path d="M10.5976 134.8585
L10.6595 134.6109
" />
<path d="M10.6595 134.6109
L10.7214 134.4871
" />
<path d="M10.7214 134.4871
L10.8452 134.3633
" />
<path d="M10.8452 134.3633
L11.0310 134.3014
" />
<path d="M11.0310 134.3014
L11.1548 134.3014
" />
<path d="M11.1548 134.3014
L11.3405 134.3633
" />
<path d="M11.3405 134.3633
L11.4024 134.4252
" />
</g></g>
<g style="fill:#000000; fill-opacity:0.0; 
stroke:#000000; stroke-width:0.0212; stroke-opacity:1; 
stroke-linecap:round; stroke-linejoin:round;">
</g>
<g style="fill:#000000; fill-opacity:0.0; 
stroke:#000000; stroke-width:0.1500; stroke-opacity:1; 
stroke-linecap:round; stroke-linejoin:round;">
<text x="11.0000" y="185.6500"
textLength="1.4150" font-size="1.7333" lengthAdjust="spacingAndGlyphs"
text-anchor="middle" opacity="0">D</text>
<g class="stroked-text"><desc>D</desc>
<path d="M10.6595 185.6014
L10.6595 184.3014
" />
<path d="M10.6595 184.3014
L10.9690 184.3014
" />
<path d="M10.9690 184.3014
L11.1548 184.3633
" />
<path d="M11.1548 184.3633
L11.2786 184.4871
" />
<path d="M11.2786 184.4871
L11.3405 184.6109
" />
<path d="M11.3405 184.6109
L11.4024 184.8585
" />
<path d="M11.4024 184.8585
L11.4024 185.0443
" />
<path d="M11.4024 185.0443
L11.3405 185.2919
" />
<path d="M11.3405 185.2919
L11.2786 185.4157
" />
<path d="M11.2786 185.4157
L11.1548 185.5395
" />
<path d="M11.1548 185.5395
L10.9690 185.6014
" />
<path d="M10.9690 185.6014
L10.6595 185.6014
" />
</g></g>
<g style="fill:#000000; fill-opacity:0.0; 
stroke:#000000; stroke-width:0.0212; stroke-opacity:1; 
stroke-linecap:round; stroke-linejoin:round;">
</g>
<g style="fill:#000000; fill-opacity:0.0; 
stroke:#000000; stroke-width:0.1500; stroke-opacity:1; 
stroke-linecap:round; stroke-linejoin:round;">
<path d="M287.0022 60.0000
L285.0022 60.0000
" />
</g>
<g style="fill:#000000; fill-opacity:0.0; 
stroke:#000000; stroke-width:0.0212; stroke-opacity:1; 
stroke-linecap:round; stroke-linejoin:round;">
</g>
<g style="fill:#000000; fill-opacity:0.0; 
stroke:#000000; stroke-width:0.1500; stroke-opacity:1; 
stroke-linecap:round; stroke-linejoin:round;">
<path d="M287.0022 110.0000
L285.0022 110.0000
" />
</g>
<g style="fill:#000000; fill-opacity:0.0; 
stroke:#000000; stroke-width:0.0212; stroke-opacity:1; 
stroke-linecap:round; stroke-linejoin:round;">
</g>
<g style="fill:#000000; fill-opacity:0.0; 
stroke:#000000; stroke-width:0.1500; stroke-opacity:1; 
stroke-linecap:round; stroke-linejoin:round;">
<path d="M287.0022 160.0000
L285.0022 160.0000
" />
</g>
<g style="fill:#000000; fill-opacity:0.0; 
stroke:#000000; stroke-width:0.0212; stroke-opacity:1; 
stroke-linecap:round; stroke-linejoin:round;">
</g>
<g style="fill:#000000; fill-opacity:0.0; 
stroke:#000000; stroke-width:0.1500; stroke-opacity:1; 
stroke-linecap:round; stroke-linejoin:round;">
<text x="286.0022" y="35.6500"
textLength="1.2293" font-size="1.7333" lengthAdjust="spacingAndGlyphs"
text-anchor="middle" opacity="0">A</text>
<g class="stroked-text"><desc>A</desc>
<path d="M285.6927 35.2300
L286.3117 35.2300
" />
<path d="M285.5689 35.6014
L286.0022 34.3014
" />
<path d="M286.0022 34.3014
L286.4355 35.6014
" />
</g></g>
<g style="fill:#000000; fill-opacity:0.0; 
stroke:#000000; stroke-width:0.0212; stroke-opacity:1; 
stroke-linecap:round; stroke-linejoin:round;">
</g>
<g style="fill:#000000; fill-opacity:0.0; 
stroke:#000000; stroke-width:0.1500; stroke-opacity:1; 
stroke-linecap:round; stroke-linejoin:round;">
<text x="286.0022" y="85.6500"
textLength="1.4150" font-size="1.7333" lengthAdjust="spacingAndGlyphs"
text-anchor="middle" opacity="0">B</text>
<g class="stroked-text"><desc>B</desc>
<path d="M286.0951 84.9205
L286.2808 84.9824
" />
<path d="M286.2808 84.9824
L286.3427 85.0443
" />
<path d="M286.3427 85.0443
L286.4046 85.1681
" />
<path d="M286.4046 85.1681
L286.4046 85.3538
" />
<path d="M286.4046 85.3538
L286.3427 85.4776
" />
<path d="M286.3427 85.4776
L286.2808 85.5395
" />
<path d="M286.2808 85.5395
L286.1570 85.6014
" />
<path d="M286.1570 85.6014
L285.6617 85.6014
" />
<path d="M285.6617 85.6014
L285.6617 84.3014
" />
<path d="M285.6617 84.3014
L286.0951 84.3014
" />
<path d="M286.0951 84.3014
L286.2189 84.3633
" />
<path d="M286.2189 84.3633
L286.2808 84.4252
" />
<path d="M286.2808 84.4252
L286.3427 84.5490
" />
<path d="M286.3427 84.5490
L286.3427 84.6728
" />
<path d="M286.3427 84.6728
L286.2808 84.7966
" />
<path d="M286.2808 84.7966
L286.2189 84.8585
" />
<path d="M286.2189 84.8585
L286.0951 84.9205
" />
<path d="M286.0951 84.9205
L285.6617 84.9205
" />
</g></g>
<g style="fill:#000000; fill-opacity:0.0; 
stroke:#000000; stroke-width:0.0212; stroke-opacity:1; 
stroke-linecap:round; stroke-linejoin:round;">
</g>
<g style="fill:#000000; fill-opacity:0.0; 
stroke:#000000; stroke-width:0.1500; stroke-opacity:1; 
stroke-linecap:round; stroke-linejoin:round;">
<text x="286.0022" y="135.6500"
textLength="1.4150" font-size="1.7333" lengthAdjust="spacingAndGlyphs"
text-anchor="middle" opacity="0">C</text>
<g class="stroked-text"><desc>C</desc>
<path d="M286.4046 135.4776
L286.3427 135.5395
" />
<path d="M286.3427 135.5395
L286.1570 135.6014
" />
<path d="M286.1570 135.6014
L286.0332 135.6014
" />
<path d="M286.0332 135.6014
L285.8474 135.5395
" />
<path d="M285.8474 135.5395
L285.7236 135.4157
" />
<path d="M285.7236 135.4157
L285.6617 135.2919
" />
<path d="M285.6617 135.2919
L285.5998 135.0443
" />
<path d="M285.5998 135.0443
L285.5998 134.8585
" />
<path d="M285.5998 134.8585
L285.6617 134.6109
" />
<path d="M285.6617 134.6109
L285.7236 134.4871
" />
<path d="M285.7236 134.4871
L285.8474 134.3633
" />
<path d="M285.8474 134.3633
L286.0332 134.3014
" />
<path d="M286.0332 134.3014
L286.1570 134.3014
" />
<path d="M286.1570 134.3014
L286.3427 134.3633
" />
<path d="M286.3427 134.3633
L286.4046 134.4252
" />
</g></g>
<g style="fill:#000000; fill-opacity:0.0; 
stroke:#000000; stroke-width:0.0212; stroke-opacity:1; 
stroke-linecap:round; stroke-linejoin:round;">
</g>
<g style="fill:#000000; fill-opacity:0.0; 
stroke:#000000; stroke-width:0.1500; stroke-opacity:1; 
stroke-linecap:round; stroke-linejoin:round;">
<text x="286.0022" y="185.6500"
textLength="1.4150" font-size="1.7333" lengthAdjust="spacingAndGlyphs"
text-anchor="middle" opacity="0">D</text>
<g class="stroked-text"><desc>D</desc>
<path d="M285.6617 185.6014
L285.6617 184.3014
" />
<path d="M285.6617 184.3014
L285.9712 184.3014
" />
<path d="M285.9712 184.3014
L286.1570 184.3633
" />
<path d="M286.1570 184.3633
L286.2808 184.4871
" />
<path d="M286.2808 184.4871
L286.3427 184.6109
" />
<path d="M286.3427 184.6109
L286.4046 184.8585
" />
<path d="M286.4046 184.8585
L286.4046 185.0443
" />
<path d="M286.4046 185.0443
L286.3427 185.2919
" />
<path d="M286.3427 185.2919
L286.2808 185.4157
" />
<path d="M286.2808 185.4157
L286.1570 185.5395
" />
<path d="M286.1570 185.5395
L285.9712 185.6014
" />
<path d="M285.9712 185.6014
L285.6617 185.6014
" />
</g></g>
<g style="fill:#000000; fill-opacity:0.0; 
stroke:#000000; stroke-width:0.0212; stroke-opacity:1; 
stroke-linecap:round; stroke-linejoin:round;">
</g>
<g style="fill:#000000; fill-opacity:0.0; 
stroke:#000000; stroke-width:0.1500; stroke-opacity:1; 
stroke-linecap:round; stroke-linejoin:round;">
<text x="200.0022" y="193.8572"
textLength="6.9321" font-size="2.0000" lengthAdjust="spacingAndGlyphs"
text-anchor="start" opacity="0">Date: </text>
<g class="stroked-text"><desc>Date: </desc>
<path d="M200.3593 193.8011
L200.3593 192.3011
" />
<path d="M200.3593 192.3011
L200.7165 192.3011
" />
<path d="M200.7165 192.3011
L200.9308 192.3726
" />
<path d="M200.9308 192.3726
L201.0736 192.5154
" />
<path d="M201.0736 192.5154
L201.1451 192.6583
" />
<path d="M201.1451 192.6583
L201.2165 192.9440
" />
<path d="M201.2165 192.9440
L201.2165 193.1583
" />
<path d="M201.2165 193.1583
L201.1451 193.4440
" />
<path d="M201.1451 193.4440
L201.0736 193.5868
" />
<path d="M201.0736 193.5868
L200.9308 193.7297
" />
<path d="M200.9308 193.7297
L200.7165 193.8011
" />
<path d="M200.7165 193.8011
L200.3593 193.8011
" />
<path d="M202.5022 193.8011
L202.5022 193.0154
" />
<path d="M202.5022 193.0154
L202.4308 192.8726
" />
<path d="M202.4308 192.8726
L202.2879 192.8011
" />
<path d="M202.2879 192.8011
L202.0022 192.8011
" />
<path d="M202.0022 192.8011
L201.8593 192.8726
" />
<path d="M202.5022 193.7297
L202.3593 193.8011
" />
<path d="M202.3593 193.8011
L202.0022 193.8011
" />
<path d="M202.0022 193.8011
L201.8593 193.7297
" />
<path d="M201.8593 193.7297
L201.7879 193.5868
" />
<path d="M201.7879 193.5868
L201.7879 193.4440
" />
<path d="M201.7879 193.4440
L201.8593 193.3011
" />
<path d="M201.8593 193.3011
L202.0022 193.2297
" />
<path d="M202.0022 193.2297
L202.3593 193.2297
" />
<path d="M202.3593 193.2297
L202.5022 193.1583
" />
<path d="M203.0022 192.8011
L203.5736 192.8011
" />
<path d="M203.2165 192.3011
L203.2165 193.5868
" />
<path d="M203.2165 193.5868
L203.2879 193.7297
" />
<path d="M203.2879 193.7297
L203.4308 193.8011
" />
<path d="M203.4308 193.8011
L203.5736 193.8011
" />
<path d="M204.6451 193.7297
L204.5022 193.8011
" />
<path d="M204.5022 193.8011
L204.2165 193.8011
" />
<path d="M204.2165 193.8011
L204.0736 193.7297
" />
<path d="M204.0736 193.7297
L204.0022 193.5868
" />
<path d="M204.0022 193.5868
L204.0022 193.0154
" />
<path d="M204.0022 193.0154
L204.0736 192.8726
" />
<path d="M204.0736 192.8726
L204.2165 192.8011
" />
<path d="M204.2165 192.8011
L204.5022 192.8011
" />
<path d="M204.5022 192.8011
L204.6451 192.8726
" />
<path d="M204.6451 192.8726
L204.7165 193.0154
" />
<path d="M204.7165 193.0154
L204.7165 193.1583
" />
<path d="M204.7165 193.1583
L204.0022 193.3011
" />
<path d="M205.3593 193.6583
L205.4308 193.7297
" />
<path d="M205.4308 193.7297
L205.3593 193.8011
" />
<path d="M205.3593 193.8011
L205.2879 193.7297
" />
<path d="M205.2879 193.7297
L205.3593 193.6583
" />
<path d="M205.3593 193.6583
L205.3593 193.8011
" />
<path d="M205.3593 192.8726
L205.4308 192.9440
" />
<path d="M205.4308 192.9440
L205.3593 193.0154
" />
<path d="M205.3593 193.0154
L205.2879 192.9440
" />
<path d="M205.2879 192.9440
L205.3593 192.8726
" />
<path d="M205.3593 192.8726
L205.3593 193.0154
" />
</g></g>
<g style="fill:#000000; fill-opacity:0.0; 
stroke:#000000; stroke-width:0.0212; stroke-opacity:1; 
stroke-linecap:round; stroke-linejoin:round;">
</g>
<g style="fill:#000000; fill-opacity:0.0; 
stroke:#000000; stroke-width:0.1500; stroke-opacity:1; 
stroke-linecap:round; stroke-linejoin:round;">
<path d="M177.0022 194.5072
L285.0022 194.5072
" />
</g>
<g style="fill:#000000; fill-opacity:0.0; 
stroke:#000000; stroke-width:0.0212; stroke-opacity:1; 
stroke-linecap:round; stroke-linejoin:round;">
</g>
<g style="fill:#000000; fill-opacity:0.0; 
stroke:#000000; stroke-width:0.1500; stroke-opacity:1; 
stroke-linecap:round; stroke-linejoin:round;">
<text x="178.0022" y="196.6572"
textLength="31.2893" font-size="2.0000" lengthAdjust="spacingAndGlyphs"
text-anchor="start" opacity="0">KiCad E.D.A.  pcbnew 7.0.2</text>
<g class="stroked-text"><desc>KiCad E.D.A.  pcbnew 7.0.2</desc>
<path d="M178.3593 196.6011
L178.3593 195.1011
" />
<path d="M179.2165 196.6011
L178.5736 195.7440
" />
<path d="M179.2165 195.1011
L178.3593 195.9583
" />
<path d="M179.8593 196.6011
L179.8593 195.6011
" />
<path d="M179.8593 195.1011
L179.7879 195.1726
" />
<path d="M179.7879 195.1726
L179.8593 195.2440
" />
<path d="M179.8593 195.2440
L179.9308 195.1726
" />
<path d="M179.9308 195.1726
L179.8593 195.1011
" />
<path d="M179.8593 195.1011
L179.8593 195.2440
" />
<path d="M181.4308 196.4583
L181.3593 196.5297
" />
<path d="M181.3593 196.5297
L181.1451 196.6011
" />
<path d="M181.1451 196.6011
L181.0022 196.6011
" />
<path d="M181.0022 196.6011
L180.7879 196.5297
" />
<path d="M180.7879 196.5297
L180.6451 196.3868
" />
<path d="M180.6451 196.3868
L180.5736 196.2440
" />
<path d="M180.5736 196.2440
L180.5022 195.9583
" />
<path d="M180.5022 195.9583
L180.5022 195.7440
" />
<path d="M180.5022 195.7440
L180.5736 195.4583
" />
<path d="M180.5736 195.4583
L180.6451 195.3154
" />
<path d="M180.6451 195.3154
L180.7879 195.1726
" />
<path d="M180.7879 195.1726
L181.0022 195.1011
" />
<path d="M181.0022 195.1011
L181.1451 195.1011
" />
<path d="M181.1451 195.1011
L181.3593 195.1726
" />
<path d="M181.3593 195.1726
L181.4308 195.2440
" />
<path d="M182.7165 196.6011
L182.7165 195.8154
" />
<path d="M182.7165 195.8154
L182.6451 195.6726
" />
<path d="M182.6451 195.6726
L182.5022 195.6011
" />
<path d="M182.5022 195.6011
L182.2165 195.6011
" />
<path d="M182.2165 195.6011
L182.0736 195.6726
" />
<path d="M182.7165 196.5297
L182.5736 196.6011
" />
<path d="M182.5736 196.6011
L182.2165 196.6011
" />
<path d="M182.2165 196.6011
L182.0736 196.5297
" />
<path d="M182.0736 196.5297
L182.0022 196.3868
" />
<path d="M182.0022 196.3868
L182.0022 196.2440
" />
<path d="M182.0022 196.2440
L182.0736 196.1011
" />
<path d="M182.0736 196.1011
L182.2165 196.0297
" />
<path d="M182.2165 196.0297
L182.5736 196.0297
" />
<path d="M182.5736 196.0297
L182.7165 195.9583
" />
<path d="M184.0736 196.6011
L184.0736 195.1011
" />
<path d="M184.0736 196.5297
L183.9308 196.6011
" />
<path d="M183.9308 196.6011
L183.6451 196.6011
" />
<path d="M183.6451 196.6011
L183.5022 196.5297
" />
<path d="M183.5022 196.5297
L183.4308 196.4583
" />
<path d="M183.4308 196.4583
L183.3593 196.3154
" />
<path d="M183.3593 196.3154
L183.3593 195.8868
" />
<path d="M183.3593 195.8868
L183.4308 195.7440
" />
<path d="M183.4308 195.7440
L183.5022 195.6726
" />
<path d="M183.5022 195.6726
L183.6451 195.6011
" />
<path d="M183.6451 195.6011
L183.9308 195.6011
" />
<path d="M183.9308 195.6011
L184.0736 195.6726
" />
<path d="M185.9308 195.8154
L186.4308 195.8154
" />
<path d="M186.6451 196.6011
L185.9308 196.6011
" />
<path d="M185.9308 196.6011
L185.9308 195.1011
" />
<path d="M185.9308 195.1011
L186.6451 195.1011
" />
<path d="M187.2879 196.4583
L187.3593 196.5297
" />
<path d="M187.3593 196.5297
L187.2879 196.6011
" />
<path d="M187.2879 196.6011
L187.2165 196.5297
" />
<path d="M187.2165 196.5297
L187.2879 196.4583
" />
<path d="M187.2879 196.4583
L187.2879 196.6011
" />
<path d="M188.0022 196.6011
L188.0022 195.1011
" />
<path d="M188.0022 195.1011
L188.3593 195.1011
" />
<path d="M188.3593 195.1011
L188.5736 195.1726
" />
<path d="M188.5736 195.1726
L188.7165 195.3154
" />
<path d="M188.7165 195.3154
L188.7879 195.4583
" />
<path d="M188.7879 195.4583
L188.8593 195.7440
" />
<path d="M188.8593 195.7440
L188.8593 195.9583
" />
<path d="M188.8593 195.9583
L188.7879 196.2440
" />
<path d="M188.7879 196.2440
L188.7165 196.3868
" />
<path d="M188.7165 196.3868
L188.5736 196.5297
" />
<path d="M188.5736 196.5297
L188.3593 196.6011
" />
<path d="M188.3593 196.6011
L188.0022 196.6011
" />
<path d="M189.5022 196.4583
L189.5736 196.5297
" />
<path d="M189.5736 196.5297
L189.5022 196.6011
" />
<path d="M189.5022 196.6011
L189.4308 196.5297
" />
<path d="M189.4308 196.5297
L189.5022 196.4583
" />
<path d="M189.5022 196.4583
L189.5022 196.6011
" />
<path d="M190.1451 196.1726
L190.8593 196.1726
" />
<path d="M190.0022 196.6011
L190.5022 195.1011
" />
<path d="M190.5022 195.1011
L191.0022 196.6011
" />
<path d="M191.5022 196.4583
L191.5736 196.5297
" />
<path d="M191.5736 196.5297
L191.5022 196.6011
" />
<path d="M191.5022 196.6011
L191.4308 196.5297
" />
<path d="M191.4308 196.5297
L191.5022 196.4583
" />
<path d="M191.5022 196.4583
L191.5022 196.6011
" />
<path d="M194.5022 195.6011
L194.5022 197.1011
" />
<path d="M194.5022 195.6726
L194.6451 195.6011
" />
<path d="M194.6451 195.6011
L194.9308 195.6011
" />
<path d="M194.9308 195.6011
L195.0736 195.6726
" />
<path d="M195.0736 195.6726
L195.1451 195.7440
" />
<path d="M195.1451 195.7440
L195.2165 195.8868
" />
<path d="M195.2165 195.8868
L195.2165 196.3154
" />
<path d="M195.2165 196.3154
L195.1451 196.4583
" />
<path d="M195.1451 196.4583
L195.0736 196.5297
" />
<path d="M195.0736 196.5297
L194.9308 196.6011
" />
<path d="M194.9308 196.6011
L194.6451 196.6011
" />
<path d="M194.6451 196.6011
L194.5022 196.5297
" />
<path d="M196.5022 196.5297
L196.3593 196.6011
" />
<path d="M196.3593 196.6011
L196.0736 196.6011
" />
<path d="M196.0736 196.6011
L195.9308 196.5297
" />
<path d="M195.9308 196.5297
L195.8593 196.4583
" />
<path d="M195.8593 196.4583
L195.7879 196.3154
" />
<path d="M195.7879 196.3154
L195.7879 195.8868
" />
<path d="M195.7879 195.8868
L195.8593 195.7440
" />
<path d="M195.8593 195.7440
L195.9308 195.6726
" />
<path d="M195.9308 195.6726
L196.0736 195.6011
" />
<path d="M196.0736 195.6011
L196.3593 195.6011
" />
<path d="M196.3593 195.6011
L196.5022 195.6726
" />
<path d="M197.1451 196.6011
L197.1451 195.1011
" />
<path d="M197.1451 195.6726
L197.2879 195.6011
" />
<path d="M197.2879 195.6011
L197.5736 195.6011
" />
<path d="M197.5736 195.6011
L197.7165 195.6726
" />
<path d="M197.7165 195.6726
L197.7879 195.7440
" />
<path d="M197.7879 195.7440
L197.8593 195.8868
" />
<path d="M197.8593 195.8868
L197.8593 196.3154
" />
<path d="M197.8593 196.3154
L197.7879 196.4583
" />
<path d="M197.7879 196.4583
L197.7165 196.5297
" />
<path d="M197.7165 196.5297
L197.5736 196.6011
" />
<path d="M197.5736 196.6011
L197.2879 196.6011
" />
<path d="M197.2879 196.6011
L197.1451 196.5297
" />
<path d="M198.5022 195.6011
L198.5022 196.6011
" />
<path d="M198.5022 195.7440
L198.5736 195.6726
" />
<path d="M198.5736 195.6726
L198.7165 195.6011
" />
<path d="M198.7165 195.6011
L198.9308 195.6011
" />
<path d="M198.9308 195.6011
L199.0736 195.6726
" />
<path d="M199.0736 195.6726
L199.1451 195.8154
" />
<path d="M199.1451 195.8154
L199.1451 196.6011
" />
<path d="M200.4308 196.5297
L200.2879 196.6011
" />
<path d="M200.2879 196.6011
L200.0022 196.6011
" />
<path d="M200.0022 196.6011
L199.8593 196.5297
" />
<path d="M199.8593 196.5297
L199.7879 196.3868
" />
<path d="M199.7879 196.3868
L199.7879 195.8154
" />
<path d="M199.7879 195.8154
L199.8593 195.6726
" />
<path d="M199.8593 195.6726
L200.0022 195.6011
" />
<path d="M200.0022 195.6011
L200.2879 195.6011
" />
<path d="M200.2879 195.6011
L200.4308 195.6726
" />
<path d="M200.4308 195.6726
L200.5022 195.8154
" />
<path d="M200.5022 195.8154
L200.5022 195.9583
" />
<path d="M200.5022 195.9583
L199.7879 196.1011
" />
<path d="M201.0022 195.6011
L201.2879 196.6011
" />
<path d="M201.2879 196.6011
L201.5736 195.8868
" />
<path d="M201.5736 195.8868
L201.8593 196.6011
" />
<path d="M201.8593 196.6011
L202.1451 195.6011
" />
<path d="M203.7165 195.1011
L204.7165 195.1011
" />
<path d="M204.7165 195.1011
L204.0736 196.6011
" />
<path d="M205.2879 196.4583
L205.3593 196.5297
" />
<path d="M205.3593 196.5297
L205.2879 196.6011
" />
<path d="M205.2879 196.6011
L205.2165 196.5297
" />
<path d="M205.2165 196.5297
L205.2879 196.4583
" />
<path d="M205.2879 196.4583
L205.2879 196.6011
" />
<path d="M206.2879 195.1011
L206.4308 195.1011
" />
<path d="M206.4308 195.1011
L206.5736 195.1726
" />
<path d="M206.5736 195.1726
L206.6451 195.2440
" />
<path d="M206.6451 195.2440
L206.7165 195.3868
" />
<path d="M206.7165 195.3868
L206.7879 195.6726
" />
<path d="M206.7879 195.6726
L206.7879 196.0297
" />
<path d="M206.7879 196.0297
L206.7165 196.3154
" />
<path d="M206.7165 196.3154
L206.6451 196.4583
" />
<path d="M206.6451 196.4583
L206.5736 196.5297
" />
<path d="M206.5736 196.5297
L206.4308 196.6011
" />
<path d="M206.4308 196.6011
L206.2879 196.6011
" />
<path d="M206.2879 196.6011
L206.1451 196.5297
" />
<path d="M206.1451 196.5297
L206.0736 196.4583
" />
<path d="M206.0736 196.4583
L206.0022 196.3154
" />
<path d="M206.0022 196.3154
L205.9308 196.0297
" />
<path d="M205.9308 196.0297
L205.9308 195.6726
" />
<path d="M205.9308 195.6726
L206.0022 195.3868
" />
<path d="M206.0022 195.3868
L206.0736 195.2440
" />
<path d="M206.0736 195.2440
L206.1451 195.1726
" />
<path d="M206.1451 195.1726
L206.2879 195.1011
" />
<path d="M207.4308 196.4583
L207.5022 196.5297
" />
<path d="M207.5022 196.5297
L207.4308 196.6011
" />
<path d="M207.4308 196.6011
L207.3593 196.5297
" />
<path d="M207.3593 196.5297
L207.4308 196.4583
" />
<path d="M207.4308 196.4583
L207.4308 196.6011
" />
<path d="M208.0736 195.2440
L208.1451 195.1726
" />
<path d="M208.1451 195.1726
L208.2879 195.1011
" />
<path d="M208.2879 195.1011
L208.6451 195.1011
" />
<path d="M208.6451 195.1011
L208.7879 195.1726
" />
<path d="M208.7879 195.1726
L208.8593 195.2440
" />
<path d="M208.8593 195.2440
L208.9308 195.3868
" />
<path d="M208.9308 195.3868
L208.9308 195.5297
" />
<path d="M208.9308 195.5297
L208.8593 195.7440
" />
<path d="M208.8593 195.7440
L208.0022 196.6011
" />
<path d="M208.0022 196.6011
L208.9308 196.6011
" />
</g></g>
<g style="fill:#000000; fill-opacity:0.0; 
stroke:#000000; stroke-width:0.0212; stroke-opacity:1; 
stroke-linecap:round; stroke-linejoin:round;">
</g>
<g style="fill:#000000; fill-opacity:0.0; 
stroke:#000000; stroke-width:0.1500; stroke-opacity:1; 
stroke-linecap:round; stroke-linejoin:round;">
<path d="M177.0022 191.5072
L285.0022 191.5072
" />
</g>
<g style="fill:#000000; fill-opacity:0.0; 
stroke:#000000; stroke-width:0.0212; stroke-opacity:1; 
stroke-linecap:round; stroke-linejoin:round;">
</g>
<g style="fill:#000000; fill-opacity:0.0; 
stroke:#000000; stroke-width:0.3000; stroke-opacity:1; 
stroke-linecap:round; stroke-linejoin:round;">
<text x="263.0022" y="193.8572"
textLength="6.2357" font-size="2.0000" lengthAdjust="spacingAndGlyphs"
text-anchor="start" opacity="0">Rev: </text>
<g class="stroked-text"><desc>Rev: </desc>
<path d="M264.2165 193.8011
L263.7165 193.0868
" />
<path d="M263.3593 193.8011
L263.3593 192.3011
" />
<path d="M263.3593 192.3011
L263.9308 192.3011
" />
<path d="M263.9308 192.3011
L264.0736 192.3726
" />
<path d="M264.0736 192.3726
L264.1451 192.4440
" />
<path d="M264.1451 192.4440
L264.2165 192.5868
" />
<path d="M264.2165 192.5868
L264.2165 192.8011
" />
<path d="M264.2165 192.8011
L264.1451 192.9440
" />
<path d="M264.1451 192.9440
L264.0736 193.0154
" />
<path d="M264.0736 193.0154
L263.9308 193.0868
" />
<path d="M263.9308 193.0868
L263.3593 193.0868
" />
<path d="M265.4308 193.7297
L265.2879 193.8011
" />
<path d="M265.2879 193.8011
L265.0022 193.8011
" />
<path d="M265.0022 193.8011
L264.8593 193.7297
" />
<path d="M264.8593 193.7297
L264.7879 193.5868
" />
<path d="M264.7879 193.5868
L264.7879 193.0154
" />
<path d="M264.7879 193.0154
L264.8593 192.8726
" />
<path d="M264.8593 192.8726
L265.0022 192.8011
" />
<path d="M265.0022 192.8011
L265.2879 192.8011
" />
<path d="M265.2879 192.8011
L265.4308 192.8726
" />
<path d="M265.4308 192.8726
L265.5022 193.0154
" />
<path d="M265.5022 193.0154
L265.5022 193.1583
" />
<path d="M265.5022 193.1583
L264.7879 193.3011
" />
<path d="M266.0022 192.8011
L266.3593 193.8011
" />
<path d="M266.3593 193.8011
L266.7165 192.8011
" />
<path d="M267.2879 193.6583
L267.3593 193.7297
" />
<path d="M267.3593 193.7297
L267.2879 193.8011
" />
<path d="M267.2879 193.8011
L267.2165 193.7297
" />
<path d="M267.2165 193.7297
L267.2879 193.6583
" />
<path d="M267.2879 193.6583
L267.2879 193.8011
" />
<path d="M267.2879 192.8726
L267.3593 192.9440
" />
<path d="M267.3593 192.9440
L267.2879 193.0154
" />
<path d="M267.2879 193.0154
L267.2165 192.9440
" />
<path d="M267.2165 192.9440
L267.2879 192.8726
" />
<path d="M267.2879 192.8726
L267.2879 193.0154
" />
</g></g>
<g style="fill:#000000; fill-opacity:0.0; 
stroke:#000000; stroke-width:0.0212; stroke-opacity:1; 
stroke-linecap:round; stroke-linejoin:round;">
</g>
<g style="fill:#000000; fill-opacity:0.0; 
stroke:#000000; stroke-width:0.1500; stroke-opacity:1; 
stroke-linecap:round; stroke-linejoin:round;">
<text x="178.0022" y="193.8572"
textLength="9.2893" font-size="2.0000" lengthAdjust="spacingAndGlyphs"
text-anchor="start" opacity="0">Size: A4</text>
<g class="stroked-text"><desc>Size: A4</desc>
<path d="M178.2879 193.7297
L178.5022 193.8011
" />
<path d="M178.5022 193.8011
L178.8593 193.8011
" />
<path d="M178.8593 193.8011
L179.0022 193.7297
" />
<path d="M179.0022 193.7297
L179.0736 193.6583
" />
<path d="M179.0736 193.6583
L179.1451 193.5154
" />
<path d="M179.1451 193.5154
L179.1451 193.3726
" />
<path d="M179.1451 193.3726
L179.0736 193.2297
" />
<path d="M179.0736 193.2297
L179.0022 193.1583
" />
<path d="M179.0022 193.1583
L178.8593 193.0868
" />
<path d="M178.8593 193.0868
L178.5736 193.0154
" />
<path d="M178.5736 193.0154
L178.4308 192.9440
" />
<path d="M178.4308 192.9440
L178.3593 192.8726
" />
<path d="M178.3593 192.8726
L178.2879 192.7297
" />
<path d="M178.2879 192.7297
L178.2879 192.5868
" />
<path d="M178.2879 192.5868
L178.3593 192.4440
" />
<path d="M178.3593 192.4440
L178.4308 192.3726
" />
<path d="M178.4308 192.3726
L178.5736 192.3011
" />
<path d="M178.5736 192.3011
L178.9308 192.3011
" />
<path d="M178.9308 192.3011
L179.1451 192.3726
" />
<path d="M179.7879 193.8011
L179.7879 192.8011
" />
<path d="M179.7879 192.3011
L179.7165 192.3726
" />
<path d="M179.7165 192.3726
L179.7879 192.4440
" />
<path d="M179.7879 192.4440
L179.8593 192.3726
" />
<path d="M179.8593 192.3726
L179.7879 192.3011
" />
<path d="M179.7879 192.3011
L179.7879 192.4440
" />
<path d="M180.3593 192.8011
L181.1451 192.8011
" />
<path d="M181.1451 192.8011
L180.3593 193.8011
" />
<path d="M180.3593 193.8011
L181.1451 193.8011
" />
<path d="M182.2879 193.7297
L182.1451 193.8011
" />
<path d="M182.1451 193.8011
L181.8593 193.8011
" />
<path d="M181.8593 193.8011
L181.7165 193.7297
" />
<path d="M181.7165 193.7297
L181.6451 193.5868
" />
<path d="M181.6451 193.5868
L181.6451 193.0154
" />
<path d="M181.6451 193.0154
L181.7165 192.8726
" />
<path d="M181.7165 192.8726
L181.8593 192.8011
" />
<path d="M181.8593 192.8011
L182.1451 192.8011
" />
<path d="M182.1451 192.8011
L182.2879 192.8726
" />
<path d="M182.2879 192.8726
L182.3593 193.0154
" />
<path d="M182.3593 193.0154
L182.3593 193.1583
" />
<path d="M182.3593 193.1583
L181.6451 193.3011
" />
<path d="M183.0022 193.6583
L183.0736 193.7297
" />
<path d="M183.0736 193.7297
L183.0022 193.8011
" />
<path d="M183.0022 193.8011
L182.9308 193.7297
" />
<path d="M182.9308 193.7297
L183.0022 193.6583
" />
<path d="M183.0022 193.6583
L183.0022 193.8011
" />
<path d="M183.0022 192.8726
L183.0736 192.9440
" />
<path d="M183.0736 192.9440
L183.0022 193.0154
" />
<path d="M183.0022 193.0154
L182.9308 192.9440
" />
<path d="M182.9308 192.9440
L183.0022 192.8726
" />
<path d="M183.0022 192.8726
L183.0022 193.0154
" />
<path d="M184.7879 193.3726
L185.5022 193.3726
" />
<path d="M184.6451 193.8011
L185.1451 192.3011
" />
<path d="M185.1451 192.3011
L185.6451 193.8011
" />
<path d="M186.7879 192.8011
L186.7879 193.8011
" />
<path d="M186.4308 192.2297
L186.0736 193.3011
" />
<path d="M186.0736 193.3011
L187.0022 193.3011
" />
</g></g>
<g style="fill:#000000; fill-opacity:0.0; 
stroke:#000000; stroke-width:0.0212; stroke-opacity:1; 
stroke-linecap:round; stroke-linejoin:round;">
</g>
<g style="fill:#000000; fill-opacity:0.0; 
stroke:#000000; stroke-width:0.1500; stroke-opacity:1; 
stroke-linecap:round; stroke-linejoin:round;">
<text x="263.0022" y="196.6572"
textLength="8.4321" font-size="2.0000" lengthAdjust="spacingAndGlyphs"
text-anchor="start" opacity="0">Id: 1/1</text>
<g class="stroked-text"><desc>Id: 1/1</desc>
<path d="M263.3593 196.6011
L263.3593 195.1011
" />
<path d="M264.7165 196.6011
L264.7165 195.1011
" />
<path d="M264.7165 196.5297
L264.5736 196.6011
" />
<path d="M264.5736 196.6011
L264.2879 196.6011
" />
<path d="M264.2879 196.6011
L264.1451 196.5297
" />
<path d="M264.1451 196.5297
L264.0736 196.4583
" />
<path d="M264.0736 196.4583
L264.0022 196.3154
" />
<path d="M264.0022 196.3154
L264.0022 195.8868
" />
<path d="M264.0022 195.8868
L264.0736 195.7440
" />
<path d="M264.0736 195.7440
L264.1451 195.6726
" />
<path d="M264.1451 195.6726
L264.2879 195.6011
" />
<path d="M264.2879 195.6011
L264.5736 195.6011
" />
<path d="M264.5736 195.6011
L264.7165 195.6726
" />
<path d="M265.4308 196.4583
L265.5022 196.5297
" />
<path d="M265.5022 196.5297
L265.4308 196.6011
" />
<path d="M265.4308 196.6011
L265.3593 196.5297
" />
<path d="M265.3593 196.5297
L265.4308 196.4583
" />
<path d="M265.4308 196.4583
L265.4308 196.6011
" />
<path d="M265.4308 195.6726
L265.5022 195.7440
" />
<path d="M265.5022 195.7440
L265.4308 195.8154
" />
<path d="M265.4308 195.8154
L265.3593 195.7440
" />
<path d="M265.3593 195.7440
L265.4308 195.6726
" />
<path d="M265.4308 195.6726
L265.4308 195.8154
" />
<path d="M268.0736 196.6011
L267.2165 196.6011
" />
<path d="M267.6451 196.6011
L267.6451 195.1011
" />
<path d="M267.6451 195.1011
L267.5022 195.3154
" />
<path d="M267.5022 195.3154
L267.3593 195.4583
" />
<path d="M267.3593 195.4583
L267.2165 195.5297
" />
<path d="M269.7879 195.0297
L268.5022 196.9583
" />
<path d="M271.0736 196.6011
L270.2165 196.6011
" />
<path d="M270.6451 196.6011
L270.6451 195.1011
" />
<path d="M270.6451 195.1011
L270.5022 195.3154
" />
<path d="M270.5022 195.3154
L270.3593 195.4583
" />
<path d="M270.3593 195.4583
L270.2165 195.5297
" />
</g></g>
<g style="fill:#000000; fill-opacity:0.0; 
stroke:#000000; stroke-width:0.0212; stroke-opacity:1; 
stroke-linecap:round; stroke-linejoin:round;">
</g>
<g style="fill:#000000; fill-opacity:0.0; 
stroke:#000000; stroke-width:0.1500; stroke-opacity:1; 
stroke-linecap:round; stroke-linejoin:round;">
<path d="M177.0022 187.5072
L285.0022 187.5072
" />
</g>
<g style="fill:#000000; fill-opacity:0.0; 
stroke:#000000; stroke-width:0.0212; stroke-opacity:1; 
stroke-linecap:round; stroke-linejoin:round;">
</g>
<g style="fill:#000000; fill-opacity:0.0; 
stroke:#000000; stroke-width:0.4000; stroke-opacity:1; 
stroke-linecap:round; stroke-linejoin:round;">
<text x="178.0022" y="190.3072"
textLength="9.3857" font-size="2.6667" lengthAdjust="spacingAndGlyphs"
text-anchor="start" opacity="0">Title: </text>
<g class="stroked-text"><desc>Title: </desc>
<path d="M178.4308 188.2324
L179.5736 188.2324
" />
<path d="M178.7522 190.2324
L179.0022 188.2324
" />
<path d="M179.9784 190.2324
L180.1451 188.8991
" />
<path d="M180.2284 188.2324
L180.1212 188.3277
" />
<path d="M180.1212 188.3277
L180.2046 188.4229
" />
<path d="M180.2046 188.4229
L180.3117 188.3277
" />
<path d="M180.3117 188.3277
L180.2284 188.2324
" />
<path d="M180.2284 188.2324
L180.2046 188.4229
" />
<path d="M180.7998 188.8991
L181.5617 188.8991
" />
<path d="M181.1689 188.2324
L180.9546 189.9467
" />
<path d="M180.9546 189.9467
L181.0260 190.1372
" />
<path d="M181.0260 190.1372
L181.2046 190.2324
" />
<path d="M181.2046 190.2324
L181.3951 190.2324
" />
<path d="M182.3355 190.2324
L182.1570 190.1372
" />
<path d="M182.1570 190.1372
L182.0855 189.9467
" />
<path d="M182.0855 189.9467
L182.2998 188.2324
" />
<path d="M183.8593 190.1372
L183.6570 190.2324
" />
<path d="M183.6570 190.2324
L183.2760 190.2324
" />
<path d="M183.2760 190.2324
L183.0974 190.1372
" />
<path d="M183.0974 190.1372
L183.0260 189.9467
" />
<path d="M183.0260 189.9467
L183.1212 189.1848
" />
<path d="M183.1212 189.1848
L183.2403 188.9943
" />
<path d="M183.2403 188.9943
L183.4427 188.8991
" />
<path d="M183.4427 188.8991
L183.8236 188.8991
" />
<path d="M183.8236 188.8991
L184.0022 188.9943
" />
<path d="M184.0022 188.9943
L184.0736 189.1848
" />
<path d="M184.0736 189.1848
L184.0498 189.3753
" />
<path d="M184.0498 189.3753
L183.0736 189.5658
" />
<path d="M184.8117 190.0420
L184.8951 190.1372
" />
<path d="M184.8951 190.1372
L184.7879 190.2324
" />
<path d="M184.7879 190.2324
L184.7046 190.1372
" />
<path d="M184.7046 190.1372
L184.8117 190.0420
" />
<path d="M184.8117 190.0420
L184.7879 190.2324
" />
<path d="M184.9427 188.9943
L185.0260 189.0896
" />
<path d="M185.0260 189.0896
L184.9189 189.1848
" />
<path d="M184.9189 189.1848
L184.8355 189.0896
" />
<path d="M184.8355 189.0896
L184.9427 188.9943
" />
<path d="M184.9427 188.9943
L184.9189 189.1848
" />
</g></g>
<g style="fill:#000000; fill-opacity:0.0; 
stroke:#000000; stroke-width:0.0212; stroke-opacity:1; 
stroke-linecap:round; stroke-linejoin:round;">
</g>
<g style="fill:#000000; fill-opacity:0.0; 
stroke:#000000; stroke-width:0.1500; stroke-opacity:1; 
stroke-linecap:round; stroke-linejoin:round;">
<text x="178.0022" y="186.4572"
textLength="26.2893" font-size="2.0000" lengthAdjust="spacingAndGlyphs"
text-anchor="start" opacity="0">File: working.kicad_pcb</text>
<g class="stroked-text"><desc>File: working.kicad_pcb</desc>
<path d="M178.8593 185.6154
L178.3593 185.6154
" />
<path d="M178.3593 186.4011
L178.3593 184.9011
" />
<path d="M178.3593 184.9011
L179.0736 184.9011
" />
<path d="M179.6451 186.4011
L179.6451 185.4011
" />
<path d="M179.6451 184.9011
L179.5736 184.9726
" />
<path d="M179.5736 184.9726
L179.6451 185.0440
" />
<path d="M179.6451 185.0440
L179.7165 184.9726
" />
<path d="M179.7165 184.9726
L179.6451 184.9011
" />
<path d="M179.6451 184.9011
L179.6451 185.0440
" />
<path d="M180.5736 186.4011
L180.4308 186.3297
" />
<path d="M180.4308 186.3297
L180.3593 186.1868
" />
<path d="M180.3593 186.1868
L180.3593 184.9011
" />
<path d="M181.7165 186.3297
L181.5736 186.4011
" />
<path d="M181.5736 186.4011
L181.2879 186.4011
" />
<path d="M181.2879 186.4011
L181.1451 186.3297
" />
<path d="M181.1451 186.3297
L181.0736 186.1868
" />
<path d="M181.0736 186.1868
L181.0736 185.6154
" />
<path d="M181.0736 185.6154
L181.1451 185.4726
" />
<path d="M181.1451 185.4726
L181.2879 185.4011
" />
<path d="M181.2879 185.4011
L181.5736 185.4011
" />
<path d="M181.5736 185.4011
L181.7165 185.4726
" />
<path d="M181.7165 185.4726
L181.7879 185.6154
" />
<path d="M181.7879 185.6154
L181.7879 185.7583
" />
<path d="M181.7879 185.7583
L181.0736 185.9011
" />
<path d="M182.4308 186.2583
L182.5022 186.3297
" />
<path d="M182.5022 186.3297
L182.4308 186.4011
" />
<path d="M182.4308 186.4011
L182.3593 186.3297
" />
<path d="M182.3593 186.3297
L182.4308 186.2583
" />
<path d="M182.4308 186.2583
L182.4308 186.4011
" />
<path d="M182.4308 185.4726
L182.5022 185.5440
" />
<path d="M182.5022 185.5440
L182.4308 185.6154
" />
<path d="M182.4308 185.6154
L182.3593 185.5440
" />
<path d="M182.3593 185.5440
L182.4308 185.4726
" />
<path d="M182.4308 185.4726
L182.4308 185.6154
" />
<path d="M184.1451 185.4011
L184.4308 186.4011
" />
<path d="M184.4308 186.4011
L184.7165 185.6868
" />
<path d="M184.7165 185.6868
L185.0022 186.4011
" />
<path d="M185.0022 186.4011
L185.2879 185.4011
" />
<path d="M186.0736 186.4011
L185.9308 186.3297
" />
<path d="M185.9308 186.3297
L185.8593 186.2583
" />
<path d="M185.8593 186.2583
L185.7879 186.1154
" />
<path d="M185.7879 186.1154
L185.7879 185.6868
" />
<path d="M185.7879 185.6868
L185.8593 185.5440
" />
<path d="M185.8593 185.5440
L185.9308 185.4726
" />
<path d="M185.9308 185.4726
L186.0736 185.4011
" />
<path d="M186.0736 185.4011
L186.2879 185.4011
" />
<path d="M186.2879 185.4011
L186.4308 185.4726
" />
<path d="M186.4308 185.4726
L186.5022 185.5440
" />
<path d="M186.5022 185.5440
L186.5736 185.6868
" />
<path d="M186.5736 185.6868
L186.5736 186.1154
" />
<path d="M186.5736 186.1154
L186.5022 186.2583
" />
<path d="M186.5022 186.2583
L186.4308 186.3297
" />
<path d="M186.4308 186.3297
L186.2879 186.4011
" />
<path d="M186.2879 186.4011
L186.0736 186.4011
" />
<path d="M187.2165 186.4011
L187.2165 185.4011
" />
<path d="M187.2165 185.6868
L187.2879 185.5440
" />
<path d="M187.2879 185.5440
L187.3593 185.4726
" />
<path d="M187.3593 185.4726
L187.5022 185.4011
" />
<path d="M187.5022 185.4011
L187.6451 185.4011
" />
<path d="M188.1451 186.4011
L188.1451 184.9011
" />
<path d="M188.2879 185.8297
L188.7165 186.4011
" />
<path d="M188.7165 185.4011
L188.1451 185.9726
" />
<path d="M189.3593 186.4011
L189.3593 185.4011
" />
<path d="M189.3593 184.9011
L189.2879 184.9726
" />
<path d="M189.2879 184.9726
L189.3593 185.0440
" />
<path d="M189.3593 185.0440
L189.4308 184.9726
" />
<path d="M189.4308 184.9726
L189.3593 184.9011
" />
<path d="M189.3593 184.9011
L189.3593 185.0440
" />
<path d="M190.0736 185.4011
L190.0736 186.4011
" />
<path d="M190.0736 185.5440
L190.1451 185.4726
" />
<path d="M190.1451 185.4726
L190.2879 185.4011
" />
<path d="M190.2879 185.4011
L190.5022 185.4011
" />
<path d="M190.5022 185.4011
L190.6451 185.4726
" />
<path d="M190.6451 185.4726
L190.7165 185.6154
" />
<path d="M190.7165 185.6154
L190.7165 186.4011
" />
<path d="M192.0736 185.4011
L192.0736 186.6154
" />
<path d="M192.0736 186.6154
L192.0022 186.7583
" />
<path d="M192.0022 186.7583
L191.9308 186.8297
" />
<path d="M191.9308 186.8297
L191.7879 186.9011
" />
<path d="M191.7879 186.9011
L191.5736 186.9011
" />
<path d="M191.5736 186.9011
L191.4308 186.8297
" />
<path d="M192.0736 186.3297
L191.9308 186.4011
" />
<path d="M191.9308 186.4011
L191.6451 186.4011
" />
<path d="M191.6451 186.4011
L191.5022 186.3297
" />
<path d="M191.5022 186.3297
L191.4308 186.2583
" />
<path d="M191.4308 186.2583
L191.3593 186.1154
" />
<path d="M191.3593 186.1154
L191.3593 185.6868
" />
<path d="M191.3593 185.6868
L191.4308 185.5440
" />
<path d="M191.4308 185.5440
L191.5022 185.4726
" />
<path d="M191.5022 185.4726
L191.6451 185.4011
" />
<path d="M191.6451 185.4011
L191.9308 185.4011
" />
<path d="M191.9308 185.4011
L192.0736 185.4726
" />
<path d="M192.7879 186.2583
L192.8593 186.3297
" />
<path d="M192.8593 186.3297
L192.7879 186.4011
" />
<path d="M192.7879 186.4011
L192.7165 186.3297
" />
<path d="M192.7165 186.3297
L192.7879 186.2583
" />
<path d="M192.7879 186.2583
L192.7879 186.4011
" />
<path d="M193.5022 186.4011
L193.5022 184.9011
" />
<path d="M193.6451 185.8297
L194.0736 186.4011
" />
<path d="M194.0736 185.4011
L193.5022 185.9726
" />
<path d="M194.7165 186.4011
L194.7165 185.4011
" />
<path d="M194.7165 184.9011
L194.6451 184.9726
" />
<path d="M194.6451 184.9726
L194.7165 185.0440
" />
<path d="M194.7165 185.0440
L194.7879 184.9726
" />
<path d="M194.7879 184.9726
L194.7165 184.9011
" />
<path d="M194.7165 184.9011
L194.7165 185.0440
" />
<path d="M196.0736 186.3297
L195.9308 186.4011
" />
<path d="M195.9308 186.4011
L195.6451 186.4011
" />
<path d="M195.6451 186.4011
L195.5022 186.3297
" />
<path d="M195.5022 186.3297
L195.4308 186.2583
" />
<path d="M195.4308 186.2583
L195.3593 186.1154
" />
<path d="M195.3593 186.1154
L195.3593 185.6868
" />
<path d="M195.3593 185.6868
L195.4308 185.5440
" />
<path d="M195.4308 185.5440
L195.5022 185.4726
" />
<path d="M195.5022 185.4726
L195.6451 185.4011
" />
<path d="M195.6451 185.4011
L195.9308 185.4011
" />
<path d="M195.9308 185.4011
L196.0736 185.4726
" />
<path d="M197.3593 186.4011
L197.3593 185.6154
" />
<path d="M197.3593 185.6154
L197.2879 185.4726
" />
<path d="M197.2879 185.4726
L197.1451 185.4011
" />
<path d="M197.1451 185.4011
L196.8593 185.4011
" />
<path d="M196.8593 185.4011
L196.7165 185.4726
" />
<path d="M197.3593 186.3297
L197.2165 186.4011
" />
<path d="M197.2165 186.4011
L196.8593 186.4011
" />
<path d="M196.8593 186.4011
L196.7165 186.3297
" />
<path d="M196.7165 186.3297
L196.6451 186.1868
" />
<path d="M196.6451 186.1868
L196.6451 186.0440
" />
<path d="M196.6451 186.0440
L196.7165 185.9011
" />
<path d="M196.7165 185.9011
L196.8593 185.8297
" />
<path d="M196.8593 185.8297
L197.2165 185.8297
" />
<path d="M197.2165 185.8297
L197.3593 185.7583
" />
<path d="M198.7165 186.4011
L198.7165 184.9011
" />
<path d="M198.7165 186.3297
L198.5736 186.4011
" />
<path d="M198.5736 186.4011
L198.2879 186.4011
" />
<path d="M198.2879 186.4011
L198.1451 186.3297
" />
<path d="M198.1451 186.3297
L198.0736 186.2583
" />
<path d="M198.0736 186.2583
L198.0022 186.1154
" />
<path d="M198.0022 186.1154
L198.0022 185.6868
" />
<path d="M198.0022 185.6868
L198.0736 185.5440
" />
<path d="M198.0736 185.5440
L198.1451 185.4726
" />
<path d="M198.1451 185.4726
L198.2879 185.4011
" />
<path d="M198.2879 185.4011
L198.5736 185.4011
" />
<path d="M198.5736 185.4011
L198.7165 185.4726
" />
<path d="M199.0736 186.5440
L200.2165 186.5440
" />
<path d="M200.5736 185.4011
L200.5736 186.9011
" />
<path d="M200.5736 185.4726
L200.7165 185.4011
" />
<path d="M200.7165 185.4011
L201.0022 185.4011
" />
<path d="M201.0022 185.4011
L201.1451 185.4726
" />
<path d="M201.1451 185.4726
L201.2165 185.5440
" />
<path d="M201.2165 185.5440
L201.2879 185.6868
" />
<path d="M201.2879 185.6868
L201.2879 186.1154
" />
<path d="M201.2879 186.1154
L201.2165 186.2583
" />
<path d="M201.2165 186.2583
L201.1451 186.3297
" />
<path d="M201.1451 186.3297
L201.0022 186.4011
" />
<path d="M201.0022 186.4011
L200.7165 186.4011
" />
<path d="M200.7165 186.4011
L200.5736 186.3297
" />
<path d="M202.5736 186.3297
L202.4308 186.4011
" />
<path d="M202.4308 186.4011
L202.1451 186.4011
" />
<path d="M202.1451 186.4011
L202.0022 186.3297
" />
<path d="M202.0022 186.3297
L201.9308 186.2583
" />
<path d="M201.9308 186.2583
L201.8593 186.1154
" />
<path d="M201.8593 186.1154
L201.8593 185.6868
" />
<path d="M201.8593 185.6868
L201.9308 185.5440
" />
<path d="M201.9308 185.5440
L202.0022 185.4726
" />
<path d="M202.0022 185.4726
L202.1451 185.4011
" />
<path d="M202.1451 185.4011
L202.4308 185.4011
" />
<path d="M202.4308 185.4011
L202.5736 185.4726
" />
<path d="M203.2165 186.4011
L203.2165 184.9011
" />
<path d="M203.2165 185.4726
L203.3593 185.4011
" />
<path d="M203.3593 185.4011
L203.6451 185.4011
" />
<path d="M203.6451 185.4011
L203.7879 185.4726
" />
<path d="M203.7879 185.4726
L203.8593 185.5440
" />
<path d="M203.8593 185.5440
L203.9308 185.6868
" />
<path d="M203.9308 185.6868
L203.9308 186.1154
" />
<path d="M203.9308 186.1154
L203.8593 186.2583
" />
<path d="M203.8593 186.2583
L203.7879 186.3297
" />
<path d="M203.7879 186.3297
L203.6451 186.4011
" />
<path d="M203.6451 186.4011
L203.3593 186.4011
" />
<path d="M203.3593 186.4011
L203.2165 186.3297
" />
</g></g>
<g style="fill:#000000; fill-opacity:0.0; 
stroke:#000000; stroke-width:0.0212; stroke-opacity:1; 
stroke-linecap:round; stroke-linejoin:round;">
</g>
<g style="fill:#000000; fill-opacity:0.0; 
stroke:#000000; stroke-width:0.1500; stroke-opacity:1; 
stroke-linecap:round; stroke-linejoin:round;">
<path d="M177.0022 181.5072
L285.0022 181.5072
" />
</g>
<g style="fill:#000000; fill-opacity:0.0; 
stroke:#000000; stroke-width:0.0212; stroke-opacity:1; 
stroke-linecap:round; stroke-linejoin:round;">
</g>
<g style="fill:#000000; fill-opacity:0.0; 
stroke:#000000; stroke-width:0.1500; stroke-opacity:1; 
stroke-linecap:round; stroke-linejoin:round;">
<text x="178.0022" y="183.7572"
textLength="8.1464" font-size="2.0000" lengthAdjust="spacingAndGlyphs"
text-anchor="start" opacity="0">Sheet: </text>
<g class="stroked-text"><desc>Sheet: </desc>
<path d="M178.2879 183.6297
L178.5022 183.7011
" />
<path d="M178.5022 183.7011
L178.8593 183.7011
" />
<path d="M178.8593 183.7011
L179.0022 183.6297
" />
<path d="M179.0022 183.6297
L179.0736 183.5583
" />
<path d="M179.0736 183.5583
L179.1451 183.4154
" />
<path d="M179.1451 183.4154
L179.1451 183.2726
" />
<path d="M179.1451 183.2726
L179.0736 183.1297
" />
<path d="M179.0736 183.1297
L179.0022 183.0583
" />
<path d="M179.0022 183.0583
L178.8593 182.9868
" />
<path d="M178.8593 182.9868
L178.5736 182.9154
" />
<path d="M178.5736 182.9154
L178.4308 182.8440
" />
<path d="M178.4308 182.8440
L178.3593 182.7726
" />
<path d="M178.3593 182.7726
L178.2879 182.6297
" />
<path d="M178.2879 182.6297
L178.2879 182.4868
" />
<path d="M178.2879 182.4868
L178.3593 182.3440
" />
<path d="M178.3593 182.3440
L178.4308 182.2726
" />
<path d="M178.4308 182.2726
L178.5736 182.2011
" />
<path d="M178.5736 182.2011
L178.9308 182.2011
" />
<path d="M178.9308 182.2011
L179.1451 182.2726
" />
<path d="M179.7879 183.7011
L179.7879 182.2011
" />
<path d="M180.4308 183.7011
L180.4308 182.9154
" />
<path d="M180.4308 182.9154
L180.3593 182.7726
" />
<path d="M180.3593 182.7726
L180.2165 182.7011
" />
<path d="M180.2165 182.7011
L180.0022 182.7011
" />
<path d="M180.0022 182.7011
L179.8593 182.7726
" />
<path d="M179.8593 182.7726
L179.7879 182.8440
" />
<path d="M181.7165 183.6297
L181.5736 183.7011
" />
<path d="M181.5736 183.7011
L181.2879 183.7011
" />
<path d="M181.2879 183.7011
L181.1451 183.6297
" />
<path d="M181.1451 183.6297
L181.0736 183.4868
" />
<path d="M181.0736 183.4868
L181.0736 182.9154
" />
<path d="M181.0736 182.9154
L181.1451 182.7726
" />
<path d="M181.1451 182.7726
L181.2879 182.7011
" />
<path d="M181.2879 182.7011
L181.5736 182.7011
" />
<path d="M181.5736 182.7011
L181.7165 182.7726
" />
<path d="M181.7165 182.7726
L181.7879 182.9154
" />
<path d="M181.7879 182.9154
L181.7879 183.0583
" />
<path d="M181.7879 183.0583
L181.0736 183.2011
" />
<path d="M183.0022 183.6297
L182.8593 183.7011
" />
<path d="M182.8593 183.7011
L182.5736 183.7011
" />
<path d="M182.5736 183.7011
L182.4308 183.6297
" />
<path d="M182.4308 183.6297
L182.3593 183.4868
" />
<path d="M182.3593 183.4868
L182.3593 182.9154
" />
<path d="M182.3593 182.9154
L182.4308 182.7726
" />
<path d="M182.4308 182.7726
L182.5736 182.7011
" />
<path d="M182.5736 182.7011
L182.8593 182.7011
" />
<path d="M182.8593 182.7011
L183.0022 182.7726
" />
<path d="M183.0022 182.7726
L183.0736 182.9154
" />
<path d="M183.0736 182.9154
L183.0736 183.0583
" />
<path d="M183.0736 183.0583
L182.3593 183.2011
" />
<path d="M183.5022 182.7011
L184.0736 182.7011
" />
<path d="M183.7165 182.2011
L183.7165 183.4868
" />
<path d="M183.7165 183.4868
L183.7879 183.6297
" />
<path d="M183.7879 183.6297
L183.9308 183.7011
" />
<path d="M183.9308 183.7011
L184.0736 183.7011
" />
<path d="M184.5736 183.5583
L184.6451 183.6297
" />
<path d="M184.6451 183.6297
L184.5736 183.7011
" />
<path d="M184.5736 183.7011
L184.5022 183.6297
" />
<path d="M184.5022 183.6297
L184.5736 183.5583
" />
<path d="M184.5736 183.5583
L184.5736 183.7011
" />
<path d="M184.5736 182.7726
L184.6451 182.8440
" />
<path d="M184.6451 182.8440
L184.5736 182.9154
" />
<path d="M184.5736 182.9154
L184.5022 182.8440
" />
<path d="M184.5022 182.8440
L184.5736 182.7726
" />
<path d="M184.5736 182.7726
L184.5736 182.9154
" />
</g></g>
<g style="fill:#000000; fill-opacity:0.0; 
stroke:#000000; stroke-width:0.0212; stroke-opacity:1; 
stroke-linecap:round; stroke-linejoin:round;">
</g>
<g style="fill:#000000; fill-opacity:0.0; 
stroke:#000000; stroke-width:0.3000; stroke-opacity:1; 
stroke-linecap:round; stroke-linejoin:round;">
<text x="178.0022" y="180.7572"
textLength="0.7500" font-size="2.0000" lengthAdjust="spacingAndGlyphs"
text-anchor="start" opacity="0"></text>
<g class="stroked-text"><desc></desc>
</g></g>
<g style="fill:#000000; fill-opacity:0.0; 
stroke:#000000; stroke-width:0.0212; stroke-opacity:1; 
stroke-linecap:round; stroke-linejoin:round;">
</g>
<g style="fill:#000000; fill-opacity:0.0; 
stroke:#000000; stroke-width:0.1500; stroke-opacity:1; 
stroke-linecap:round; stroke-linejoin:round;">
<text x="178.0022" y="177.7572"
textLength="0.3750" font-size="2.0000" lengthAdjust="spacingAndGlyphs"
text-anchor="start" opacity="0"></text>
<g class="stroked-text"><desc></desc>
</g></g>
<g style="fill:#000000; fill-opacity:0.0; 
stroke:#000000; stroke-width:0.0212; stroke-opacity:1; 
stroke-linecap:round; stroke-linejoin:round;">
</g>
<g style="fill:#000000; fill-opacity:0.0; 
stroke:#000000; stroke-width:0.1500; stroke-opacity:1; 
stroke-linecap:round; stroke-linejoin:round;">
<text x="178.0022" y="174.7572"
textLength="0.3750" font-size="2.0000" lengthAdjust="spacingAndGlyphs"
text-anchor="start" opacity="0"></text>
<g class="stroked-text"><desc></desc>
</g></g>
<g style="fill:#000000; fill-opacity:0.0; 
stroke:#000000; stroke-width:0.0212; stroke-opacity:1; 
stroke-linecap:round; stroke-linejoin:round;">
</g>
<g style="fill:#000000; fill-opacity:0.0; 
stroke:#000000; stroke-width:0.1500; stroke-opacity:1; 
stroke-linecap:round; stroke-linejoin:round;">
<text x="178.0022" y="171.7572"
textLength="0.3750" font-size="2.0000" lengthAdjust="spacingAndGlyphs"
text-anchor="start" opacity="0"></text>
<g class="stroked-text"><desc></desc>
</g></g>
<g style="fill:#000000; fill-opacity:0.0; 
stroke:#000000; stroke-width:0.0212; stroke-opacity:1; 
stroke-linecap:round; stroke-linejoin:round;">
</g>
<g style="fill:#000000; fill-opacity:0.0; 
stroke:#000000; stroke-width:0.1500; stroke-opacity:1; 
stroke-linecap:round; stroke-linejoin:round;">
<text x="178.0022" y="168.7572"
textLength="0.3750" font-size="2.0000" lengthAdjust="spacingAndGlyphs"
text-anchor="start" opacity="0"></text>
<g class="stroked-text"><desc></desc>
</g></g>
<g style="fill:#000000; fill-opacity:0.0; 
stroke:#000000; stroke-width:0.0212; stroke-opacity:1; 
stroke-linecap:round; stroke-linejoin:round;">
</g>
<g style="fill:#000000; fill-opacity:0.0; 
stroke:#000000; stroke-width:0.1500; stroke-opacity:1; 
stroke-linecap:round; stroke-linejoin:round;">
<path d="M197.0022 191.5072
L197.0022 194.5072
" />
</g>
<g style="fill:#000000; fill-opacity:0.0; 
stroke:#000000; stroke-width:0.0212; stroke-opacity:1; 
stroke-linecap:round; stroke-linejoin:round;">
</g>
<g style="fill:#000000; fill-opacity:0.0; 
stroke:#000000; stroke-width:0.1500; stroke-opacity:1; 
stroke-linecap:round; stroke-linejoin:round;">
<path d="M261.0022 191.5072
L261.0022 198.0072
" />
</g>
<g style="fill:#02FFEE; fill-opacity:0.0; 
stroke:#02FFEE; stroke-width:0.1500; stroke-opacity:1; 
stroke-linecap:round; stroke-linejoin:round;">
</g>
<g style="fill:#02FFEE; fill-opacity:0.4000; 
stroke:#02FFEE; stroke-width:0.0000; stroke-opacity:1; 
stroke-linecap:round; stroke-linejoin:round;">
<path style="fill:#02FFEE; fill-opacity:0.4000; 
stroke:#02FFEE; stroke-width:0.0000; stroke-opacity:1; 
stroke-linecap:round; stroke-linejoin:round;fill-rule:evenodd;"
d="M 158.4071,104.6861
157.8991,104.6861
157.8991,104.3051
158.4071,104.3051
Z" /> 
<path style="fill:#02FFEE; fill-opacity:0.4000; 
stroke:#02FFEE; stroke-width:0.0000; stroke-opacity:1; 
stroke-linecap:round; stroke-linejoin:round;fill-rule:evenodd;"
d="M 157.3911,104.6861
156.8831,104.6861
156.8831,104.3051
157.3911,104.3051
Z" /> 
<g >
</g>
<g >
</g>
<g >
</g>
<g >
</g>
<g >
</g>
<g >
</g>
<g style="fill:#02FFEE; fill-opacity:0.4000; 
stroke:#02FFEE; stroke-width:0.0000; stroke-opacity:1; 
stroke-linecap:round; stroke-linejoin:round;">
<circle cx="137.0711" cy="110.0836" r="1.0414" /> 
</g>
<g style="fill:#02FFEE; fill-opacity:0.4000; 
stroke:#02FFEE; stroke-width:0.0212; stroke-opacity:1; 
stroke-linecap:round; stroke-linejoin:round;">
</g>
<g style="fill:#02FFEE; fill-opacity:0.4000; 
stroke:#02FFEE; stroke-width:0.0000; stroke-opacity:1; 
stroke-linecap:round; stroke-linejoin:round;">
<circle cx="137.0711" cy="107.5436" r="1.0414" /> 
</g>
<g style="fill:#02FFEE; fill-opacity:0.4000; 
stroke:#02FFEE; stroke-width:0.0212; stroke-opacity:1; 
stroke-linecap:round; stroke-linejoin:round;">
</g>
<g style="fill:#02FFEE; fill-opacity:0.4000; 
stroke:#02FFEE; stroke-width:0.0000; stroke-opacity:1; 
stroke-linecap:round; stroke-linejoin:round;">
<circle cx="137.0711" cy="105.0036" r="1.0414" /> 
</g>
<g style="fill:#02FFEE; fill-opacity:0.4000; 
stroke:#02FFEE; stroke-width:0.0212; stroke-opacity:1; 
stroke-linecap:round; stroke-linejoin:round;">
</g>
<g style="fill:#02FFEE; fill-opacity:0.4000; 
stroke:#02FFEE; stroke-width:0.0000; stroke-opacity:1; 
stroke-linecap:round; stroke-linejoin:round;">
<circle cx="137.0711" cy="102.4636" r="1.0414" /> 
</g>
<g style="fill:#02FFEE; fill-opacity:0.4000; 
stroke:#02FFEE; stroke-width:0.0212; stroke-opacity:1; 
stroke-linecap:round; stroke-linejoin:round;">
</g>
<g style="fill:#02FFEE; fill-opacity:0.4000; 
stroke:#02FFEE; stroke-width:0.0000; stroke-opacity:1; 
stroke-linecap:round; stroke-linejoin:round;">
<circle cx="137.0711" cy="99.9236" r="1.0414" /> 
</g>
<g style="fill:#02FFEE; fill-opacity:0.4000; 
stroke:#02FFEE; stroke-width:0.0212; stroke-opacity:1; 
stroke-linecap:round; stroke-linejoin:round;">
</g>
<g >
</g>
<g >
</g>
<g >
</g>
<g >
</g>
<g >
</g>
<g >
</g>
<g >
</g>
<g >
</g>
<g >
</g>
<g >
</g>
<g >
</g>
<g >
</g>
<g >
</g>
<g >
</g>
<g >
</g>
<g >
</g>
<g >
</g>
<g style="fill:#02FFEE; fill-opacity:0.4000; 
stroke:#02FFEE; stroke-width:0.0212; stroke-opacity:1; 
stroke-linecap:round; stroke-linejoin:round;">
</g>
<g style="fill:#02FFEE; fill-opacity:0.4000; 
stroke:#02FFEE; stroke-width:0.0000; stroke-opacity:1; 
stroke-linecap:round; stroke-linejoin:round;">
<circle cx="142.4051" cy="99.9236" r="0.9016" /> 
</g>
<g style="fill:#02FFEE; fill-opacity:0.4000; 
stroke:#02FFEE; stroke-width:0.0212; stroke-opacity:1; 
stroke-linecap:round; stroke-linejoin:round;">
</g>
<g >
</g>
<g >
</g>
<g >
</g>
<g >
</g>
<g style="fill:#02FFEE; fill-opacity:0.4000; 
stroke:#02FFEE; stroke-width:0.0212; stroke-opacity:1; 
stroke-linecap:round; stroke-linejoin:round;">
</g>
<g style="fill:#02FFEE; fill-opacity:0.4000; 
stroke:#02FFEE; stroke-width:0.0000; stroke-opacity:1; 
stroke-linecap:round; stroke-linejoin:round;">
<path style="fill:#02FFEE; fill-opacity:0.4000; 
stroke:#02FFEE; stroke-width:0.0000; stroke-opacity:1; 
stroke-linecap:round; stroke-linejoin:round;fill-rule:evenodd;"
d="M 154.1771,106.2036
154.1694,106.2425
154.1473,106.2754
154.1144,106.2975
154.0755,106.3052
153.6755,106.3052
153.6366,106.2975
153.6037,106.2754
153.5816,106.2425
153.5739,106.2036
153.5739,105.4536
153.5816,105.4147
153.6037,105.3818
153.6366,105.3597
153.6755,105.3520
154.0755,105.3520
154.1144,105.3597
154.1473,105.3818
154.1694,105.4147
154.1771,105.4536
Z" /> 
<path style="fill:#02FFEE; fill-opacity:0.4000; 
stroke:#02FFEE; stroke-width:0.0000; stroke-opacity:1; 
stroke-linecap:round; stroke-linejoin:round;fill-rule:evenodd;"
d="M 153.5271,106.2036
153.5194,106.2425
153.4973,106.2754
153.4644,106.2975
153.4255,106.3052
153.0255,106.3052
152.9866,106.2975
152.9537,106.2754
152.9316,106.2425
152.9239,106.2036
152.9239,105.4536
152.9316,105.4147
152.9537,105.3818
152.9866,105.3597
153.0255,105.3520
153.4255,105.3520
153.4644,105.3597
153.4973,105.3818
153.5194,105.4147
153.5271,105.4536
Z" /> 
<path style="fill:#02FFEE; fill-opacity:0.4000; 
stroke:#02FFEE; stroke-width:0.0000; stroke-opacity:1; 
stroke-linecap:round; stroke-linejoin:round;fill-rule:evenodd;"
d="M 152.8771,106.2036
152.8694,106.2425
152.8473,106.2754
152.8144,106.2975
152.7755,106.3052
152.3755,106.3052
152.3366,106.2975
152.3037,106.2754
152.2816,106.2425
152.2739,106.2036
152.2739,105.4536
152.2816,105.4147
152.3037,105.3818
152.3366,105.3597
152.3755,105.3520
152.7755,105.3520
152.8144,105.3597
152.8473,105.3818
152.8694,105.4147
152.8771,105.4536
Z" /> 
<path style="fill:#02FFEE; fill-opacity:0.4000; 
stroke:#02FFEE; stroke-width:0.0000; stroke-opacity:1; 
stroke-linecap:round; stroke-linejoin:round;fill-rule:evenodd;"
d="M 152.8771,104.5536
152.8694,104.5925
152.8473,104.6254
152.8144,104.6475
152.7755,104.6552
152.3755,104.6552
152.3366,104.6475
152.3037,104.6254
152.2816,104.5925
152.2739,104.5536
152.2739,103.8036
152.2816,103.7647
152.3037,103.7318
152.3366,103.7097
152.3755,103.7020
152.7755,103.7020
152.8144,103.7097
152.8473,103.7318
152.8694,103.7647
152.8771,103.8036
Z" /> 
<path style="fill:#02FFEE; fill-opacity:0.4000; 
stroke:#02FFEE; stroke-width:0.0000; stroke-opacity:1; 
stroke-linecap:round; stroke-linejoin:round;fill-rule:evenodd;"
d="M 154.1771,104.5536
154.1694,104.5925
154.1473,104.6254
154.1144,104.6475
154.0755,104.6552
153.6755,104.6552
153.6366,104.6475
153.6037,104.6254
153.5816,104.5925
153.5739,104.5536
153.5739,103.8036
153.5816,103.7647
153.6037,103.7318
153.6366,103.7097
153.6755,103.7020
154.0755,103.7020
154.1144,103.7097
154.1473,103.7318
154.1694,103.7647
154.1771,103.8036
Z" /> 
</g>
<g >
</g>
<g style="fill:#02FFEE; fill-opacity:0.4000; 
stroke:#02FFEE; stroke-width:0.0000; stroke-opacity:1; 
stroke-linecap:round; stroke-linejoin:round;">
<path style="fill:#02FFEE; fill-opacity:0.4000; 
stroke:#02FFEE; stroke-width:0.0000; stroke-opacity:1; 
stroke-linecap:round; stroke-linejoin:round;fill-rule:evenodd;"
d="M 144.9121,99.2708
144.8916,99.4003
144.8320,99.5172
144.7393,99.6099
144.6225,99.6694
144.4930,99.6899
144.3635,99.6694
144.2466,99.6099
144.1539,99.5172
144.0944,99.4003
144.0739,99.2708
144.0944,99.1413
144.1539,99.0245
144.2466,98.9318
144.3635,98.8722
144.4930,98.8517
144.6225,98.8722
144.7393,98.9318
144.8320,99.0245
144.8916,99.1413
144.9121,99.2708
Z" /> 
</g>
<g >
</g>
<g style="fill:#02FFEE; fill-opacity:0.4000; 
stroke:#02FFEE; stroke-width:0.0000; stroke-opacity:1; 
stroke-linecap:round; stroke-linejoin:round;">
<path style="fill:#02FFEE; fill-opacity:0.4000; 
stroke:#02FFEE; stroke-width:0.0000; stroke-opacity:1; 
stroke-linecap:round; stroke-linejoin:round;fill-rule:evenodd;"
d="M 146.2673,103.0805
146.3062,103.0882
146.3391,103.1102
146.3612,103.1432
146.3689,103.1821
146.3689,103.9321
146.3612,103.9709
146.3391,104.0039
146.3062,104.0259
146.2673,104.0337
145.9173,104.0337
145.8784,104.0259
145.8454,104.0039
145.8234,103.9709
145.8157,103.9321
145.8157,103.1821
145.8234,103.1432
145.8454,103.1102
145.8784,103.0882
145.9173,103.0805
Z" /> 
<path style="fill:#02FFEE; fill-opacity:0.4000; 
stroke:#02FFEE; stroke-width:0.0000; stroke-opacity:1; 
stroke-linecap:round; stroke-linejoin:round;fill-rule:evenodd;"
d="M 147.0673,103.0805
147.1062,103.0882
147.1391,103.1102
147.1612,103.1432
147.1689,103.1821
147.1689,103.9321
147.1612,103.9709
147.1391,104.0039
147.1062,104.0259
147.0673,104.0337
146.7173,104.0337
146.6784,104.0259
146.6454,104.0039
146.6234,103.9709
146.6157,103.9321
146.6157,103.1821
146.6234,103.1432
146.6454,103.1102
146.6784,103.0882
146.7173,103.0805
Z" /> 
<path style="fill:#02FFEE; fill-opacity:0.4000; 
stroke:#02FFEE; stroke-width:0.0000; stroke-opacity:1; 
stroke-linecap:round; stroke-linejoin:round;fill-rule:evenodd;"
d="M 147.8673,103.0805
147.9062,103.0882
147.9391,103.1102
147.9612,103.1432
147.9689,103.1821
147.9689,103.9321
147.9612,103.9709
147.9391,104.0039
147.9062,104.0259
147.8673,104.0337
147.5173,104.0337
147.4784,104.0259
147.4454,104.0039
147.4234,103.9709
147.4157,103.9321
147.4157,103.1821
147.4234,103.1432
147.4454,103.1102
147.4784,103.0882
147.5173,103.0805
Z" /> 
<path style="fill:#02FFEE; fill-opacity:0.4000; 
stroke:#02FFEE; stroke-width:0.0000; stroke-opacity:1; 
stroke-linecap:round; stroke-linejoin:round;fill-rule:evenodd;"
d="M 148.6673,103.0805
148.7062,103.0882
148.7391,103.1102
148.7612,103.1432
148.7689,103.1821
148.7689,103.9321
148.7612,103.9709
148.7391,104.0039
148.7062,104.0259
148.6673,104.0337
148.3173,104.0337
148.2784,104.0259
148.2454,104.0039
148.2234,103.9709
148.2157,103.9321
148.2157,103.1821
148.2234,103.1432
148.2454,103.1102
148.2784,103.0882
148.3173,103.0805
Z" /> 
<path style="fill:#02FFEE; fill-opacity:0.4000; 
stroke:#02FFEE; stroke-width:0.0000; stroke-opacity:1; 
stroke-linecap:round; stroke-linejoin:round;fill-rule:evenodd;"
d="M 149.4673,103.0805
149.5062,103.0882
149.5391,103.1102
149.5612,103.1432
149.5689,103.1821
149.5689,103.9321
149.5612,103.9709
149.5391,104.0039
149.5062,104.0259
149.4673,104.0337
149.1173,104.0337
149.0784,104.0259
149.0454,104.0039
149.0234,103.9709
149.0157,103.9321
149.0157,103.1821
149.0234,103.1432
149.0454,103.1102
149.0784,103.0882
149.1173,103.0805
Z" /> 
<path style="fill:#02FFEE; fill-opacity:0.4000; 
stroke:#02FFEE; stroke-width:0.0000; stroke-opacity:1; 
stroke-linecap:round; stroke-linejoin:round;fill-rule:evenodd;"
d="M 150.2673,103.0805
150.3062,103.0882
150.3391,103.1102
150.3612,103.1432
150.3689,103.1821
150.3689,103.9321
150.3612,103.9709
150.3391,104.0039
150.3062,104.0259
150.2673,104.0337
149.9173,104.0337
149.8784,104.0259
149.8454,104.0039
149.8234,103.9709
149.8157,103.9321
149.8157,103.1821
149.8234,103.1432
149.8454,103.1102
149.8784,103.0882
149.9173,103.0805
Z" /> 
<path style="fill:#02FFEE; fill-opacity:0.4000; 
stroke:#02FFEE; stroke-width:0.0000; stroke-opacity:1; 
stroke-linecap:round; stroke-linejoin:round;fill-rule:evenodd;"
d="M 151.0673,103.0805
151.1062,103.0882
151.1391,103.1102
151.1612,103.1432
151.1689,103.1821
151.1689,103.9321
151.1612,103.9709
151.1391,104.0039
151.1062,104.0259
151.0673,104.0337
150.7173,104.0337
150.6784,104.0259
150.6454,104.0039
150.6234,103.9709
150.6157,103.9321
150.6157,103.1821
150.6234,103.1432
150.6454,103.1102
150.6784,103.0882
150.7173,103.0805
Z" /> 
<path style="fill:#02FFEE; fill-opacity:0.4000; 
stroke:#02FFEE; stroke-width:0.0000; stroke-opacity:1; 
stroke-linecap:round; stroke-linejoin:round;fill-rule:evenodd;"
d="M 151.0673,105.4805
151.1062,105.4882
151.1391,105.5102
151.1612,105.5432
151.1689,105.5821
151.1689,106.3321
151.1612,106.3709
151.1391,106.4039
151.1062,106.4259
151.0673,106.4337
150.7173,106.4337
150.6784,106.4259
150.6454,106.4039
150.6234,106.3709
150.6157,106.3321
150.6157,105.5821
150.6234,105.5432
150.6454,105.5102
150.6784,105.4882
150.7173,105.4805
Z" /> 
<path style="fill:#02FFEE; fill-opacity:0.4000; 
stroke:#02FFEE; stroke-width:0.0000; stroke-opacity:1; 
stroke-linecap:round; stroke-linejoin:round;fill-rule:evenodd;"
d="M 150.2673,105.4805
150.3062,105.4882
150.3391,105.5102
150.3612,105.5432
150.3689,105.5821
150.3689,106.3321
150.3612,106.3709
150.3391,106.4039
150.3062,106.4259
150.2673,106.4337
149.9173,106.4337
149.8784,106.4259
149.8454,106.4039
149.8234,106.3709
149.8157,106.3321
149.8157,105.5821
149.8234,105.5432
149.8454,105.5102
149.8784,105.4882
149.9173,105.4805
Z" /> 
<path style="fill:#02FFEE; fill-opacity:0.4000; 
stroke:#02FFEE; stroke-width:0.0000; stroke-opacity:1; 
stroke-linecap:round; stroke-linejoin:round;fill-rule:evenodd;"
d="M 149.4673,105.4805
149.5062,105.4882
149.5391,105.5102
149.5612,105.5432
149.5689,105.5821
149.5689,106.3321
149.5612,106.3709
149.5391,106.4039
149.5062,106.4259
149.4673,106.4337
149.1173,106.4337
149.0784,106.4259
149.0454,106.4039
149.0234,106.3709
149.0157,106.3321
149.0157,105.5821
149.0234,105.5432
149.0454,105.5102
149.0784,105.4882
149.1173,105.4805
Z" /> 
<path style="fill:#02FFEE; fill-opacity:0.4000; 
stroke:#02FFEE; stroke-width:0.0000; stroke-opacity:1; 
stroke-linecap:round; stroke-linejoin:round;fill-rule:evenodd;"
d="M 148.6673,105.4805
148.7062,105.4882
148.7391,105.5102
148.7612,105.5432
148.7689,105.5821
148.7689,106.3321
148.7612,106.3709
148.7391,106.4039
148.7062,106.4259
148.6673,106.4337
148.3173,106.4337
148.2784,106.4259
148.2454,106.4039
148.2234,106.3709
148.2157,106.3321
148.2157,105.5821
148.2234,105.5432
148.2454,105.5102
148.2784,105.4882
148.3173,105.4805
Z" /> 
<path style="fill:#02FFEE; fill-opacity:0.4000; 
stroke:#02FFEE; stroke-width:0.0000; stroke-opacity:1; 
stroke-linecap:round; stroke-linejoin:round;fill-rule:evenodd;"
d="M 147.8673,105.4805
147.9062,105.4882
147.9391,105.5102
147.9612,105.5432
147.9689,105.5821
147.9689,106.3321
147.9612,106.3709
147.9391,106.4039
147.9062,106.4259
147.8673,106.4337
147.5173,106.4337
147.4784,106.4259
147.4454,106.4039
147.4234,106.3709
147.4157,106.3321
147.4157,105.5821
147.4234,105.5432
147.4454,105.5102
147.4784,105.4882
147.5173,105.4805
Z" /> 
<path style="fill:#02FFEE; fill-opacity:0.4000; 
stroke:#02FFEE; stroke-width:0.0000; stroke-opacity:1; 
stroke-linecap:round; stroke-linejoin:round;fill-rule:evenodd;"
d="M 147.0673,105.4805
147.1062,105.4882
147.1391,105.5102
147.1612,105.5432
147.1689,105.5821
147.1689,106.3321
147.1612,106.3709
147.1391,106.4039
147.1062,106.4259
147.0673,106.4337
146.7173,106.4337
146.6784,106.4259
146.6454,106.4039
146.6234,106.3709
146.6157,106.3321
146.6157,105.5821
146.6234,105.5432
146.6454,105.5102
146.6784,105.4882
146.7173,105.4805
Z" /> 
<path style="fill:#02FFEE; fill-opacity:0.4000; 
stroke:#02FFEE; stroke-width:0.0000; stroke-opacity:1; 
stroke-linecap:round; stroke-linejoin:round;fill-rule:evenodd;"
d="M 146.2673,105.4805
146.3062,105.4882
146.3391,105.5102
146.3612,105.5432
146.3689,105.5821
146.3689,106.3321
146.3612,106.3709
146.3391,106.4039
146.3062,106.4259
146.2673,106.4337
145.9173,106.4337
145.8784,106.4259
145.8454,106.4039
145.8234,106.3709
145.8157,106.3321
145.8157,105.5821
145.8234,105.5432
145.8454,105.5102
145.8784,105.4882
145.9173,105.4805
Z" /> 
</g>
<g >
</g>
<g style="fill:#02FFEE; fill-opacity:0.4000; 
stroke:#02FFEE; stroke-width:0.0000; stroke-opacity:1; 
stroke-linecap:round; stroke-linejoin:round;">
<path style="fill:#02FFEE; fill-opacity:0.4000; 
stroke:#02FFEE; stroke-width:0.0000; stroke-opacity:1; 
stroke-linecap:round; stroke-linejoin:round;fill-rule:evenodd;"
d="M 148.3867,107.8436
148.3790,107.8825
148.3569,107.9154
148.3240,107.9375
148.2851,107.9452
147.6851,107.9452
147.6462,107.9375
147.6133,107.9154
147.5912,107.8825
147.5835,107.8436
147.5835,107.2436
147.5912,107.2047
147.6133,107.1718
147.6462,107.1497
147.6851,107.1420
148.2851,107.1420
148.3240,107.1497
148.3569,107.1718
148.3790,107.2047
148.3867,107.2436
Z" /> 
<path style="fill:#02FFEE; fill-opacity:0.4000; 
stroke:#02FFEE; stroke-width:0.0000; stroke-opacity:1; 
stroke-linecap:round; stroke-linejoin:round;fill-rule:evenodd;"
d="M 147.3867,107.8436
147.3790,107.8825
147.3569,107.9154
147.3240,107.9375
147.2851,107.9452
146.6851,107.9452
146.6462,107.9375
146.6133,107.9154
146.5912,107.8825
146.5835,107.8436
146.5835,107.2436
146.5912,107.2047
146.6133,107.1718
146.6462,107.1497
146.6851,107.1420
147.2851,107.1420
147.3240,107.1497
147.3569,107.1718
147.3790,107.2047
147.3867,107.2436
Z" /> 
</g>
<g >
</g>
<g >
</g>
<g style="fill:#02FFEE; fill-opacity:0.4000; 
stroke:#02FFEE; stroke-width:0.0000; stroke-opacity:1; 
stroke-linecap:round; stroke-linejoin:round;">
<path style="fill:#02FFEE; fill-opacity:0.4000; 
stroke:#02FFEE; stroke-width:0.0000; stroke-opacity:1; 
stroke-linecap:round; stroke-linejoin:round;fill-rule:evenodd;"
d="M 148.9223,107.0919
148.9300,107.0530
148.9520,107.0200
148.9850,106.9980
149.0239,106.9903
150.1239,106.9903
150.1628,106.9980
150.1957,107.0200
150.2177,107.0530
150.2255,107.0919
150.2255,108.0919
150.2177,108.1307
150.1957,108.1637
150.1628,108.1857
150.1239,108.1935
149.0239,108.1935
148.9850,108.1857
148.9520,108.1637
148.9300,108.1307
148.9223,108.0919
Z" /> 
<path style="fill:#02FFEE; fill-opacity:0.4000; 
stroke:#02FFEE; stroke-width:0.0000; stroke-opacity:1; 
stroke-linecap:round; stroke-linejoin:round;fill-rule:evenodd;"
d="M 150.6223,107.0919
150.6300,107.0530
150.6520,107.0200
150.6850,106.9980
150.7239,106.9903
151.8239,106.9903
151.8628,106.9980
151.8957,107.0200
151.9177,107.0530
151.9255,107.0919
151.9255,108.0919
151.9177,108.1307
151.8957,108.1637
151.8628,108.1857
151.8239,108.1935
150.7239,108.1935
150.6850,108.1857
150.6520,108.1637
150.6300,108.1307
150.6223,108.0919
Z" /> 
</g>
<g >
</g>
<g style="fill:#02FFEE; fill-opacity:0.4000; 
stroke:#02FFEE; stroke-width:0.0000; stroke-opacity:1; 
stroke-linecap:round; stroke-linejoin:round;">
<path style="fill:#02FFEE; fill-opacity:0.4000; 
stroke:#02FFEE; stroke-width:0.0000; stroke-opacity:1; 
stroke-linecap:round; stroke-linejoin:round;fill-rule:evenodd;"
d="M 147.9707,101.9476
147.9630,101.9865
147.9409,102.0194
147.9080,102.0415
147.8691,102.0492
146.7691,102.0492
146.7302,102.0415
146.6973,102.0194
146.6752,101.9865
146.6675,101.9476
146.6675,100.9476
146.6752,100.9087
146.6973,100.8758
146.7302,100.8537
146.7691,100.8460
147.8691,100.8460
147.9080,100.8537
147.9409,100.8758
147.9630,100.9087
147.9707,100.9476
Z" /> 
<path style="fill:#02FFEE; fill-opacity:0.4000; 
stroke:#02FFEE; stroke-width:0.0000; stroke-opacity:1; 
stroke-linecap:round; stroke-linejoin:round;fill-rule:evenodd;"
d="M 146.2707,101.9476
146.2630,101.9865
146.2409,102.0194
146.2080,102.0415
146.1691,102.0492
145.0691,102.0492
145.0302,102.0415
144.9973,102.0194
144.9752,101.9865
144.9675,101.9476
144.9675,100.9476
144.9752,100.9087
144.9973,100.8758
145.0302,100.8537
145.0691,100.8460
146.1691,100.8460
146.2080,100.8537
146.2409,100.8758
146.2630,100.9087
146.2707,100.9476
Z" /> 
</g>
<g >
</g>
<g >
</g>
<g >
</g>
<g style="fill:#02FFEE; fill-opacity:0.4000; 
stroke:#02FFEE; stroke-width:0.0000; stroke-opacity:1; 
stroke-linecap:round; stroke-linejoin:round;">
<path style="fill:#02FFEE; fill-opacity:0.4000; 
stroke:#02FFEE; stroke-width:0.0000; stroke-opacity:1; 
stroke-linecap:round; stroke-linejoin:round;fill-rule:evenodd;"
d="M 159.1183,105.1306
159.1106,105.1695
159.0885,105.2024
159.0556,105.2245
159.0167,105.2322
158.3563,105.2322
158.3174,105.2245
158.2845,105.2024
158.2624,105.1695
158.2547,105.1306
158.2547,103.8606
158.2624,103.8217
158.2845,103.7888
158.3174,103.7667
158.3563,103.7590
159.0167,103.7590
159.0556,103.7667
159.0885,103.7888
159.1106,103.8217
159.1183,103.8606
Z" /> 
<path style="fill:#02FFEE; fill-opacity:0.4000; 
stroke:#02FFEE; stroke-width:0.0000; stroke-opacity:1; 
stroke-linecap:round; stroke-linejoin:round;fill-rule:evenodd;"
d="M 158.0769,105.1306
158.0692,105.1695
158.0471,105.2024
158.0142,105.2245
157.9753,105.2322
157.3149,105.2322
157.2760,105.2245
157.2431,105.2024
157.2210,105.1695
157.2133,105.1306
157.2133,103.8606
157.2210,103.8217
157.2431,103.7888
157.2760,103.7667
157.3149,103.7590
157.9753,103.7590
158.0142,103.7667
158.0471,103.7888
158.0692,103.8217
158.0769,103.8606
Z" /> 
<path style="fill:#02FFEE; fill-opacity:0.4000; 
stroke:#02FFEE; stroke-width:0.0000; stroke-opacity:1; 
stroke-linecap:round; stroke-linejoin:round;fill-rule:evenodd;"
d="M 157.0355,105.1306
157.0278,105.1695
157.0057,105.2024
156.9728,105.2245
156.9339,105.2322
156.2735,105.2322
156.2346,105.2245
156.2017,105.2024
156.1796,105.1695
156.1719,105.1306
156.1719,103.8606
156.1796,103.8217
156.2017,103.7888
156.2346,103.7667
156.2735,103.7590
156.9339,103.7590
156.9728,103.7667
157.0057,103.7888
157.0278,103.8217
157.0355,103.8606
Z" /> 
</g>
<g >
</g>
<g style="fill:#02FFEE; fill-opacity:0.4000; 
stroke:#02FFEE; stroke-width:0.0000; stroke-opacity:1; 
stroke-linecap:round; stroke-linejoin:round;">
<path style="fill:#02FFEE; fill-opacity:0.4000; 
stroke:#02FFEE; stroke-width:0.0000; stroke-opacity:1; 
stroke-linecap:round; stroke-linejoin:round;fill-rule:evenodd;"
d="M 160.8582,110.5916
160.8377,110.7211
160.7782,110.8379
160.6854,110.9307
160.5686,110.9902
160.4391,111.0107
160.3096,110.9902
160.1928,110.9307
160.1000,110.8379
160.0405,110.7211
160.0200,110.5916
160.0405,110.4621
160.1000,110.3453
160.1928,110.2525
160.3096,110.1930
160.4391,110.1725
160.5686,110.1930
160.6854,110.2525
160.7782,110.3453
160.8377,110.4621
160.8582,110.5916
Z" /> 
</g>
<g >
</g>
<g style="fill:#02FFEE; fill-opacity:0.4000; 
stroke:#02FFEE; stroke-width:0.0000; stroke-opacity:1; 
stroke-linecap:round; stroke-linejoin:round;">
<path style="fill:#02FFEE; fill-opacity:0.4000; 
stroke:#02FFEE; stroke-width:0.0000; stroke-opacity:1; 
stroke-linecap:round; stroke-linejoin:round;fill-rule:evenodd;"
d="M 154.8287,103.2176
154.8210,103.2565
154.7989,103.2894
154.7660,103.3115
154.7271,103.3192
153.6271,103.3192
153.5882,103.3115
153.5553,103.2894
153.5332,103.2565
153.5255,103.2176
153.5255,102.2176
153.5332,102.1787
153.5553,102.1458
153.5882,102.1237
153.6271,102.1160
154.7271,102.1160
154.7660,102.1237
154.7989,102.1458
154.8210,102.1787
154.8287,102.2176
Z" /> 
<path style="fill:#02FFEE; fill-opacity:0.4000; 
stroke:#02FFEE; stroke-width:0.0000; stroke-opacity:1; 
stroke-linecap:round; stroke-linejoin:round;fill-rule:evenodd;"
d="M 153.1287,103.2176
153.1210,103.2565
153.0989,103.2894
153.0660,103.3115
153.0271,103.3192
151.9271,103.3192
151.8882,103.3115
151.8553,103.2894
151.8332,103.2565
151.8255,103.2176
151.8255,102.2176
151.8332,102.1787
151.8553,102.1458
151.8882,102.1237
151.9271,102.1160
153.0271,102.1160
153.0660,102.1237
153.0989,102.1458
153.1210,102.1787
153.1287,102.2176
Z" /> 
</g>
<g >
</g>
<g >
</g>
<g style="fill:#02FFEE; fill-opacity:0.4000; 
stroke:#02FFEE; stroke-width:0.0000; stroke-opacity:1; 
stroke-linecap:round; stroke-linejoin:round;">
<path style="fill:#02FFEE; fill-opacity:0.4000; 
stroke:#02FFEE; stroke-width:0.0000; stroke-opacity:1; 
stroke-linecap:round; stroke-linejoin:round;fill-rule:evenodd;"
d="M 152.5427,100.4236
152.5350,100.4625
152.5129,100.4954
152.4800,100.5175
152.4411,100.5252
151.3411,100.5252
151.3022,100.5175
151.2693,100.4954
151.2472,100.4625
151.2395,100.4236
151.2395,99.4236
151.2472,99.3847
151.2693,99.3518
151.3022,99.3297
151.3411,99.3220
152.4411,99.3220
152.4800,99.3297
152.5129,99.3518
152.5350,99.3847
152.5427,99.4236
Z" /> 
<path style="fill:#02FFEE; fill-opacity:0.4000; 
stroke:#02FFEE; stroke-width:0.0000; stroke-opacity:1; 
stroke-linecap:round; stroke-linejoin:round;fill-rule:evenodd;"
d="M 150.8427,100.4236
150.8350,100.4625
150.8129,100.4954
150.7800,100.5175
150.7411,100.5252
149.6411,100.5252
149.6022,100.5175
149.5693,100.4954
149.5472,100.4625
149.5395,100.4236
149.5395,99.4236
149.5472,99.3847
149.5693,99.3518
149.6022,99.3297
149.6411,99.3220
150.7411,99.3220
150.7800,99.3297
150.8129,99.3518
150.8350,99.3847
150.8427,99.4236
Z" /> 
</g>
<g >
</g>
<g >
</g>
<g >
</g>
<g style="fill:#02FFEE; fill-opacity:0.4000; 
stroke:#02FFEE; stroke-width:0.0000; stroke-opacity:1; 
stroke-linecap:round; stroke-linejoin:round;">
<path style="fill:#02FFEE; fill-opacity:0.4000; 
stroke:#02FFEE; stroke-width:0.0000; stroke-opacity:1; 
stroke-linecap:round; stroke-linejoin:round;fill-rule:evenodd;"
d="M 156.3577,108.7912
156.3188,108.7835
156.2859,108.7614
156.2638,108.7285
156.2561,108.6896
156.2561,107.5896
156.2638,107.5507
156.2859,107.5178
156.3188,107.4957
156.3577,107.4880
157.3577,107.4880
157.3966,107.4957
157.4295,107.5178
157.4516,107.5507
157.4593,107.5896
157.4593,108.6896
157.4516,108.7285
157.4295,108.7614
157.3966,108.7835
157.3577,108.7912
Z" /> 
<path style="fill:#02FFEE; fill-opacity:0.4000; 
stroke:#02FFEE; stroke-width:0.0000; stroke-opacity:1; 
stroke-linecap:round; stroke-linejoin:round;fill-rule:evenodd;"
d="M 156.3577,107.0912
156.3188,107.0835
156.2859,107.0614
156.2638,107.0285
156.2561,106.9896
156.2561,105.8896
156.2638,105.8507
156.2859,105.8178
156.3188,105.7957
156.3577,105.7880
157.3577,105.7880
157.3966,105.7957
157.4295,105.8178
157.4516,105.8507
157.4593,105.8896
157.4593,106.9896
157.4516,107.0285
157.4295,107.0614
157.3966,107.0835
157.3577,107.0912
Z" /> 
</g>
<g >
</g>
<g >
</g>
<g >
</g>
<g style="fill:#02FFEE; fill-opacity:0.4000; 
stroke:#02FFEE; stroke-width:0.0000; stroke-opacity:1; 
stroke-linecap:round; stroke-linejoin:round;">
<path style="fill:#02FFEE; fill-opacity:0.4000; 
stroke:#02FFEE; stroke-width:0.0000; stroke-opacity:1; 
stroke-linecap:round; stroke-linejoin:round;fill-rule:evenodd;"
d="M 157.9833,108.7912
157.9444,108.7835
157.9115,108.7614
157.8894,108.7285
157.8817,108.6896
157.8817,107.5896
157.8894,107.5507
157.9115,107.5178
157.9444,107.4957
157.9833,107.4880
158.9833,107.4880
159.0222,107.4957
159.0551,107.5178
159.0772,107.5507
159.0849,107.5896
159.0849,108.6896
159.0772,108.7285
159.0551,108.7614
159.0222,108.7835
158.9833,108.7912
Z" /> 
<path style="fill:#02FFEE; fill-opacity:0.4000; 
stroke:#02FFEE; stroke-width:0.0000; stroke-opacity:1; 
stroke-linecap:round; stroke-linejoin:round;fill-rule:evenodd;"
d="M 157.9833,107.0912
157.9444,107.0835
157.9115,107.0614
157.8894,107.0285
157.8817,106.9896
157.8817,105.8896
157.8894,105.8507
157.9115,105.8178
157.9444,105.7957
157.9833,105.7880
158.9833,105.7880
159.0222,105.7957
159.0551,105.8178
159.0772,105.8507
159.0849,105.8896
159.0849,106.9896
159.0772,107.0285
159.0551,107.0614
159.0222,107.0835
158.9833,107.0912
Z" /> 
</g>
<g >
</g>
<g >
</g>
<g >
</g>
<g >
</g>
<g style="fill:#02FFEE; fill-opacity:0.4000; 
stroke:#02FFEE; stroke-width:0.0000; stroke-opacity:1; 
stroke-linecap:round; stroke-linejoin:round;">
<path style="fill:#02FFEE; fill-opacity:0.4000; 
stroke:#02FFEE; stroke-width:0.0000; stroke-opacity:1; 
stroke-linecap:round; stroke-linejoin:round;fill-rule:evenodd;"
d="M 147.9707,100.4236
147.9630,100.4625
147.9409,100.4954
147.9080,100.5175
147.8691,100.5252
146.7691,100.5252
146.7302,100.5175
146.6973,100.4954
146.6752,100.4625
146.6675,100.4236
146.6675,99.4236
146.6752,99.3847
146.6973,99.3518
146.7302,99.3297
146.7691,99.3220
147.8691,99.3220
147.9080,99.3297
147.9409,99.3518
147.9630,99.3847
147.9707,99.4236
Z" /> 
<path style="fill:#02FFEE; fill-opacity:0.4000; 
stroke:#02FFEE; stroke-width:0.0000; stroke-opacity:1; 
stroke-linecap:round; stroke-linejoin:round;fill-rule:evenodd;"
d="M 146.2707,100.4236
146.2630,100.4625
146.2409,100.4954
146.2080,100.5175
146.1691,100.5252
145.0691,100.5252
145.0302,100.5175
144.9973,100.4954
144.9752,100.4625
144.9675,100.4236
144.9675,99.4236
144.9752,99.3847
144.9973,99.3518
145.0302,99.3297
145.0691,99.3220
146.1691,99.3220
146.2080,99.3297
146.2409,99.3518
146.2630,99.3847
146.2707,99.4236
Z" /> 
</g>
<g >
</g>
<g >
</g>
<g >
</g>
</g>
<g style="fill:#000000; fill-opacity:1.0000; 
stroke:#000000; stroke-width:0.0000; stroke-opacity:1; 
stroke-linecap:round; stroke-linejoin:round;">
</g>
<g style="fill:#D0D2CD; fill-opacity:1.0000; 
stroke:#D0D2CD; stroke-width:0.0000; stroke-opacity:1; 
stroke-linecap:round; stroke-linejoin:round;">
</g>
<g style="fill:#D0D2CD; fill-opacity:1.0000; 
stroke:#D0D2CD; stroke-width:0.2032; stroke-opacity:1; 
stroke-linecap:round; stroke-linejoin:round;">
</g>
<g style="fill:#D0D2CD; fill-opacity:0.0; 
stroke:#D0D2CD; stroke-width:0.2032; stroke-opacity:1; 
stroke-linecap:round; stroke-linejoin:round;">
<path d="M161.2011 98.6536
L161.2011 111.3536
" />
<path d="M135.8011 98.6536
L161.2011 98.6536
" />
<path d="M161.2011 111.3536
L135.8011 111.3536
" />
<path d="M135.8011 111.3536
L135.8011 98.6536
" />
<g >
</g>
<g >
</g>
<g >
</g>
<g >
</g>
<g >
</g>
<g >
</g>
<g >
</g>
<g >
</g>
<g >
</g>
<g >
</g>
<g >
</g>
<g >
</g>
<g >
</g>
<g >
</g>
<g >
</g>
<g >
</g>
<g >
</g>
<g >
</g>
<g >
</g>
<g >
</g>
<g >
</g>
<g >
</g>
<g >
</g>
<g >
</g>
<g >
</g>
<g >
</g>
<g >
</g>
<g >
</g>
<g >
</g>
<g >
</g>
<g >
</g>
<g >
</g>
<g >
</g>
<g >
</g>
<g >
</g>
<g >
</g>
<g >
</g>
<g >
</g>
<g >
</g>
<g >
</g>
<g >
</g>
<g >
</g>
<g >
</g>
<g >
</g>
<g >
</g>
<g >
</g>
<g >
</g>
<g >
</g>
<g >
</g>
<g >
</g>
<g >
</g>
<g >
</g>
<g >
</g>
</g> 
</svg>
