<?xml version="1.0" standalone="no"?>
 <!DOCTYPE svg PUBLIC "-//W3C//DTD SVG 1.1//EN" 
 "http://www.w3.org/Graphics/SVG/1.1/DTD/svg11.dtd"> 
<svg
  xmlns:svg="http://www.w3.org/2000/svg"
  xmlns="http://www.w3.org/2000/svg"
  xmlns:xlink="http://www.w3.org/1999/xlink"
  version="1.1"
  width="297.0022mm" height="210.0072mm" viewBox="0.0000 0.0000 297.0022 210.0072">
<title>SVG Image created as working-F_Silkscreen.svg date 2023/07/24 15:17:31 </title>
  <desc>Image generated by PCBNEW </desc>
<g style="fill:#000000; fill-opacity:1.0000;stroke:#000000; stroke-opacity:1.0000;
stroke-linecap:round; stroke-linejoin:round;"
 transform="translate(0 0) scale(1 1)">
</g>
<g style="fill:#000000; fill-opacity:0.0; 
stroke:#000000; stroke-width:0.0000; stroke-opacity:1; 
stroke-linecap:round; stroke-linejoin:round;">
</g>
<g style="fill:#000000; fill-opacity:0.0; 
stroke:#000000; stroke-width:0.0212; stroke-opacity:1; 
stroke-linecap:round; stroke-linejoin:round;">
</g>
<g style="fill:#000000; fill-opacity:0.0; 
stroke:#000000; stroke-width:0.1500; stroke-opacity:1; 
stroke-linecap:round; stroke-linejoin:round;">
<path d="M177.0022 166.0072
L285.0022 166.0072
L285.0022 198.0072
L177.0022 198.0072
L177.0022 166.0072
" />
</g>
<g style="fill:#000000; fill-opacity:0.0; 
stroke:#000000; stroke-width:0.0212; stroke-opacity:1; 
stroke-linecap:round; stroke-linejoin:round;">
</g>
<g style="fill:#000000; fill-opacity:0.0; 
stroke:#000000; stroke-width:0.1500; stroke-opacity:1; 
stroke-linecap:round; stroke-linejoin:round;">
<path d="M10.0000 10.0000
L287.0022 10.0000
L287.0022 200.0072
L10.0000 200.0072
L10.0000 10.0000
" />
</g>
<g style="fill:#000000; fill-opacity:0.0; 
stroke:#000000; stroke-width:0.0212; stroke-opacity:1; 
stroke-linecap:round; stroke-linejoin:round;">
</g>
<g style="fill:#000000; fill-opacity:0.0; 
stroke:#000000; stroke-width:0.1500; stroke-opacity:1; 
stroke-linecap:round; stroke-linejoin:round;">
<path d="M12.0000 12.0000
L285.0022 12.0000
L285.0022 198.0072
L12.0000 198.0072
L12.0000 12.0000
" />
</g>
<g style="fill:#000000; fill-opacity:0.0; 
stroke:#000000; stroke-width:0.0212; stroke-opacity:1; 
stroke-linecap:round; stroke-linejoin:round;">
</g>
<g style="fill:#000000; fill-opacity:0.0; 
stroke:#000000; stroke-width:0.1500; stroke-opacity:1; 
stroke-linecap:round; stroke-linejoin:round;">
<path d="M60.0000 12.0000
L60.0000 10.0000
" />
</g>
<g style="fill:#000000; fill-opacity:0.0; 
stroke:#000000; stroke-width:0.0212; stroke-opacity:1; 
stroke-linecap:round; stroke-linejoin:round;">
</g>
<g style="fill:#000000; fill-opacity:0.0; 
stroke:#000000; stroke-width:0.1500; stroke-opacity:1; 
stroke-linecap:round; stroke-linejoin:round;">
<path d="M110.0000 12.0000
L110.0000 10.0000
" />
</g>
<g style="fill:#000000; fill-opacity:0.0; 
stroke:#000000; stroke-width:0.0212; stroke-opacity:1; 
stroke-linecap:round; stroke-linejoin:round;">
</g>
<g style="fill:#000000; fill-opacity:0.0; 
stroke:#000000; stroke-width:0.1500; stroke-opacity:1; 
stroke-linecap:round; stroke-linejoin:round;">
<path d="M160.0000 12.0000
L160.0000 10.0000
" />
</g>
<g style="fill:#000000; fill-opacity:0.0; 
stroke:#000000; stroke-width:0.0212; stroke-opacity:1; 
stroke-linecap:round; stroke-linejoin:round;">
</g>
<g style="fill:#000000; fill-opacity:0.0; 
stroke:#000000; stroke-width:0.1500; stroke-opacity:1; 
stroke-linecap:round; stroke-linejoin:round;">
<path d="M210.0000 12.0000
L210.0000 10.0000
" />
</g>
<g style="fill:#000000; fill-opacity:0.0; 
stroke:#000000; stroke-width:0.0212; stroke-opacity:1; 
stroke-linecap:round; stroke-linejoin:round;">
</g>
<g style="fill:#000000; fill-opacity:0.0; 
stroke:#000000; stroke-width:0.1500; stroke-opacity:1; 
stroke-linecap:round; stroke-linejoin:round;">
<path d="M260.0000 12.0000
L260.0000 10.0000
" />
</g>
<g style="fill:#000000; fill-opacity:0.0; 
stroke:#000000; stroke-width:0.0212; stroke-opacity:1; 
stroke-linecap:round; stroke-linejoin:round;">
</g>
<g style="fill:#000000; fill-opacity:0.0; 
stroke:#000000; stroke-width:0.1500; stroke-opacity:1; 
stroke-linecap:round; stroke-linejoin:round;">
<text x="35.0000" y="11.6500"
textLength="1.3531" font-size="1.7333" lengthAdjust="spacingAndGlyphs"
text-anchor="start" opacity="0">1</text>
<g class="stroked-text"><desc>1</desc>
<path d="M35.9905 11.6014
L35.2476 11.6014
" />
<path d="M35.6190 11.6014
L35.6190 10.3014
" />
<path d="M35.6190 10.3014
L35.4952 10.4871
" />
<path d="M35.4952 10.4871
L35.3714 10.6109
" />
<path d="M35.3714 10.6109
L35.2476 10.6728
" />
</g></g>
<g style="fill:#000000; fill-opacity:0.0; 
stroke:#000000; stroke-width:0.0212; stroke-opacity:1; 
stroke-linecap:round; stroke-linejoin:round;">
</g>
<g style="fill:#000000; fill-opacity:0.0; 
stroke:#000000; stroke-width:0.1500; stroke-opacity:1; 
stroke-linecap:round; stroke-linejoin:round;">
<text x="85.0000" y="11.6500"
textLength="1.3531" font-size="1.7333" lengthAdjust="spacingAndGlyphs"
text-anchor="start" opacity="0">2</text>
<g class="stroked-text"><desc>2</desc>
<path d="M85.2476 10.4252
L85.3095 10.3633
" />
<path d="M85.3095 10.3633
L85.4333 10.3014
" />
<path d="M85.4333 10.3014
L85.7429 10.3014
" />
<path d="M85.7429 10.3014
L85.8667 10.3633
" />
<path d="M85.8667 10.3633
L85.9286 10.4252
" />
<path d="M85.9286 10.4252
L85.9905 10.5490
" />
<path d="M85.9905 10.5490
L85.9905 10.6728
" />
<path d="M85.9905 10.6728
L85.9286 10.8585
" />
<path d="M85.9286 10.8585
L85.1857 11.6014
" />
<path d="M85.1857 11.6014
L85.9905 11.6014
" />
</g></g>
<g style="fill:#000000; fill-opacity:0.0; 
stroke:#000000; stroke-width:0.0212; stroke-opacity:1; 
stroke-linecap:round; stroke-linejoin:round;">
</g>
<g style="fill:#000000; fill-opacity:0.0; 
stroke:#000000; stroke-width:0.1500; stroke-opacity:1; 
stroke-linecap:round; stroke-linejoin:round;">
<text x="135.0000" y="11.6500"
textLength="1.3531" font-size="1.7333" lengthAdjust="spacingAndGlyphs"
text-anchor="start" opacity="0">3</text>
<g class="stroked-text"><desc>3</desc>
<path d="M135.1857 10.3014
L135.9905 10.3014
" />
<path d="M135.9905 10.3014
L135.5571 10.7966
" />
<path d="M135.5571 10.7966
L135.7429 10.7966
" />
<path d="M135.7429 10.7966
L135.8667 10.8585
" />
<path d="M135.8667 10.8585
L135.9286 10.9205
" />
<path d="M135.9286 10.9205
L135.9905 11.0443
" />
<path d="M135.9905 11.0443
L135.9905 11.3538
" />
<path d="M135.9905 11.3538
L135.9286 11.4776
" />
<path d="M135.9286 11.4776
L135.8667 11.5395
" />
<path d="M135.8667 11.5395
L135.7429 11.6014
" />
<path d="M135.7429 11.6014
L135.3714 11.6014
" />
<path d="M135.3714 11.6014
L135.2476 11.5395
" />
<path d="M135.2476 11.5395
L135.1857 11.4776
" />
</g></g>
<g style="fill:#000000; fill-opacity:0.0; 
stroke:#000000; stroke-width:0.0212; stroke-opacity:1; 
stroke-linecap:round; stroke-linejoin:round;">
</g>
<g style="fill:#000000; fill-opacity:0.0; 
stroke:#000000; stroke-width:0.1500; stroke-opacity:1; 
stroke-linecap:round; stroke-linejoin:round;">
<text x="185.0000" y="11.6500"
textLength="1.3531" font-size="1.7333" lengthAdjust="spacingAndGlyphs"
text-anchor="start" opacity="0">4</text>
<g class="stroked-text"><desc>4</desc>
<path d="M185.8667 10.7347
L185.8667 11.6014
" />
<path d="M185.5571 10.2395
L185.2476 11.1681
" />
<path d="M185.2476 11.1681
L186.0524 11.1681
" />
</g></g>
<g style="fill:#000000; fill-opacity:0.0; 
stroke:#000000; stroke-width:0.0212; stroke-opacity:1; 
stroke-linecap:round; stroke-linejoin:round;">
</g>
<g style="fill:#000000; fill-opacity:0.0; 
stroke:#000000; stroke-width:0.1500; stroke-opacity:1; 
stroke-linecap:round; stroke-linejoin:round;">
<text x="235.0000" y="11.6500"
textLength="1.3531" font-size="1.7333" lengthAdjust="spacingAndGlyphs"
text-anchor="start" opacity="0">5</text>
<g class="stroked-text"><desc>5</desc>
<path d="M235.9286 10.3014
L235.3095 10.3014
" />
<path d="M235.3095 10.3014
L235.2476 10.9205
" />
<path d="M235.2476 10.9205
L235.3095 10.8585
" />
<path d="M235.3095 10.8585
L235.4333 10.7966
" />
<path d="M235.4333 10.7966
L235.7429 10.7966
" />
<path d="M235.7429 10.7966
L235.8667 10.8585
" />
<path d="M235.8667 10.8585
L235.9286 10.9205
" />
<path d="M235.9286 10.9205
L235.9905 11.0443
" />
<path d="M235.9905 11.0443
L235.9905 11.3538
" />
<path d="M235.9905 11.3538
L235.9286 11.4776
" />
<path d="M235.9286 11.4776
L235.8667 11.5395
" />
<path d="M235.8667 11.5395
L235.7429 11.6014
" />
<path d="M235.7429 11.6014
L235.4333 11.6014
" />
<path d="M235.4333 11.6014
L235.3095 11.5395
" />
<path d="M235.3095 11.5395
L235.2476 11.4776
" />
</g></g>
<g style="fill:#000000; fill-opacity:0.0; 
stroke:#000000; stroke-width:0.0212; stroke-opacity:1; 
stroke-linecap:round; stroke-linejoin:round;">
</g>
<g style="fill:#000000; fill-opacity:0.0; 
stroke:#000000; stroke-width:0.1500; stroke-opacity:1; 
stroke-linecap:round; stroke-linejoin:round;">
<text x="285.0000" y="11.6500"
textLength="1.3531" font-size="1.7333" lengthAdjust="spacingAndGlyphs"
text-anchor="start" opacity="0">6</text>
<g class="stroked-text"><desc>6</desc>
<path d="M285.8667 10.3014
L285.6190 10.3014
" />
<path d="M285.6190 10.3014
L285.4952 10.3633
" />
<path d="M285.4952 10.3633
L285.4333 10.4252
" />
<path d="M285.4333 10.4252
L285.3095 10.6109
" />
<path d="M285.3095 10.6109
L285.2476 10.8585
" />
<path d="M285.2476 10.8585
L285.2476 11.3538
" />
<path d="M285.2476 11.3538
L285.3095 11.4776
" />
<path d="M285.3095 11.4776
L285.3714 11.5395
" />
<path d="M285.3714 11.5395
L285.4952 11.6014
" />
<path d="M285.4952 11.6014
L285.7429 11.6014
" />
<path d="M285.7429 11.6014
L285.8667 11.5395
" />
<path d="M285.8667 11.5395
L285.9286 11.4776
" />
<path d="M285.9286 11.4776
L285.9905 11.3538
" />
<path d="M285.9905 11.3538
L285.9905 11.0443
" />
<path d="M285.9905 11.0443
L285.9286 10.9205
" />
<path d="M285.9286 10.9205
L285.8667 10.8585
" />
<path d="M285.8667 10.8585
L285.7429 10.7966
" />
<path d="M285.7429 10.7966
L285.4952 10.7966
" />
<path d="M285.4952 10.7966
L285.3714 10.8585
" />
<path d="M285.3714 10.8585
L285.3095 10.9205
" />
<path d="M285.3095 10.9205
L285.2476 11.0443
" />
</g></g>
<g style="fill:#000000; fill-opacity:0.0; 
stroke:#000000; stroke-width:0.0212; stroke-opacity:1; 
stroke-linecap:round; stroke-linejoin:round;">
</g>
<g style="fill:#000000; fill-opacity:0.0; 
stroke:#000000; stroke-width:0.1500; stroke-opacity:1; 
stroke-linecap:round; stroke-linejoin:round;">
<path d="M60.0000 198.0072
L60.0000 200.0072
" />
</g>
<g style="fill:#000000; fill-opacity:0.0; 
stroke:#000000; stroke-width:0.0212; stroke-opacity:1; 
stroke-linecap:round; stroke-linejoin:round;">
</g>
<g style="fill:#000000; fill-opacity:0.0; 
stroke:#000000; stroke-width:0.1500; stroke-opacity:1; 
stroke-linecap:round; stroke-linejoin:round;">
<path d="M110.0000 198.0072
L110.0000 200.0072
" />
</g>
<g style="fill:#000000; fill-opacity:0.0; 
stroke:#000000; stroke-width:0.0212; stroke-opacity:1; 
stroke-linecap:round; stroke-linejoin:round;">
</g>
<g style="fill:#000000; fill-opacity:0.0; 
stroke:#000000; stroke-width:0.1500; stroke-opacity:1; 
stroke-linecap:round; stroke-linejoin:round;">
<path d="M160.0000 198.0072
L160.0000 200.0072
" />
</g>
<g style="fill:#000000; fill-opacity:0.0; 
stroke:#000000; stroke-width:0.0212; stroke-opacity:1; 
stroke-linecap:round; stroke-linejoin:round;">
</g>
<g style="fill:#000000; fill-opacity:0.0; 
stroke:#000000; stroke-width:0.1500; stroke-opacity:1; 
stroke-linecap:round; stroke-linejoin:round;">
<path d="M210.0000 198.0072
L210.0000 200.0072
" />
</g>
<g style="fill:#000000; fill-opacity:0.0; 
stroke:#000000; stroke-width:0.0212; stroke-opacity:1; 
stroke-linecap:round; stroke-linejoin:round;">
</g>
<g style="fill:#000000; fill-opacity:0.0; 
stroke:#000000; stroke-width:0.1500; stroke-opacity:1; 
stroke-linecap:round; stroke-linejoin:round;">
<path d="M260.0000 198.0072
L260.0000 200.0072
" />
</g>
<g style="fill:#000000; fill-opacity:0.0; 
stroke:#000000; stroke-width:0.0212; stroke-opacity:1; 
stroke-linecap:round; stroke-linejoin:round;">
</g>
<g style="fill:#000000; fill-opacity:0.0; 
stroke:#000000; stroke-width:0.1500; stroke-opacity:1; 
stroke-linecap:round; stroke-linejoin:round;">
<text x="35.0000" y="199.6572"
textLength="1.3531" font-size="1.7333" lengthAdjust="spacingAndGlyphs"
text-anchor="start" opacity="0">1</text>
<g class="stroked-text"><desc>1</desc>
<path d="M35.9905 199.6086
L35.2476 199.6086
" />
<path d="M35.6190 199.6086
L35.6190 198.3086
" />
<path d="M35.6190 198.3086
L35.4952 198.4943
" />
<path d="M35.4952 198.4943
L35.3714 198.6181
" />
<path d="M35.3714 198.6181
L35.2476 198.6800
" />
</g></g>
<g style="fill:#000000; fill-opacity:0.0; 
stroke:#000000; stroke-width:0.0212; stroke-opacity:1; 
stroke-linecap:round; stroke-linejoin:round;">
</g>
<g style="fill:#000000; fill-opacity:0.0; 
stroke:#000000; stroke-width:0.1500; stroke-opacity:1; 
stroke-linecap:round; stroke-linejoin:round;">
<text x="85.0000" y="199.6572"
textLength="1.3531" font-size="1.7333" lengthAdjust="spacingAndGlyphs"
text-anchor="start" opacity="0">2</text>
<g class="stroked-text"><desc>2</desc>
<path d="M85.2476 198.4324
L85.3095 198.3705
" />
<path d="M85.3095 198.3705
L85.4333 198.3086
" />
<path d="M85.4333 198.3086
L85.7429 198.3086
" />
<path d="M85.7429 198.3086
L85.8667 198.3705
" />
<path d="M85.8667 198.3705
L85.9286 198.4324
" />
<path d="M85.9286 198.4324
L85.9905 198.5562
" />
<path d="M85.9905 198.5562
L85.9905 198.6800
" />
<path d="M85.9905 198.6800
L85.9286 198.8657
" />
<path d="M85.9286 198.8657
L85.1857 199.6086
" />
<path d="M85.1857 199.6086
L85.9905 199.6086
" />
</g></g>
<g style="fill:#000000; fill-opacity:0.0; 
stroke:#000000; stroke-width:0.0212; stroke-opacity:1; 
stroke-linecap:round; stroke-linejoin:round;">
</g>
<g style="fill:#000000; fill-opacity:0.0; 
stroke:#000000; stroke-width:0.1500; stroke-opacity:1; 
stroke-linecap:round; stroke-linejoin:round;">
<text x="135.0000" y="199.6572"
textLength="1.3531" font-size="1.7333" lengthAdjust="spacingAndGlyphs"
text-anchor="start" opacity="0">3</text>
<g class="stroked-text"><desc>3</desc>
<path d="M135.1857 198.3086
L135.9905 198.3086
" />
<path d="M135.9905 198.3086
L135.5571 198.8038
" />
<path d="M135.5571 198.8038
L135.7429 198.8038
" />
<path d="M135.7429 198.8038
L135.8667 198.8657
" />
<path d="M135.8667 198.8657
L135.9286 198.9277
" />
<path d="M135.9286 198.9277
L135.9905 199.0515
" />
<path d="M135.9905 199.0515
L135.9905 199.3610
" />
<path d="M135.9905 199.3610
L135.9286 199.4848
" />
<path d="M135.9286 199.4848
L135.8667 199.5467
" />
<path d="M135.8667 199.5467
L135.7429 199.6086
" />
<path d="M135.7429 199.6086
L135.3714 199.6086
" />
<path d="M135.3714 199.6086
L135.2476 199.5467
" />
<path d="M135.2476 199.5467
L135.1857 199.4848
" />
</g></g>
<g style="fill:#000000; fill-opacity:0.0; 
stroke:#000000; stroke-width:0.0212; stroke-opacity:1; 
stroke-linecap:round; stroke-linejoin:round;">
</g>
<g style="fill:#000000; fill-opacity:0.0; 
stroke:#000000; stroke-width:0.1500; stroke-opacity:1; 
stroke-linecap:round; stroke-linejoin:round;">
<text x="185.0000" y="199.6572"
textLength="1.3531" font-size="1.7333" lengthAdjust="spacingAndGlyphs"
text-anchor="start" opacity="0">4</text>
<g class="stroked-text"><desc>4</desc>
<path d="M185.8667 198.7419
L185.8667 199.6086
" />
<path d="M185.5571 198.2467
L185.2476 199.1753
" />
<path d="M185.2476 199.1753
L186.0524 199.1753
" />
</g></g>
<g style="fill:#000000; fill-opacity:0.0; 
stroke:#000000; stroke-width:0.0212; stroke-opacity:1; 
stroke-linecap:round; stroke-linejoin:round;">
</g>
<g style="fill:#000000; fill-opacity:0.0; 
stroke:#000000; stroke-width:0.1500; stroke-opacity:1; 
stroke-linecap:round; stroke-linejoin:round;">
<text x="235.0000" y="199.6572"
textLength="1.3531" font-size="1.7333" lengthAdjust="spacingAndGlyphs"
text-anchor="start" opacity="0">5</text>
<g class="stroked-text"><desc>5</desc>
<path d="M235.9286 198.3086
L235.3095 198.3086
" />
<path d="M235.3095 198.3086
L235.2476 198.9277
" />
<path d="M235.2476 198.9277
L235.3095 198.8657
" />
<path d="M235.3095 198.8657
L235.4333 198.8038
" />
<path d="M235.4333 198.8038
L235.7429 198.8038
" />
<path d="M235.7429 198.8038
L235.8667 198.8657
" />
<path d="M235.8667 198.8657
L235.9286 198.9277
" />
<path d="M235.9286 198.9277
L235.9905 199.0515
" />
<path d="M235.9905 199.0515
L235.9905 199.3610
" />
<path d="M235.9905 199.3610
L235.9286 199.4848
" />
<path d="M235.9286 199.4848
L235.8667 199.5467
" />
<path d="M235.8667 199.5467
L235.7429 199.6086
" />
<path d="M235.7429 199.6086
L235.4333 199.6086
" />
<path d="M235.4333 199.6086
L235.3095 199.5467
" />
<path d="M235.3095 199.5467
L235.2476 199.4848
" />
</g></g>
<g style="fill:#000000; fill-opacity:0.0; 
stroke:#000000; stroke-width:0.0212; stroke-opacity:1; 
stroke-linecap:round; stroke-linejoin:round;">
</g>
<g style="fill:#000000; fill-opacity:0.0; 
stroke:#000000; stroke-width:0.1500; stroke-opacity:1; 
stroke-linecap:round; stroke-linejoin:round;">
<text x="285.0000" y="199.6572"
textLength="1.3531" font-size="1.7333" lengthAdjust="spacingAndGlyphs"
text-anchor="start" opacity="0">6</text>
<g class="stroked-text"><desc>6</desc>
<path d="M285.8667 198.3086
L285.6190 198.3086
" />
<path d="M285.6190 198.3086
L285.4952 198.3705
" />
<path d="M285.4952 198.3705
L285.4333 198.4324
" />
<path d="M285.4333 198.4324
L285.3095 198.6181
" />
<path d="M285.3095 198.6181
L285.2476 198.8657
" />
<path d="M285.2476 198.8657
L285.2476 199.3610
" />
<path d="M285.2476 199.3610
L285.3095 199.4848
" />
<path d="M285.3095 199.4848
L285.3714 199.5467
" />
<path d="M285.3714 199.5467
L285.4952 199.6086
" />
<path d="M285.4952 199.6086
L285.7429 199.6086
" />
<path d="M285.7429 199.6086
L285.8667 199.5467
" />
<path d="M285.8667 199.5467
L285.9286 199.4848
" />
<path d="M285.9286 199.4848
L285.9905 199.3610
" />
<path d="M285.9905 199.3610
L285.9905 199.0515
" />
<path d="M285.9905 199.0515
L285.9286 198.9277
" />
<path d="M285.9286 198.9277
L285.8667 198.8657
" />
<path d="M285.8667 198.8657
L285.7429 198.8038
" />
<path d="M285.7429 198.8038
L285.4952 198.8038
" />
<path d="M285.4952 198.8038
L285.3714 198.8657
" />
<path d="M285.3714 198.8657
L285.3095 198.9277
" />
<path d="M285.3095 198.9277
L285.2476 199.0515
" />
</g></g>
<g style="fill:#000000; fill-opacity:0.0; 
stroke:#000000; stroke-width:0.0212; stroke-opacity:1; 
stroke-linecap:round; stroke-linejoin:round;">
</g>
<g style="fill:#000000; fill-opacity:0.0; 
stroke:#000000; stroke-width:0.1500; stroke-opacity:1; 
stroke-linecap:round; stroke-linejoin:round;">
<path d="M10.0000 60.0000
L12.0000 60.0000
" />
</g>
<g style="fill:#000000; fill-opacity:0.0; 
stroke:#000000; stroke-width:0.0212; stroke-opacity:1; 
stroke-linecap:round; stroke-linejoin:round;">
</g>
<g style="fill:#000000; fill-opacity:0.0; 
stroke:#000000; stroke-width:0.1500; stroke-opacity:1; 
stroke-linecap:round; stroke-linejoin:round;">
<path d="M10.0000 110.0000
L12.0000 110.0000
" />
</g>
<g style="fill:#000000; fill-opacity:0.0; 
stroke:#000000; stroke-width:0.0212; stroke-opacity:1; 
stroke-linecap:round; stroke-linejoin:round;">
</g>
<g style="fill:#000000; fill-opacity:0.0; 
stroke:#000000; stroke-width:0.1500; stroke-opacity:1; 
stroke-linecap:round; stroke-linejoin:round;">
<path d="M10.0000 160.0000
L12.0000 160.0000
" />
</g>
<g style="fill:#000000; fill-opacity:0.0; 
stroke:#000000; stroke-width:0.0212; stroke-opacity:1; 
stroke-linecap:round; stroke-linejoin:round;">
</g>
<g style="fill:#000000; fill-opacity:0.0; 
stroke:#000000; stroke-width:0.1500; stroke-opacity:1; 
stroke-linecap:round; stroke-linejoin:round;">
<text x="11.0000" y="35.6500"
textLength="1.2293" font-size="1.7333" lengthAdjust="spacingAndGlyphs"
text-anchor="middle" opacity="0">A</text>
<g class="stroked-text"><desc>A</desc>
<path d="M10.6905 35.2300
L11.3095 35.2300
" />
<path d="M10.5667 35.6014
L11.0000 34.3014
" />
<path d="M11.0000 34.3014
L11.4333 35.6014
" />
</g></g>
<g style="fill:#000000; fill-opacity:0.0; 
stroke:#000000; stroke-width:0.0212; stroke-opacity:1; 
stroke-linecap:round; stroke-linejoin:round;">
</g>
<g style="fill:#000000; fill-opacity:0.0; 
stroke:#000000; stroke-width:0.1500; stroke-opacity:1; 
stroke-linecap:round; stroke-linejoin:round;">
<text x="11.0000" y="85.6500"
textLength="1.4150" font-size="1.7333" lengthAdjust="spacingAndGlyphs"
text-anchor="middle" opacity="0">B</text>
<g class="stroked-text"><desc>B</desc>
<path d="M11.0929 84.9205
L11.2786 84.9824
" />
<path d="M11.2786 84.9824
L11.3405 85.0443
" />
<path d="M11.3405 85.0443
L11.4024 85.1681
" />
<path d="M11.4024 85.1681
L11.4024 85.3538
" />
<path d="M11.4024 85.3538
L11.3405 85.4776
" />
<path d="M11.3405 85.4776
L11.2786 85.5395
" />
<path d="M11.2786 85.5395
L11.1548 85.6014
" />
<path d="M11.1548 85.6014
L10.6595 85.6014
" />
<path d="M10.6595 85.6014
L10.6595 84.3014
" />
<path d="M10.6595 84.3014
L11.0929 84.3014
" />
<path d="M11.0929 84.3014
L11.2167 84.3633
" />
<path d="M11.2167 84.3633
L11.2786 84.4252
" />
<path d="M11.2786 84.4252
L11.3405 84.5490
" />
<path d="M11.3405 84.5490
L11.3405 84.6728
" />
<path d="M11.3405 84.6728
L11.2786 84.7966
" />
<path d="M11.2786 84.7966
L11.2167 84.8585
" />
<path d="M11.2167 84.8585
L11.0929 84.9205
" />
<path d="M11.0929 84.9205
L10.6595 84.9205
" />
</g></g>
<g style="fill:#000000; fill-opacity:0.0; 
stroke:#000000; stroke-width:0.0212; stroke-opacity:1; 
stroke-linecap:round; stroke-linejoin:round;">
</g>
<g style="fill:#000000; fill-opacity:0.0; 
stroke:#000000; stroke-width:0.1500; stroke-opacity:1; 
stroke-linecap:round; stroke-linejoin:round;">
<text x="11.0000" y="135.6500"
textLength="1.4150" font-size="1.7333" lengthAdjust="spacingAndGlyphs"
text-anchor="middle" opacity="0">C</text>
<g class="stroked-text"><desc>C</desc>
<path d="M11.4024 135.4776
L11.3405 135.5395
" />
<path d="M11.3405 135.5395
L11.1548 135.6014
" />
<path d="M11.1548 135.6014
L11.0310 135.6014
" />
<path d="M11.0310 135.6014
L10.8452 135.5395
" />
<path d="M10.8452 135.5395
L10.7214 135.4157
" />
<path d="M10.7214 135.4157
L10.6595 135.2919
" />
<path d="M10.6595 135.2919
L10.5976 135.0443
" />
<path d="M10.5976 135.0443
L10.5976 134.8585
" />
<path d="M10.5976 134.8585
L10.6595 134.6109
" />
<path d="M10.6595 134.6109
L10.7214 134.4871
" />
<path d="M10.7214 134.4871
L10.8452 134.3633
" />
<path d="M10.8452 134.3633
L11.0310 134.3014
" />
<path d="M11.0310 134.3014
L11.1548 134.3014
" />
<path d="M11.1548 134.3014
L11.3405 134.3633
" />
<path d="M11.3405 134.3633
L11.4024 134.4252
" />
</g></g>
<g style="fill:#000000; fill-opacity:0.0; 
stroke:#000000; stroke-width:0.0212; stroke-opacity:1; 
stroke-linecap:round; stroke-linejoin:round;">
</g>
<g style="fill:#000000; fill-opacity:0.0; 
stroke:#000000; stroke-width:0.1500; stroke-opacity:1; 
stroke-linecap:round; stroke-linejoin:round;">
<text x="11.0000" y="185.6500"
textLength="1.4150" font-size="1.7333" lengthAdjust="spacingAndGlyphs"
text-anchor="middle" opacity="0">D</text>
<g class="stroked-text"><desc>D</desc>
<path d="M10.6595 185.6014
L10.6595 184.3014
" />
<path d="M10.6595 184.3014
L10.9690 184.3014
" />
<path d="M10.9690 184.3014
L11.1548 184.3633
" />
<path d="M11.1548 184.3633
L11.2786 184.4871
" />
<path d="M11.2786 184.4871
L11.3405 184.6109
" />
<path d="M11.3405 184.6109
L11.4024 184.8585
" />
<path d="M11.4024 184.8585
L11.4024 185.0443
" />
<path d="M11.4024 185.0443
L11.3405 185.2919
" />
<path d="M11.3405 185.2919
L11.2786 185.4157
" />
<path d="M11.2786 185.4157
L11.1548 185.5395
" />
<path d="M11.1548 185.5395
L10.9690 185.6014
" />
<path d="M10.9690 185.6014
L10.6595 185.6014
" />
</g></g>
<g style="fill:#000000; fill-opacity:0.0; 
stroke:#000000; stroke-width:0.0212; stroke-opacity:1; 
stroke-linecap:round; stroke-linejoin:round;">
</g>
<g style="fill:#000000; fill-opacity:0.0; 
stroke:#000000; stroke-width:0.1500; stroke-opacity:1; 
stroke-linecap:round; stroke-linejoin:round;">
<path d="M287.0022 60.0000
L285.0022 60.0000
" />
</g>
<g style="fill:#000000; fill-opacity:0.0; 
stroke:#000000; stroke-width:0.0212; stroke-opacity:1; 
stroke-linecap:round; stroke-linejoin:round;">
</g>
<g style="fill:#000000; fill-opacity:0.0; 
stroke:#000000; stroke-width:0.1500; stroke-opacity:1; 
stroke-linecap:round; stroke-linejoin:round;">
<path d="M287.0022 110.0000
L285.0022 110.0000
" />
</g>
<g style="fill:#000000; fill-opacity:0.0; 
stroke:#000000; stroke-width:0.0212; stroke-opacity:1; 
stroke-linecap:round; stroke-linejoin:round;">
</g>
<g style="fill:#000000; fill-opacity:0.0; 
stroke:#000000; stroke-width:0.1500; stroke-opacity:1; 
stroke-linecap:round; stroke-linejoin:round;">
<path d="M287.0022 160.0000
L285.0022 160.0000
" />
</g>
<g style="fill:#000000; fill-opacity:0.0; 
stroke:#000000; stroke-width:0.0212; stroke-opacity:1; 
stroke-linecap:round; stroke-linejoin:round;">
</g>
<g style="fill:#000000; fill-opacity:0.0; 
stroke:#000000; stroke-width:0.1500; stroke-opacity:1; 
stroke-linecap:round; stroke-linejoin:round;">
<text x="286.0022" y="35.6500"
textLength="1.2293" font-size="1.7333" lengthAdjust="spacingAndGlyphs"
text-anchor="middle" opacity="0">A</text>
<g class="stroked-text"><desc>A</desc>
<path d="M285.6927 35.2300
L286.3117 35.2300
" />
<path d="M285.5689 35.6014
L286.0022 34.3014
" />
<path d="M286.0022 34.3014
L286.4355 35.6014
" />
</g></g>
<g style="fill:#000000; fill-opacity:0.0; 
stroke:#000000; stroke-width:0.0212; stroke-opacity:1; 
stroke-linecap:round; stroke-linejoin:round;">
</g>
<g style="fill:#000000; fill-opacity:0.0; 
stroke:#000000; stroke-width:0.1500; stroke-opacity:1; 
stroke-linecap:round; stroke-linejoin:round;">
<text x="286.0022" y="85.6500"
textLength="1.4150" font-size="1.7333" lengthAdjust="spacingAndGlyphs"
text-anchor="middle" opacity="0">B</text>
<g class="stroked-text"><desc>B</desc>
<path d="M286.0951 84.9205
L286.2808 84.9824
" />
<path d="M286.2808 84.9824
L286.3427 85.0443
" />
<path d="M286.3427 85.0443
L286.4046 85.1681
" />
<path d="M286.4046 85.1681
L286.4046 85.3538
" />
<path d="M286.4046 85.3538
L286.3427 85.4776
" />
<path d="M286.3427 85.4776
L286.2808 85.5395
" />
<path d="M286.2808 85.5395
L286.1570 85.6014
" />
<path d="M286.1570 85.6014
L285.6617 85.6014
" />
<path d="M285.6617 85.6014
L285.6617 84.3014
" />
<path d="M285.6617 84.3014
L286.0951 84.3014
" />
<path d="M286.0951 84.3014
L286.2189 84.3633
" />
<path d="M286.2189 84.3633
L286.2808 84.4252
" />
<path d="M286.2808 84.4252
L286.3427 84.5490
" />
<path d="M286.3427 84.5490
L286.3427 84.6728
" />
<path d="M286.3427 84.6728
L286.2808 84.7966
" />
<path d="M286.2808 84.7966
L286.2189 84.8585
" />
<path d="M286.2189 84.8585
L286.0951 84.9205
" />
<path d="M286.0951 84.9205
L285.6617 84.9205
" />
</g></g>
<g style="fill:#000000; fill-opacity:0.0; 
stroke:#000000; stroke-width:0.0212; stroke-opacity:1; 
stroke-linecap:round; stroke-linejoin:round;">
</g>
<g style="fill:#000000; fill-opacity:0.0; 
stroke:#000000; stroke-width:0.1500; stroke-opacity:1; 
stroke-linecap:round; stroke-linejoin:round;">
<text x="286.0022" y="135.6500"
textLength="1.4150" font-size="1.7333" lengthAdjust="spacingAndGlyphs"
text-anchor="middle" opacity="0">C</text>
<g class="stroked-text"><desc>C</desc>
<path d="M286.4046 135.4776
L286.3427 135.5395
" />
<path d="M286.3427 135.5395
L286.1570 135.6014
" />
<path d="M286.1570 135.6014
L286.0332 135.6014
" />
<path d="M286.0332 135.6014
L285.8474 135.5395
" />
<path d="M285.8474 135.5395
L285.7236 135.4157
" />
<path d="M285.7236 135.4157
L285.6617 135.2919
" />
<path d="M285.6617 135.2919
L285.5998 135.0443
" />
<path d="M285.5998 135.0443
L285.5998 134.8585
" />
<path d="M285.5998 134.8585
L285.6617 134.6109
" />
<path d="M285.6617 134.6109
L285.7236 134.4871
" />
<path d="M285.7236 134.4871
L285.8474 134.3633
" />
<path d="M285.8474 134.3633
L286.0332 134.3014
" />
<path d="M286.0332 134.3014
L286.1570 134.3014
" />
<path d="M286.1570 134.3014
L286.3427 134.3633
" />
<path d="M286.3427 134.3633
L286.4046 134.4252
" />
</g></g>
<g style="fill:#000000; fill-opacity:0.0; 
stroke:#000000; stroke-width:0.0212; stroke-opacity:1; 
stroke-linecap:round; stroke-linejoin:round;">
</g>
<g style="fill:#000000; fill-opacity:0.0; 
stroke:#000000; stroke-width:0.1500; stroke-opacity:1; 
stroke-linecap:round; stroke-linejoin:round;">
<text x="286.0022" y="185.6500"
textLength="1.4150" font-size="1.7333" lengthAdjust="spacingAndGlyphs"
text-anchor="middle" opacity="0">D</text>
<g class="stroked-text"><desc>D</desc>
<path d="M285.6617 185.6014
L285.6617 184.3014
" />
<path d="M285.6617 184.3014
L285.9712 184.3014
" />
<path d="M285.9712 184.3014
L286.1570 184.3633
" />
<path d="M286.1570 184.3633
L286.2808 184.4871
" />
<path d="M286.2808 184.4871
L286.3427 184.6109
" />
<path d="M286.3427 184.6109
L286.4046 184.8585
" />
<path d="M286.4046 184.8585
L286.4046 185.0443
" />
<path d="M286.4046 185.0443
L286.3427 185.2919
" />
<path d="M286.3427 185.2919
L286.2808 185.4157
" />
<path d="M286.2808 185.4157
L286.1570 185.5395
" />
<path d="M286.1570 185.5395
L285.9712 185.6014
" />
<path d="M285.9712 185.6014
L285.6617 185.6014
" />
</g></g>
<g style="fill:#000000; fill-opacity:0.0; 
stroke:#000000; stroke-width:0.0212; stroke-opacity:1; 
stroke-linecap:round; stroke-linejoin:round;">
</g>
<g style="fill:#000000; fill-opacity:0.0; 
stroke:#000000; stroke-width:0.1500; stroke-opacity:1; 
stroke-linecap:round; stroke-linejoin:round;">
<text x="200.0022" y="193.8572"
textLength="6.9321" font-size="2.0000" lengthAdjust="spacingAndGlyphs"
text-anchor="start" opacity="0">Date: </text>
<g class="stroked-text"><desc>Date: </desc>
<path d="M200.3593 193.8011
L200.3593 192.3011
" />
<path d="M200.3593 192.3011
L200.7165 192.3011
" />
<path d="M200.7165 192.3011
L200.9308 192.3726
" />
<path d="M200.9308 192.3726
L201.0736 192.5154
" />
<path d="M201.0736 192.5154
L201.1451 192.6583
" />
<path d="M201.1451 192.6583
L201.2165 192.9440
" />
<path d="M201.2165 192.9440
L201.2165 193.1583
" />
<path d="M201.2165 193.1583
L201.1451 193.4440
" />
<path d="M201.1451 193.4440
L201.0736 193.5868
" />
<path d="M201.0736 193.5868
L200.9308 193.7297
" />
<path d="M200.9308 193.7297
L200.7165 193.8011
" />
<path d="M200.7165 193.8011
L200.3593 193.8011
" />
<path d="M202.5022 193.8011
L202.5022 193.0154
" />
<path d="M202.5022 193.0154
L202.4308 192.8726
" />
<path d="M202.4308 192.8726
L202.2879 192.8011
" />
<path d="M202.2879 192.8011
L202.0022 192.8011
" />
<path d="M202.0022 192.8011
L201.8593 192.8726
" />
<path d="M202.5022 193.7297
L202.3593 193.8011
" />
<path d="M202.3593 193.8011
L202.0022 193.8011
" />
<path d="M202.0022 193.8011
L201.8593 193.7297
" />
<path d="M201.8593 193.7297
L201.7879 193.5868
" />
<path d="M201.7879 193.5868
L201.7879 193.4440
" />
<path d="M201.7879 193.4440
L201.8593 193.3011
" />
<path d="M201.8593 193.3011
L202.0022 193.2297
" />
<path d="M202.0022 193.2297
L202.3593 193.2297
" />
<path d="M202.3593 193.2297
L202.5022 193.1583
" />
<path d="M203.0022 192.8011
L203.5736 192.8011
" />
<path d="M203.2165 192.3011
L203.2165 193.5868
" />
<path d="M203.2165 193.5868
L203.2879 193.7297
" />
<path d="M203.2879 193.7297
L203.4308 193.8011
" />
<path d="M203.4308 193.8011
L203.5736 193.8011
" />
<path d="M204.6451 193.7297
L204.5022 193.8011
" />
<path d="M204.5022 193.8011
L204.2165 193.8011
" />
<path d="M204.2165 193.8011
L204.0736 193.7297
" />
<path d="M204.0736 193.7297
L204.0022 193.5868
" />
<path d="M204.0022 193.5868
L204.0022 193.0154
" />
<path d="M204.0022 193.0154
L204.0736 192.8726
" />
<path d="M204.0736 192.8726
L204.2165 192.8011
" />
<path d="M204.2165 192.8011
L204.5022 192.8011
" />
<path d="M204.5022 192.8011
L204.6451 192.8726
" />
<path d="M204.6451 192.8726
L204.7165 193.0154
" />
<path d="M204.7165 193.0154
L204.7165 193.1583
" />
<path d="M204.7165 193.1583
L204.0022 193.3011
" />
<path d="M205.3593 193.6583
L205.4308 193.7297
" />
<path d="M205.4308 193.7297
L205.3593 193.8011
" />
<path d="M205.3593 193.8011
L205.2879 193.7297
" />
<path d="M205.2879 193.7297
L205.3593 193.6583
" />
<path d="M205.3593 193.6583
L205.3593 193.8011
" />
<path d="M205.3593 192.8726
L205.4308 192.9440
" />
<path d="M205.4308 192.9440
L205.3593 193.0154
" />
<path d="M205.3593 193.0154
L205.2879 192.9440
" />
<path d="M205.2879 192.9440
L205.3593 192.8726
" />
<path d="M205.3593 192.8726
L205.3593 193.0154
" />
</g></g>
<g style="fill:#000000; fill-opacity:0.0; 
stroke:#000000; stroke-width:0.0212; stroke-opacity:1; 
stroke-linecap:round; stroke-linejoin:round;">
</g>
<g style="fill:#000000; fill-opacity:0.0; 
stroke:#000000; stroke-width:0.1500; stroke-opacity:1; 
stroke-linecap:round; stroke-linejoin:round;">
<path d="M177.0022 194.5072
L285.0022 194.5072
" />
</g>
<g style="fill:#000000; fill-opacity:0.0; 
stroke:#000000; stroke-width:0.0212; stroke-opacity:1; 
stroke-linecap:round; stroke-linejoin:round;">
</g>
<g style="fill:#000000; fill-opacity:0.0; 
stroke:#000000; stroke-width:0.1500; stroke-opacity:1; 
stroke-linecap:round; stroke-linejoin:round;">
<text x="178.0022" y="196.6572"
textLength="31.2893" font-size="2.0000" lengthAdjust="spacingAndGlyphs"
text-anchor="start" opacity="0">KiCad E.D.A.  pcbnew 7.0.2</text>
<g class="stroked-text"><desc>KiCad E.D.A.  pcbnew 7.0.2</desc>
<path d="M178.3593 196.6011
L178.3593 195.1011
" />
<path d="M179.2165 196.6011
L178.5736 195.7440
" />
<path d="M179.2165 195.1011
L178.3593 195.9583
" />
<path d="M179.8593 196.6011
L179.8593 195.6011
" />
<path d="M179.8593 195.1011
L179.7879 195.1726
" />
<path d="M179.7879 195.1726
L179.8593 195.2440
" />
<path d="M179.8593 195.2440
L179.9308 195.1726
" />
<path d="M179.9308 195.1726
L179.8593 195.1011
" />
<path d="M179.8593 195.1011
L179.8593 195.2440
" />
<path d="M181.4308 196.4583
L181.3593 196.5297
" />
<path d="M181.3593 196.5297
L181.1451 196.6011
" />
<path d="M181.1451 196.6011
L181.0022 196.6011
" />
<path d="M181.0022 196.6011
L180.7879 196.5297
" />
<path d="M180.7879 196.5297
L180.6451 196.3868
" />
<path d="M180.6451 196.3868
L180.5736 196.2440
" />
<path d="M180.5736 196.2440
L180.5022 195.9583
" />
<path d="M180.5022 195.9583
L180.5022 195.7440
" />
<path d="M180.5022 195.7440
L180.5736 195.4583
" />
<path d="M180.5736 195.4583
L180.6451 195.3154
" />
<path d="M180.6451 195.3154
L180.7879 195.1726
" />
<path d="M180.7879 195.1726
L181.0022 195.1011
" />
<path d="M181.0022 195.1011
L181.1451 195.1011
" />
<path d="M181.1451 195.1011
L181.3593 195.1726
" />
<path d="M181.3593 195.1726
L181.4308 195.2440
" />
<path d="M182.7165 196.6011
L182.7165 195.8154
" />
<path d="M182.7165 195.8154
L182.6451 195.6726
" />
<path d="M182.6451 195.6726
L182.5022 195.6011
" />
<path d="M182.5022 195.6011
L182.2165 195.6011
" />
<path d="M182.2165 195.6011
L182.0736 195.6726
" />
<path d="M182.7165 196.5297
L182.5736 196.6011
" />
<path d="M182.5736 196.6011
L182.2165 196.6011
" />
<path d="M182.2165 196.6011
L182.0736 196.5297
" />
<path d="M182.0736 196.5297
L182.0022 196.3868
" />
<path d="M182.0022 196.3868
L182.0022 196.2440
" />
<path d="M182.0022 196.2440
L182.0736 196.1011
" />
<path d="M182.0736 196.1011
L182.2165 196.0297
" />
<path d="M182.2165 196.0297
L182.5736 196.0297
" />
<path d="M182.5736 196.0297
L182.7165 195.9583
" />
<path d="M184.0736 196.6011
L184.0736 195.1011
" />
<path d="M184.0736 196.5297
L183.9308 196.6011
" />
<path d="M183.9308 196.6011
L183.6451 196.6011
" />
<path d="M183.6451 196.6011
L183.5022 196.5297
" />
<path d="M183.5022 196.5297
L183.4308 196.4583
" />
<path d="M183.4308 196.4583
L183.3593 196.3154
" />
<path d="M183.3593 196.3154
L183.3593 195.8868
" />
<path d="M183.3593 195.8868
L183.4308 195.7440
" />
<path d="M183.4308 195.7440
L183.5022 195.6726
" />
<path d="M183.5022 195.6726
L183.6451 195.6011
" />
<path d="M183.6451 195.6011
L183.9308 195.6011
" />
<path d="M183.9308 195.6011
L184.0736 195.6726
" />
<path d="M185.9308 195.8154
L186.4308 195.8154
" />
<path d="M186.6451 196.6011
L185.9308 196.6011
" />
<path d="M185.9308 196.6011
L185.9308 195.1011
" />
<path d="M185.9308 195.1011
L186.6451 195.1011
" />
<path d="M187.2879 196.4583
L187.3593 196.5297
" />
<path d="M187.3593 196.5297
L187.2879 196.6011
" />
<path d="M187.2879 196.6011
L187.2165 196.5297
" />
<path d="M187.2165 196.5297
L187.2879 196.4583
" />
<path d="M187.2879 196.4583
L187.2879 196.6011
" />
<path d="M188.0022 196.6011
L188.0022 195.1011
" />
<path d="M188.0022 195.1011
L188.3593 195.1011
" />
<path d="M188.3593 195.1011
L188.5736 195.1726
" />
<path d="M188.5736 195.1726
L188.7165 195.3154
" />
<path d="M188.7165 195.3154
L188.7879 195.4583
" />
<path d="M188.7879 195.4583
L188.8593 195.7440
" />
<path d="M188.8593 195.7440
L188.8593 195.9583
" />
<path d="M188.8593 195.9583
L188.7879 196.2440
" />
<path d="M188.7879 196.2440
L188.7165 196.3868
" />
<path d="M188.7165 196.3868
L188.5736 196.5297
" />
<path d="M188.5736 196.5297
L188.3593 196.6011
" />
<path d="M188.3593 196.6011
L188.0022 196.6011
" />
<path d="M189.5022 196.4583
L189.5736 196.5297
" />
<path d="M189.5736 196.5297
L189.5022 196.6011
" />
<path d="M189.5022 196.6011
L189.4308 196.5297
" />
<path d="M189.4308 196.5297
L189.5022 196.4583
" />
<path d="M189.5022 196.4583
L189.5022 196.6011
" />
<path d="M190.1451 196.1726
L190.8593 196.1726
" />
<path d="M190.0022 196.6011
L190.5022 195.1011
" />
<path d="M190.5022 195.1011
L191.0022 196.6011
" />
<path d="M191.5022 196.4583
L191.5736 196.5297
" />
<path d="M191.5736 196.5297
L191.5022 196.6011
" />
<path d="M191.5022 196.6011
L191.4308 196.5297
" />
<path d="M191.4308 196.5297
L191.5022 196.4583
" />
<path d="M191.5022 196.4583
L191.5022 196.6011
" />
<path d="M194.5022 195.6011
L194.5022 197.1011
" />
<path d="M194.5022 195.6726
L194.6451 195.6011
" />
<path d="M194.6451 195.6011
L194.9308 195.6011
" />
<path d="M194.9308 195.6011
L195.0736 195.6726
" />
<path d="M195.0736 195.6726
L195.1451 195.7440
" />
<path d="M195.1451 195.7440
L195.2165 195.8868
" />
<path d="M195.2165 195.8868
L195.2165 196.3154
" />
<path d="M195.2165 196.3154
L195.1451 196.4583
" />
<path d="M195.1451 196.4583
L195.0736 196.5297
" />
<path d="M195.0736 196.5297
L194.9308 196.6011
" />
<path d="M194.9308 196.6011
L194.6451 196.6011
" />
<path d="M194.6451 196.6011
L194.5022 196.5297
" />
<path d="M196.5022 196.5297
L196.3593 196.6011
" />
<path d="M196.3593 196.6011
L196.0736 196.6011
" />
<path d="M196.0736 196.6011
L195.9308 196.5297
" />
<path d="M195.9308 196.5297
L195.8593 196.4583
" />
<path d="M195.8593 196.4583
L195.7879 196.3154
" />
<path d="M195.7879 196.3154
L195.7879 195.8868
" />
<path d="M195.7879 195.8868
L195.8593 195.7440
" />
<path d="M195.8593 195.7440
L195.9308 195.6726
" />
<path d="M195.9308 195.6726
L196.0736 195.6011
" />
<path d="M196.0736 195.6011
L196.3593 195.6011
" />
<path d="M196.3593 195.6011
L196.5022 195.6726
" />
<path d="M197.1451 196.6011
L197.1451 195.1011
" />
<path d="M197.1451 195.6726
L197.2879 195.6011
" />
<path d="M197.2879 195.6011
L197.5736 195.6011
" />
<path d="M197.5736 195.6011
L197.7165 195.6726
" />
<path d="M197.7165 195.6726
L197.7879 195.7440
" />
<path d="M197.7879 195.7440
L197.8593 195.8868
" />
<path d="M197.8593 195.8868
L197.8593 196.3154
" />
<path d="M197.8593 196.3154
L197.7879 196.4583
" />
<path d="M197.7879 196.4583
L197.7165 196.5297
" />
<path d="M197.7165 196.5297
L197.5736 196.6011
" />
<path d="M197.5736 196.6011
L197.2879 196.6011
" />
<path d="M197.2879 196.6011
L197.1451 196.5297
" />
<path d="M198.5022 195.6011
L198.5022 196.6011
" />
<path d="M198.5022 195.7440
L198.5736 195.6726
" />
<path d="M198.5736 195.6726
L198.7165 195.6011
" />
<path d="M198.7165 195.6011
L198.9308 195.6011
" />
<path d="M198.9308 195.6011
L199.0736 195.6726
" />
<path d="M199.0736 195.6726
L199.1451 195.8154
" />
<path d="M199.1451 195.8154
L199.1451 196.6011
" />
<path d="M200.4308 196.5297
L200.2879 196.6011
" />
<path d="M200.2879 196.6011
L200.0022 196.6011
" />
<path d="M200.0022 196.6011
L199.8593 196.5297
" />
<path d="M199.8593 196.5297
L199.7879 196.3868
" />
<path d="M199.7879 196.3868
L199.7879 195.8154
" />
<path d="M199.7879 195.8154
L199.8593 195.6726
" />
<path d="M199.8593 195.6726
L200.0022 195.6011
" />
<path d="M200.0022 195.6011
L200.2879 195.6011
" />
<path d="M200.2879 195.6011
L200.4308 195.6726
" />
<path d="M200.4308 195.6726
L200.5022 195.8154
" />
<path d="M200.5022 195.8154
L200.5022 195.9583
" />
<path d="M200.5022 195.9583
L199.7879 196.1011
" />
<path d="M201.0022 195.6011
L201.2879 196.6011
" />
<path d="M201.2879 196.6011
L201.5736 195.8868
" />
<path d="M201.5736 195.8868
L201.8593 196.6011
" />
<path d="M201.8593 196.6011
L202.1451 195.6011
" />
<path d="M203.7165 195.1011
L204.7165 195.1011
" />
<path d="M204.7165 195.1011
L204.0736 196.6011
" />
<path d="M205.2879 196.4583
L205.3593 196.5297
" />
<path d="M205.3593 196.5297
L205.2879 196.6011
" />
<path d="M205.2879 196.6011
L205.2165 196.5297
" />
<path d="M205.2165 196.5297
L205.2879 196.4583
" />
<path d="M205.2879 196.4583
L205.2879 196.6011
" />
<path d="M206.2879 195.1011
L206.4308 195.1011
" />
<path d="M206.4308 195.1011
L206.5736 195.1726
" />
<path d="M206.5736 195.1726
L206.6451 195.2440
" />
<path d="M206.6451 195.2440
L206.7165 195.3868
" />
<path d="M206.7165 195.3868
L206.7879 195.6726
" />
<path d="M206.7879 195.6726
L206.7879 196.0297
" />
<path d="M206.7879 196.0297
L206.7165 196.3154
" />
<path d="M206.7165 196.3154
L206.6451 196.4583
" />
<path d="M206.6451 196.4583
L206.5736 196.5297
" />
<path d="M206.5736 196.5297
L206.4308 196.6011
" />
<path d="M206.4308 196.6011
L206.2879 196.6011
" />
<path d="M206.2879 196.6011
L206.1451 196.5297
" />
<path d="M206.1451 196.5297
L206.0736 196.4583
" />
<path d="M206.0736 196.4583
L206.0022 196.3154
" />
<path d="M206.0022 196.3154
L205.9308 196.0297
" />
<path d="M205.9308 196.0297
L205.9308 195.6726
" />
<path d="M205.9308 195.6726
L206.0022 195.3868
" />
<path d="M206.0022 195.3868
L206.0736 195.2440
" />
<path d="M206.0736 195.2440
L206.1451 195.1726
" />
<path d="M206.1451 195.1726
L206.2879 195.1011
" />
<path d="M207.4308 196.4583
L207.5022 196.5297
" />
<path d="M207.5022 196.5297
L207.4308 196.6011
" />
<path d="M207.4308 196.6011
L207.3593 196.5297
" />
<path d="M207.3593 196.5297
L207.4308 196.4583
" />
<path d="M207.4308 196.4583
L207.4308 196.6011
" />
<path d="M208.0736 195.2440
L208.1451 195.1726
" />
<path d="M208.1451 195.1726
L208.2879 195.1011
" />
<path d="M208.2879 195.1011
L208.6451 195.1011
" />
<path d="M208.6451 195.1011
L208.7879 195.1726
" />
<path d="M208.7879 195.1726
L208.8593 195.2440
" />
<path d="M208.8593 195.2440
L208.9308 195.3868
" />
<path d="M208.9308 195.3868
L208.9308 195.5297
" />
<path d="M208.9308 195.5297
L208.8593 195.7440
" />
<path d="M208.8593 195.7440
L208.0022 196.6011
" />
<path d="M208.0022 196.6011
L208.9308 196.6011
" />
</g></g>
<g style="fill:#000000; fill-opacity:0.0; 
stroke:#000000; stroke-width:0.0212; stroke-opacity:1; 
stroke-linecap:round; stroke-linejoin:round;">
</g>
<g style="fill:#000000; fill-opacity:0.0; 
stroke:#000000; stroke-width:0.1500; stroke-opacity:1; 
stroke-linecap:round; stroke-linejoin:round;">
<path d="M177.0022 191.5072
L285.0022 191.5072
" />
</g>
<g style="fill:#000000; fill-opacity:0.0; 
stroke:#000000; stroke-width:0.0212; stroke-opacity:1; 
stroke-linecap:round; stroke-linejoin:round;">
</g>
<g style="fill:#000000; fill-opacity:0.0; 
stroke:#000000; stroke-width:0.3000; stroke-opacity:1; 
stroke-linecap:round; stroke-linejoin:round;">
<text x="263.0022" y="193.8572"
textLength="6.2357" font-size="2.0000" lengthAdjust="spacingAndGlyphs"
text-anchor="start" opacity="0">Rev: </text>
<g class="stroked-text"><desc>Rev: </desc>
<path d="M264.2165 193.8011
L263.7165 193.0868
" />
<path d="M263.3593 193.8011
L263.3593 192.3011
" />
<path d="M263.3593 192.3011
L263.9308 192.3011
" />
<path d="M263.9308 192.3011
L264.0736 192.3726
" />
<path d="M264.0736 192.3726
L264.1451 192.4440
" />
<path d="M264.1451 192.4440
L264.2165 192.5868
" />
<path d="M264.2165 192.5868
L264.2165 192.8011
" />
<path d="M264.2165 192.8011
L264.1451 192.9440
" />
<path d="M264.1451 192.9440
L264.0736 193.0154
" />
<path d="M264.0736 193.0154
L263.9308 193.0868
" />
<path d="M263.9308 193.0868
L263.3593 193.0868
" />
<path d="M265.4308 193.7297
L265.2879 193.8011
" />
<path d="M265.2879 193.8011
L265.0022 193.8011
" />
<path d="M265.0022 193.8011
L264.8593 193.7297
" />
<path d="M264.8593 193.7297
L264.7879 193.5868
" />
<path d="M264.7879 193.5868
L264.7879 193.0154
" />
<path d="M264.7879 193.0154
L264.8593 192.8726
" />
<path d="M264.8593 192.8726
L265.0022 192.8011
" />
<path d="M265.0022 192.8011
L265.2879 192.8011
" />
<path d="M265.2879 192.8011
L265.4308 192.8726
" />
<path d="M265.4308 192.8726
L265.5022 193.0154
" />
<path d="M265.5022 193.0154
L265.5022 193.1583
" />
<path d="M265.5022 193.1583
L264.7879 193.3011
" />
<path d="M266.0022 192.8011
L266.3593 193.8011
" />
<path d="M266.3593 193.8011
L266.7165 192.8011
" />
<path d="M267.2879 193.6583
L267.3593 193.7297
" />
<path d="M267.3593 193.7297
L267.2879 193.8011
" />
<path d="M267.2879 193.8011
L267.2165 193.7297
" />
<path d="M267.2165 193.7297
L267.2879 193.6583
" />
<path d="M267.2879 193.6583
L267.2879 193.8011
" />
<path d="M267.2879 192.8726
L267.3593 192.9440
" />
<path d="M267.3593 192.9440
L267.2879 193.0154
" />
<path d="M267.2879 193.0154
L267.2165 192.9440
" />
<path d="M267.2165 192.9440
L267.2879 192.8726
" />
<path d="M267.2879 192.8726
L267.2879 193.0154
" />
</g></g>
<g style="fill:#000000; fill-opacity:0.0; 
stroke:#000000; stroke-width:0.0212; stroke-opacity:1; 
stroke-linecap:round; stroke-linejoin:round;">
</g>
<g style="fill:#000000; fill-opacity:0.0; 
stroke:#000000; stroke-width:0.1500; stroke-opacity:1; 
stroke-linecap:round; stroke-linejoin:round;">
<text x="178.0022" y="193.8572"
textLength="9.2893" font-size="2.0000" lengthAdjust="spacingAndGlyphs"
text-anchor="start" opacity="0">Size: A4</text>
<g class="stroked-text"><desc>Size: A4</desc>
<path d="M178.2879 193.7297
L178.5022 193.8011
" />
<path d="M178.5022 193.8011
L178.8593 193.8011
" />
<path d="M178.8593 193.8011
L179.0022 193.7297
" />
<path d="M179.0022 193.7297
L179.0736 193.6583
" />
<path d="M179.0736 193.6583
L179.1451 193.5154
" />
<path d="M179.1451 193.5154
L179.1451 193.3726
" />
<path d="M179.1451 193.3726
L179.0736 193.2297
" />
<path d="M179.0736 193.2297
L179.0022 193.1583
" />
<path d="M179.0022 193.1583
L178.8593 193.0868
" />
<path d="M178.8593 193.0868
L178.5736 193.0154
" />
<path d="M178.5736 193.0154
L178.4308 192.9440
" />
<path d="M178.4308 192.9440
L178.3593 192.8726
" />
<path d="M178.3593 192.8726
L178.2879 192.7297
" />
<path d="M178.2879 192.7297
L178.2879 192.5868
" />
<path d="M178.2879 192.5868
L178.3593 192.4440
" />
<path d="M178.3593 192.4440
L178.4308 192.3726
" />
<path d="M178.4308 192.3726
L178.5736 192.3011
" />
<path d="M178.5736 192.3011
L178.9308 192.3011
" />
<path d="M178.9308 192.3011
L179.1451 192.3726
" />
<path d="M179.7879 193.8011
L179.7879 192.8011
" />
<path d="M179.7879 192.3011
L179.7165 192.3726
" />
<path d="M179.7165 192.3726
L179.7879 192.4440
" />
<path d="M179.7879 192.4440
L179.8593 192.3726
" />
<path d="M179.8593 192.3726
L179.7879 192.3011
" />
<path d="M179.7879 192.3011
L179.7879 192.4440
" />
<path d="M180.3593 192.8011
L181.1451 192.8011
" />
<path d="M181.1451 192.8011
L180.3593 193.8011
" />
<path d="M180.3593 193.8011
L181.1451 193.8011
" />
<path d="M182.2879 193.7297
L182.1451 193.8011
" />
<path d="M182.1451 193.8011
L181.8593 193.8011
" />
<path d="M181.8593 193.8011
L181.7165 193.7297
" />
<path d="M181.7165 193.7297
L181.6451 193.5868
" />
<path d="M181.6451 193.5868
L181.6451 193.0154
" />
<path d="M181.6451 193.0154
L181.7165 192.8726
" />
<path d="M181.7165 192.8726
L181.8593 192.8011
" />
<path d="M181.8593 192.8011
L182.1451 192.8011
" />
<path d="M182.1451 192.8011
L182.2879 192.8726
" />
<path d="M182.2879 192.8726
L182.3593 193.0154
" />
<path d="M182.3593 193.0154
L182.3593 193.1583
" />
<path d="M182.3593 193.1583
L181.6451 193.3011
" />
<path d="M183.0022 193.6583
L183.0736 193.7297
" />
<path d="M183.0736 193.7297
L183.0022 193.8011
" />
<path d="M183.0022 193.8011
L182.9308 193.7297
" />
<path d="M182.9308 193.7297
L183.0022 193.6583
" />
<path d="M183.0022 193.6583
L183.0022 193.8011
" />
<path d="M183.0022 192.8726
L183.0736 192.9440
" />
<path d="M183.0736 192.9440
L183.0022 193.0154
" />
<path d="M183.0022 193.0154
L182.9308 192.9440
" />
<path d="M182.9308 192.9440
L183.0022 192.8726
" />
<path d="M183.0022 192.8726
L183.0022 193.0154
" />
<path d="M184.7879 193.3726
L185.5022 193.3726
" />
<path d="M184.6451 193.8011
L185.1451 192.3011
" />
<path d="M185.1451 192.3011
L185.6451 193.8011
" />
<path d="M186.7879 192.8011
L186.7879 193.8011
" />
<path d="M186.4308 192.2297
L186.0736 193.3011
" />
<path d="M186.0736 193.3011
L187.0022 193.3011
" />
</g></g>
<g style="fill:#000000; fill-opacity:0.0; 
stroke:#000000; stroke-width:0.0212; stroke-opacity:1; 
stroke-linecap:round; stroke-linejoin:round;">
</g>
<g style="fill:#000000; fill-opacity:0.0; 
stroke:#000000; stroke-width:0.1500; stroke-opacity:1; 
stroke-linecap:round; stroke-linejoin:round;">
<text x="263.0022" y="196.6572"
textLength="8.4321" font-size="2.0000" lengthAdjust="spacingAndGlyphs"
text-anchor="start" opacity="0">Id: 1/1</text>
<g class="stroked-text"><desc>Id: 1/1</desc>
<path d="M263.3593 196.6011
L263.3593 195.1011
" />
<path d="M264.7165 196.6011
L264.7165 195.1011
" />
<path d="M264.7165 196.5297
L264.5736 196.6011
" />
<path d="M264.5736 196.6011
L264.2879 196.6011
" />
<path d="M264.2879 196.6011
L264.1451 196.5297
" />
<path d="M264.1451 196.5297
L264.0736 196.4583
" />
<path d="M264.0736 196.4583
L264.0022 196.3154
" />
<path d="M264.0022 196.3154
L264.0022 195.8868
" />
<path d="M264.0022 195.8868
L264.0736 195.7440
" />
<path d="M264.0736 195.7440
L264.1451 195.6726
" />
<path d="M264.1451 195.6726
L264.2879 195.6011
" />
<path d="M264.2879 195.6011
L264.5736 195.6011
" />
<path d="M264.5736 195.6011
L264.7165 195.6726
" />
<path d="M265.4308 196.4583
L265.5022 196.5297
" />
<path d="M265.5022 196.5297
L265.4308 196.6011
" />
<path d="M265.4308 196.6011
L265.3593 196.5297
" />
<path d="M265.3593 196.5297
L265.4308 196.4583
" />
<path d="M265.4308 196.4583
L265.4308 196.6011
" />
<path d="M265.4308 195.6726
L265.5022 195.7440
" />
<path d="M265.5022 195.7440
L265.4308 195.8154
" />
<path d="M265.4308 195.8154
L265.3593 195.7440
" />
<path d="M265.3593 195.7440
L265.4308 195.6726
" />
<path d="M265.4308 195.6726
L265.4308 195.8154
" />
<path d="M268.0736 196.6011
L267.2165 196.6011
" />
<path d="M267.6451 196.6011
L267.6451 195.1011
" />
<path d="M267.6451 195.1011
L267.5022 195.3154
" />
<path d="M267.5022 195.3154
L267.3593 195.4583
" />
<path d="M267.3593 195.4583
L267.2165 195.5297
" />
<path d="M269.7879 195.0297
L268.5022 196.9583
" />
<path d="M271.0736 196.6011
L270.2165 196.6011
" />
<path d="M270.6451 196.6011
L270.6451 195.1011
" />
<path d="M270.6451 195.1011
L270.5022 195.3154
" />
<path d="M270.5022 195.3154
L270.3593 195.4583
" />
<path d="M270.3593 195.4583
L270.2165 195.5297
" />
</g></g>
<g style="fill:#000000; fill-opacity:0.0; 
stroke:#000000; stroke-width:0.0212; stroke-opacity:1; 
stroke-linecap:round; stroke-linejoin:round;">
</g>
<g style="fill:#000000; fill-opacity:0.0; 
stroke:#000000; stroke-width:0.1500; stroke-opacity:1; 
stroke-linecap:round; stroke-linejoin:round;">
<path d="M177.0022 187.5072
L285.0022 187.5072
" />
</g>
<g style="fill:#000000; fill-opacity:0.0; 
stroke:#000000; stroke-width:0.0212; stroke-opacity:1; 
stroke-linecap:round; stroke-linejoin:round;">
</g>
<g style="fill:#000000; fill-opacity:0.0; 
stroke:#000000; stroke-width:0.4000; stroke-opacity:1; 
stroke-linecap:round; stroke-linejoin:round;">
<text x="178.0022" y="190.3072"
textLength="9.3857" font-size="2.6667" lengthAdjust="spacingAndGlyphs"
text-anchor="start" opacity="0">Title: </text>
<g class="stroked-text"><desc>Title: </desc>
<path d="M178.4308 188.2324
L179.5736 188.2324
" />
<path d="M178.7522 190.2324
L179.0022 188.2324
" />
<path d="M179.9784 190.2324
L180.1451 188.8991
" />
<path d="M180.2284 188.2324
L180.1212 188.3277
" />
<path d="M180.1212 188.3277
L180.2046 188.4229
" />
<path d="M180.2046 188.4229
L180.3117 188.3277
" />
<path d="M180.3117 188.3277
L180.2284 188.2324
" />
<path d="M180.2284 188.2324
L180.2046 188.4229
" />
<path d="M180.7998 188.8991
L181.5617 188.8991
" />
<path d="M181.1689 188.2324
L180.9546 189.9467
" />
<path d="M180.9546 189.9467
L181.0260 190.1372
" />
<path d="M181.0260 190.1372
L181.2046 190.2324
" />
<path d="M181.2046 190.2324
L181.3951 190.2324
" />
<path d="M182.3355 190.2324
L182.1570 190.1372
" />
<path d="M182.1570 190.1372
L182.0855 189.9467
" />
<path d="M182.0855 189.9467
L182.2998 188.2324
" />
<path d="M183.8593 190.1372
L183.6570 190.2324
" />
<path d="M183.6570 190.2324
L183.2760 190.2324
" />
<path d="M183.2760 190.2324
L183.0974 190.1372
" />
<path d="M183.0974 190.1372
L183.0260 189.9467
" />
<path d="M183.0260 189.9467
L183.1212 189.1848
" />
<path d="M183.1212 189.1848
L183.2403 188.9943
" />
<path d="M183.2403 188.9943
L183.4427 188.8991
" />
<path d="M183.4427 188.8991
L183.8236 188.8991
" />
<path d="M183.8236 188.8991
L184.0022 188.9943
" />
<path d="M184.0022 188.9943
L184.0736 189.1848
" />
<path d="M184.0736 189.1848
L184.0498 189.3753
" />
<path d="M184.0498 189.3753
L183.0736 189.5658
" />
<path d="M184.8117 190.0420
L184.8951 190.1372
" />
<path d="M184.8951 190.1372
L184.7879 190.2324
" />
<path d="M184.7879 190.2324
L184.7046 190.1372
" />
<path d="M184.7046 190.1372
L184.8117 190.0420
" />
<path d="M184.8117 190.0420
L184.7879 190.2324
" />
<path d="M184.9427 188.9943
L185.0260 189.0896
" />
<path d="M185.0260 189.0896
L184.9189 189.1848
" />
<path d="M184.9189 189.1848
L184.8355 189.0896
" />
<path d="M184.8355 189.0896
L184.9427 188.9943
" />
<path d="M184.9427 188.9943
L184.9189 189.1848
" />
</g></g>
<g style="fill:#000000; fill-opacity:0.0; 
stroke:#000000; stroke-width:0.0212; stroke-opacity:1; 
stroke-linecap:round; stroke-linejoin:round;">
</g>
<g style="fill:#000000; fill-opacity:0.0; 
stroke:#000000; stroke-width:0.1500; stroke-opacity:1; 
stroke-linecap:round; stroke-linejoin:round;">
<text x="178.0022" y="186.4572"
textLength="26.2893" font-size="2.0000" lengthAdjust="spacingAndGlyphs"
text-anchor="start" opacity="0">File: working.kicad_pcb</text>
<g class="stroked-text"><desc>File: working.kicad_pcb</desc>
<path d="M178.8593 185.6154
L178.3593 185.6154
" />
<path d="M178.3593 186.4011
L178.3593 184.9011
" />
<path d="M178.3593 184.9011
L179.0736 184.9011
" />
<path d="M179.6451 186.4011
L179.6451 185.4011
" />
<path d="M179.6451 184.9011
L179.5736 184.9726
" />
<path d="M179.5736 184.9726
L179.6451 185.0440
" />
<path d="M179.6451 185.0440
L179.7165 184.9726
" />
<path d="M179.7165 184.9726
L179.6451 184.9011
" />
<path d="M179.6451 184.9011
L179.6451 185.0440
" />
<path d="M180.5736 186.4011
L180.4308 186.3297
" />
<path d="M180.4308 186.3297
L180.3593 186.1868
" />
<path d="M180.3593 186.1868
L180.3593 184.9011
" />
<path d="M181.7165 186.3297
L181.5736 186.4011
" />
<path d="M181.5736 186.4011
L181.2879 186.4011
" />
<path d="M181.2879 186.4011
L181.1451 186.3297
" />
<path d="M181.1451 186.3297
L181.0736 186.1868
" />
<path d="M181.0736 186.1868
L181.0736 185.6154
" />
<path d="M181.0736 185.6154
L181.1451 185.4726
" />
<path d="M181.1451 185.4726
L181.2879 185.4011
" />
<path d="M181.2879 185.4011
L181.5736 185.4011
" />
<path d="M181.5736 185.4011
L181.7165 185.4726
" />
<path d="M181.7165 185.4726
L181.7879 185.6154
" />
<path d="M181.7879 185.6154
L181.7879 185.7583
" />
<path d="M181.7879 185.7583
L181.0736 185.9011
" />
<path d="M182.4308 186.2583
L182.5022 186.3297
" />
<path d="M182.5022 186.3297
L182.4308 186.4011
" />
<path d="M182.4308 186.4011
L182.3593 186.3297
" />
<path d="M182.3593 186.3297
L182.4308 186.2583
" />
<path d="M182.4308 186.2583
L182.4308 186.4011
" />
<path d="M182.4308 185.4726
L182.5022 185.5440
" />
<path d="M182.5022 185.5440
L182.4308 185.6154
" />
<path d="M182.4308 185.6154
L182.3593 185.5440
" />
<path d="M182.3593 185.5440
L182.4308 185.4726
" />
<path d="M182.4308 185.4726
L182.4308 185.6154
" />
<path d="M184.1451 185.4011
L184.4308 186.4011
" />
<path d="M184.4308 186.4011
L184.7165 185.6868
" />
<path d="M184.7165 185.6868
L185.0022 186.4011
" />
<path d="M185.0022 186.4011
L185.2879 185.4011
" />
<path d="M186.0736 186.4011
L185.9308 186.3297
" />
<path d="M185.9308 186.3297
L185.8593 186.2583
" />
<path d="M185.8593 186.2583
L185.7879 186.1154
" />
<path d="M185.7879 186.1154
L185.7879 185.6868
" />
<path d="M185.7879 185.6868
L185.8593 185.5440
" />
<path d="M185.8593 185.5440
L185.9308 185.4726
" />
<path d="M185.9308 185.4726
L186.0736 185.4011
" />
<path d="M186.0736 185.4011
L186.2879 185.4011
" />
<path d="M186.2879 185.4011
L186.4308 185.4726
" />
<path d="M186.4308 185.4726
L186.5022 185.5440
" />
<path d="M186.5022 185.5440
L186.5736 185.6868
" />
<path d="M186.5736 185.6868
L186.5736 186.1154
" />
<path d="M186.5736 186.1154
L186.5022 186.2583
" />
<path d="M186.5022 186.2583
L186.4308 186.3297
" />
<path d="M186.4308 186.3297
L186.2879 186.4011
" />
<path d="M186.2879 186.4011
L186.0736 186.4011
" />
<path d="M187.2165 186.4011
L187.2165 185.4011
" />
<path d="M187.2165 185.6868
L187.2879 185.5440
" />
<path d="M187.2879 185.5440
L187.3593 185.4726
" />
<path d="M187.3593 185.4726
L187.5022 185.4011
" />
<path d="M187.5022 185.4011
L187.6451 185.4011
" />
<path d="M188.1451 186.4011
L188.1451 184.9011
" />
<path d="M188.2879 185.8297
L188.7165 186.4011
" />
<path d="M188.7165 185.4011
L188.1451 185.9726
" />
<path d="M189.3593 186.4011
L189.3593 185.4011
" />
<path d="M189.3593 184.9011
L189.2879 184.9726
" />
<path d="M189.2879 184.9726
L189.3593 185.0440
" />
<path d="M189.3593 185.0440
L189.4308 184.9726
" />
<path d="M189.4308 184.9726
L189.3593 184.9011
" />
<path d="M189.3593 184.9011
L189.3593 185.0440
" />
<path d="M190.0736 185.4011
L190.0736 186.4011
" />
<path d="M190.0736 185.5440
L190.1451 185.4726
" />
<path d="M190.1451 185.4726
L190.2879 185.4011
" />
<path d="M190.2879 185.4011
L190.5022 185.4011
" />
<path d="M190.5022 185.4011
L190.6451 185.4726
" />
<path d="M190.6451 185.4726
L190.7165 185.6154
" />
<path d="M190.7165 185.6154
L190.7165 186.4011
" />
<path d="M192.0736 185.4011
L192.0736 186.6154
" />
<path d="M192.0736 186.6154
L192.0022 186.7583
" />
<path d="M192.0022 186.7583
L191.9308 186.8297
" />
<path d="M191.9308 186.8297
L191.7879 186.9011
" />
<path d="M191.7879 186.9011
L191.5736 186.9011
" />
<path d="M191.5736 186.9011
L191.4308 186.8297
" />
<path d="M192.0736 186.3297
L191.9308 186.4011
" />
<path d="M191.9308 186.4011
L191.6451 186.4011
" />
<path d="M191.6451 186.4011
L191.5022 186.3297
" />
<path d="M191.5022 186.3297
L191.4308 186.2583
" />
<path d="M191.4308 186.2583
L191.3593 186.1154
" />
<path d="M191.3593 186.1154
L191.3593 185.6868
" />
<path d="M191.3593 185.6868
L191.4308 185.5440
" />
<path d="M191.4308 185.5440
L191.5022 185.4726
" />
<path d="M191.5022 185.4726
L191.6451 185.4011
" />
<path d="M191.6451 185.4011
L191.9308 185.4011
" />
<path d="M191.9308 185.4011
L192.0736 185.4726
" />
<path d="M192.7879 186.2583
L192.8593 186.3297
" />
<path d="M192.8593 186.3297
L192.7879 186.4011
" />
<path d="M192.7879 186.4011
L192.7165 186.3297
" />
<path d="M192.7165 186.3297
L192.7879 186.2583
" />
<path d="M192.7879 186.2583
L192.7879 186.4011
" />
<path d="M193.5022 186.4011
L193.5022 184.9011
" />
<path d="M193.6451 185.8297
L194.0736 186.4011
" />
<path d="M194.0736 185.4011
L193.5022 185.9726
" />
<path d="M194.7165 186.4011
L194.7165 185.4011
" />
<path d="M194.7165 184.9011
L194.6451 184.9726
" />
<path d="M194.6451 184.9726
L194.7165 185.0440
" />
<path d="M194.7165 185.0440
L194.7879 184.9726
" />
<path d="M194.7879 184.9726
L194.7165 184.9011
" />
<path d="M194.7165 184.9011
L194.7165 185.0440
" />
<path d="M196.0736 186.3297
L195.9308 186.4011
" />
<path d="M195.9308 186.4011
L195.6451 186.4011
" />
<path d="M195.6451 186.4011
L195.5022 186.3297
" />
<path d="M195.5022 186.3297
L195.4308 186.2583
" />
<path d="M195.4308 186.2583
L195.3593 186.1154
" />
<path d="M195.3593 186.1154
L195.3593 185.6868
" />
<path d="M195.3593 185.6868
L195.4308 185.5440
" />
<path d="M195.4308 185.5440
L195.5022 185.4726
" />
<path d="M195.5022 185.4726
L195.6451 185.4011
" />
<path d="M195.6451 185.4011
L195.9308 185.4011
" />
<path d="M195.9308 185.4011
L196.0736 185.4726
" />
<path d="M197.3593 186.4011
L197.3593 185.6154
" />
<path d="M197.3593 185.6154
L197.2879 185.4726
" />
<path d="M197.2879 185.4726
L197.1451 185.4011
" />
<path d="M197.1451 185.4011
L196.8593 185.4011
" />
<path d="M196.8593 185.4011
L196.7165 185.4726
" />
<path d="M197.3593 186.3297
L197.2165 186.4011
" />
<path d="M197.2165 186.4011
L196.8593 186.4011
" />
<path d="M196.8593 186.4011
L196.7165 186.3297
" />
<path d="M196.7165 186.3297
L196.6451 186.1868
" />
<path d="M196.6451 186.1868
L196.6451 186.0440
" />
<path d="M196.6451 186.0440
L196.7165 185.9011
" />
<path d="M196.7165 185.9011
L196.8593 185.8297
" />
<path d="M196.8593 185.8297
L197.2165 185.8297
" />
<path d="M197.2165 185.8297
L197.3593 185.7583
" />
<path d="M198.7165 186.4011
L198.7165 184.9011
" />
<path d="M198.7165 186.3297
L198.5736 186.4011
" />
<path d="M198.5736 186.4011
L198.2879 186.4011
" />
<path d="M198.2879 186.4011
L198.1451 186.3297
" />
<path d="M198.1451 186.3297
L198.0736 186.2583
" />
<path d="M198.0736 186.2583
L198.0022 186.1154
" />
<path d="M198.0022 186.1154
L198.0022 185.6868
" />
<path d="M198.0022 185.6868
L198.0736 185.5440
" />
<path d="M198.0736 185.5440
L198.1451 185.4726
" />
<path d="M198.1451 185.4726
L198.2879 185.4011
" />
<path d="M198.2879 185.4011
L198.5736 185.4011
" />
<path d="M198.5736 185.4011
L198.7165 185.4726
" />
<path d="M199.0736 186.5440
L200.2165 186.5440
" />
<path d="M200.5736 185.4011
L200.5736 186.9011
" />
<path d="M200.5736 185.4726
L200.7165 185.4011
" />
<path d="M200.7165 185.4011
L201.0022 185.4011
" />
<path d="M201.0022 185.4011
L201.1451 185.4726
" />
<path d="M201.1451 185.4726
L201.2165 185.5440
" />
<path d="M201.2165 185.5440
L201.2879 185.6868
" />
<path d="M201.2879 185.6868
L201.2879 186.1154
" />
<path d="M201.2879 186.1154
L201.2165 186.2583
" />
<path d="M201.2165 186.2583
L201.1451 186.3297
" />
<path d="M201.1451 186.3297
L201.0022 186.4011
" />
<path d="M201.0022 186.4011
L200.7165 186.4011
" />
<path d="M200.7165 186.4011
L200.5736 186.3297
" />
<path d="M202.5736 186.3297
L202.4308 186.4011
" />
<path d="M202.4308 186.4011
L202.1451 186.4011
" />
<path d="M202.1451 186.4011
L202.0022 186.3297
" />
<path d="M202.0022 186.3297
L201.9308 186.2583
" />
<path d="M201.9308 186.2583
L201.8593 186.1154
" />
<path d="M201.8593 186.1154
L201.8593 185.6868
" />
<path d="M201.8593 185.6868
L201.9308 185.5440
" />
<path d="M201.9308 185.5440
L202.0022 185.4726
" />
<path d="M202.0022 185.4726
L202.1451 185.4011
" />
<path d="M202.1451 185.4011
L202.4308 185.4011
" />
<path d="M202.4308 185.4011
L202.5736 185.4726
" />
<path d="M203.2165 186.4011
L203.2165 184.9011
" />
<path d="M203.2165 185.4726
L203.3593 185.4011
" />
<path d="M203.3593 185.4011
L203.6451 185.4011
" />
<path d="M203.6451 185.4011
L203.7879 185.4726
" />
<path d="M203.7879 185.4726
L203.8593 185.5440
" />
<path d="M203.8593 185.5440
L203.9308 185.6868
" />
<path d="M203.9308 185.6868
L203.9308 186.1154
" />
<path d="M203.9308 186.1154
L203.8593 186.2583
" />
<path d="M203.8593 186.2583
L203.7879 186.3297
" />
<path d="M203.7879 186.3297
L203.6451 186.4011
" />
<path d="M203.6451 186.4011
L203.3593 186.4011
" />
<path d="M203.3593 186.4011
L203.2165 186.3297
" />
</g></g>
<g style="fill:#000000; fill-opacity:0.0; 
stroke:#000000; stroke-width:0.0212; stroke-opacity:1; 
stroke-linecap:round; stroke-linejoin:round;">
</g>
<g style="fill:#000000; fill-opacity:0.0; 
stroke:#000000; stroke-width:0.1500; stroke-opacity:1; 
stroke-linecap:round; stroke-linejoin:round;">
<path d="M177.0022 181.5072
L285.0022 181.5072
" />
</g>
<g style="fill:#000000; fill-opacity:0.0; 
stroke:#000000; stroke-width:0.0212; stroke-opacity:1; 
stroke-linecap:round; stroke-linejoin:round;">
</g>
<g style="fill:#000000; fill-opacity:0.0; 
stroke:#000000; stroke-width:0.1500; stroke-opacity:1; 
stroke-linecap:round; stroke-linejoin:round;">
<text x="178.0022" y="183.7572"
textLength="8.1464" font-size="2.0000" lengthAdjust="spacingAndGlyphs"
text-anchor="start" opacity="0">Sheet: </text>
<g class="stroked-text"><desc>Sheet: </desc>
<path d="M178.2879 183.6297
L178.5022 183.7011
" />
<path d="M178.5022 183.7011
L178.8593 183.7011
" />
<path d="M178.8593 183.7011
L179.0022 183.6297
" />
<path d="M179.0022 183.6297
L179.0736 183.5583
" />
<path d="M179.0736 183.5583
L179.1451 183.4154
" />
<path d="M179.1451 183.4154
L179.1451 183.2726
" />
<path d="M179.1451 183.2726
L179.0736 183.1297
" />
<path d="M179.0736 183.1297
L179.0022 183.0583
" />
<path d="M179.0022 183.0583
L178.8593 182.9868
" />
<path d="M178.8593 182.9868
L178.5736 182.9154
" />
<path d="M178.5736 182.9154
L178.4308 182.8440
" />
<path d="M178.4308 182.8440
L178.3593 182.7726
" />
<path d="M178.3593 182.7726
L178.2879 182.6297
" />
<path d="M178.2879 182.6297
L178.2879 182.4868
" />
<path d="M178.2879 182.4868
L178.3593 182.3440
" />
<path d="M178.3593 182.3440
L178.4308 182.2726
" />
<path d="M178.4308 182.2726
L178.5736 182.2011
" />
<path d="M178.5736 182.2011
L178.9308 182.2011
" />
<path d="M178.9308 182.2011
L179.1451 182.2726
" />
<path d="M179.7879 183.7011
L179.7879 182.2011
" />
<path d="M180.4308 183.7011
L180.4308 182.9154
" />
<path d="M180.4308 182.9154
L180.3593 182.7726
" />
<path d="M180.3593 182.7726
L180.2165 182.7011
" />
<path d="M180.2165 182.7011
L180.0022 182.7011
" />
<path d="M180.0022 182.7011
L179.8593 182.7726
" />
<path d="M179.8593 182.7726
L179.7879 182.8440
" />
<path d="M181.7165 183.6297
L181.5736 183.7011
" />
<path d="M181.5736 183.7011
L181.2879 183.7011
" />
<path d="M181.2879 183.7011
L181.1451 183.6297
" />
<path d="M181.1451 183.6297
L181.0736 183.4868
" />
<path d="M181.0736 183.4868
L181.0736 182.9154
" />
<path d="M181.0736 182.9154
L181.1451 182.7726
" />
<path d="M181.1451 182.7726
L181.2879 182.7011
" />
<path d="M181.2879 182.7011
L181.5736 182.7011
" />
<path d="M181.5736 182.7011
L181.7165 182.7726
" />
<path d="M181.7165 182.7726
L181.7879 182.9154
" />
<path d="M181.7879 182.9154
L181.7879 183.0583
" />
<path d="M181.7879 183.0583
L181.0736 183.2011
" />
<path d="M183.0022 183.6297
L182.8593 183.7011
" />
<path d="M182.8593 183.7011
L182.5736 183.7011
" />
<path d="M182.5736 183.7011
L182.4308 183.6297
" />
<path d="M182.4308 183.6297
L182.3593 183.4868
" />
<path d="M182.3593 183.4868
L182.3593 182.9154
" />
<path d="M182.3593 182.9154
L182.4308 182.7726
" />
<path d="M182.4308 182.7726
L182.5736 182.7011
" />
<path d="M182.5736 182.7011
L182.8593 182.7011
" />
<path d="M182.8593 182.7011
L183.0022 182.7726
" />
<path d="M183.0022 182.7726
L183.0736 182.9154
" />
<path d="M183.0736 182.9154
L183.0736 183.0583
" />
<path d="M183.0736 183.0583
L182.3593 183.2011
" />
<path d="M183.5022 182.7011
L184.0736 182.7011
" />
<path d="M183.7165 182.2011
L183.7165 183.4868
" />
<path d="M183.7165 183.4868
L183.7879 183.6297
" />
<path d="M183.7879 183.6297
L183.9308 183.7011
" />
<path d="M183.9308 183.7011
L184.0736 183.7011
" />
<path d="M184.5736 183.5583
L184.6451 183.6297
" />
<path d="M184.6451 183.6297
L184.5736 183.7011
" />
<path d="M184.5736 183.7011
L184.5022 183.6297
" />
<path d="M184.5022 183.6297
L184.5736 183.5583
" />
<path d="M184.5736 183.5583
L184.5736 183.7011
" />
<path d="M184.5736 182.7726
L184.6451 182.8440
" />
<path d="M184.6451 182.8440
L184.5736 182.9154
" />
<path d="M184.5736 182.9154
L184.5022 182.8440
" />
<path d="M184.5022 182.8440
L184.5736 182.7726
" />
<path d="M184.5736 182.7726
L184.5736 182.9154
" />
</g></g>
<g style="fill:#000000; fill-opacity:0.0; 
stroke:#000000; stroke-width:0.0212; stroke-opacity:1; 
stroke-linecap:round; stroke-linejoin:round;">
</g>
<g style="fill:#000000; fill-opacity:0.0; 
stroke:#000000; stroke-width:0.3000; stroke-opacity:1; 
stroke-linecap:round; stroke-linejoin:round;">
<text x="178.0022" y="180.7572"
textLength="0.7500" font-size="2.0000" lengthAdjust="spacingAndGlyphs"
text-anchor="start" opacity="0"></text>
<g class="stroked-text"><desc></desc>
</g></g>
<g style="fill:#000000; fill-opacity:0.0; 
stroke:#000000; stroke-width:0.0212; stroke-opacity:1; 
stroke-linecap:round; stroke-linejoin:round;">
</g>
<g style="fill:#000000; fill-opacity:0.0; 
stroke:#000000; stroke-width:0.1500; stroke-opacity:1; 
stroke-linecap:round; stroke-linejoin:round;">
<text x="178.0022" y="177.7572"
textLength="0.3750" font-size="2.0000" lengthAdjust="spacingAndGlyphs"
text-anchor="start" opacity="0"></text>
<g class="stroked-text"><desc></desc>
</g></g>
<g style="fill:#000000; fill-opacity:0.0; 
stroke:#000000; stroke-width:0.0212; stroke-opacity:1; 
stroke-linecap:round; stroke-linejoin:round;">
</g>
<g style="fill:#000000; fill-opacity:0.0; 
stroke:#000000; stroke-width:0.1500; stroke-opacity:1; 
stroke-linecap:round; stroke-linejoin:round;">
<text x="178.0022" y="174.7572"
textLength="0.3750" font-size="2.0000" lengthAdjust="spacingAndGlyphs"
text-anchor="start" opacity="0"></text>
<g class="stroked-text"><desc></desc>
</g></g>
<g style="fill:#000000; fill-opacity:0.0; 
stroke:#000000; stroke-width:0.0212; stroke-opacity:1; 
stroke-linecap:round; stroke-linejoin:round;">
</g>
<g style="fill:#000000; fill-opacity:0.0; 
stroke:#000000; stroke-width:0.1500; stroke-opacity:1; 
stroke-linecap:round; stroke-linejoin:round;">
<text x="178.0022" y="171.7572"
textLength="0.3750" font-size="2.0000" lengthAdjust="spacingAndGlyphs"
text-anchor="start" opacity="0"></text>
<g class="stroked-text"><desc></desc>
</g></g>
<g style="fill:#000000; fill-opacity:0.0; 
stroke:#000000; stroke-width:0.0212; stroke-opacity:1; 
stroke-linecap:round; stroke-linejoin:round;">
</g>
<g style="fill:#000000; fill-opacity:0.0; 
stroke:#000000; stroke-width:0.1500; stroke-opacity:1; 
stroke-linecap:round; stroke-linejoin:round;">
<text x="178.0022" y="168.7572"
textLength="0.3750" font-size="2.0000" lengthAdjust="spacingAndGlyphs"
text-anchor="start" opacity="0"></text>
<g class="stroked-text"><desc></desc>
</g></g>
<g style="fill:#000000; fill-opacity:0.0; 
stroke:#000000; stroke-width:0.0212; stroke-opacity:1; 
stroke-linecap:round; stroke-linejoin:round;">
</g>
<g style="fill:#000000; fill-opacity:0.0; 
stroke:#000000; stroke-width:0.1500; stroke-opacity:1; 
stroke-linecap:round; stroke-linejoin:round;">
<path d="M197.0022 191.5072
L197.0022 194.5072
" />
</g>
<g style="fill:#000000; fill-opacity:0.0; 
stroke:#000000; stroke-width:0.0212; stroke-opacity:1; 
stroke-linecap:round; stroke-linejoin:round;">
</g>
<g style="fill:#000000; fill-opacity:0.0; 
stroke:#000000; stroke-width:0.1500; stroke-opacity:1; 
stroke-linecap:round; stroke-linejoin:round;">
<path d="M261.0022 191.5072
L261.0022 198.0072
" />
</g>
<g style="fill:#F2EDA1; fill-opacity:0.0; 
stroke:#F2EDA1; stroke-width:0.1500; stroke-opacity:1; 
stroke-linecap:round; stroke-linejoin:round;">
</g>
<g style="fill:#F2EDA1; fill-opacity:0.0; 
stroke:#F2EDA1; stroke-width:0.1524; stroke-opacity:1; 
stroke-linecap:round; stroke-linejoin:round;">
<text x="149.4663" y="111.4298"
textLength="3.3337" font-size="1.1515" lengthAdjust="spacingAndGlyphs"
text-anchor="start" opacity="0">SHIM</text>
<g class="stroked-text"><desc>SHIM</desc>
<path d="M149.6308 111.2830
L149.7542 111.3241
" />
<path d="M149.7542 111.3241
L149.9598 111.3241
" />
<path d="M149.9598 111.3241
L150.0420 111.2830
" />
<path d="M150.0420 111.2830
L150.0832 111.2419
" />
<path d="M150.0832 111.2419
L150.1243 111.1596
" />
<path d="M150.1243 111.1596
L150.1243 111.0774
" />
<path d="M150.1243 111.0774
L150.0832 110.9951
" />
<path d="M150.0832 110.9951
L150.0420 110.9540
" />
<path d="M150.0420 110.9540
L149.9598 110.9129
" />
<path d="M149.9598 110.9129
L149.7953 110.8717
" />
<path d="M149.7953 110.8717
L149.7130 110.8306
" />
<path d="M149.7130 110.8306
L149.6719 110.7895
" />
<path d="M149.6719 110.7895
L149.6308 110.7073
" />
<path d="M149.6308 110.7073
L149.6308 110.6250
" />
<path d="M149.6308 110.6250
L149.6719 110.5428
" />
<path d="M149.6719 110.5428
L149.7130 110.5016
" />
<path d="M149.7130 110.5016
L149.7953 110.4605
" />
<path d="M149.7953 110.4605
L150.0009 110.4605
" />
<path d="M150.0009 110.4605
L150.1243 110.5016
" />
<path d="M150.4944 111.3241
L150.4944 110.4605
" />
<path d="M150.4944 110.8717
L150.9879 110.8717
" />
<path d="M150.9879 111.3241
L150.9879 110.4605
" />
<path d="M151.3991 111.3241
L151.3991 110.4605
" />
<path d="M151.8104 111.3241
L151.8104 110.4605
" />
<path d="M151.8104 110.4605
L152.0982 111.0774
" />
<path d="M152.0982 111.0774
L152.3861 110.4605
" />
<path d="M152.3861 110.4605
L152.3861 111.3241
" />
</g></g>
<g style="fill:#F2EDA1; fill-opacity:0.0; 
stroke:#F2EDA1; stroke-width:0.0975; stroke-opacity:1; 
stroke-linecap:round; stroke-linejoin:round;">
<g transform="rotate(-90.000000 146.2405 105.0036)">
<text x="146.2405" y="105.2596"
textLength="1.0193" font-size="0.6828" lengthAdjust="spacingAndGlyphs"
text-anchor="end" opacity="0">J1</text>
</g>
<g class="stroked-text"><desc>J1</desc>
<path d="M145.9653 105.6132
L146.3311 105.6132
" />
<path d="M146.3311 105.6132
L146.4042 105.6376
" />
<path d="M146.4042 105.6376
L146.4530 105.6864
" />
<path d="M146.4530 105.6864
L146.4774 105.7595
" />
<path d="M146.4774 105.7595
L146.4774 105.8083
" />
<path d="M146.4774 105.1011
L146.4774 105.3937
" />
<path d="M146.4774 105.2474
L145.9653 105.2474
" />
<path d="M145.9653 105.2474
L146.0385 105.2962
" />
<path d="M146.0385 105.2962
L146.0872 105.3450
" />
<path d="M146.0872 105.3450
L146.1116 105.3937
" />
</g><text x="150.9141" y="109.1712"
textLength="1.1412" font-size="0.6828" lengthAdjust="spacingAndGlyphs"
text-anchor="start" opacity="0">C1</text>
<g class="stroked-text"><desc>C1</desc>
<path d="M151.3286 109.1033
L151.3042 109.1277
" />
<path d="M151.3042 109.1277
L151.2311 109.1521
" />
<path d="M151.2311 109.1521
L151.1823 109.1521
" />
<path d="M151.1823 109.1521
L151.1092 109.1277
" />
<path d="M151.1092 109.1277
L151.0604 109.0789
" />
<path d="M151.0604 109.0789
L151.0360 109.0302
" />
<path d="M151.0360 109.0302
L151.0116 108.9326
" />
<path d="M151.0116 108.9326
L151.0116 108.8595
" />
<path d="M151.0116 108.8595
L151.0360 108.7619
" />
<path d="M151.0360 108.7619
L151.0604 108.7132
" />
<path d="M151.0604 108.7132
L151.1092 108.6644
" />
<path d="M151.1092 108.6644
L151.1823 108.6400
" />
<path d="M151.1823 108.6400
L151.2311 108.6400
" />
<path d="M151.2311 108.6400
L151.3042 108.6644
" />
<path d="M151.3042 108.6644
L151.3286 108.6888
" />
<path d="M151.8163 109.1521
L151.5237 109.1521
" />
<path d="M151.6700 109.1521
L151.6700 108.6400
" />
<path d="M151.6700 108.6400
L151.6212 108.7132
" />
<path d="M151.6212 108.7132
L151.5725 108.7619
" />
<path d="M151.5725 108.7619
L151.5237 108.7863
" />
</g></g>
<g style="fill:#F2EDA1; fill-opacity:0.0; 
stroke:#F2EDA1; stroke-width:0.0299; stroke-opacity:1; 
stroke-linecap:round; stroke-linejoin:round;">
<text x="150.5077" y="104.9632"
textLength="0.7525" font-size="0.5020" lengthAdjust="spacingAndGlyphs"
text-anchor="start" opacity="0">U2</text>
<g class="stroked-text"><desc>U2</desc>
<path d="M150.5973 104.5727
L150.5973 104.8775
" />
<path d="M150.5973 104.8775
L150.6153 104.9133
" />
<path d="M150.6153 104.9133
L150.6332 104.9312
" />
<path d="M150.6332 104.9312
L150.6691 104.9492
" />
<path d="M150.6691 104.9492
L150.7408 104.9492
" />
<path d="M150.7408 104.9492
L150.7766 104.9312
" />
<path d="M150.7766 104.9312
L150.7945 104.9133
" />
<path d="M150.7945 104.9133
L150.8125 104.8775
" />
<path d="M150.8125 104.8775
L150.8125 104.5727
" />
<path d="M150.9738 104.6085
L150.9918 104.5906
" />
<path d="M150.9918 104.5906
L151.0276 104.5727
" />
<path d="M151.0276 104.5727
L151.1173 104.5727
" />
<path d="M151.1173 104.5727
L151.1531 104.5906
" />
<path d="M151.1531 104.5906
L151.1710 104.6085
" />
<path d="M151.1710 104.6085
L151.1890 104.6444
" />
<path d="M151.1890 104.6444
L151.1890 104.6803
" />
<path d="M151.1890 104.6803
L151.1710 104.7340
" />
<path d="M151.1710 104.7340
L150.9559 104.9492
" />
<path d="M150.9559 104.9492
L151.1890 104.9492
" />
</g></g>
<g style="fill:#F2EDA1; fill-opacity:0.0; 
stroke:#F2EDA1; stroke-width:0.0975; stroke-opacity:1; 
stroke-linecap:round; stroke-linejoin:round;">
<text x="151.3713" y="103.6086"
textLength="1.1412" font-size="0.6828" lengthAdjust="spacingAndGlyphs"
text-anchor="start" opacity="0">C3</text>
<g class="stroked-text"><desc>C3</desc>
<path d="M151.7858 103.5407
L151.7614 103.5651
" />
<path d="M151.7614 103.5651
L151.6883 103.5895
" />
<path d="M151.6883 103.5895
L151.6395 103.5895
" />
<path d="M151.6395 103.5895
L151.5664 103.5651
" />
<path d="M151.5664 103.5651
L151.5176 103.5163
" />
<path d="M151.5176 103.5163
L151.4932 103.4676
" />
<path d="M151.4932 103.4676
L151.4688 103.3700
" />
<path d="M151.4688 103.3700
L151.4688 103.2969
" />
<path d="M151.4688 103.2969
L151.4932 103.1993
" />
<path d="M151.4932 103.1993
L151.5176 103.1506
" />
<path d="M151.5176 103.1506
L151.5664 103.1018
" />
<path d="M151.5664 103.1018
L151.6395 103.0774
" />
<path d="M151.6395 103.0774
L151.6883 103.0774
" />
<path d="M151.6883 103.0774
L151.7614 103.1018
" />
<path d="M151.7614 103.1018
L151.7858 103.1262
" />
<path d="M151.9565 103.0774
L152.2735 103.0774
" />
<path d="M152.2735 103.0774
L152.1028 103.2725
" />
<path d="M152.1028 103.2725
L152.1760 103.2725
" />
<path d="M152.1760 103.2725
L152.2247 103.2969
" />
<path d="M152.2247 103.2969
L152.2491 103.3213
" />
<path d="M152.2491 103.3213
L152.2735 103.3700
" />
<path d="M152.2735 103.3700
L152.2735 103.4920
" />
<path d="M152.2735 103.4920
L152.2491 103.5407
" />
<path d="M152.2491 103.5407
L152.2247 103.5651
" />
<path d="M152.2247 103.5651
L152.1760 103.5895
" />
<path d="M152.1760 103.5895
L152.0297 103.5895
" />
<path d="M152.0297 103.5895
L151.9809 103.5651
" />
<path d="M151.9809 103.5651
L151.9565 103.5407
" />
</g><text x="143.4211" y="98.1476"
textLength="1.0193" font-size="0.6828" lengthAdjust="spacingAndGlyphs"
text-anchor="start" opacity="0">J9</text>
<g class="stroked-text"><desc>J9</desc>
<path d="M143.6893 97.6164
L143.6893 97.9822
" />
<path d="M143.6893 97.9822
L143.6649 98.0553
" />
<path d="M143.6649 98.0553
L143.6162 98.1041
" />
<path d="M143.6162 98.1041
L143.5430 98.1285
" />
<path d="M143.5430 98.1285
L143.4943 98.1285
" />
<path d="M143.9575 98.1285
L144.0551 98.1285
" />
<path d="M144.0551 98.1285
L144.1039 98.1041
" />
<path d="M144.1039 98.1041
L144.1282 98.0797
" />
<path d="M144.1282 98.0797
L144.1770 98.0066
" />
<path d="M144.1770 98.0066
L144.2014 97.9090
" />
<path d="M144.2014 97.9090
L144.2014 97.7140
" />
<path d="M144.2014 97.7140
L144.1770 97.6652
" />
<path d="M144.1770 97.6652
L144.1526 97.6408
" />
<path d="M144.1526 97.6408
L144.1039 97.6164
" />
<path d="M144.1039 97.6164
L144.0063 97.6164
" />
<path d="M144.0063 97.6164
L143.9575 97.6408
" />
<path d="M143.9575 97.6408
L143.9332 97.6652
" />
<path d="M143.9332 97.6652
L143.9088 97.7140
" />
<path d="M143.9088 97.7140
L143.9088 97.8359
" />
<path d="M143.9088 97.8359
L143.9332 97.8847
" />
<path d="M143.9332 97.8847
L143.9575 97.9090
" />
<path d="M143.9575 97.9090
L144.0063 97.9334
" />
<path d="M144.0063 97.9334
L144.1039 97.9334
" />
<path d="M144.1039 97.9334
L144.1526 97.9090
" />
<path d="M144.1526 97.9090
L144.1770 97.8847
" />
<path d="M144.1770 97.8847
L144.2014 97.8359
" />
</g></g>
<g style="fill:#F2EDA1; fill-opacity:1.0000; 
stroke:#F2EDA1; stroke-width:0.0000; stroke-opacity:1; 
stroke-linecap:round; stroke-linejoin:round;">
<path style="fill:#F2EDA1; fill-opacity:1.0000; 
stroke:#F2EDA1; stroke-width:0.0000; stroke-opacity:1; 
stroke-linecap:round; stroke-linejoin:round;fill-rule:evenodd;"
d="M 145.3070,110.6487
145.3534,110.6754
145.3931,110.7116
145.4197,110.7594
145.4343,110.8101
145.4345,110.8109
145.4426,110.8639
145.4375,110.9170
145.4375,110.9173
145.4293,110.9707
145.4029,111.0184
145.3697,111.0599
145.3259,111.0930
145.2733,111.1063
145.2201,111.1102
145.1664,111.0991
145.1201,111.0723
145.0802,111.0362
145.0535,110.9885
145.0387,110.9379
145.0385,110.9370
145.0303,110.8840
145.0354,110.8310
145.0355,110.8306
145.0437,110.7772
145.0703,110.7296
145.1036,110.6883
145.1475,110.6553
145.2001,110.6420
145.2533,110.6377
Z" /> 
<path style="fill:#F2EDA1; fill-opacity:1.0000; 
stroke:#F2EDA1; stroke-width:0.0000; stroke-opacity:1; 
stroke-linecap:round; stroke-linejoin:round;fill-rule:evenodd;"
d="M 148.5667,110.0448
148.5908,110.0472
148.6960,110.0578
148.6965,110.0579
148.7483,110.0668
148.7491,110.0670
148.8502,110.0984
148.8506,110.0985
148.8997,110.1175
148.9004,110.1178
148.9934,110.1683
148.9938,110.1685
149.0381,110.1969
149.0387,110.1974
149.1203,110.2647
149.1207,110.2650
149.1584,110.3018
149.1588,110.3023
149.2261,110.3839
149.2265,110.3844
149.2559,110.4280
149.2563,110.4285
149.3067,110.5215
149.3070,110.5221
149.3271,110.5707
149.3273,110.5713
149.3587,110.6723
149.3588,110.6729
149.3691,110.7245
149.3692,110.7251
149.3798,110.8303
149.3798,110.8309
149.3807,110.8835
149.3807,110.8842
149.3700,110.9895
149.3700,110.9899
149.3614,111.0418
149.3612,111.0427
149.3299,111.1437
149.3298,111.1440
149.3112,111.1933
149.3108,111.1941
149.2604,111.2870
149.2602,111.2874
149.2321,111.3320
149.2316,111.3326
149.1643,111.4142
149.1640,111.4145
149.1275,111.4525
149.1269,111.4530
149.0454,111.5203
149.0449,111.5206
149.0015,111.5504
149.0009,111.5508
148.9080,111.6012
148.9074,111.6015
148.8590,111.6220
148.8584,111.6222
148.7574,111.6536
148.7568,111.6537
148.7052,111.6644
148.7046,111.6645
148.5994,111.6751
148.5991,111.6751
148.5464,111.6784
148.5460,111.6784
145.7962,111.6784
145.7388,111.6792
145.7388,110.4089
145.4445,110.4089
145.4440,110.4141
145.4440,110.5342
145.4019,110.4948
145.3618,110.4614
145.3175,110.4346
145.2693,110.4156
145.2187,110.4040
145.1671,110.3992
145.0630,110.4072
145.0133,110.4222
144.9649,110.4411
144.9196,110.4663
144.8792,110.4989
144.8420,110.5350
144.8114,110.5770
144.7861,110.6224
144.7645,110.6697
144.7512,110.7202
144.7397,110.7711
144.7332,110.8755
144.7430,110.9797
144.7555,111.0304
144.7716,111.0799
144.7931,111.1274
144.8208,111.1714
144.8516,111.2132
144.8902,111.2479
144.9320,111.2786
144.9773,111.3041
145.0263,111.3211
145.0765,111.3347
145.1284,111.3396
145.1805,111.3418
145.2321,111.3361
145.2823,111.3234
145.3295,111.3021
145.3727,111.2737
145.4109,111.2384
145.4440,111.2026
145.4440,111.6571
145.4443,111.6784
145.1882,111.6784
145.1876,111.6784
145.0292,111.6625
144.8762,111.6165
144.7351,111.5415
144.6112,111.4406
144.5093,111.3175
144.4335,111.1767
144.3865,111.0239
144.3705,110.8649
144.3859,110.7058
144.4000,110.6545
144.4000,110.6543
144.4315,110.5528
144.4553,110.5051
144.4554,110.5049
144.5061,110.4114
144.6066,110.2873
144.7294,110.1850
144.8698,110.1087
145.0226,110.0613
145.1811,110.0453
145.1816,110.0453
145.2345,110.0447
148.5661,110.0447
Z" /> 
</g>
<g style="fill:#F2EDA1; fill-opacity:1.0000; 
stroke:#F2EDA1; stroke-width:0.2540; stroke-opacity:1; 
stroke-linecap:round; stroke-linejoin:round;">
</g>
<g style="fill:#F2EDA1; fill-opacity:0.0; 
stroke:#F2EDA1; stroke-width:0.2540; stroke-opacity:1; 
stroke-linecap:round; stroke-linejoin:round;">
<path d="M148.0495 103.4006
L148.0495 104.1506
" />
<path d="M146.3995 103.4006
L148.0495 103.4006
" />
<path d="M143.7995 104.9006
L143.7995 107.9006
" />
<path d="M148.0495 108.6506
L148.0495 109.4006
" />
<path d="M148.0495 109.4006
L146.3995 109.4006
" />
</g>
<g style="fill:#F2EDA1; fill-opacity:0.0; 
stroke:#F2EDA1; stroke-width:0.4000; stroke-opacity:1; 
stroke-linecap:round; stroke-linejoin:round;">
</g>
<g style="fill:#F2EDA1; fill-opacity:1.0000; 
stroke:#F2EDA1; stroke-width:0.0000; stroke-opacity:1; 
stroke-linecap:round; stroke-linejoin:round;">
<circle cx="148.6995" cy="103.9006" r="0.3414" /> 
</g>
<g style="fill:#F2EDA1; fill-opacity:1.0000; 
stroke:#F2EDA1; stroke-width:0.2032; stroke-opacity:1; 
stroke-linecap:round; stroke-linejoin:round;">
</g>
<g style="fill:#F2EDA1; fill-opacity:0.0; 
stroke:#F2EDA1; stroke-width:0.2032; stroke-opacity:1; 
stroke-linecap:round; stroke-linejoin:round;">
<path d="M150.1267 107.3634
L150.1267 106.5046
" />
<path d="M151.1283 106.2252
L151.6651 106.2252
" />
<path d="M152.6667 106.5046
L152.6667 107.3634
" />
</g>
<g style="fill:#F2EDA1; fill-opacity:1.0000; 
stroke:#F2EDA1; stroke-width:0.0000; stroke-opacity:1; 
stroke-linecap:round; stroke-linejoin:round;">
<circle cx="149.7965" cy="107.9500" r="0.1270" /> 
<g >
</g>
<g >
</g>
<g >
</g>
<g >
</g>
<g >
</g>
<g >
</g>
<g >
</g>
<g >
</g>
<g >
</g>
<g >
</g>
<g >
</g>
<g >
</g>
<g >
</g>
<g >
</g>
<g >
</g>
<g >
</g>
<g >
</g>
</g>
<g style="fill:#000000; fill-opacity:1.0000; 
stroke:#000000; stroke-width:0.0000; stroke-opacity:1; 
stroke-linecap:round; stroke-linejoin:round;">
</g>
<g style="fill:#D0D2CD; fill-opacity:1.0000; 
stroke:#D0D2CD; stroke-width:0.0000; stroke-opacity:1; 
stroke-linecap:round; stroke-linejoin:round;">
</g>
<g style="fill:#D0D2CD; fill-opacity:0.0; 
stroke:#D0D2CD; stroke-width:0.2032; stroke-opacity:1; 
stroke-linecap:round; stroke-linejoin:round;">
<path d="M152.3111 111.9886 A1.3022 1.3022 0.0 0 0 153.5811 110.7186" />
<path d="M151.0411 102.7938
L152.9461 102.7938
" />
<path d="M143.4211 110.7186
L143.4211 99.2886
" />
<path d="M153.5811 103.4034 A0.6224 0.6224 0.0 0 0 152.9461 102.7938" />
<path d="M149.7711 98.0186
L144.6911 98.0186
" />
<path d="M153.5811 103.4034
L153.5811 110.7186
" />
<path d="M152.3111 111.9886
L144.6911 111.9886
" />
<path d="M144.6911 98.0187 A1.3021 1.3021 0.0 0 0 143.4211 99.2886" />
<path d="M143.4211 110.7186 A1.2700 1.2700 0.0 0 0 144.6911 111.9886" />
<path d="M151.0411 99.2886 A1.2700 1.2700 0.0 0 0 149.7711 98.0186" />
<path d="M151.0411 102.7938
L151.0411 99.2886
" />
<g >
</g>
<g >
</g>
<g >
</g>
<g >
</g>
<g >
</g>
<g >
</g>
<g >
</g>
<g >
</g>
<g >
</g>
<g >
</g>
<g >
</g>
<g >
</g>
<g >
</g>
<g >
</g>
<g >
</g>
<g >
</g>
<g >
</g>
</g> 
</svg>
