<?xml version="1.0" standalone="no"?>
 <!DOCTYPE svg PUBLIC "-//W3C//DTD SVG 1.1//EN" 
 "http://www.w3.org/Graphics/SVG/1.1/DTD/svg11.dtd"> 
<svg
  xmlns:svg="http://www.w3.org/2000/svg"
  xmlns="http://www.w3.org/2000/svg"
  xmlns:xlink="http://www.w3.org/1999/xlink"
  version="1.1"
  width="297.0022mm" height="210.0072mm" viewBox="0.0000 0.0000 297.0022 210.0072">
<title>SVG Image created as working-F_Mask.svg date 2023/07/26 11:38:35 </title>
  <desc>Image generated by PCBNEW </desc>
<g style="fill:#000000; fill-opacity:1.0000;stroke:#000000; stroke-opacity:1.0000;
stroke-linecap:round; stroke-linejoin:round;"
 transform="translate(0 0) scale(1 1)">
</g>
<g style="fill:#000000; fill-opacity:0.0; 
stroke:#000000; stroke-width:0.0000; stroke-opacity:1; 
stroke-linecap:round; stroke-linejoin:round;">
</g>
<g style="fill:#000000; fill-opacity:0.0; 
stroke:#000000; stroke-width:0.0212; stroke-opacity:1; 
stroke-linecap:round; stroke-linejoin:round;">
</g>
<g style="fill:#000000; fill-opacity:0.0; 
stroke:#000000; stroke-width:0.1500; stroke-opacity:1; 
stroke-linecap:round; stroke-linejoin:round;">
<path d="M177.0022 166.0072
L285.0022 166.0072
L285.0022 198.0072
L177.0022 198.0072
L177.0022 166.0072
" />
</g>
<g style="fill:#000000; fill-opacity:0.0; 
stroke:#000000; stroke-width:0.0212; stroke-opacity:1; 
stroke-linecap:round; stroke-linejoin:round;">
</g>
<g style="fill:#000000; fill-opacity:0.0; 
stroke:#000000; stroke-width:0.1500; stroke-opacity:1; 
stroke-linecap:round; stroke-linejoin:round;">
<path d="M10.0000 10.0000
L287.0022 10.0000
L287.0022 200.0072
L10.0000 200.0072
L10.0000 10.0000
" />
</g>
<g style="fill:#000000; fill-opacity:0.0; 
stroke:#000000; stroke-width:0.0212; stroke-opacity:1; 
stroke-linecap:round; stroke-linejoin:round;">
</g>
<g style="fill:#000000; fill-opacity:0.0; 
stroke:#000000; stroke-width:0.1500; stroke-opacity:1; 
stroke-linecap:round; stroke-linejoin:round;">
<path d="M12.0000 12.0000
L285.0022 12.0000
L285.0022 198.0072
L12.0000 198.0072
L12.0000 12.0000
" />
</g>
<g style="fill:#000000; fill-opacity:0.0; 
stroke:#000000; stroke-width:0.0212; stroke-opacity:1; 
stroke-linecap:round; stroke-linejoin:round;">
</g>
<g style="fill:#000000; fill-opacity:0.0; 
stroke:#000000; stroke-width:0.1500; stroke-opacity:1; 
stroke-linecap:round; stroke-linejoin:round;">
<path d="M60.0000 12.0000
L60.0000 10.0000
" />
</g>
<g style="fill:#000000; fill-opacity:0.0; 
stroke:#000000; stroke-width:0.0212; stroke-opacity:1; 
stroke-linecap:round; stroke-linejoin:round;">
</g>
<g style="fill:#000000; fill-opacity:0.0; 
stroke:#000000; stroke-width:0.1500; stroke-opacity:1; 
stroke-linecap:round; stroke-linejoin:round;">
<path d="M110.0000 12.0000
L110.0000 10.0000
" />
</g>
<g style="fill:#000000; fill-opacity:0.0; 
stroke:#000000; stroke-width:0.0212; stroke-opacity:1; 
stroke-linecap:round; stroke-linejoin:round;">
</g>
<g style="fill:#000000; fill-opacity:0.0; 
stroke:#000000; stroke-width:0.1500; stroke-opacity:1; 
stroke-linecap:round; stroke-linejoin:round;">
<path d="M160.0000 12.0000
L160.0000 10.0000
" />
</g>
<g style="fill:#000000; fill-opacity:0.0; 
stroke:#000000; stroke-width:0.0212; stroke-opacity:1; 
stroke-linecap:round; stroke-linejoin:round;">
</g>
<g style="fill:#000000; fill-opacity:0.0; 
stroke:#000000; stroke-width:0.1500; stroke-opacity:1; 
stroke-linecap:round; stroke-linejoin:round;">
<path d="M210.0000 12.0000
L210.0000 10.0000
" />
</g>
<g style="fill:#000000; fill-opacity:0.0; 
stroke:#000000; stroke-width:0.0212; stroke-opacity:1; 
stroke-linecap:round; stroke-linejoin:round;">
</g>
<g style="fill:#000000; fill-opacity:0.0; 
stroke:#000000; stroke-width:0.1500; stroke-opacity:1; 
stroke-linecap:round; stroke-linejoin:round;">
<path d="M260.0000 12.0000
L260.0000 10.0000
" />
</g>
<g style="fill:#000000; fill-opacity:0.0; 
stroke:#000000; stroke-width:0.0212; stroke-opacity:1; 
stroke-linecap:round; stroke-linejoin:round;">
</g>
<g style="fill:#000000; fill-opacity:0.0; 
stroke:#000000; stroke-width:0.1500; stroke-opacity:1; 
stroke-linecap:round; stroke-linejoin:round;">
<text x="35.0000" y="11.6500"
textLength="1.4281" font-size="1.7333" lengthAdjust="spacingAndGlyphs"
text-anchor="start" opacity="0">1</text>
<g class="stroked-text"><desc>1</desc>
<path d="M36.0892 11.5936
L35.3463 11.5936
" />
<path d="M35.7177 11.5936
L35.7177 10.2936
" />
<path d="M35.7177 10.2936
L35.5939 10.4793
" />
<path d="M35.5939 10.4793
L35.4701 10.6031
" />
<path d="M35.4701 10.6031
L35.3463 10.6650
" />
</g></g>
<g style="fill:#000000; fill-opacity:0.0; 
stroke:#000000; stroke-width:0.0212; stroke-opacity:1; 
stroke-linecap:round; stroke-linejoin:round;">
</g>
<g style="fill:#000000; fill-opacity:0.0; 
stroke:#000000; stroke-width:0.1500; stroke-opacity:1; 
stroke-linecap:round; stroke-linejoin:round;">
<text x="85.0000" y="11.6500"
textLength="1.4281" font-size="1.7333" lengthAdjust="spacingAndGlyphs"
text-anchor="start" opacity="0">2</text>
<g class="stroked-text"><desc>2</desc>
<path d="M85.3463 10.4174
L85.4082 10.3555
" />
<path d="M85.4082 10.3555
L85.5320 10.2936
" />
<path d="M85.5320 10.2936
L85.8415 10.2936
" />
<path d="M85.8415 10.2936
L85.9654 10.3555
" />
<path d="M85.9654 10.3555
L86.0273 10.4174
" />
<path d="M86.0273 10.4174
L86.0892 10.5412
" />
<path d="M86.0892 10.5412
L86.0892 10.6650
" />
<path d="M86.0892 10.6650
L86.0273 10.8507
" />
<path d="M86.0273 10.8507
L85.2844 11.5936
" />
<path d="M85.2844 11.5936
L86.0892 11.5936
" />
</g></g>
<g style="fill:#000000; fill-opacity:0.0; 
stroke:#000000; stroke-width:0.0212; stroke-opacity:1; 
stroke-linecap:round; stroke-linejoin:round;">
</g>
<g style="fill:#000000; fill-opacity:0.0; 
stroke:#000000; stroke-width:0.1500; stroke-opacity:1; 
stroke-linecap:round; stroke-linejoin:round;">
<text x="135.0000" y="11.6500"
textLength="1.4281" font-size="1.7333" lengthAdjust="spacingAndGlyphs"
text-anchor="start" opacity="0">3</text>
<g class="stroked-text"><desc>3</desc>
<path d="M135.2844 10.2936
L136.0892 10.2936
" />
<path d="M136.0892 10.2936
L135.6558 10.7888
" />
<path d="M135.6558 10.7888
L135.8415 10.7888
" />
<path d="M135.8415 10.7888
L135.9654 10.8507
" />
<path d="M135.9654 10.8507
L136.0273 10.9127
" />
<path d="M136.0273 10.9127
L136.0892 11.0365
" />
<path d="M136.0892 11.0365
L136.0892 11.3460
" />
<path d="M136.0892 11.3460
L136.0273 11.4698
" />
<path d="M136.0273 11.4698
L135.9654 11.5317
" />
<path d="M135.9654 11.5317
L135.8415 11.5936
" />
<path d="M135.8415 11.5936
L135.4701 11.5936
" />
<path d="M135.4701 11.5936
L135.3463 11.5317
" />
<path d="M135.3463 11.5317
L135.2844 11.4698
" />
</g></g>
<g style="fill:#000000; fill-opacity:0.0; 
stroke:#000000; stroke-width:0.0212; stroke-opacity:1; 
stroke-linecap:round; stroke-linejoin:round;">
</g>
<g style="fill:#000000; fill-opacity:0.0; 
stroke:#000000; stroke-width:0.1500; stroke-opacity:1; 
stroke-linecap:round; stroke-linejoin:round;">
<text x="185.0000" y="11.6500"
textLength="1.4281" font-size="1.7333" lengthAdjust="spacingAndGlyphs"
text-anchor="start" opacity="0">4</text>
<g class="stroked-text"><desc>4</desc>
<path d="M185.9654 10.7269
L185.9654 11.5936
" />
<path d="M185.6558 10.2317
L185.3463 11.1603
" />
<path d="M185.3463 11.1603
L186.1511 11.1603
" />
</g></g>
<g style="fill:#000000; fill-opacity:0.0; 
stroke:#000000; stroke-width:0.0212; stroke-opacity:1; 
stroke-linecap:round; stroke-linejoin:round;">
</g>
<g style="fill:#000000; fill-opacity:0.0; 
stroke:#000000; stroke-width:0.1500; stroke-opacity:1; 
stroke-linecap:round; stroke-linejoin:round;">
<text x="235.0000" y="11.6500"
textLength="1.4281" font-size="1.7333" lengthAdjust="spacingAndGlyphs"
text-anchor="start" opacity="0">5</text>
<g class="stroked-text"><desc>5</desc>
<path d="M236.0273 10.2936
L235.4082 10.2936
" />
<path d="M235.4082 10.2936
L235.3463 10.9127
" />
<path d="M235.3463 10.9127
L235.4082 10.8507
" />
<path d="M235.4082 10.8507
L235.5320 10.7888
" />
<path d="M235.5320 10.7888
L235.8415 10.7888
" />
<path d="M235.8415 10.7888
L235.9654 10.8507
" />
<path d="M235.9654 10.8507
L236.0273 10.9127
" />
<path d="M236.0273 10.9127
L236.0892 11.0365
" />
<path d="M236.0892 11.0365
L236.0892 11.3460
" />
<path d="M236.0892 11.3460
L236.0273 11.4698
" />
<path d="M236.0273 11.4698
L235.9654 11.5317
" />
<path d="M235.9654 11.5317
L235.8415 11.5936
" />
<path d="M235.8415 11.5936
L235.5320 11.5936
" />
<path d="M235.5320 11.5936
L235.4082 11.5317
" />
<path d="M235.4082 11.5317
L235.3463 11.4698
" />
</g></g>
<g style="fill:#000000; fill-opacity:0.0; 
stroke:#000000; stroke-width:0.0212; stroke-opacity:1; 
stroke-linecap:round; stroke-linejoin:round;">
</g>
<g style="fill:#000000; fill-opacity:0.0; 
stroke:#000000; stroke-width:0.1500; stroke-opacity:1; 
stroke-linecap:round; stroke-linejoin:round;">
<text x="285.0000" y="11.6500"
textLength="1.4281" font-size="1.7333" lengthAdjust="spacingAndGlyphs"
text-anchor="start" opacity="0">6</text>
<g class="stroked-text"><desc>6</desc>
<path d="M285.9654 10.2936
L285.7177 10.2936
" />
<path d="M285.7177 10.2936
L285.5939 10.3555
" />
<path d="M285.5939 10.3555
L285.5320 10.4174
" />
<path d="M285.5320 10.4174
L285.4082 10.6031
" />
<path d="M285.4082 10.6031
L285.3463 10.8507
" />
<path d="M285.3463 10.8507
L285.3463 11.3460
" />
<path d="M285.3463 11.3460
L285.4082 11.4698
" />
<path d="M285.4082 11.4698
L285.4701 11.5317
" />
<path d="M285.4701 11.5317
L285.5939 11.5936
" />
<path d="M285.5939 11.5936
L285.8415 11.5936
" />
<path d="M285.8415 11.5936
L285.9654 11.5317
" />
<path d="M285.9654 11.5317
L286.0273 11.4698
" />
<path d="M286.0273 11.4698
L286.0892 11.3460
" />
<path d="M286.0892 11.3460
L286.0892 11.0365
" />
<path d="M286.0892 11.0365
L286.0273 10.9127
" />
<path d="M286.0273 10.9127
L285.9654 10.8507
" />
<path d="M285.9654 10.8507
L285.8415 10.7888
" />
<path d="M285.8415 10.7888
L285.5939 10.7888
" />
<path d="M285.5939 10.7888
L285.4701 10.8507
" />
<path d="M285.4701 10.8507
L285.4082 10.9127
" />
<path d="M285.4082 10.9127
L285.3463 11.0365
" />
</g></g>
<g style="fill:#000000; fill-opacity:0.0; 
stroke:#000000; stroke-width:0.0212; stroke-opacity:1; 
stroke-linecap:round; stroke-linejoin:round;">
</g>
<g style="fill:#000000; fill-opacity:0.0; 
stroke:#000000; stroke-width:0.1500; stroke-opacity:1; 
stroke-linecap:round; stroke-linejoin:round;">
<path d="M60.0000 198.0072
L60.0000 200.0072
" />
</g>
<g style="fill:#000000; fill-opacity:0.0; 
stroke:#000000; stroke-width:0.0212; stroke-opacity:1; 
stroke-linecap:round; stroke-linejoin:round;">
</g>
<g style="fill:#000000; fill-opacity:0.0; 
stroke:#000000; stroke-width:0.1500; stroke-opacity:1; 
stroke-linecap:round; stroke-linejoin:round;">
<path d="M110.0000 198.0072
L110.0000 200.0072
" />
</g>
<g style="fill:#000000; fill-opacity:0.0; 
stroke:#000000; stroke-width:0.0212; stroke-opacity:1; 
stroke-linecap:round; stroke-linejoin:round;">
</g>
<g style="fill:#000000; fill-opacity:0.0; 
stroke:#000000; stroke-width:0.1500; stroke-opacity:1; 
stroke-linecap:round; stroke-linejoin:round;">
<path d="M160.0000 198.0072
L160.0000 200.0072
" />
</g>
<g style="fill:#000000; fill-opacity:0.0; 
stroke:#000000; stroke-width:0.0212; stroke-opacity:1; 
stroke-linecap:round; stroke-linejoin:round;">
</g>
<g style="fill:#000000; fill-opacity:0.0; 
stroke:#000000; stroke-width:0.1500; stroke-opacity:1; 
stroke-linecap:round; stroke-linejoin:round;">
<path d="M210.0000 198.0072
L210.0000 200.0072
" />
</g>
<g style="fill:#000000; fill-opacity:0.0; 
stroke:#000000; stroke-width:0.0212; stroke-opacity:1; 
stroke-linecap:round; stroke-linejoin:round;">
</g>
<g style="fill:#000000; fill-opacity:0.0; 
stroke:#000000; stroke-width:0.1500; stroke-opacity:1; 
stroke-linecap:round; stroke-linejoin:round;">
<path d="M260.0000 198.0072
L260.0000 200.0072
" />
</g>
<g style="fill:#000000; fill-opacity:0.0; 
stroke:#000000; stroke-width:0.0212; stroke-opacity:1; 
stroke-linecap:round; stroke-linejoin:round;">
</g>
<g style="fill:#000000; fill-opacity:0.0; 
stroke:#000000; stroke-width:0.1500; stroke-opacity:1; 
stroke-linecap:round; stroke-linejoin:round;">
<text x="35.0000" y="199.6572"
textLength="1.4281" font-size="1.7333" lengthAdjust="spacingAndGlyphs"
text-anchor="start" opacity="0">1</text>
<g class="stroked-text"><desc>1</desc>
<path d="M36.0892 199.6008
L35.3463 199.6008
" />
<path d="M35.7177 199.6008
L35.7177 198.3008
" />
<path d="M35.7177 198.3008
L35.5939 198.4865
" />
<path d="M35.5939 198.4865
L35.4701 198.6103
" />
<path d="M35.4701 198.6103
L35.3463 198.6722
" />
</g></g>
<g style="fill:#000000; fill-opacity:0.0; 
stroke:#000000; stroke-width:0.0212; stroke-opacity:1; 
stroke-linecap:round; stroke-linejoin:round;">
</g>
<g style="fill:#000000; fill-opacity:0.0; 
stroke:#000000; stroke-width:0.1500; stroke-opacity:1; 
stroke-linecap:round; stroke-linejoin:round;">
<text x="85.0000" y="199.6572"
textLength="1.4281" font-size="1.7333" lengthAdjust="spacingAndGlyphs"
text-anchor="start" opacity="0">2</text>
<g class="stroked-text"><desc>2</desc>
<path d="M85.3463 198.4246
L85.4082 198.3627
" />
<path d="M85.4082 198.3627
L85.5320 198.3008
" />
<path d="M85.5320 198.3008
L85.8415 198.3008
" />
<path d="M85.8415 198.3008
L85.9654 198.3627
" />
<path d="M85.9654 198.3627
L86.0273 198.4246
" />
<path d="M86.0273 198.4246
L86.0892 198.5484
" />
<path d="M86.0892 198.5484
L86.0892 198.6722
" />
<path d="M86.0892 198.6722
L86.0273 198.8579
" />
<path d="M86.0273 198.8579
L85.2844 199.6008
" />
<path d="M85.2844 199.6008
L86.0892 199.6008
" />
</g></g>
<g style="fill:#000000; fill-opacity:0.0; 
stroke:#000000; stroke-width:0.0212; stroke-opacity:1; 
stroke-linecap:round; stroke-linejoin:round;">
</g>
<g style="fill:#000000; fill-opacity:0.0; 
stroke:#000000; stroke-width:0.1500; stroke-opacity:1; 
stroke-linecap:round; stroke-linejoin:round;">
<text x="135.0000" y="199.6572"
textLength="1.4281" font-size="1.7333" lengthAdjust="spacingAndGlyphs"
text-anchor="start" opacity="0">3</text>
<g class="stroked-text"><desc>3</desc>
<path d="M135.2844 198.3008
L136.0892 198.3008
" />
<path d="M136.0892 198.3008
L135.6558 198.7960
" />
<path d="M135.6558 198.7960
L135.8415 198.7960
" />
<path d="M135.8415 198.7960
L135.9654 198.8579
" />
<path d="M135.9654 198.8579
L136.0273 198.9199
" />
<path d="M136.0273 198.9199
L136.0892 199.0437
" />
<path d="M136.0892 199.0437
L136.0892 199.3532
" />
<path d="M136.0892 199.3532
L136.0273 199.4770
" />
<path d="M136.0273 199.4770
L135.9654 199.5389
" />
<path d="M135.9654 199.5389
L135.8415 199.6008
" />
<path d="M135.8415 199.6008
L135.4701 199.6008
" />
<path d="M135.4701 199.6008
L135.3463 199.5389
" />
<path d="M135.3463 199.5389
L135.2844 199.4770
" />
</g></g>
<g style="fill:#000000; fill-opacity:0.0; 
stroke:#000000; stroke-width:0.0212; stroke-opacity:1; 
stroke-linecap:round; stroke-linejoin:round;">
</g>
<g style="fill:#000000; fill-opacity:0.0; 
stroke:#000000; stroke-width:0.1500; stroke-opacity:1; 
stroke-linecap:round; stroke-linejoin:round;">
<text x="185.0000" y="199.6572"
textLength="1.4281" font-size="1.7333" lengthAdjust="spacingAndGlyphs"
text-anchor="start" opacity="0">4</text>
<g class="stroked-text"><desc>4</desc>
<path d="M185.9654 198.7341
L185.9654 199.6008
" />
<path d="M185.6558 198.2389
L185.3463 199.1675
" />
<path d="M185.3463 199.1675
L186.1511 199.1675
" />
</g></g>
<g style="fill:#000000; fill-opacity:0.0; 
stroke:#000000; stroke-width:0.0212; stroke-opacity:1; 
stroke-linecap:round; stroke-linejoin:round;">
</g>
<g style="fill:#000000; fill-opacity:0.0; 
stroke:#000000; stroke-width:0.1500; stroke-opacity:1; 
stroke-linecap:round; stroke-linejoin:round;">
<text x="235.0000" y="199.6572"
textLength="1.4281" font-size="1.7333" lengthAdjust="spacingAndGlyphs"
text-anchor="start" opacity="0">5</text>
<g class="stroked-text"><desc>5</desc>
<path d="M236.0273 198.3008
L235.4082 198.3008
" />
<path d="M235.4082 198.3008
L235.3463 198.9199
" />
<path d="M235.3463 198.9199
L235.4082 198.8579
" />
<path d="M235.4082 198.8579
L235.5320 198.7960
" />
<path d="M235.5320 198.7960
L235.8415 198.7960
" />
<path d="M235.8415 198.7960
L235.9654 198.8579
" />
<path d="M235.9654 198.8579
L236.0273 198.9199
" />
<path d="M236.0273 198.9199
L236.0892 199.0437
" />
<path d="M236.0892 199.0437
L236.0892 199.3532
" />
<path d="M236.0892 199.3532
L236.0273 199.4770
" />
<path d="M236.0273 199.4770
L235.9654 199.5389
" />
<path d="M235.9654 199.5389
L235.8415 199.6008
" />
<path d="M235.8415 199.6008
L235.5320 199.6008
" />
<path d="M235.5320 199.6008
L235.4082 199.5389
" />
<path d="M235.4082 199.5389
L235.3463 199.4770
" />
</g></g>
<g style="fill:#000000; fill-opacity:0.0; 
stroke:#000000; stroke-width:0.0212; stroke-opacity:1; 
stroke-linecap:round; stroke-linejoin:round;">
</g>
<g style="fill:#000000; fill-opacity:0.0; 
stroke:#000000; stroke-width:0.1500; stroke-opacity:1; 
stroke-linecap:round; stroke-linejoin:round;">
<text x="285.0000" y="199.6572"
textLength="1.4281" font-size="1.7333" lengthAdjust="spacingAndGlyphs"
text-anchor="start" opacity="0">6</text>
<g class="stroked-text"><desc>6</desc>
<path d="M285.9654 198.3008
L285.7177 198.3008
" />
<path d="M285.7177 198.3008
L285.5939 198.3627
" />
<path d="M285.5939 198.3627
L285.5320 198.4246
" />
<path d="M285.5320 198.4246
L285.4082 198.6103
" />
<path d="M285.4082 198.6103
L285.3463 198.8579
" />
<path d="M285.3463 198.8579
L285.3463 199.3532
" />
<path d="M285.3463 199.3532
L285.4082 199.4770
" />
<path d="M285.4082 199.4770
L285.4701 199.5389
" />
<path d="M285.4701 199.5389
L285.5939 199.6008
" />
<path d="M285.5939 199.6008
L285.8415 199.6008
" />
<path d="M285.8415 199.6008
L285.9654 199.5389
" />
<path d="M285.9654 199.5389
L286.0273 199.4770
" />
<path d="M286.0273 199.4770
L286.0892 199.3532
" />
<path d="M286.0892 199.3532
L286.0892 199.0437
" />
<path d="M286.0892 199.0437
L286.0273 198.9199
" />
<path d="M286.0273 198.9199
L285.9654 198.8579
" />
<path d="M285.9654 198.8579
L285.8415 198.7960
" />
<path d="M285.8415 198.7960
L285.5939 198.7960
" />
<path d="M285.5939 198.7960
L285.4701 198.8579
" />
<path d="M285.4701 198.8579
L285.4082 198.9199
" />
<path d="M285.4082 198.9199
L285.3463 199.0437
" />
</g></g>
<g style="fill:#000000; fill-opacity:0.0; 
stroke:#000000; stroke-width:0.0212; stroke-opacity:1; 
stroke-linecap:round; stroke-linejoin:round;">
</g>
<g style="fill:#000000; fill-opacity:0.0; 
stroke:#000000; stroke-width:0.1500; stroke-opacity:1; 
stroke-linecap:round; stroke-linejoin:round;">
<path d="M10.0000 60.0000
L12.0000 60.0000
" />
</g>
<g style="fill:#000000; fill-opacity:0.0; 
stroke:#000000; stroke-width:0.0212; stroke-opacity:1; 
stroke-linecap:round; stroke-linejoin:round;">
</g>
<g style="fill:#000000; fill-opacity:0.0; 
stroke:#000000; stroke-width:0.1500; stroke-opacity:1; 
stroke-linecap:round; stroke-linejoin:round;">
<path d="M10.0000 110.0000
L12.0000 110.0000
" />
</g>
<g style="fill:#000000; fill-opacity:0.0; 
stroke:#000000; stroke-width:0.0212; stroke-opacity:1; 
stroke-linecap:round; stroke-linejoin:round;">
</g>
<g style="fill:#000000; fill-opacity:0.0; 
stroke:#000000; stroke-width:0.1500; stroke-opacity:1; 
stroke-linecap:round; stroke-linejoin:round;">
<path d="M10.0000 160.0000
L12.0000 160.0000
" />
</g>
<g style="fill:#000000; fill-opacity:0.0; 
stroke:#000000; stroke-width:0.0212; stroke-opacity:1; 
stroke-linecap:round; stroke-linejoin:round;">
</g>
<g style="fill:#000000; fill-opacity:0.0; 
stroke:#000000; stroke-width:0.1500; stroke-opacity:1; 
stroke-linecap:round; stroke-linejoin:round;">
<text x="11.0000" y="35.6500"
textLength="1.3043" font-size="1.7333" lengthAdjust="spacingAndGlyphs"
text-anchor="middle" opacity="0">A</text>
<g class="stroked-text"><desc>A</desc>
<path d="M10.6905 35.2222
L11.3095 35.2222
" />
<path d="M10.5667 35.5936
L11.0000 34.2936
" />
<path d="M11.0000 34.2936
L11.4333 35.5936
" />
</g></g>
<g style="fill:#000000; fill-opacity:0.0; 
stroke:#000000; stroke-width:0.0212; stroke-opacity:1; 
stroke-linecap:round; stroke-linejoin:round;">
</g>
<g style="fill:#000000; fill-opacity:0.0; 
stroke:#000000; stroke-width:0.1500; stroke-opacity:1; 
stroke-linecap:round; stroke-linejoin:round;">
<text x="11.0000" y="85.6500"
textLength="1.4900" font-size="1.7333" lengthAdjust="spacingAndGlyphs"
text-anchor="middle" opacity="0">B</text>
<g class="stroked-text"><desc>B</desc>
<path d="M11.0929 84.9127
L11.2786 84.9746
" />
<path d="M11.2786 84.9746
L11.3405 85.0365
" />
<path d="M11.3405 85.0365
L11.4024 85.1603
" />
<path d="M11.4024 85.1603
L11.4024 85.3460
" />
<path d="M11.4024 85.3460
L11.3405 85.4698
" />
<path d="M11.3405 85.4698
L11.2786 85.5317
" />
<path d="M11.2786 85.5317
L11.1548 85.5936
" />
<path d="M11.1548 85.5936
L10.6595 85.5936
" />
<path d="M10.6595 85.5936
L10.6595 84.2936
" />
<path d="M10.6595 84.2936
L11.0929 84.2936
" />
<path d="M11.0929 84.2936
L11.2167 84.3555
" />
<path d="M11.2167 84.3555
L11.2786 84.4174
" />
<path d="M11.2786 84.4174
L11.3405 84.5412
" />
<path d="M11.3405 84.5412
L11.3405 84.6650
" />
<path d="M11.3405 84.6650
L11.2786 84.7888
" />
<path d="M11.2786 84.7888
L11.2167 84.8507
" />
<path d="M11.2167 84.8507
L11.0929 84.9127
" />
<path d="M11.0929 84.9127
L10.6595 84.9127
" />
</g></g>
<g style="fill:#000000; fill-opacity:0.0; 
stroke:#000000; stroke-width:0.0212; stroke-opacity:1; 
stroke-linecap:round; stroke-linejoin:round;">
</g>
<g style="fill:#000000; fill-opacity:0.0; 
stroke:#000000; stroke-width:0.1500; stroke-opacity:1; 
stroke-linecap:round; stroke-linejoin:round;">
<text x="11.0000" y="135.6500"
textLength="1.4900" font-size="1.7333" lengthAdjust="spacingAndGlyphs"
text-anchor="middle" opacity="0">C</text>
<g class="stroked-text"><desc>C</desc>
<path d="M11.4024 135.4698
L11.3405 135.5317
" />
<path d="M11.3405 135.5317
L11.1548 135.5936
" />
<path d="M11.1548 135.5936
L11.0310 135.5936
" />
<path d="M11.0310 135.5936
L10.8452 135.5317
" />
<path d="M10.8452 135.5317
L10.7214 135.4079
" />
<path d="M10.7214 135.4079
L10.6595 135.2841
" />
<path d="M10.6595 135.2841
L10.5976 135.0365
" />
<path d="M10.5976 135.0365
L10.5976 134.8507
" />
<path d="M10.5976 134.8507
L10.6595 134.6031
" />
<path d="M10.6595 134.6031
L10.7214 134.4793
" />
<path d="M10.7214 134.4793
L10.8452 134.3555
" />
<path d="M10.8452 134.3555
L11.0310 134.2936
" />
<path d="M11.0310 134.2936
L11.1548 134.2936
" />
<path d="M11.1548 134.2936
L11.3405 134.3555
" />
<path d="M11.3405 134.3555
L11.4024 134.4174
" />
</g></g>
<g style="fill:#000000; fill-opacity:0.0; 
stroke:#000000; stroke-width:0.0212; stroke-opacity:1; 
stroke-linecap:round; stroke-linejoin:round;">
</g>
<g style="fill:#000000; fill-opacity:0.0; 
stroke:#000000; stroke-width:0.1500; stroke-opacity:1; 
stroke-linecap:round; stroke-linejoin:round;">
<text x="11.0000" y="185.6500"
textLength="1.4900" font-size="1.7333" lengthAdjust="spacingAndGlyphs"
text-anchor="middle" opacity="0">D</text>
<g class="stroked-text"><desc>D</desc>
<path d="M10.6595 185.5936
L10.6595 184.2936
" />
<path d="M10.6595 184.2936
L10.9690 184.2936
" />
<path d="M10.9690 184.2936
L11.1548 184.3555
" />
<path d="M11.1548 184.3555
L11.2786 184.4793
" />
<path d="M11.2786 184.4793
L11.3405 184.6031
" />
<path d="M11.3405 184.6031
L11.4024 184.8507
" />
<path d="M11.4024 184.8507
L11.4024 185.0365
" />
<path d="M11.4024 185.0365
L11.3405 185.2841
" />
<path d="M11.3405 185.2841
L11.2786 185.4079
" />
<path d="M11.2786 185.4079
L11.1548 185.5317
" />
<path d="M11.1548 185.5317
L10.9690 185.5936
" />
<path d="M10.9690 185.5936
L10.6595 185.5936
" />
</g></g>
<g style="fill:#000000; fill-opacity:0.0; 
stroke:#000000; stroke-width:0.0212; stroke-opacity:1; 
stroke-linecap:round; stroke-linejoin:round;">
</g>
<g style="fill:#000000; fill-opacity:0.0; 
stroke:#000000; stroke-width:0.1500; stroke-opacity:1; 
stroke-linecap:round; stroke-linejoin:round;">
<path d="M287.0022 60.0000
L285.0022 60.0000
" />
</g>
<g style="fill:#000000; fill-opacity:0.0; 
stroke:#000000; stroke-width:0.0212; stroke-opacity:1; 
stroke-linecap:round; stroke-linejoin:round;">
</g>
<g style="fill:#000000; fill-opacity:0.0; 
stroke:#000000; stroke-width:0.1500; stroke-opacity:1; 
stroke-linecap:round; stroke-linejoin:round;">
<path d="M287.0022 110.0000
L285.0022 110.0000
" />
</g>
<g style="fill:#000000; fill-opacity:0.0; 
stroke:#000000; stroke-width:0.0212; stroke-opacity:1; 
stroke-linecap:round; stroke-linejoin:round;">
</g>
<g style="fill:#000000; fill-opacity:0.0; 
stroke:#000000; stroke-width:0.1500; stroke-opacity:1; 
stroke-linecap:round; stroke-linejoin:round;">
<path d="M287.0022 160.0000
L285.0022 160.0000
" />
</g>
<g style="fill:#000000; fill-opacity:0.0; 
stroke:#000000; stroke-width:0.0212; stroke-opacity:1; 
stroke-linecap:round; stroke-linejoin:round;">
</g>
<g style="fill:#000000; fill-opacity:0.0; 
stroke:#000000; stroke-width:0.1500; stroke-opacity:1; 
stroke-linecap:round; stroke-linejoin:round;">
<text x="286.0022" y="35.6500"
textLength="1.3043" font-size="1.7333" lengthAdjust="spacingAndGlyphs"
text-anchor="middle" opacity="0">A</text>
<g class="stroked-text"><desc>A</desc>
<path d="M285.6927 35.2222
L286.3117 35.2222
" />
<path d="M285.5689 35.5936
L286.0022 34.2936
" />
<path d="M286.0022 34.2936
L286.4355 35.5936
" />
</g></g>
<g style="fill:#000000; fill-opacity:0.0; 
stroke:#000000; stroke-width:0.0212; stroke-opacity:1; 
stroke-linecap:round; stroke-linejoin:round;">
</g>
<g style="fill:#000000; fill-opacity:0.0; 
stroke:#000000; stroke-width:0.1500; stroke-opacity:1; 
stroke-linecap:round; stroke-linejoin:round;">
<text x="286.0022" y="85.6500"
textLength="1.4900" font-size="1.7333" lengthAdjust="spacingAndGlyphs"
text-anchor="middle" opacity="0">B</text>
<g class="stroked-text"><desc>B</desc>
<path d="M286.0951 84.9127
L286.2808 84.9746
" />
<path d="M286.2808 84.9746
L286.3427 85.0365
" />
<path d="M286.3427 85.0365
L286.4046 85.1603
" />
<path d="M286.4046 85.1603
L286.4046 85.3460
" />
<path d="M286.4046 85.3460
L286.3427 85.4698
" />
<path d="M286.3427 85.4698
L286.2808 85.5317
" />
<path d="M286.2808 85.5317
L286.1570 85.5936
" />
<path d="M286.1570 85.5936
L285.6617 85.5936
" />
<path d="M285.6617 85.5936
L285.6617 84.2936
" />
<path d="M285.6617 84.2936
L286.0951 84.2936
" />
<path d="M286.0951 84.2936
L286.2189 84.3555
" />
<path d="M286.2189 84.3555
L286.2808 84.4174
" />
<path d="M286.2808 84.4174
L286.3427 84.5412
" />
<path d="M286.3427 84.5412
L286.3427 84.6650
" />
<path d="M286.3427 84.6650
L286.2808 84.7888
" />
<path d="M286.2808 84.7888
L286.2189 84.8507
" />
<path d="M286.2189 84.8507
L286.0951 84.9127
" />
<path d="M286.0951 84.9127
L285.6617 84.9127
" />
</g></g>
<g style="fill:#000000; fill-opacity:0.0; 
stroke:#000000; stroke-width:0.0212; stroke-opacity:1; 
stroke-linecap:round; stroke-linejoin:round;">
</g>
<g style="fill:#000000; fill-opacity:0.0; 
stroke:#000000; stroke-width:0.1500; stroke-opacity:1; 
stroke-linecap:round; stroke-linejoin:round;">
<text x="286.0022" y="135.6500"
textLength="1.4900" font-size="1.7333" lengthAdjust="spacingAndGlyphs"
text-anchor="middle" opacity="0">C</text>
<g class="stroked-text"><desc>C</desc>
<path d="M286.4046 135.4698
L286.3427 135.5317
" />
<path d="M286.3427 135.5317
L286.1570 135.5936
" />
<path d="M286.1570 135.5936
L286.0332 135.5936
" />
<path d="M286.0332 135.5936
L285.8474 135.5317
" />
<path d="M285.8474 135.5317
L285.7236 135.4079
" />
<path d="M285.7236 135.4079
L285.6617 135.2841
" />
<path d="M285.6617 135.2841
L285.5998 135.0365
" />
<path d="M285.5998 135.0365
L285.5998 134.8507
" />
<path d="M285.5998 134.8507
L285.6617 134.6031
" />
<path d="M285.6617 134.6031
L285.7236 134.4793
" />
<path d="M285.7236 134.4793
L285.8474 134.3555
" />
<path d="M285.8474 134.3555
L286.0332 134.2936
" />
<path d="M286.0332 134.2936
L286.1570 134.2936
" />
<path d="M286.1570 134.2936
L286.3427 134.3555
" />
<path d="M286.3427 134.3555
L286.4046 134.4174
" />
</g></g>
<g style="fill:#000000; fill-opacity:0.0; 
stroke:#000000; stroke-width:0.0212; stroke-opacity:1; 
stroke-linecap:round; stroke-linejoin:round;">
</g>
<g style="fill:#000000; fill-opacity:0.0; 
stroke:#000000; stroke-width:0.1500; stroke-opacity:1; 
stroke-linecap:round; stroke-linejoin:round;">
<text x="286.0022" y="185.6500"
textLength="1.4900" font-size="1.7333" lengthAdjust="spacingAndGlyphs"
text-anchor="middle" opacity="0">D</text>
<g class="stroked-text"><desc>D</desc>
<path d="M285.6617 185.5936
L285.6617 184.2936
" />
<path d="M285.6617 184.2936
L285.9712 184.2936
" />
<path d="M285.9712 184.2936
L286.1570 184.3555
" />
<path d="M286.1570 184.3555
L286.2808 184.4793
" />
<path d="M286.2808 184.4793
L286.3427 184.6031
" />
<path d="M286.3427 184.6031
L286.4046 184.8507
" />
<path d="M286.4046 184.8507
L286.4046 185.0365
" />
<path d="M286.4046 185.0365
L286.3427 185.2841
" />
<path d="M286.3427 185.2841
L286.2808 185.4079
" />
<path d="M286.2808 185.4079
L286.1570 185.5317
" />
<path d="M286.1570 185.5317
L285.9712 185.5936
" />
<path d="M285.9712 185.5936
L285.6617 185.5936
" />
</g></g>
<g style="fill:#000000; fill-opacity:0.0; 
stroke:#000000; stroke-width:0.0212; stroke-opacity:1; 
stroke-linecap:round; stroke-linejoin:round;">
</g>
<g style="fill:#000000; fill-opacity:0.0; 
stroke:#000000; stroke-width:0.1500; stroke-opacity:1; 
stroke-linecap:round; stroke-linejoin:round;">
<text x="200.0022" y="193.8572"
textLength="7.0071" font-size="2.0000" lengthAdjust="spacingAndGlyphs"
text-anchor="start" opacity="0">Date: </text>
<g class="stroked-text"><desc>Date: </desc>
<path d="M200.4580 193.7933
L200.4580 192.2933
" />
<path d="M200.4580 192.2933
L200.8152 192.2933
" />
<path d="M200.8152 192.2933
L201.0295 192.3648
" />
<path d="M201.0295 192.3648
L201.1723 192.5076
" />
<path d="M201.1723 192.5076
L201.2437 192.6505
" />
<path d="M201.2437 192.6505
L201.3152 192.9362
" />
<path d="M201.3152 192.9362
L201.3152 193.1505
" />
<path d="M201.3152 193.1505
L201.2437 193.4362
" />
<path d="M201.2437 193.4362
L201.1723 193.5790
" />
<path d="M201.1723 193.5790
L201.0295 193.7219
" />
<path d="M201.0295 193.7219
L200.8152 193.7933
" />
<path d="M200.8152 193.7933
L200.4580 193.7933
" />
<path d="M202.6009 193.7933
L202.6009 193.0076
" />
<path d="M202.6009 193.0076
L202.5295 192.8648
" />
<path d="M202.5295 192.8648
L202.3866 192.7933
" />
<path d="M202.3866 192.7933
L202.1009 192.7933
" />
<path d="M202.1009 192.7933
L201.9580 192.8648
" />
<path d="M202.6009 193.7219
L202.4580 193.7933
" />
<path d="M202.4580 193.7933
L202.1009 193.7933
" />
<path d="M202.1009 193.7933
L201.9580 193.7219
" />
<path d="M201.9580 193.7219
L201.8866 193.5790
" />
<path d="M201.8866 193.5790
L201.8866 193.4362
" />
<path d="M201.8866 193.4362
L201.9580 193.2933
" />
<path d="M201.9580 193.2933
L202.1009 193.2219
" />
<path d="M202.1009 193.2219
L202.4580 193.2219
" />
<path d="M202.4580 193.2219
L202.6009 193.1505
" />
<path d="M203.1009 192.7933
L203.6723 192.7933
" />
<path d="M203.3152 192.2933
L203.3152 193.5790
" />
<path d="M203.3152 193.5790
L203.3866 193.7219
" />
<path d="M203.3866 193.7219
L203.5295 193.7933
" />
<path d="M203.5295 193.7933
L203.6723 193.7933
" />
<path d="M204.7437 193.7219
L204.6009 193.7933
" />
<path d="M204.6009 193.7933
L204.3152 193.7933
" />
<path d="M204.3152 193.7933
L204.1723 193.7219
" />
<path d="M204.1723 193.7219
L204.1009 193.5790
" />
<path d="M204.1009 193.5790
L204.1009 193.0076
" />
<path d="M204.1009 193.0076
L204.1723 192.8648
" />
<path d="M204.1723 192.8648
L204.3152 192.7933
" />
<path d="M204.3152 192.7933
L204.6009 192.7933
" />
<path d="M204.6009 192.7933
L204.7437 192.8648
" />
<path d="M204.7437 192.8648
L204.8152 193.0076
" />
<path d="M204.8152 193.0076
L204.8152 193.1505
" />
<path d="M204.8152 193.1505
L204.1009 193.2933
" />
<path d="M205.4580 193.6505
L205.5295 193.7219
" />
<path d="M205.5295 193.7219
L205.4580 193.7933
" />
<path d="M205.4580 193.7933
L205.3866 193.7219
" />
<path d="M205.3866 193.7219
L205.4580 193.6505
" />
<path d="M205.4580 193.6505
L205.4580 193.7933
" />
<path d="M205.4580 192.8648
L205.5295 192.9362
" />
<path d="M205.5295 192.9362
L205.4580 193.0076
" />
<path d="M205.4580 193.0076
L205.3866 192.9362
" />
<path d="M205.3866 192.9362
L205.4580 192.8648
" />
<path d="M205.4580 192.8648
L205.4580 193.0076
" />
</g></g>
<g style="fill:#000000; fill-opacity:0.0; 
stroke:#000000; stroke-width:0.0212; stroke-opacity:1; 
stroke-linecap:round; stroke-linejoin:round;">
</g>
<g style="fill:#000000; fill-opacity:0.0; 
stroke:#000000; stroke-width:0.1500; stroke-opacity:1; 
stroke-linecap:round; stroke-linejoin:round;">
<path d="M177.0022 194.5072
L285.0022 194.5072
" />
</g>
<g style="fill:#000000; fill-opacity:0.0; 
stroke:#000000; stroke-width:0.0212; stroke-opacity:1; 
stroke-linecap:round; stroke-linejoin:round;">
</g>
<g style="fill:#000000; fill-opacity:0.0; 
stroke:#000000; stroke-width:0.1500; stroke-opacity:1; 
stroke-linecap:round; stroke-linejoin:round;">
<text x="178.0022" y="196.6572"
textLength="31.3643" font-size="2.0000" lengthAdjust="spacingAndGlyphs"
text-anchor="start" opacity="0">KiCad E.D.A.  pcbnew 7.0.6</text>
<g class="stroked-text"><desc>KiCad E.D.A.  pcbnew 7.0.6</desc>
<path d="M178.4580 196.5933
L178.4580 195.0933
" />
<path d="M179.3152 196.5933
L178.6723 195.7362
" />
<path d="M179.3152 195.0933
L178.4580 195.9505
" />
<path d="M179.9580 196.5933
L179.9580 195.5933
" />
<path d="M179.9580 195.0933
L179.8866 195.1648
" />
<path d="M179.8866 195.1648
L179.9580 195.2362
" />
<path d="M179.9580 195.2362
L180.0295 195.1648
" />
<path d="M180.0295 195.1648
L179.9580 195.0933
" />
<path d="M179.9580 195.0933
L179.9580 195.2362
" />
<path d="M181.5295 196.4505
L181.4580 196.5219
" />
<path d="M181.4580 196.5219
L181.2437 196.5933
" />
<path d="M181.2437 196.5933
L181.1009 196.5933
" />
<path d="M181.1009 196.5933
L180.8866 196.5219
" />
<path d="M180.8866 196.5219
L180.7437 196.3790
" />
<path d="M180.7437 196.3790
L180.6723 196.2362
" />
<path d="M180.6723 196.2362
L180.6009 195.9505
" />
<path d="M180.6009 195.9505
L180.6009 195.7362
" />
<path d="M180.6009 195.7362
L180.6723 195.4505
" />
<path d="M180.6723 195.4505
L180.7437 195.3076
" />
<path d="M180.7437 195.3076
L180.8866 195.1648
" />
<path d="M180.8866 195.1648
L181.1009 195.0933
" />
<path d="M181.1009 195.0933
L181.2437 195.0933
" />
<path d="M181.2437 195.0933
L181.4580 195.1648
" />
<path d="M181.4580 195.1648
L181.5295 195.2362
" />
<path d="M182.8152 196.5933
L182.8152 195.8076
" />
<path d="M182.8152 195.8076
L182.7437 195.6648
" />
<path d="M182.7437 195.6648
L182.6009 195.5933
" />
<path d="M182.6009 195.5933
L182.3152 195.5933
" />
<path d="M182.3152 195.5933
L182.1723 195.6648
" />
<path d="M182.8152 196.5219
L182.6723 196.5933
" />
<path d="M182.6723 196.5933
L182.3152 196.5933
" />
<path d="M182.3152 196.5933
L182.1723 196.5219
" />
<path d="M182.1723 196.5219
L182.1009 196.3790
" />
<path d="M182.1009 196.3790
L182.1009 196.2362
" />
<path d="M182.1009 196.2362
L182.1723 196.0933
" />
<path d="M182.1723 196.0933
L182.3152 196.0219
" />
<path d="M182.3152 196.0219
L182.6723 196.0219
" />
<path d="M182.6723 196.0219
L182.8152 195.9505
" />
<path d="M184.1723 196.5933
L184.1723 195.0933
" />
<path d="M184.1723 196.5219
L184.0295 196.5933
" />
<path d="M184.0295 196.5933
L183.7437 196.5933
" />
<path d="M183.7437 196.5933
L183.6009 196.5219
" />
<path d="M183.6009 196.5219
L183.5295 196.4505
" />
<path d="M183.5295 196.4505
L183.4580 196.3076
" />
<path d="M183.4580 196.3076
L183.4580 195.8790
" />
<path d="M183.4580 195.8790
L183.5295 195.7362
" />
<path d="M183.5295 195.7362
L183.6009 195.6648
" />
<path d="M183.6009 195.6648
L183.7437 195.5933
" />
<path d="M183.7437 195.5933
L184.0295 195.5933
" />
<path d="M184.0295 195.5933
L184.1723 195.6648
" />
<path d="M186.0295 195.8076
L186.5295 195.8076
" />
<path d="M186.7437 196.5933
L186.0295 196.5933
" />
<path d="M186.0295 196.5933
L186.0295 195.0933
" />
<path d="M186.0295 195.0933
L186.7437 195.0933
" />
<path d="M187.3866 196.4505
L187.4580 196.5219
" />
<path d="M187.4580 196.5219
L187.3866 196.5933
" />
<path d="M187.3866 196.5933
L187.3152 196.5219
" />
<path d="M187.3152 196.5219
L187.3866 196.4505
" />
<path d="M187.3866 196.4505
L187.3866 196.5933
" />
<path d="M188.1009 196.5933
L188.1009 195.0933
" />
<path d="M188.1009 195.0933
L188.4580 195.0933
" />
<path d="M188.4580 195.0933
L188.6723 195.1648
" />
<path d="M188.6723 195.1648
L188.8152 195.3076
" />
<path d="M188.8152 195.3076
L188.8866 195.4505
" />
<path d="M188.8866 195.4505
L188.9580 195.7362
" />
<path d="M188.9580 195.7362
L188.9580 195.9505
" />
<path d="M188.9580 195.9505
L188.8866 196.2362
" />
<path d="M188.8866 196.2362
L188.8152 196.3790
" />
<path d="M188.8152 196.3790
L188.6723 196.5219
" />
<path d="M188.6723 196.5219
L188.4580 196.5933
" />
<path d="M188.4580 196.5933
L188.1009 196.5933
" />
<path d="M189.6009 196.4505
L189.6723 196.5219
" />
<path d="M189.6723 196.5219
L189.6009 196.5933
" />
<path d="M189.6009 196.5933
L189.5295 196.5219
" />
<path d="M189.5295 196.5219
L189.6009 196.4505
" />
<path d="M189.6009 196.4505
L189.6009 196.5933
" />
<path d="M190.2437 196.1648
L190.9580 196.1648
" />
<path d="M190.1009 196.5933
L190.6009 195.0933
" />
<path d="M190.6009 195.0933
L191.1009 196.5933
" />
<path d="M191.6009 196.4505
L191.6723 196.5219
" />
<path d="M191.6723 196.5219
L191.6009 196.5933
" />
<path d="M191.6009 196.5933
L191.5295 196.5219
" />
<path d="M191.5295 196.5219
L191.6009 196.4505
" />
<path d="M191.6009 196.4505
L191.6009 196.5933
" />
<path d="M194.6009 195.5933
L194.6009 197.0933
" />
<path d="M194.6009 195.6648
L194.7437 195.5933
" />
<path d="M194.7437 195.5933
L195.0295 195.5933
" />
<path d="M195.0295 195.5933
L195.1723 195.6648
" />
<path d="M195.1723 195.6648
L195.2437 195.7362
" />
<path d="M195.2437 195.7362
L195.3152 195.8790
" />
<path d="M195.3152 195.8790
L195.3152 196.3076
" />
<path d="M195.3152 196.3076
L195.2437 196.4505
" />
<path d="M195.2437 196.4505
L195.1723 196.5219
" />
<path d="M195.1723 196.5219
L195.0295 196.5933
" />
<path d="M195.0295 196.5933
L194.7437 196.5933
" />
<path d="M194.7437 196.5933
L194.6009 196.5219
" />
<path d="M196.6009 196.5219
L196.4580 196.5933
" />
<path d="M196.4580 196.5933
L196.1723 196.5933
" />
<path d="M196.1723 196.5933
L196.0295 196.5219
" />
<path d="M196.0295 196.5219
L195.9580 196.4505
" />
<path d="M195.9580 196.4505
L195.8866 196.3076
" />
<path d="M195.8866 196.3076
L195.8866 195.8790
" />
<path d="M195.8866 195.8790
L195.9580 195.7362
" />
<path d="M195.9580 195.7362
L196.0295 195.6648
" />
<path d="M196.0295 195.6648
L196.1723 195.5933
" />
<path d="M196.1723 195.5933
L196.4580 195.5933
" />
<path d="M196.4580 195.5933
L196.6009 195.6648
" />
<path d="M197.2437 196.5933
L197.2437 195.0933
" />
<path d="M197.2437 195.6648
L197.3866 195.5933
" />
<path d="M197.3866 195.5933
L197.6723 195.5933
" />
<path d="M197.6723 195.5933
L197.8152 195.6648
" />
<path d="M197.8152 195.6648
L197.8866 195.7362
" />
<path d="M197.8866 195.7362
L197.9580 195.8790
" />
<path d="M197.9580 195.8790
L197.9580 196.3076
" />
<path d="M197.9580 196.3076
L197.8866 196.4505
" />
<path d="M197.8866 196.4505
L197.8152 196.5219
" />
<path d="M197.8152 196.5219
L197.6723 196.5933
" />
<path d="M197.6723 196.5933
L197.3866 196.5933
" />
<path d="M197.3866 196.5933
L197.2437 196.5219
" />
<path d="M198.6009 195.5933
L198.6009 196.5933
" />
<path d="M198.6009 195.7362
L198.6723 195.6648
" />
<path d="M198.6723 195.6648
L198.8152 195.5933
" />
<path d="M198.8152 195.5933
L199.0295 195.5933
" />
<path d="M199.0295 195.5933
L199.1723 195.6648
" />
<path d="M199.1723 195.6648
L199.2437 195.8076
" />
<path d="M199.2437 195.8076
L199.2437 196.5933
" />
<path d="M200.5295 196.5219
L200.3866 196.5933
" />
<path d="M200.3866 196.5933
L200.1009 196.5933
" />
<path d="M200.1009 196.5933
L199.9580 196.5219
" />
<path d="M199.9580 196.5219
L199.8866 196.3790
" />
<path d="M199.8866 196.3790
L199.8866 195.8076
" />
<path d="M199.8866 195.8076
L199.9580 195.6648
" />
<path d="M199.9580 195.6648
L200.1009 195.5933
" />
<path d="M200.1009 195.5933
L200.3866 195.5933
" />
<path d="M200.3866 195.5933
L200.5295 195.6648
" />
<path d="M200.5295 195.6648
L200.6009 195.8076
" />
<path d="M200.6009 195.8076
L200.6009 195.9505
" />
<path d="M200.6009 195.9505
L199.8866 196.0933
" />
<path d="M201.1009 195.5933
L201.3866 196.5933
" />
<path d="M201.3866 196.5933
L201.6723 195.8790
" />
<path d="M201.6723 195.8790
L201.9580 196.5933
" />
<path d="M201.9580 196.5933
L202.2437 195.5933
" />
<path d="M203.8152 195.0933
L204.8152 195.0933
" />
<path d="M204.8152 195.0933
L204.1723 196.5933
" />
<path d="M205.3866 196.4505
L205.4580 196.5219
" />
<path d="M205.4580 196.5219
L205.3866 196.5933
" />
<path d="M205.3866 196.5933
L205.3152 196.5219
" />
<path d="M205.3152 196.5219
L205.3866 196.4505
" />
<path d="M205.3866 196.4505
L205.3866 196.5933
" />
<path d="M206.3866 195.0933
L206.5295 195.0933
" />
<path d="M206.5295 195.0933
L206.6723 195.1648
" />
<path d="M206.6723 195.1648
L206.7437 195.2362
" />
<path d="M206.7437 195.2362
L206.8152 195.3790
" />
<path d="M206.8152 195.3790
L206.8866 195.6648
" />
<path d="M206.8866 195.6648
L206.8866 196.0219
" />
<path d="M206.8866 196.0219
L206.8152 196.3076
" />
<path d="M206.8152 196.3076
L206.7437 196.4505
" />
<path d="M206.7437 196.4505
L206.6723 196.5219
" />
<path d="M206.6723 196.5219
L206.5295 196.5933
" />
<path d="M206.5295 196.5933
L206.3866 196.5933
" />
<path d="M206.3866 196.5933
L206.2437 196.5219
" />
<path d="M206.2437 196.5219
L206.1723 196.4505
" />
<path d="M206.1723 196.4505
L206.1009 196.3076
" />
<path d="M206.1009 196.3076
L206.0295 196.0219
" />
<path d="M206.0295 196.0219
L206.0295 195.6648
" />
<path d="M206.0295 195.6648
L206.1009 195.3790
" />
<path d="M206.1009 195.3790
L206.1723 195.2362
" />
<path d="M206.1723 195.2362
L206.2437 195.1648
" />
<path d="M206.2437 195.1648
L206.3866 195.0933
" />
<path d="M207.5295 196.4505
L207.6009 196.5219
" />
<path d="M207.6009 196.5219
L207.5295 196.5933
" />
<path d="M207.5295 196.5933
L207.4580 196.5219
" />
<path d="M207.4580 196.5219
L207.5295 196.4505
" />
<path d="M207.5295 196.4505
L207.5295 196.5933
" />
<path d="M208.8866 195.0933
L208.6009 195.0933
" />
<path d="M208.6009 195.0933
L208.4580 195.1648
" />
<path d="M208.4580 195.1648
L208.3866 195.2362
" />
<path d="M208.3866 195.2362
L208.2437 195.4505
" />
<path d="M208.2437 195.4505
L208.1723 195.7362
" />
<path d="M208.1723 195.7362
L208.1723 196.3076
" />
<path d="M208.1723 196.3076
L208.2437 196.4505
" />
<path d="M208.2437 196.4505
L208.3152 196.5219
" />
<path d="M208.3152 196.5219
L208.4580 196.5933
" />
<path d="M208.4580 196.5933
L208.7437 196.5933
" />
<path d="M208.7437 196.5933
L208.8866 196.5219
" />
<path d="M208.8866 196.5219
L208.9580 196.4505
" />
<path d="M208.9580 196.4505
L209.0295 196.3076
" />
<path d="M209.0295 196.3076
L209.0295 195.9505
" />
<path d="M209.0295 195.9505
L208.9580 195.8076
" />
<path d="M208.9580 195.8076
L208.8866 195.7362
" />
<path d="M208.8866 195.7362
L208.7437 195.6648
" />
<path d="M208.7437 195.6648
L208.4580 195.6648
" />
<path d="M208.4580 195.6648
L208.3152 195.7362
" />
<path d="M208.3152 195.7362
L208.2437 195.8076
" />
<path d="M208.2437 195.8076
L208.1723 195.9505
" />
</g></g>
<g style="fill:#000000; fill-opacity:0.0; 
stroke:#000000; stroke-width:0.0212; stroke-opacity:1; 
stroke-linecap:round; stroke-linejoin:round;">
</g>
<g style="fill:#000000; fill-opacity:0.0; 
stroke:#000000; stroke-width:0.1500; stroke-opacity:1; 
stroke-linecap:round; stroke-linejoin:round;">
<path d="M177.0022 191.5072
L285.0022 191.5072
" />
</g>
<g style="fill:#000000; fill-opacity:0.0; 
stroke:#000000; stroke-width:0.0212; stroke-opacity:1; 
stroke-linecap:round; stroke-linejoin:round;">
</g>
<g style="fill:#000000; fill-opacity:0.0; 
stroke:#000000; stroke-width:0.3000; stroke-opacity:1; 
stroke-linecap:round; stroke-linejoin:round;">
<text x="263.0022" y="193.8572"
textLength="6.3857" font-size="2.0000" lengthAdjust="spacingAndGlyphs"
text-anchor="start" opacity="0">Rev: </text>
<g class="stroked-text"><desc>Rev: </desc>
<path d="M264.4139 193.7855
L263.9139 193.0712
" />
<path d="M263.5567 193.7855
L263.5567 192.2855
" />
<path d="M263.5567 192.2855
L264.1281 192.2855
" />
<path d="M264.1281 192.2855
L264.2710 192.3570
" />
<path d="M264.2710 192.3570
L264.3424 192.4284
" />
<path d="M264.3424 192.4284
L264.4139 192.5712
" />
<path d="M264.4139 192.5712
L264.4139 192.7855
" />
<path d="M264.4139 192.7855
L264.3424 192.9284
" />
<path d="M264.3424 192.9284
L264.2710 192.9998
" />
<path d="M264.2710 192.9998
L264.1281 193.0712
" />
<path d="M264.1281 193.0712
L263.5567 193.0712
" />
<path d="M265.6281 193.7141
L265.4853 193.7855
" />
<path d="M265.4853 193.7855
L265.1996 193.7855
" />
<path d="M265.1996 193.7855
L265.0567 193.7141
" />
<path d="M265.0567 193.7141
L264.9853 193.5712
" />
<path d="M264.9853 193.5712
L264.9853 192.9998
" />
<path d="M264.9853 192.9998
L265.0567 192.8570
" />
<path d="M265.0567 192.8570
L265.1996 192.7855
" />
<path d="M265.1996 192.7855
L265.4853 192.7855
" />
<path d="M265.4853 192.7855
L265.6281 192.8570
" />
<path d="M265.6281 192.8570
L265.6996 192.9998
" />
<path d="M265.6996 192.9998
L265.6996 193.1427
" />
<path d="M265.6996 193.1427
L264.9853 193.2855
" />
<path d="M266.1996 192.7855
L266.5567 193.7855
" />
<path d="M266.5567 193.7855
L266.9139 192.7855
" />
<path d="M267.4853 193.6427
L267.5567 193.7141
" />
<path d="M267.5567 193.7141
L267.4853 193.7855
" />
<path d="M267.4853 193.7855
L267.4139 193.7141
" />
<path d="M267.4139 193.7141
L267.4853 193.6427
" />
<path d="M267.4853 193.6427
L267.4853 193.7855
" />
<path d="M267.4853 192.8570
L267.5567 192.9284
" />
<path d="M267.5567 192.9284
L267.4853 192.9998
" />
<path d="M267.4853 192.9998
L267.4139 192.9284
" />
<path d="M267.4139 192.9284
L267.4853 192.8570
" />
<path d="M267.4853 192.8570
L267.4853 192.9998
" />
</g></g>
<g style="fill:#000000; fill-opacity:0.0; 
stroke:#000000; stroke-width:0.0212; stroke-opacity:1; 
stroke-linecap:round; stroke-linejoin:round;">
</g>
<g style="fill:#000000; fill-opacity:0.0; 
stroke:#000000; stroke-width:0.1500; stroke-opacity:1; 
stroke-linecap:round; stroke-linejoin:round;">
<text x="178.0022" y="193.8572"
textLength="9.3643" font-size="2.0000" lengthAdjust="spacingAndGlyphs"
text-anchor="start" opacity="0">Size: A4</text>
<g class="stroked-text"><desc>Size: A4</desc>
<path d="M178.3866 193.7219
L178.6009 193.7933
" />
<path d="M178.6009 193.7933
L178.9580 193.7933
" />
<path d="M178.9580 193.7933
L179.1009 193.7219
" />
<path d="M179.1009 193.7219
L179.1723 193.6505
" />
<path d="M179.1723 193.6505
L179.2437 193.5076
" />
<path d="M179.2437 193.5076
L179.2437 193.3648
" />
<path d="M179.2437 193.3648
L179.1723 193.2219
" />
<path d="M179.1723 193.2219
L179.1009 193.1505
" />
<path d="M179.1009 193.1505
L178.9580 193.0790
" />
<path d="M178.9580 193.0790
L178.6723 193.0076
" />
<path d="M178.6723 193.0076
L178.5295 192.9362
" />
<path d="M178.5295 192.9362
L178.4580 192.8648
" />
<path d="M178.4580 192.8648
L178.3866 192.7219
" />
<path d="M178.3866 192.7219
L178.3866 192.5790
" />
<path d="M178.3866 192.5790
L178.4580 192.4362
" />
<path d="M178.4580 192.4362
L178.5295 192.3648
" />
<path d="M178.5295 192.3648
L178.6723 192.2933
" />
<path d="M178.6723 192.2933
L179.0295 192.2933
" />
<path d="M179.0295 192.2933
L179.2437 192.3648
" />
<path d="M179.8866 193.7933
L179.8866 192.7933
" />
<path d="M179.8866 192.2933
L179.8152 192.3648
" />
<path d="M179.8152 192.3648
L179.8866 192.4362
" />
<path d="M179.8866 192.4362
L179.9580 192.3648
" />
<path d="M179.9580 192.3648
L179.8866 192.2933
" />
<path d="M179.8866 192.2933
L179.8866 192.4362
" />
<path d="M180.4580 192.7933
L181.2437 192.7933
" />
<path d="M181.2437 192.7933
L180.4580 193.7933
" />
<path d="M180.4580 193.7933
L181.2437 193.7933
" />
<path d="M182.3866 193.7219
L182.2437 193.7933
" />
<path d="M182.2437 193.7933
L181.9580 193.7933
" />
<path d="M181.9580 193.7933
L181.8152 193.7219
" />
<path d="M181.8152 193.7219
L181.7437 193.5790
" />
<path d="M181.7437 193.5790
L181.7437 193.0076
" />
<path d="M181.7437 193.0076
L181.8152 192.8648
" />
<path d="M181.8152 192.8648
L181.9580 192.7933
" />
<path d="M181.9580 192.7933
L182.2437 192.7933
" />
<path d="M182.2437 192.7933
L182.3866 192.8648
" />
<path d="M182.3866 192.8648
L182.4580 193.0076
" />
<path d="M182.4580 193.0076
L182.4580 193.1505
" />
<path d="M182.4580 193.1505
L181.7437 193.2933
" />
<path d="M183.1009 193.6505
L183.1723 193.7219
" />
<path d="M183.1723 193.7219
L183.1009 193.7933
" />
<path d="M183.1009 193.7933
L183.0295 193.7219
" />
<path d="M183.0295 193.7219
L183.1009 193.6505
" />
<path d="M183.1009 193.6505
L183.1009 193.7933
" />
<path d="M183.1009 192.8648
L183.1723 192.9362
" />
<path d="M183.1723 192.9362
L183.1009 193.0076
" />
<path d="M183.1009 193.0076
L183.0295 192.9362
" />
<path d="M183.0295 192.9362
L183.1009 192.8648
" />
<path d="M183.1009 192.8648
L183.1009 193.0076
" />
<path d="M184.8866 193.3648
L185.6009 193.3648
" />
<path d="M184.7437 193.7933
L185.2437 192.2933
" />
<path d="M185.2437 192.2933
L185.7437 193.7933
" />
<path d="M186.8866 192.7933
L186.8866 193.7933
" />
<path d="M186.5295 192.2219
L186.1723 193.2933
" />
<path d="M186.1723 193.2933
L187.1009 193.2933
" />
</g></g>
<g style="fill:#000000; fill-opacity:0.0; 
stroke:#000000; stroke-width:0.0212; stroke-opacity:1; 
stroke-linecap:round; stroke-linejoin:round;">
</g>
<g style="fill:#000000; fill-opacity:0.0; 
stroke:#000000; stroke-width:0.1500; stroke-opacity:1; 
stroke-linecap:round; stroke-linejoin:round;">
<text x="263.0022" y="196.6572"
textLength="8.5071" font-size="2.0000" lengthAdjust="spacingAndGlyphs"
text-anchor="start" opacity="0">Id: 1/1</text>
<g class="stroked-text"><desc>Id: 1/1</desc>
<path d="M263.4580 196.5933
L263.4580 195.0933
" />
<path d="M264.8152 196.5933
L264.8152 195.0933
" />
<path d="M264.8152 196.5219
L264.6723 196.5933
" />
<path d="M264.6723 196.5933
L264.3866 196.5933
" />
<path d="M264.3866 196.5933
L264.2437 196.5219
" />
<path d="M264.2437 196.5219
L264.1723 196.4505
" />
<path d="M264.1723 196.4505
L264.1009 196.3076
" />
<path d="M264.1009 196.3076
L264.1009 195.8790
" />
<path d="M264.1009 195.8790
L264.1723 195.7362
" />
<path d="M264.1723 195.7362
L264.2437 195.6648
" />
<path d="M264.2437 195.6648
L264.3866 195.5933
" />
<path d="M264.3866 195.5933
L264.6723 195.5933
" />
<path d="M264.6723 195.5933
L264.8152 195.6648
" />
<path d="M265.5295 196.4505
L265.6009 196.5219
" />
<path d="M265.6009 196.5219
L265.5295 196.5933
" />
<path d="M265.5295 196.5933
L265.4580 196.5219
" />
<path d="M265.4580 196.5219
L265.5295 196.4505
" />
<path d="M265.5295 196.4505
L265.5295 196.5933
" />
<path d="M265.5295 195.6648
L265.6009 195.7362
" />
<path d="M265.6009 195.7362
L265.5295 195.8076
" />
<path d="M265.5295 195.8076
L265.4580 195.7362
" />
<path d="M265.4580 195.7362
L265.5295 195.6648
" />
<path d="M265.5295 195.6648
L265.5295 195.8076
" />
<path d="M268.1723 196.5933
L267.3152 196.5933
" />
<path d="M267.7437 196.5933
L267.7437 195.0933
" />
<path d="M267.7437 195.0933
L267.6009 195.3076
" />
<path d="M267.6009 195.3076
L267.4580 195.4505
" />
<path d="M267.4580 195.4505
L267.3152 195.5219
" />
<path d="M269.8866 195.0219
L268.6009 196.9505
" />
<path d="M271.1723 196.5933
L270.3152 196.5933
" />
<path d="M270.7437 196.5933
L270.7437 195.0933
" />
<path d="M270.7437 195.0933
L270.6009 195.3076
" />
<path d="M270.6009 195.3076
L270.4580 195.4505
" />
<path d="M270.4580 195.4505
L270.3152 195.5219
" />
</g></g>
<g style="fill:#000000; fill-opacity:0.0; 
stroke:#000000; stroke-width:0.0212; stroke-opacity:1; 
stroke-linecap:round; stroke-linejoin:round;">
</g>
<g style="fill:#000000; fill-opacity:0.0; 
stroke:#000000; stroke-width:0.1500; stroke-opacity:1; 
stroke-linecap:round; stroke-linejoin:round;">
<path d="M177.0022 187.5072
L285.0022 187.5072
" />
</g>
<g style="fill:#000000; fill-opacity:0.0; 
stroke:#000000; stroke-width:0.0212; stroke-opacity:1; 
stroke-linecap:round; stroke-linejoin:round;">
</g>
<g style="fill:#000000; fill-opacity:0.0; 
stroke:#000000; stroke-width:0.4000; stroke-opacity:1; 
stroke-linecap:round; stroke-linejoin:round;">
<text x="178.0022" y="190.3072"
textLength="9.6571" font-size="2.6667" lengthAdjust="spacingAndGlyphs"
text-anchor="start" opacity="0">Title: </text>
<g class="stroked-text"><desc>Title: </desc>
<path d="M178.6939 188.2116
L179.8368 188.2116
" />
<path d="M179.0154 190.2116
L179.2654 188.2116
" />
<path d="M180.2535 190.2116
L180.4201 188.8783
" />
<path d="M180.5035 188.2116
L180.3963 188.3069
" />
<path d="M180.3963 188.3069
L180.4796 188.4021
" />
<path d="M180.4796 188.4021
L180.5868 188.3069
" />
<path d="M180.5868 188.3069
L180.5035 188.2116
" />
<path d="M180.5035 188.2116
L180.4796 188.4021
" />
<path d="M181.0868 188.8783
L181.8487 188.8783
" />
<path d="M181.4558 188.2116
L181.2415 189.9259
" />
<path d="M181.2415 189.9259
L181.3130 190.1164
" />
<path d="M181.3130 190.1164
L181.4915 190.2116
" />
<path d="M181.4915 190.2116
L181.6820 190.2116
" />
<path d="M182.6344 190.2116
L182.4558 190.1164
" />
<path d="M182.4558 190.1164
L182.3844 189.9259
" />
<path d="M182.3844 189.9259
L182.5987 188.2116
" />
<path d="M184.1701 190.1164
L183.9677 190.2116
" />
<path d="M183.9677 190.2116
L183.5868 190.2116
" />
<path d="M183.5868 190.2116
L183.4082 190.1164
" />
<path d="M183.4082 190.1164
L183.3368 189.9259
" />
<path d="M183.3368 189.9259
L183.4320 189.1640
" />
<path d="M183.4320 189.1640
L183.5511 188.9735
" />
<path d="M183.5511 188.9735
L183.7535 188.8783
" />
<path d="M183.7535 188.8783
L184.1344 188.8783
" />
<path d="M184.1344 188.8783
L184.3130 188.9735
" />
<path d="M184.3130 188.9735
L184.3844 189.1640
" />
<path d="M184.3844 189.1640
L184.3606 189.3545
" />
<path d="M184.3606 189.3545
L183.3844 189.5450
" />
<path d="M185.1344 190.0212
L185.2177 190.1164
" />
<path d="M185.2177 190.1164
L185.1106 190.2116
" />
<path d="M185.1106 190.2116
L185.0273 190.1164
" />
<path d="M185.0273 190.1164
L185.1344 190.0212
" />
<path d="M185.1344 190.0212
L185.1106 190.2116
" />
<path d="M185.2654 188.9735
L185.3487 189.0688
" />
<path d="M185.3487 189.0688
L185.2415 189.1640
" />
<path d="M185.2415 189.1640
L185.1582 189.0688
" />
<path d="M185.1582 189.0688
L185.2654 188.9735
" />
<path d="M185.2654 188.9735
L185.2415 189.1640
" />
</g></g>
<g style="fill:#000000; fill-opacity:0.0; 
stroke:#000000; stroke-width:0.0212; stroke-opacity:1; 
stroke-linecap:round; stroke-linejoin:round;">
</g>
<g style="fill:#000000; fill-opacity:0.0; 
stroke:#000000; stroke-width:0.1500; stroke-opacity:1; 
stroke-linecap:round; stroke-linejoin:round;">
<text x="178.0022" y="186.4572"
textLength="26.3643" font-size="2.0000" lengthAdjust="spacingAndGlyphs"
text-anchor="start" opacity="0">File: working.kicad_pcb</text>
<g class="stroked-text"><desc>File: working.kicad_pcb</desc>
<path d="M178.9580 185.6076
L178.4580 185.6076
" />
<path d="M178.4580 186.3933
L178.4580 184.8933
" />
<path d="M178.4580 184.8933
L179.1723 184.8933
" />
<path d="M179.7437 186.3933
L179.7437 185.3933
" />
<path d="M179.7437 184.8933
L179.6723 184.9648
" />
<path d="M179.6723 184.9648
L179.7437 185.0362
" />
<path d="M179.7437 185.0362
L179.8152 184.9648
" />
<path d="M179.8152 184.9648
L179.7437 184.8933
" />
<path d="M179.7437 184.8933
L179.7437 185.0362
" />
<path d="M180.6723 186.3933
L180.5295 186.3219
" />
<path d="M180.5295 186.3219
L180.4580 186.1790
" />
<path d="M180.4580 186.1790
L180.4580 184.8933
" />
<path d="M181.8152 186.3219
L181.6723 186.3933
" />
<path d="M181.6723 186.3933
L181.3866 186.3933
" />
<path d="M181.3866 186.3933
L181.2437 186.3219
" />
<path d="M181.2437 186.3219
L181.1723 186.1790
" />
<path d="M181.1723 186.1790
L181.1723 185.6076
" />
<path d="M181.1723 185.6076
L181.2437 185.4648
" />
<path d="M181.2437 185.4648
L181.3866 185.3933
" />
<path d="M181.3866 185.3933
L181.6723 185.3933
" />
<path d="M181.6723 185.3933
L181.8152 185.4648
" />
<path d="M181.8152 185.4648
L181.8866 185.6076
" />
<path d="M181.8866 185.6076
L181.8866 185.7505
" />
<path d="M181.8866 185.7505
L181.1723 185.8933
" />
<path d="M182.5295 186.2505
L182.6009 186.3219
" />
<path d="M182.6009 186.3219
L182.5295 186.3933
" />
<path d="M182.5295 186.3933
L182.4580 186.3219
" />
<path d="M182.4580 186.3219
L182.5295 186.2505
" />
<path d="M182.5295 186.2505
L182.5295 186.3933
" />
<path d="M182.5295 185.4648
L182.6009 185.5362
" />
<path d="M182.6009 185.5362
L182.5295 185.6076
" />
<path d="M182.5295 185.6076
L182.4580 185.5362
" />
<path d="M182.4580 185.5362
L182.5295 185.4648
" />
<path d="M182.5295 185.4648
L182.5295 185.6076
" />
<path d="M184.2437 185.3933
L184.5295 186.3933
" />
<path d="M184.5295 186.3933
L184.8152 185.6790
" />
<path d="M184.8152 185.6790
L185.1009 186.3933
" />
<path d="M185.1009 186.3933
L185.3866 185.3933
" />
<path d="M186.1723 186.3933
L186.0295 186.3219
" />
<path d="M186.0295 186.3219
L185.9580 186.2505
" />
<path d="M185.9580 186.2505
L185.8866 186.1076
" />
<path d="M185.8866 186.1076
L185.8866 185.6790
" />
<path d="M185.8866 185.6790
L185.9580 185.5362
" />
<path d="M185.9580 185.5362
L186.0295 185.4648
" />
<path d="M186.0295 185.4648
L186.1723 185.3933
" />
<path d="M186.1723 185.3933
L186.3866 185.3933
" />
<path d="M186.3866 185.3933
L186.5295 185.4648
" />
<path d="M186.5295 185.4648
L186.6009 185.5362
" />
<path d="M186.6009 185.5362
L186.6723 185.6790
" />
<path d="M186.6723 185.6790
L186.6723 186.1076
" />
<path d="M186.6723 186.1076
L186.6009 186.2505
" />
<path d="M186.6009 186.2505
L186.5295 186.3219
" />
<path d="M186.5295 186.3219
L186.3866 186.3933
" />
<path d="M186.3866 186.3933
L186.1723 186.3933
" />
<path d="M187.3152 186.3933
L187.3152 185.3933
" />
<path d="M187.3152 185.6790
L187.3866 185.5362
" />
<path d="M187.3866 185.5362
L187.4580 185.4648
" />
<path d="M187.4580 185.4648
L187.6009 185.3933
" />
<path d="M187.6009 185.3933
L187.7437 185.3933
" />
<path d="M188.2437 186.3933
L188.2437 184.8933
" />
<path d="M188.3866 185.8219
L188.8152 186.3933
" />
<path d="M188.8152 185.3933
L188.2437 185.9648
" />
<path d="M189.4580 186.3933
L189.4580 185.3933
" />
<path d="M189.4580 184.8933
L189.3866 184.9648
" />
<path d="M189.3866 184.9648
L189.4580 185.0362
" />
<path d="M189.4580 185.0362
L189.5295 184.9648
" />
<path d="M189.5295 184.9648
L189.4580 184.8933
" />
<path d="M189.4580 184.8933
L189.4580 185.0362
" />
<path d="M190.1723 185.3933
L190.1723 186.3933
" />
<path d="M190.1723 185.5362
L190.2437 185.4648
" />
<path d="M190.2437 185.4648
L190.3866 185.3933
" />
<path d="M190.3866 185.3933
L190.6009 185.3933
" />
<path d="M190.6009 185.3933
L190.7437 185.4648
" />
<path d="M190.7437 185.4648
L190.8152 185.6076
" />
<path d="M190.8152 185.6076
L190.8152 186.3933
" />
<path d="M192.1723 185.3933
L192.1723 186.6076
" />
<path d="M192.1723 186.6076
L192.1009 186.7505
" />
<path d="M192.1009 186.7505
L192.0295 186.8219
" />
<path d="M192.0295 186.8219
L191.8866 186.8933
" />
<path d="M191.8866 186.8933
L191.6723 186.8933
" />
<path d="M191.6723 186.8933
L191.5295 186.8219
" />
<path d="M192.1723 186.3219
L192.0295 186.3933
" />
<path d="M192.0295 186.3933
L191.7437 186.3933
" />
<path d="M191.7437 186.3933
L191.6009 186.3219
" />
<path d="M191.6009 186.3219
L191.5295 186.2505
" />
<path d="M191.5295 186.2505
L191.4580 186.1076
" />
<path d="M191.4580 186.1076
L191.4580 185.6790
" />
<path d="M191.4580 185.6790
L191.5295 185.5362
" />
<path d="M191.5295 185.5362
L191.6009 185.4648
" />
<path d="M191.6009 185.4648
L191.7437 185.3933
" />
<path d="M191.7437 185.3933
L192.0295 185.3933
" />
<path d="M192.0295 185.3933
L192.1723 185.4648
" />
<path d="M192.8866 186.2505
L192.9580 186.3219
" />
<path d="M192.9580 186.3219
L192.8866 186.3933
" />
<path d="M192.8866 186.3933
L192.8152 186.3219
" />
<path d="M192.8152 186.3219
L192.8866 186.2505
" />
<path d="M192.8866 186.2505
L192.8866 186.3933
" />
<path d="M193.6009 186.3933
L193.6009 184.8933
" />
<path d="M193.7437 185.8219
L194.1723 186.3933
" />
<path d="M194.1723 185.3933
L193.6009 185.9648
" />
<path d="M194.8152 186.3933
L194.8152 185.3933
" />
<path d="M194.8152 184.8933
L194.7437 184.9648
" />
<path d="M194.7437 184.9648
L194.8152 185.0362
" />
<path d="M194.8152 185.0362
L194.8866 184.9648
" />
<path d="M194.8866 184.9648
L194.8152 184.8933
" />
<path d="M194.8152 184.8933
L194.8152 185.0362
" />
<path d="M196.1723 186.3219
L196.0295 186.3933
" />
<path d="M196.0295 186.3933
L195.7437 186.3933
" />
<path d="M195.7437 186.3933
L195.6009 186.3219
" />
<path d="M195.6009 186.3219
L195.5295 186.2505
" />
<path d="M195.5295 186.2505
L195.4580 186.1076
" />
<path d="M195.4580 186.1076
L195.4580 185.6790
" />
<path d="M195.4580 185.6790
L195.5295 185.5362
" />
<path d="M195.5295 185.5362
L195.6009 185.4648
" />
<path d="M195.6009 185.4648
L195.7437 185.3933
" />
<path d="M195.7437 185.3933
L196.0295 185.3933
" />
<path d="M196.0295 185.3933
L196.1723 185.4648
" />
<path d="M197.4580 186.3933
L197.4580 185.6076
" />
<path d="M197.4580 185.6076
L197.3866 185.4648
" />
<path d="M197.3866 185.4648
L197.2437 185.3933
" />
<path d="M197.2437 185.3933
L196.9580 185.3933
" />
<path d="M196.9580 185.3933
L196.8152 185.4648
" />
<path d="M197.4580 186.3219
L197.3152 186.3933
" />
<path d="M197.3152 186.3933
L196.9580 186.3933
" />
<path d="M196.9580 186.3933
L196.8152 186.3219
" />
<path d="M196.8152 186.3219
L196.7437 186.1790
" />
<path d="M196.7437 186.1790
L196.7437 186.0362
" />
<path d="M196.7437 186.0362
L196.8152 185.8933
" />
<path d="M196.8152 185.8933
L196.9580 185.8219
" />
<path d="M196.9580 185.8219
L197.3152 185.8219
" />
<path d="M197.3152 185.8219
L197.4580 185.7505
" />
<path d="M198.8152 186.3933
L198.8152 184.8933
" />
<path d="M198.8152 186.3219
L198.6723 186.3933
" />
<path d="M198.6723 186.3933
L198.3866 186.3933
" />
<path d="M198.3866 186.3933
L198.2437 186.3219
" />
<path d="M198.2437 186.3219
L198.1723 186.2505
" />
<path d="M198.1723 186.2505
L198.1009 186.1076
" />
<path d="M198.1009 186.1076
L198.1009 185.6790
" />
<path d="M198.1009 185.6790
L198.1723 185.5362
" />
<path d="M198.1723 185.5362
L198.2437 185.4648
" />
<path d="M198.2437 185.4648
L198.3866 185.3933
" />
<path d="M198.3866 185.3933
L198.6723 185.3933
" />
<path d="M198.6723 185.3933
L198.8152 185.4648
" />
<path d="M199.1723 186.5362
L200.3152 186.5362
" />
<path d="M200.6723 185.3933
L200.6723 186.8933
" />
<path d="M200.6723 185.4648
L200.8152 185.3933
" />
<path d="M200.8152 185.3933
L201.1009 185.3933
" />
<path d="M201.1009 185.3933
L201.2437 185.4648
" />
<path d="M201.2437 185.4648
L201.3152 185.5362
" />
<path d="M201.3152 185.5362
L201.3866 185.6790
" />
<path d="M201.3866 185.6790
L201.3866 186.1076
" />
<path d="M201.3866 186.1076
L201.3152 186.2505
" />
<path d="M201.3152 186.2505
L201.2437 186.3219
" />
<path d="M201.2437 186.3219
L201.1009 186.3933
" />
<path d="M201.1009 186.3933
L200.8152 186.3933
" />
<path d="M200.8152 186.3933
L200.6723 186.3219
" />
<path d="M202.6723 186.3219
L202.5295 186.3933
" />
<path d="M202.5295 186.3933
L202.2437 186.3933
" />
<path d="M202.2437 186.3933
L202.1009 186.3219
" />
<path d="M202.1009 186.3219
L202.0295 186.2505
" />
<path d="M202.0295 186.2505
L201.9580 186.1076
" />
<path d="M201.9580 186.1076
L201.9580 185.6790
" />
<path d="M201.9580 185.6790
L202.0295 185.5362
" />
<path d="M202.0295 185.5362
L202.1009 185.4648
" />
<path d="M202.1009 185.4648
L202.2437 185.3933
" />
<path d="M202.2437 185.3933
L202.5295 185.3933
" />
<path d="M202.5295 185.3933
L202.6723 185.4648
" />
<path d="M203.3152 186.3933
L203.3152 184.8933
" />
<path d="M203.3152 185.4648
L203.4580 185.3933
" />
<path d="M203.4580 185.3933
L203.7437 185.3933
" />
<path d="M203.7437 185.3933
L203.8866 185.4648
" />
<path d="M203.8866 185.4648
L203.9580 185.5362
" />
<path d="M203.9580 185.5362
L204.0295 185.6790
" />
<path d="M204.0295 185.6790
L204.0295 186.1076
" />
<path d="M204.0295 186.1076
L203.9580 186.2505
" />
<path d="M203.9580 186.2505
L203.8866 186.3219
" />
<path d="M203.8866 186.3219
L203.7437 186.3933
" />
<path d="M203.7437 186.3933
L203.4580 186.3933
" />
<path d="M203.4580 186.3933
L203.3152 186.3219
" />
</g></g>
<g style="fill:#000000; fill-opacity:0.0; 
stroke:#000000; stroke-width:0.0212; stroke-opacity:1; 
stroke-linecap:round; stroke-linejoin:round;">
</g>
<g style="fill:#000000; fill-opacity:0.0; 
stroke:#000000; stroke-width:0.1500; stroke-opacity:1; 
stroke-linecap:round; stroke-linejoin:round;">
<path d="M177.0022 181.5072
L285.0022 181.5072
" />
</g>
<g style="fill:#000000; fill-opacity:0.0; 
stroke:#000000; stroke-width:0.0212; stroke-opacity:1; 
stroke-linecap:round; stroke-linejoin:round;">
</g>
<g style="fill:#000000; fill-opacity:0.0; 
stroke:#000000; stroke-width:0.1500; stroke-opacity:1; 
stroke-linecap:round; stroke-linejoin:round;">
<text x="178.0022" y="183.7572"
textLength="8.2214" font-size="2.0000" lengthAdjust="spacingAndGlyphs"
text-anchor="start" opacity="0">Sheet: </text>
<g class="stroked-text"><desc>Sheet: </desc>
<path d="M178.3866 183.6219
L178.6009 183.6933
" />
<path d="M178.6009 183.6933
L178.9580 183.6933
" />
<path d="M178.9580 183.6933
L179.1009 183.6219
" />
<path d="M179.1009 183.6219
L179.1723 183.5505
" />
<path d="M179.1723 183.5505
L179.2437 183.4076
" />
<path d="M179.2437 183.4076
L179.2437 183.2648
" />
<path d="M179.2437 183.2648
L179.1723 183.1219
" />
<path d="M179.1723 183.1219
L179.1009 183.0505
" />
<path d="M179.1009 183.0505
L178.9580 182.9790
" />
<path d="M178.9580 182.9790
L178.6723 182.9076
" />
<path d="M178.6723 182.9076
L178.5295 182.8362
" />
<path d="M178.5295 182.8362
L178.4580 182.7648
" />
<path d="M178.4580 182.7648
L178.3866 182.6219
" />
<path d="M178.3866 182.6219
L178.3866 182.4790
" />
<path d="M178.3866 182.4790
L178.4580 182.3362
" />
<path d="M178.4580 182.3362
L178.5295 182.2648
" />
<path d="M178.5295 182.2648
L178.6723 182.1933
" />
<path d="M178.6723 182.1933
L179.0295 182.1933
" />
<path d="M179.0295 182.1933
L179.2437 182.2648
" />
<path d="M179.8866 183.6933
L179.8866 182.1933
" />
<path d="M180.5295 183.6933
L180.5295 182.9076
" />
<path d="M180.5295 182.9076
L180.4580 182.7648
" />
<path d="M180.4580 182.7648
L180.3152 182.6933
" />
<path d="M180.3152 182.6933
L180.1009 182.6933
" />
<path d="M180.1009 182.6933
L179.9580 182.7648
" />
<path d="M179.9580 182.7648
L179.8866 182.8362
" />
<path d="M181.8152 183.6219
L181.6723 183.6933
" />
<path d="M181.6723 183.6933
L181.3866 183.6933
" />
<path d="M181.3866 183.6933
L181.2437 183.6219
" />
<path d="M181.2437 183.6219
L181.1723 183.4790
" />
<path d="M181.1723 183.4790
L181.1723 182.9076
" />
<path d="M181.1723 182.9076
L181.2437 182.7648
" />
<path d="M181.2437 182.7648
L181.3866 182.6933
" />
<path d="M181.3866 182.6933
L181.6723 182.6933
" />
<path d="M181.6723 182.6933
L181.8152 182.7648
" />
<path d="M181.8152 182.7648
L181.8866 182.9076
" />
<path d="M181.8866 182.9076
L181.8866 183.0505
" />
<path d="M181.8866 183.0505
L181.1723 183.1933
" />
<path d="M183.1009 183.6219
L182.9580 183.6933
" />
<path d="M182.9580 183.6933
L182.6723 183.6933
" />
<path d="M182.6723 183.6933
L182.5295 183.6219
" />
<path d="M182.5295 183.6219
L182.4580 183.4790
" />
<path d="M182.4580 183.4790
L182.4580 182.9076
" />
<path d="M182.4580 182.9076
L182.5295 182.7648
" />
<path d="M182.5295 182.7648
L182.6723 182.6933
" />
<path d="M182.6723 182.6933
L182.9580 182.6933
" />
<path d="M182.9580 182.6933
L183.1009 182.7648
" />
<path d="M183.1009 182.7648
L183.1723 182.9076
" />
<path d="M183.1723 182.9076
L183.1723 183.0505
" />
<path d="M183.1723 183.0505
L182.4580 183.1933
" />
<path d="M183.6009 182.6933
L184.1723 182.6933
" />
<path d="M183.8152 182.1933
L183.8152 183.4790
" />
<path d="M183.8152 183.4790
L183.8866 183.6219
" />
<path d="M183.8866 183.6219
L184.0295 183.6933
" />
<path d="M184.0295 183.6933
L184.1723 183.6933
" />
<path d="M184.6723 183.5505
L184.7437 183.6219
" />
<path d="M184.7437 183.6219
L184.6723 183.6933
" />
<path d="M184.6723 183.6933
L184.6009 183.6219
" />
<path d="M184.6009 183.6219
L184.6723 183.5505
" />
<path d="M184.6723 183.5505
L184.6723 183.6933
" />
<path d="M184.6723 182.7648
L184.7437 182.8362
" />
<path d="M184.7437 182.8362
L184.6723 182.9076
" />
<path d="M184.6723 182.9076
L184.6009 182.8362
" />
<path d="M184.6009 182.8362
L184.6723 182.7648
" />
<path d="M184.6723 182.7648
L184.6723 182.9076
" />
</g></g>
<g style="fill:#000000; fill-opacity:0.0; 
stroke:#000000; stroke-width:0.0212; stroke-opacity:1; 
stroke-linecap:round; stroke-linejoin:round;">
</g>
<g style="fill:#000000; fill-opacity:0.0; 
stroke:#000000; stroke-width:0.3000; stroke-opacity:1; 
stroke-linecap:round; stroke-linejoin:round;">
<text x="178.0022" y="180.7572"
textLength="0.9000" font-size="2.0000" lengthAdjust="spacingAndGlyphs"
text-anchor="start" opacity="0"></text>
<g class="stroked-text"><desc></desc>
</g></g>
<g style="fill:#000000; fill-opacity:0.0; 
stroke:#000000; stroke-width:0.0212; stroke-opacity:1; 
stroke-linecap:round; stroke-linejoin:round;">
</g>
<g style="fill:#000000; fill-opacity:0.0; 
stroke:#000000; stroke-width:0.1500; stroke-opacity:1; 
stroke-linecap:round; stroke-linejoin:round;">
<text x="178.0022" y="177.7572"
textLength="0.4500" font-size="2.0000" lengthAdjust="spacingAndGlyphs"
text-anchor="start" opacity="0"></text>
<g class="stroked-text"><desc></desc>
</g></g>
<g style="fill:#000000; fill-opacity:0.0; 
stroke:#000000; stroke-width:0.0212; stroke-opacity:1; 
stroke-linecap:round; stroke-linejoin:round;">
</g>
<g style="fill:#000000; fill-opacity:0.0; 
stroke:#000000; stroke-width:0.1500; stroke-opacity:1; 
stroke-linecap:round; stroke-linejoin:round;">
<text x="178.0022" y="174.7572"
textLength="0.4500" font-size="2.0000" lengthAdjust="spacingAndGlyphs"
text-anchor="start" opacity="0"></text>
<g class="stroked-text"><desc></desc>
</g></g>
<g style="fill:#000000; fill-opacity:0.0; 
stroke:#000000; stroke-width:0.0212; stroke-opacity:1; 
stroke-linecap:round; stroke-linejoin:round;">
</g>
<g style="fill:#000000; fill-opacity:0.0; 
stroke:#000000; stroke-width:0.1500; stroke-opacity:1; 
stroke-linecap:round; stroke-linejoin:round;">
<text x="178.0022" y="171.7572"
textLength="0.4500" font-size="2.0000" lengthAdjust="spacingAndGlyphs"
text-anchor="start" opacity="0"></text>
<g class="stroked-text"><desc></desc>
</g></g>
<g style="fill:#000000; fill-opacity:0.0; 
stroke:#000000; stroke-width:0.0212; stroke-opacity:1; 
stroke-linecap:round; stroke-linejoin:round;">
</g>
<g style="fill:#000000; fill-opacity:0.0; 
stroke:#000000; stroke-width:0.1500; stroke-opacity:1; 
stroke-linecap:round; stroke-linejoin:round;">
<text x="178.0022" y="168.7572"
textLength="0.4500" font-size="2.0000" lengthAdjust="spacingAndGlyphs"
text-anchor="start" opacity="0"></text>
<g class="stroked-text"><desc></desc>
</g></g>
<g style="fill:#000000; fill-opacity:0.0; 
stroke:#000000; stroke-width:0.0212; stroke-opacity:1; 
stroke-linecap:round; stroke-linejoin:round;">
</g>
<g style="fill:#000000; fill-opacity:0.0; 
stroke:#000000; stroke-width:0.1500; stroke-opacity:1; 
stroke-linecap:round; stroke-linejoin:round;">
<path d="M197.0022 191.5072
L197.0022 194.5072
" />
</g>
<g style="fill:#000000; fill-opacity:0.0; 
stroke:#000000; stroke-width:0.0212; stroke-opacity:1; 
stroke-linecap:round; stroke-linejoin:round;">
</g>
<g style="fill:#000000; fill-opacity:0.0; 
stroke:#000000; stroke-width:0.1500; stroke-opacity:1; 
stroke-linecap:round; stroke-linejoin:round;">
<path d="M261.0022 191.5072
L261.0022 198.0072
" />
<g >
</g>
<g style="fill:#D864FF; fill-opacity:0.0; 
stroke:#D864FF; stroke-width:0.1500; stroke-opacity:1; 
stroke-linecap:round; stroke-linejoin:round;">
</g>
<g style="fill:#D864FF; fill-opacity:0.0; 
stroke:#D864FF; stroke-width:0.0000; stroke-opacity:1; 
stroke-linecap:round; stroke-linejoin:round;">
</g>
<g style="fill:#D864FF; fill-opacity:0.4000; 
stroke:#D864FF; stroke-width:0.0000; stroke-opacity:1; 
stroke-linecap:round; stroke-linejoin:round;">
<path style="fill:#D864FF; fill-opacity:0.4000; 
stroke:#D864FF; stroke-width:0.0000; stroke-opacity:1; 
stroke-linecap:round; stroke-linejoin:round;fill-rule:evenodd;"
d="M 149.0171,107.6482
148.9782,107.6405
148.9453,107.6184
148.9232,107.5855
148.9155,107.5466
148.9155,106.4466
148.9232,106.4077
148.9453,106.3748
148.9782,106.3527
149.0171,106.3450
150.0171,106.3450
150.0560,106.3527
150.0889,106.3748
150.1110,106.4077
150.1187,106.4466
150.1187,107.5466
150.1110,107.5855
150.0889,107.6184
150.0560,107.6405
150.0171,107.6482
Z" /> 
<path style="fill:#D864FF; fill-opacity:0.4000; 
stroke:#D864FF; stroke-width:0.0000; stroke-opacity:1; 
stroke-linecap:round; stroke-linejoin:round;fill-rule:evenodd;"
d="M 149.0171,105.9482
148.9782,105.9405
148.9453,105.9184
148.9232,105.8855
148.9155,105.8466
148.9155,104.7466
148.9232,104.7077
148.9453,104.6748
148.9782,104.6527
149.0171,104.6450
150.0171,104.6450
150.0560,104.6527
150.0889,104.6748
150.1110,104.7077
150.1187,104.7466
150.1187,105.8466
150.1110,105.8855
150.0889,105.9184
150.0560,105.9405
150.0171,105.9482
Z" /> 
</g>
<g >
</g>
<g style="fill:#D864FF; fill-opacity:0.4000; 
stroke:#D864FF; stroke-width:0.0000; stroke-opacity:1; 
stroke-linecap:round; stroke-linejoin:round;">
<path style="fill:#D864FF; fill-opacity:0.4000; 
stroke:#D864FF; stroke-width:0.0000; stroke-opacity:1; 
stroke-linecap:round; stroke-linejoin:round;fill-rule:evenodd;"
d="M 143.6527,108.5516
143.6450,108.5905
143.6229,108.6234
143.5900,108.6455
143.5511,108.6532
142.4511,108.6532
142.4122,108.6455
142.3793,108.6234
142.3572,108.5905
142.3495,108.5516
142.3495,107.5516
142.3572,107.5127
142.3793,107.4798
142.4122,107.4577
142.4511,107.4500
143.5511,107.4500
143.5900,107.4577
143.6229,107.4798
143.6450,107.5127
143.6527,107.5516
Z" /> 
<path style="fill:#D864FF; fill-opacity:0.4000; 
stroke:#D864FF; stroke-width:0.0000; stroke-opacity:1; 
stroke-linecap:round; stroke-linejoin:round;fill-rule:evenodd;"
d="M 141.9527,108.5516
141.9450,108.5905
141.9229,108.6234
141.8900,108.6455
141.8511,108.6532
140.7511,108.6532
140.7122,108.6455
140.6793,108.6234
140.6572,108.5905
140.6495,108.5516
140.6495,107.5516
140.6572,107.5127
140.6793,107.4798
140.7122,107.4577
140.7511,107.4500
141.8511,107.4500
141.8900,107.4577
141.9229,107.4798
141.9450,107.5127
141.9527,107.5516
Z" /> 
</g>
<g >
</g>
<g style="fill:#D864FF; fill-opacity:0.4000; 
stroke:#D864FF; stroke-width:0.0000; stroke-opacity:1; 
stroke-linecap:round; stroke-linejoin:round;">
<path style="fill:#D864FF; fill-opacity:0.4000; 
stroke:#D864FF; stroke-width:0.0000; stroke-opacity:1; 
stroke-linecap:round; stroke-linejoin:round;fill-rule:evenodd;"
d="M 143.6527,104.4876
143.6450,104.5265
143.6229,104.5594
143.5900,104.5815
143.5511,104.5892
142.4511,104.5892
142.4122,104.5815
142.3793,104.5594
142.3572,104.5265
142.3495,104.4876
142.3495,103.4876
142.3572,103.4487
142.3793,103.4158
142.4122,103.3937
142.4511,103.3860
143.5511,103.3860
143.5900,103.3937
143.6229,103.4158
143.6450,103.4487
143.6527,103.4876
Z" /> 
<path style="fill:#D864FF; fill-opacity:0.4000; 
stroke:#D864FF; stroke-width:0.0000; stroke-opacity:1; 
stroke-linecap:round; stroke-linejoin:round;fill-rule:evenodd;"
d="M 141.9527,104.4876
141.9450,104.5265
141.9229,104.5594
141.8900,104.5815
141.8511,104.5892
140.7511,104.5892
140.7122,104.5815
140.6793,104.5594
140.6572,104.5265
140.6495,104.4876
140.6495,103.4876
140.6572,103.4487
140.6793,103.4158
140.7122,103.3937
140.7511,103.3860
141.8511,103.3860
141.8900,103.3937
141.9229,103.4158
141.9450,103.4487
141.9527,103.4876
Z" /> 
</g>
<g >
</g>
<g >
</g>
<g style="fill:#D864FF; fill-opacity:0.4000; 
stroke:#D864FF; stroke-width:0.0000; stroke-opacity:1; 
stroke-linecap:round; stroke-linejoin:round;">
<path style="fill:#D864FF; fill-opacity:0.4000; 
stroke:#D864FF; stroke-width:0.0000; stroke-opacity:1; 
stroke-linecap:round; stroke-linejoin:round;fill-rule:evenodd;"
d="M 144.9070,109.1946
144.9275,109.0651
144.9870,108.9483
145.0798,108.8555
145.1966,108.7960
145.3261,108.7755
145.4556,108.7960
145.5724,108.8555
145.6652,108.9483
145.7247,109.0651
145.7452,109.1946
145.7247,109.3241
145.6652,109.4409
145.5724,109.5337
145.4556,109.5932
145.3261,109.6137
145.1966,109.5932
145.0798,109.5337
144.9870,109.4409
144.9275,109.3241
144.9070,109.1946
Z" /> 
</g>
<g >
</g>
<g >
</g>
<g style="fill:#D864FF; fill-opacity:0.4000; 
stroke:#D864FF; stroke-width:0.0000; stroke-opacity:1; 
stroke-linecap:round; stroke-linejoin:round;">
<path style="fill:#D864FF; fill-opacity:0.4000; 
stroke:#D864FF; stroke-width:0.0000; stroke-opacity:1; 
stroke-linecap:round; stroke-linejoin:round;fill-rule:evenodd;"
d="M 145.5707,106.6436
145.5630,106.6825
145.5409,106.7154
145.5080,106.7375
145.4691,106.7452
145.0191,106.7452
144.9802,106.7375
144.9473,106.7154
144.9252,106.6825
144.9175,106.6436
144.9175,106.3736
144.9252,106.3347
144.9473,106.3018
144.9802,106.2797
145.0191,106.2720
145.4691,106.2720
145.5080,106.2797
145.5409,106.3018
145.5630,106.3347
145.5707,106.3736
Z" /> 
<path style="fill:#D864FF; fill-opacity:0.4000; 
stroke:#D864FF; stroke-width:0.0000; stroke-opacity:1; 
stroke-linecap:round; stroke-linejoin:round;fill-rule:evenodd;"
d="M 145.9591,106.1520
145.9980,106.1597
146.0309,106.1818
146.0530,106.2147
146.0607,106.2536
146.0607,106.7036
146.0530,106.7425
146.0309,106.7754
145.9980,106.7975
145.9591,106.8052
145.6891,106.8052
145.6502,106.7975
145.6173,106.7754
145.5952,106.7425
145.5875,106.7036
145.5875,106.2536
145.5952,106.2147
145.6173,106.1818
145.6502,106.1597
145.6891,106.1520
Z" /> 
<path style="fill:#D864FF; fill-opacity:0.4000; 
stroke:#D864FF; stroke-width:0.0000; stroke-opacity:1; 
stroke-linecap:round; stroke-linejoin:round;fill-rule:evenodd;"
d="M 146.3891,106.1520
146.4280,106.1597
146.4609,106.1818
146.4830,106.2147
146.4907,106.2536
146.4907,106.7036
146.4830,106.7425
146.4609,106.7754
146.4280,106.7975
146.3891,106.8052
146.1191,106.8052
146.0802,106.7975
146.0473,106.7754
146.0252,106.7425
146.0175,106.7036
146.0175,106.2536
146.0252,106.2147
146.0473,106.1818
146.0802,106.1597
146.1191,106.1520
Z" /> 
<path style="fill:#D864FF; fill-opacity:0.4000; 
stroke:#D864FF; stroke-width:0.0000; stroke-opacity:1; 
stroke-linecap:round; stroke-linejoin:round;fill-rule:evenodd;"
d="M 146.8191,106.1520
146.8580,106.1597
146.8909,106.1818
146.9130,106.2147
146.9207,106.2536
146.9207,106.7036
146.9130,106.7425
146.8909,106.7754
146.8580,106.7975
146.8191,106.8052
146.5491,106.8052
146.5102,106.7975
146.4773,106.7754
146.4552,106.7425
146.4475,106.7036
146.4475,106.2536
146.4552,106.2147
146.4773,106.1818
146.5102,106.1597
146.5491,106.1520
Z" /> 
<path style="fill:#D864FF; fill-opacity:0.4000; 
stroke:#D864FF; stroke-width:0.0000; stroke-opacity:1; 
stroke-linecap:round; stroke-linejoin:round;fill-rule:evenodd;"
d="M 147.2491,106.1520
147.2880,106.1597
147.3209,106.1818
147.3430,106.2147
147.3507,106.2536
147.3507,106.7036
147.3430,106.7425
147.3209,106.7754
147.2880,106.7975
147.2491,106.8052
146.9791,106.8052
146.9402,106.7975
146.9073,106.7754
146.8852,106.7425
146.8775,106.7036
146.8775,106.2536
146.8852,106.2147
146.9073,106.1818
146.9402,106.1597
146.9791,106.1520
Z" /> 
<path style="fill:#D864FF; fill-opacity:0.4000; 
stroke:#D864FF; stroke-width:0.0000; stroke-opacity:1; 
stroke-linecap:round; stroke-linejoin:round;fill-rule:evenodd;"
d="M 147.3675,106.3736
147.3752,106.3347
147.3973,106.3018
147.4302,106.2797
147.4691,106.2720
147.9191,106.2720
147.9580,106.2797
147.9909,106.3018
148.0130,106.3347
148.0207,106.3736
148.0207,106.6436
148.0130,106.6825
147.9909,106.7154
147.9580,106.7375
147.9191,106.7452
147.4691,106.7452
147.4302,106.7375
147.3973,106.7154
147.3752,106.6825
147.3675,106.6436
Z" /> 
<path style="fill:#D864FF; fill-opacity:0.4000; 
stroke:#D864FF; stroke-width:0.0000; stroke-opacity:1; 
stroke-linecap:round; stroke-linejoin:round;fill-rule:evenodd;"
d="M 147.3675,105.9436
147.3752,105.9047
147.3973,105.8718
147.4302,105.8497
147.4691,105.8420
147.9191,105.8420
147.9580,105.8497
147.9909,105.8718
148.0130,105.9047
148.0207,105.9436
148.0207,106.2136
148.0130,106.2525
147.9909,106.2854
147.9580,106.3075
147.9191,106.3152
147.4691,106.3152
147.4302,106.3075
147.3973,106.2854
147.3752,106.2525
147.3675,106.2136
Z" /> 
<path style="fill:#D864FF; fill-opacity:0.4000; 
stroke:#D864FF; stroke-width:0.0000; stroke-opacity:1; 
stroke-linecap:round; stroke-linejoin:round;fill-rule:evenodd;"
d="M 147.3675,105.5136
147.3752,105.4747
147.3973,105.4418
147.4302,105.4197
147.4691,105.4120
147.9191,105.4120
147.9580,105.4197
147.9909,105.4418
148.0130,105.4747
148.0207,105.5136
148.0207,105.7836
148.0130,105.8225
147.9909,105.8554
147.9580,105.8775
147.9191,105.8852
147.4691,105.8852
147.4302,105.8775
147.3973,105.8554
147.3752,105.8225
147.3675,105.7836
Z" /> 
<path style="fill:#D864FF; fill-opacity:0.4000; 
stroke:#D864FF; stroke-width:0.0000; stroke-opacity:1; 
stroke-linecap:round; stroke-linejoin:round;fill-rule:evenodd;"
d="M 147.3675,105.0836
147.3752,105.0447
147.3973,105.0118
147.4302,104.9897
147.4691,104.9820
147.9191,104.9820
147.9580,104.9897
147.9909,105.0118
148.0130,105.0447
148.0207,105.0836
148.0207,105.3536
148.0130,105.3925
147.9909,105.4254
147.9580,105.4475
147.9191,105.4552
147.4691,105.4552
147.4302,105.4475
147.3973,105.4254
147.3752,105.3925
147.3675,105.3536
Z" /> 
<path style="fill:#D864FF; fill-opacity:0.4000; 
stroke:#D864FF; stroke-width:0.0000; stroke-opacity:1; 
stroke-linecap:round; stroke-linejoin:round;fill-rule:evenodd;"
d="M 147.3675,104.6536
147.3752,104.6147
147.3973,104.5818
147.4302,104.5597
147.4691,104.5520
147.9191,104.5520
147.9580,104.5597
147.9909,104.5818
148.0130,104.6147
148.0207,104.6536
148.0207,104.9236
148.0130,104.9625
147.9909,104.9954
147.9580,105.0175
147.9191,105.0252
147.4691,105.0252
147.4302,105.0175
147.3973,104.9954
147.3752,104.9625
147.3675,104.9236
Z" /> 
<path style="fill:#D864FF; fill-opacity:0.4000; 
stroke:#D864FF; stroke-width:0.0000; stroke-opacity:1; 
stroke-linecap:round; stroke-linejoin:round;fill-rule:evenodd;"
d="M 147.3675,104.2236
147.3752,104.1847
147.3973,104.1518
147.4302,104.1297
147.4691,104.1220
147.9191,104.1220
147.9580,104.1297
147.9909,104.1518
148.0130,104.1847
148.0207,104.2236
148.0207,104.4936
148.0130,104.5325
147.9909,104.5654
147.9580,104.5875
147.9191,104.5952
147.4691,104.5952
147.4302,104.5875
147.3973,104.5654
147.3752,104.5325
147.3675,104.4936
Z" /> 
<path style="fill:#D864FF; fill-opacity:0.4000; 
stroke:#D864FF; stroke-width:0.0000; stroke-opacity:1; 
stroke-linecap:round; stroke-linejoin:round;fill-rule:evenodd;"
d="M 147.3675,103.7936
147.3752,103.7547
147.3973,103.7218
147.4302,103.6997
147.4691,103.6920
147.9191,103.6920
147.9580,103.6997
147.9909,103.7218
148.0130,103.7547
148.0207,103.7936
148.0207,104.0636
148.0130,104.1025
147.9909,104.1354
147.9580,104.1575
147.9191,104.1652
147.4691,104.1652
147.4302,104.1575
147.3973,104.1354
147.3752,104.1025
147.3675,104.0636
Z" /> 
<path style="fill:#D864FF; fill-opacity:0.4000; 
stroke:#D864FF; stroke-width:0.0000; stroke-opacity:1; 
stroke-linecap:round; stroke-linejoin:round;fill-rule:evenodd;"
d="M 147.3675,103.3636
147.3752,103.3247
147.3973,103.2918
147.4302,103.2697
147.4691,103.2620
147.9191,103.2620
147.9580,103.2697
147.9909,103.2918
148.0130,103.3247
148.0207,103.3636
148.0207,103.6336
148.0130,103.6725
147.9909,103.7054
147.9580,103.7275
147.9191,103.7352
147.4691,103.7352
147.4302,103.7275
147.3973,103.7054
147.3752,103.6725
147.3675,103.6336
Z" /> 
<path style="fill:#D864FF; fill-opacity:0.4000; 
stroke:#D864FF; stroke-width:0.0000; stroke-opacity:1; 
stroke-linecap:round; stroke-linejoin:round;fill-rule:evenodd;"
d="M 146.9791,103.8552
146.9402,103.8475
146.9073,103.8254
146.8852,103.7925
146.8775,103.7536
146.8775,103.3036
146.8852,103.2647
146.9073,103.2318
146.9402,103.2097
146.9791,103.2020
147.2491,103.2020
147.2880,103.2097
147.3209,103.2318
147.3430,103.2647
147.3507,103.3036
147.3507,103.7536
147.3430,103.7925
147.3209,103.8254
147.2880,103.8475
147.2491,103.8552
Z" /> 
<path style="fill:#D864FF; fill-opacity:0.4000; 
stroke:#D864FF; stroke-width:0.0000; stroke-opacity:1; 
stroke-linecap:round; stroke-linejoin:round;fill-rule:evenodd;"
d="M 146.5491,103.8552
146.5102,103.8475
146.4773,103.8254
146.4552,103.7925
146.4475,103.7536
146.4475,103.3036
146.4552,103.2647
146.4773,103.2318
146.5102,103.2097
146.5491,103.2020
146.8191,103.2020
146.8580,103.2097
146.8909,103.2318
146.9130,103.2647
146.9207,103.3036
146.9207,103.7536
146.9130,103.7925
146.8909,103.8254
146.8580,103.8475
146.8191,103.8552
Z" /> 
<path style="fill:#D864FF; fill-opacity:0.4000; 
stroke:#D864FF; stroke-width:0.0000; stroke-opacity:1; 
stroke-linecap:round; stroke-linejoin:round;fill-rule:evenodd;"
d="M 146.1191,103.8552
146.0802,103.8475
146.0473,103.8254
146.0252,103.7925
146.0175,103.7536
146.0175,103.3036
146.0252,103.2647
146.0473,103.2318
146.0802,103.2097
146.1191,103.2020
146.3891,103.2020
146.4280,103.2097
146.4609,103.2318
146.4830,103.2647
146.4907,103.3036
146.4907,103.7536
146.4830,103.7925
146.4609,103.8254
146.4280,103.8475
146.3891,103.8552
Z" /> 
<path style="fill:#D864FF; fill-opacity:0.4000; 
stroke:#D864FF; stroke-width:0.0000; stroke-opacity:1; 
stroke-linecap:round; stroke-linejoin:round;fill-rule:evenodd;"
d="M 145.6891,103.8552
145.6502,103.8475
145.6173,103.8254
145.5952,103.7925
145.5875,103.7536
145.5875,103.3036
145.5952,103.2647
145.6173,103.2318
145.6502,103.2097
145.6891,103.2020
145.9591,103.2020
145.9980,103.2097
146.0309,103.2318
146.0530,103.2647
146.0607,103.3036
146.0607,103.7536
146.0530,103.7925
146.0309,103.8254
145.9980,103.8475
145.9591,103.8552
Z" /> 
<path style="fill:#D864FF; fill-opacity:0.4000; 
stroke:#D864FF; stroke-width:0.0000; stroke-opacity:1; 
stroke-linecap:round; stroke-linejoin:round;fill-rule:evenodd;"
d="M 145.5707,103.6336
145.5630,103.6725
145.5409,103.7054
145.5080,103.7275
145.4691,103.7352
145.0191,103.7352
144.9802,103.7275
144.9473,103.7054
144.9252,103.6725
144.9175,103.6336
144.9175,103.3636
144.9252,103.3247
144.9473,103.2918
144.9802,103.2697
145.0191,103.2620
145.4691,103.2620
145.5080,103.2697
145.5409,103.2918
145.5630,103.3247
145.5707,103.3636
Z" /> 
<path style="fill:#D864FF; fill-opacity:0.4000; 
stroke:#D864FF; stroke-width:0.0000; stroke-opacity:1; 
stroke-linecap:round; stroke-linejoin:round;fill-rule:evenodd;"
d="M 145.5707,104.0636
145.5630,104.1025
145.5409,104.1354
145.5080,104.1575
145.4691,104.1652
145.0191,104.1652
144.9802,104.1575
144.9473,104.1354
144.9252,104.1025
144.9175,104.0636
144.9175,103.7936
144.9252,103.7547
144.9473,103.7218
144.9802,103.6997
145.0191,103.6920
145.4691,103.6920
145.5080,103.6997
145.5409,103.7218
145.5630,103.7547
145.5707,103.7936
Z" /> 
<path style="fill:#D864FF; fill-opacity:0.4000; 
stroke:#D864FF; stroke-width:0.0000; stroke-opacity:1; 
stroke-linecap:round; stroke-linejoin:round;fill-rule:evenodd;"
d="M 145.5707,104.4936
145.5630,104.5325
145.5409,104.5654
145.5080,104.5875
145.4691,104.5952
145.0191,104.5952
144.9802,104.5875
144.9473,104.5654
144.9252,104.5325
144.9175,104.4936
144.9175,104.2236
144.9252,104.1847
144.9473,104.1518
144.9802,104.1297
145.0191,104.1220
145.4691,104.1220
145.5080,104.1297
145.5409,104.1518
145.5630,104.1847
145.5707,104.2236
Z" /> 
<path style="fill:#D864FF; fill-opacity:0.4000; 
stroke:#D864FF; stroke-width:0.0000; stroke-opacity:1; 
stroke-linecap:round; stroke-linejoin:round;fill-rule:evenodd;"
d="M 145.5707,104.9236
145.5630,104.9625
145.5409,104.9954
145.5080,105.0175
145.4691,105.0252
145.0191,105.0252
144.9802,105.0175
144.9473,104.9954
144.9252,104.9625
144.9175,104.9236
144.9175,104.6536
144.9252,104.6147
144.9473,104.5818
144.9802,104.5597
145.0191,104.5520
145.4691,104.5520
145.5080,104.5597
145.5409,104.5818
145.5630,104.6147
145.5707,104.6536
Z" /> 
<path style="fill:#D864FF; fill-opacity:0.4000; 
stroke:#D864FF; stroke-width:0.0000; stroke-opacity:1; 
stroke-linecap:round; stroke-linejoin:round;fill-rule:evenodd;"
d="M 145.5707,105.3536
145.5630,105.3925
145.5409,105.4254
145.5080,105.4475
145.4691,105.4552
145.0191,105.4552
144.9802,105.4475
144.9473,105.4254
144.9252,105.3925
144.9175,105.3536
144.9175,105.0836
144.9252,105.0447
144.9473,105.0118
144.9802,104.9897
145.0191,104.9820
145.4691,104.9820
145.5080,104.9897
145.5409,105.0118
145.5630,105.0447
145.5707,105.0836
Z" /> 
<path style="fill:#D864FF; fill-opacity:0.4000; 
stroke:#D864FF; stroke-width:0.0000; stroke-opacity:1; 
stroke-linecap:round; stroke-linejoin:round;fill-rule:evenodd;"
d="M 145.5707,105.7836
145.5630,105.8225
145.5409,105.8554
145.5080,105.8775
145.4691,105.8852
145.0191,105.8852
144.9802,105.8775
144.9473,105.8554
144.9252,105.8225
144.9175,105.7836
144.9175,105.5136
144.9252,105.4747
144.9473,105.4418
144.9802,105.4197
145.0191,105.4120
145.4691,105.4120
145.5080,105.4197
145.5409,105.4418
145.5630,105.4747
145.5707,105.5136
Z" /> 
<path style="fill:#D864FF; fill-opacity:0.4000; 
stroke:#D864FF; stroke-width:0.0000; stroke-opacity:1; 
stroke-linecap:round; stroke-linejoin:round;fill-rule:evenodd;"
d="M 145.5707,106.2136
145.5630,106.2525
145.5409,106.2854
145.5080,106.3075
145.4691,106.3152
145.0191,106.3152
144.9802,106.3075
144.9473,106.2854
144.9252,106.2525
144.9175,106.2136
144.9175,105.9436
144.9252,105.9047
144.9473,105.8718
144.9802,105.8497
145.0191,105.8420
145.4691,105.8420
145.5080,105.8497
145.5409,105.8718
145.5630,105.9047
145.5707,105.9436
Z" /> 
</g>
<g >
</g>
<g style="fill:#D864FF; fill-opacity:0.4000; 
stroke:#D864FF; stroke-width:0.0000; stroke-opacity:1; 
stroke-linecap:round; stroke-linejoin:round;">
<path style="fill:#D864FF; fill-opacity:0.4000; 
stroke:#D864FF; stroke-width:0.0000; stroke-opacity:1; 
stroke-linecap:round; stroke-linejoin:round;fill-rule:evenodd;"
d="M 150.2871,107.6482
150.2482,107.6405
150.2153,107.6184
150.1932,107.5855
150.1855,107.5466
150.1855,106.4466
150.1932,106.4077
150.2153,106.3748
150.2482,106.3527
150.2871,106.3450
151.2871,106.3450
151.3260,106.3527
151.3589,106.3748
151.3810,106.4077
151.3887,106.4466
151.3887,107.5466
151.3810,107.5855
151.3589,107.6184
151.3260,107.6405
151.2871,107.6482
Z" /> 
<path style="fill:#D864FF; fill-opacity:0.4000; 
stroke:#D864FF; stroke-width:0.0000; stroke-opacity:1; 
stroke-linecap:round; stroke-linejoin:round;fill-rule:evenodd;"
d="M 150.2871,105.9482
150.2482,105.9405
150.2153,105.9184
150.1932,105.8855
150.1855,105.8466
150.1855,104.7466
150.1932,104.7077
150.2153,104.6748
150.2482,104.6527
150.2871,104.6450
151.2871,104.6450
151.3260,104.6527
151.3589,104.6748
151.3810,104.7077
151.3887,104.7466
151.3887,105.8466
151.3810,105.8855
151.3589,105.9184
151.3260,105.9405
151.2871,105.9482
Z" /> 
</g>
<g >
</g>
<g style="fill:#D864FF; fill-opacity:0.4000; 
stroke:#D864FF; stroke-width:0.0000; stroke-opacity:1; 
stroke-linecap:round; stroke-linejoin:round;">
<circle cx="138.3411" cy="101.1936" r="1.0414" /> 
</g>
<g style="fill:#D864FF; fill-opacity:0.4000; 
stroke:#D864FF; stroke-width:0.0212; stroke-opacity:1; 
stroke-linecap:round; stroke-linejoin:round;">
</g>
<g style="fill:#D864FF; fill-opacity:0.4000; 
stroke:#D864FF; stroke-width:0.0000; stroke-opacity:1; 
stroke-linecap:round; stroke-linejoin:round;">
<circle cx="138.3411" cy="103.7336" r="1.0414" /> 
</g>
<g style="fill:#D864FF; fill-opacity:0.4000; 
stroke:#D864FF; stroke-width:0.0212; stroke-opacity:1; 
stroke-linecap:round; stroke-linejoin:round;">
</g>
<g style="fill:#D864FF; fill-opacity:0.4000; 
stroke:#D864FF; stroke-width:0.0000; stroke-opacity:1; 
stroke-linecap:round; stroke-linejoin:round;">
<circle cx="138.3411" cy="106.2736" r="1.0414" /> 
</g>
<g style="fill:#D864FF; fill-opacity:0.4000; 
stroke:#D864FF; stroke-width:0.0212; stroke-opacity:1; 
stroke-linecap:round; stroke-linejoin:round;">
</g>
<g style="fill:#D864FF; fill-opacity:0.4000; 
stroke:#D864FF; stroke-width:0.0000; stroke-opacity:1; 
stroke-linecap:round; stroke-linejoin:round;">
<circle cx="138.3411" cy="108.8136" r="1.0414" /> 
</g>
<g style="fill:#D864FF; fill-opacity:0.4000; 
stroke:#D864FF; stroke-width:0.0212; stroke-opacity:1; 
stroke-linecap:round; stroke-linejoin:round;">
</g>
<g >
</g>
<g style="fill:#D864FF; fill-opacity:0.4000; 
stroke:#D864FF; stroke-width:0.0212; stroke-opacity:1; 
stroke-linecap:round; stroke-linejoin:round;">
</g>
<g style="fill:#D864FF; fill-opacity:0.4000; 
stroke:#D864FF; stroke-width:0.0000; stroke-opacity:1; 
stroke-linecap:round; stroke-linejoin:round;">
<path style="fill:#D864FF; fill-opacity:0.4000; 
stroke:#D864FF; stroke-width:0.0000; stroke-opacity:1; 
stroke-linecap:round; stroke-linejoin:round;fill-rule:evenodd;"
d="M 145.0945,101.4556
145.1022,101.4167
145.1243,101.3838
145.1572,101.3617
145.1961,101.3540
146.2961,101.3540
146.3350,101.3617
146.3679,101.3838
146.3900,101.4167
146.3977,101.4556
146.3977,102.4556
146.3900,102.4945
146.3679,102.5274
146.3350,102.5495
146.2961,102.5572
145.1961,102.5572
145.1572,102.5495
145.1243,102.5274
145.1022,102.4945
145.0945,102.4556
Z" /> 
<path style="fill:#D864FF; fill-opacity:0.4000; 
stroke:#D864FF; stroke-width:0.0000; stroke-opacity:1; 
stroke-linecap:round; stroke-linejoin:round;fill-rule:evenodd;"
d="M 146.7945,101.4556
146.8022,101.4167
146.8243,101.3838
146.8572,101.3617
146.8961,101.3540
147.9961,101.3540
148.0350,101.3617
148.0679,101.3838
148.0900,101.4167
148.0977,101.4556
148.0977,102.4556
148.0900,102.4945
148.0679,102.5274
148.0350,102.5495
147.9961,102.5572
146.8961,102.5572
146.8572,102.5495
146.8243,102.5274
146.8022,102.4945
146.7945,102.4556
Z" /> 
</g>
<g >
</g>
<g style="fill:#D864FF; fill-opacity:0.4000; 
stroke:#D864FF; stroke-width:0.0000; stroke-opacity:1; 
stroke-linecap:round; stroke-linejoin:round;">
<path style="fill:#D864FF; fill-opacity:0.4000; 
stroke:#D864FF; stroke-width:0.0000; stroke-opacity:1; 
stroke-linecap:round; stroke-linejoin:round;fill-rule:evenodd;"
d="M 143.6527,106.5196
143.6450,106.5585
143.6229,106.5914
143.5900,106.6135
143.5511,106.6212
142.4511,106.6212
142.4122,106.6135
142.3793,106.5914
142.3572,106.5585
142.3495,106.5196
142.3495,105.5196
142.3572,105.4807
142.3793,105.4478
142.4122,105.4257
142.4511,105.4180
143.5511,105.4180
143.5900,105.4257
143.6229,105.4478
143.6450,105.4807
143.6527,105.5196
Z" /> 
<path style="fill:#D864FF; fill-opacity:0.4000; 
stroke:#D864FF; stroke-width:0.0000; stroke-opacity:1; 
stroke-linecap:round; stroke-linejoin:round;fill-rule:evenodd;"
d="M 141.9527,106.5196
141.9450,106.5585
141.9229,106.5914
141.8900,106.6135
141.8511,106.6212
140.7511,106.6212
140.7122,106.6135
140.6793,106.5914
140.6572,106.5585
140.6495,106.5196
140.6495,105.5196
140.6572,105.4807
140.6793,105.4478
140.7122,105.4257
140.7511,105.4180
141.8511,105.4180
141.8900,105.4257
141.9229,105.4478
141.9450,105.4807
141.9527,105.5196
Z" /> 
</g>
<g >
</g>
<g style="fill:#D864FF; fill-opacity:0.4000; 
stroke:#D864FF; stroke-width:0.0000; stroke-opacity:1; 
stroke-linecap:round; stroke-linejoin:round;">
<path style="fill:#D864FF; fill-opacity:0.4000; 
stroke:#D864FF; stroke-width:0.0000; stroke-opacity:1; 
stroke-linecap:round; stroke-linejoin:round;fill-rule:evenodd;"
d="M 143.6527,102.4556
143.6450,102.4945
143.6229,102.5274
143.5900,102.5495
143.5511,102.5572
142.4511,102.5572
142.4122,102.5495
142.3793,102.5274
142.3572,102.4945
142.3495,102.4556
142.3495,101.4556
142.3572,101.4167
142.3793,101.3838
142.4122,101.3617
142.4511,101.3540
143.5511,101.3540
143.5900,101.3617
143.6229,101.3838
143.6450,101.4167
143.6527,101.4556
Z" /> 
<path style="fill:#D864FF; fill-opacity:0.4000; 
stroke:#D864FF; stroke-width:0.0000; stroke-opacity:1; 
stroke-linecap:round; stroke-linejoin:round;fill-rule:evenodd;"
d="M 141.9527,102.4556
141.9450,102.4945
141.9229,102.5274
141.8900,102.5495
141.8511,102.5572
140.7511,102.5572
140.7122,102.5495
140.6793,102.5274
140.6572,102.4945
140.6495,102.4556
140.6495,101.4556
140.6572,101.4167
140.6793,101.3838
140.7122,101.3617
140.7511,101.3540
141.8511,101.3540
141.8900,101.3617
141.9229,101.3838
141.9450,101.4167
141.9527,101.4556
Z" /> 
</g>
<g >
</g>
<g style="fill:#D864FF; fill-opacity:0.4000; 
stroke:#D864FF; stroke-width:0.0000; stroke-opacity:1; 
stroke-linecap:round; stroke-linejoin:round;">
<circle cx="157.3911" cy="105.0036" r="1.6510" /> 
</g>
<g style="fill:#D864FF; fill-opacity:0.4000; 
stroke:#D864FF; stroke-width:0.0212; stroke-opacity:1; 
stroke-linecap:round; stroke-linejoin:round;">
</g>
<g >
</g>
<g style="fill:#D864FF; fill-opacity:0.4000; 
stroke:#D864FF; stroke-width:0.0212; stroke-opacity:1; 
stroke-linecap:round; stroke-linejoin:round;">
</g>
<g style="fill:#D864FF; fill-opacity:0.4000; 
stroke:#D864FF; stroke-width:0.0000; stroke-opacity:1; 
stroke-linecap:round; stroke-linejoin:round;">
<path style="fill:#D864FF; fill-opacity:0.4000; 
stroke:#D864FF; stroke-width:0.0000; stroke-opacity:1; 
stroke-linecap:round; stroke-linejoin:round;fill-rule:evenodd;"
d="M 158.2420,101.1936
158.2625,101.0641
158.3220,100.9473
158.4148,100.8545
158.5316,100.7950
158.6611,100.7745
158.7906,100.7950
158.9074,100.8545
159.0002,100.9473
159.0597,101.0641
159.0802,101.1936
159.0597,101.3231
159.0002,101.4399
158.9074,101.5327
158.7906,101.5922
158.6611,101.6127
158.5316,101.5922
158.4148,101.5327
158.3220,101.4399
158.2625,101.3231
158.2420,101.1936
Z" /> 
</g>
<g >
</g>
<g >
</g>
<g >
</g>
<g >
</g>
<g >
</g>
<g >
</g>
<g >
</g>
</g>
<g style="fill:#000000; fill-opacity:1.0000; 
stroke:#000000; stroke-width:0.0000; stroke-opacity:1; 
stroke-linecap:round; stroke-linejoin:round;">
</g>
<g style="fill:#D0D2CD; fill-opacity:1.0000; 
stroke:#D0D2CD; stroke-width:0.0000; stroke-opacity:1; 
stroke-linecap:round; stroke-linejoin:round;">
</g>
<g style="fill:#D0D2CD; fill-opacity:1.0000; 
stroke:#D0D2CD; stroke-width:0.2032; stroke-opacity:1; 
stroke-linecap:round; stroke-linejoin:round;">
</g>
<g style="fill:#D0D2CD; fill-opacity:0.0; 
stroke:#D0D2CD; stroke-width:0.2032; stroke-opacity:1; 
stroke-linecap:round; stroke-linejoin:round;">
<path d="M137.0711 99.9236
L137.0711 110.0836
" />
<path d="M159.9311 110.0836
L159.9311 99.9236
" />
<path d="M159.9311 99.9236
L137.0711 99.9236
" />
<path d="M137.0711 110.0836
L159.9311 110.0836
" />
<g >
</g>
<g >
</g>
<g >
</g>
<g >
</g>
<g >
</g>
<g >
</g>
<g >
</g>
<g >
</g>
<g >
</g>
<g >
</g>
<g >
</g>
<g >
</g>
<g >
</g>
<g >
</g>
<g >
</g>
<g >
</g>
<g >
</g>
<g >
</g>
<g >
</g>
<g >
</g>
<g >
</g>
</g> 
</svg>
